<svg width="361" height="269" viewBox="0 0 361 269" fill="none" xmlns="http://www.w3.org/2000/svg">
<path d="M229.602 16.8599H0V160.168H229.602V16.8599Z" fill="#E6E6E6"/>
<path d="M57.4481 44.4678H15.3965V71.865H57.4481V44.4678Z" fill="white"/>
<path d="M109.7 44.4678H67.6484V71.865H109.7V44.4678Z" fill="white"/>
<path d="M161.953 44.4678H119.901V71.865H161.953V44.4678Z" fill="white"/>
<path d="M214.205 44.4678H172.153V71.865H214.205V44.4678Z" fill="white"/>
<path d="M57.4481 83.2454H15.3965V110.643H57.4481V83.2454Z" fill="white"/>
<path d="M109.7 83.2454H67.6484V110.643H109.7V83.2454Z" fill="white"/>
<path d="M161.953 83.2454H119.901V110.643H161.953V83.2454Z" fill="white"/>
<path d="M214.205 83.2454H172.153V110.643H214.205V83.2454Z" fill="white"/>
<path d="M57.4481 122.023H15.3965V149.42H57.4481V122.023Z" fill="white"/>
<path d="M109.7 122.023H67.6484V149.42H109.7V122.023Z" fill="white"/>
<path d="M161.953 122.023H119.901V149.42H161.953V122.023Z" fill="white"/>
<path d="M214.205 122.023H172.153V149.42H214.205V122.023Z" fill="white"/>
<path d="M60.1339 33.7197C63.6176 33.7197 66.4416 30.8891 66.4416 27.3973C66.4416 23.9055 63.6176 21.0748 60.1339 21.0748C56.6502 21.0748 53.8262 23.9055 53.8262 27.3973C53.8262 30.8891 56.6502 33.7197 60.1339 33.7197Z" fill="white"/>
<path d="M164.422 33.7197C167.906 33.7197 170.73 30.889 170.73 27.3973C170.73 23.9055 167.906 21.0748 164.422 21.0748C160.938 21.0748 158.114 23.9055 158.114 27.3973C158.114 30.889 160.938 33.7197 164.422 33.7197Z" fill="white"/>
<path d="M62.6565 0H57.6104V29.0832H62.6565V0Z" fill="#E6E6E6"/>
<path d="M166.945 0H161.898V29.0832H166.945V0Z" fill="#E6E6E6"/>
<path d="M202.689 58.1664C202.687 60.4553 201.861 62.6666 200.362 64.3939C198.864 66.1212 196.794 67.2485 194.533 67.5687C192.272 67.8889 189.971 67.3804 188.054 66.1367C186.137 64.893 184.732 62.9977 184.097 60.7989C183.463 58.6002 183.641 56.2457 184.599 54.1681C185.558 52.0905 187.232 50.4294 189.314 49.49C191.397 48.5506 193.748 48.396 195.935 49.0545C198.122 49.7131 199.998 51.1406 201.219 53.0748C202.181 54.598 202.691 56.3639 202.689 58.1664Z" fill="#4535AF"/>
<path d="M201.219 53.0748L191.858 62.4556C191.27 61.5427 187.992 57.2999 187.992 57.2999C188.412 56.8744 188.86 56.4778 189.334 56.1128L192.052 59.7452L200.123 51.6555C200.532 52.0929 200.899 52.5681 201.219 53.0748Z" fill="white"/>
<path d="M98.1841 96.944C98.1819 99.233 97.3557 101.444 95.8573 103.172C94.3589 104.899 92.289 106.026 90.0278 106.346C87.7666 106.666 85.4662 106.158 83.549 104.914C81.6319 103.671 80.227 101.775 79.5923 99.5765C78.9577 97.3777 79.136 95.0233 80.0944 92.9457C81.0529 90.8681 82.7271 89.207 84.8096 88.2676C86.892 87.3282 89.2427 87.1736 91.4297 87.8322C93.6168 88.4907 95.4933 89.9182 96.7144 91.8524C97.6761 93.3756 98.1858 95.1415 98.1841 96.944Z" fill="#4535AF"/>
<path d="M96.714 91.8525L87.3533 101.233C86.765 100.32 83.4873 96.0775 83.4873 96.0775C83.9074 95.652 84.3556 95.2554 84.829 94.8904L87.5469 98.5228L95.6178 90.4331C96.0271 90.8705 96.3942 91.3457 96.714 91.8525Z" fill="white"/>
<path d="M45.9322 96.9441C45.93 99.233 45.1039 101.444 43.6055 103.172C42.1071 104.899 40.0371 106.026 37.7759 106.346C35.5147 106.667 33.2142 106.158 31.2971 104.914C29.38 103.671 27.975 101.775 27.3404 99.5766C26.7057 97.3778 26.884 95.0233 27.8425 92.9457C28.8009 90.8682 30.4752 89.207 32.5577 88.2676C34.6401 87.3282 36.9908 87.1736 39.1779 87.8322C41.3649 88.4907 43.2414 89.9183 44.4626 91.8525C45.4242 93.3757 45.9339 95.1415 45.9322 96.9441Z" fill="#4535AF"/>
<path d="M44.462 91.8525L35.1013 101.233C34.513 100.32 31.2354 96.0775 31.2354 96.0775C31.6554 95.652 32.1037 95.2554 32.577 94.8904L35.295 98.5228L43.3659 90.4331C43.7752 90.8705 44.1422 91.3457 44.462 91.8525Z" fill="white"/>
<path d="M304.803 191.697C304.429 191.283 304.151 190.792 303.987 190.258C303.823 189.724 303.777 189.161 303.854 188.608C303.931 188.055 304.128 187.525 304.431 187.056C304.734 186.588 305.135 186.191 305.608 185.895L302.586 172.663L309.178 175.134L311.037 187.321C311.48 188.15 311.606 189.112 311.388 190.027C311.171 190.942 310.627 191.745 309.859 192.284C309.09 192.824 308.151 193.062 307.22 192.953C306.288 192.845 305.428 192.398 304.803 191.697Z" fill="#FFB8B8"/>
<path d="M304.346 181.195L298.552 169.966L299.335 141.69L299.708 142.477C300.142 143.393 310.309 164.967 309.584 172.189L310.746 178.789L304.346 181.195Z" fill="#3F3D56"/>
<path d="M300.568 264.181H305.215L307.425 246.217L300.567 246.217L300.568 264.181Z" fill="#FFB8B8"/>
<path d="M299.384 262.66L308.534 262.66H308.535C310.081 262.66 311.564 263.276 312.658 264.372C313.752 265.468 314.366 266.954 314.366 268.505V268.694L299.384 268.695L299.384 262.66Z" fill="#2F2E41"/>
<path d="M254.659 260.641L259.136 261.889L266.067 245.176L259.46 243.334L254.659 260.641Z" fill="#FFB8B8"/>
<path d="M253.924 258.858L262.739 261.315L262.74 261.315C264.23 261.731 265.494 262.722 266.255 264.072C267.015 265.421 267.21 267.019 266.796 268.512L266.745 268.695L252.311 264.672L253.924 258.858Z" fill="#2F2E41"/>
<path d="M295.936 257.178L286.558 189.88L266.305 256.797L250.38 251.346L273.204 161.742L273.355 161.732L297.265 160.065L314.54 251.738L295.936 257.178Z" fill="#2F2E41"/>
<path d="M293.456 130.03C293.456 130.03 284.739 125.472 272.99 127.371C272.99 127.371 266.737 142.493 272.99 148.513L274.696 163.65C274.696 163.65 290.613 173.147 295.919 162.13L295.161 149.594C295.161 149.594 298.951 143.582 295.919 139.18C294.102 136.492 293.235 133.271 293.456 130.03Z" fill="#4535AF"/>
<path d="M294.561 198.88L296.091 167.058L291.761 129.203L291.96 129.173C297.64 128.315 299.461 138.123 299.536 138.541L309.423 194.568L294.561 198.88Z" fill="#3F3D56"/>
<path d="M275.285 199.212L257.808 197.265L257.812 197.074C257.874 194.48 259.378 133.502 263.594 129.184C267.834 124.839 275.835 126.719 276.174 126.802L276.342 126.843L274.904 152.645L275.285 199.212Z" fill="#3F3D56"/>
<path d="M278.504 162.767C277.975 162.941 277.414 162.997 276.861 162.93C276.308 162.863 275.776 162.676 275.303 162.381C274.83 162.086 274.427 161.69 274.123 161.222C273.819 160.754 273.621 160.225 273.543 159.672L260.252 157.062L265.184 152.03L277.049 155.28C277.984 155.21 278.913 155.487 279.658 156.057C280.404 156.628 280.915 157.452 281.094 158.375C281.274 159.298 281.109 160.255 280.632 161.064C280.154 161.874 279.397 162.479 278.504 162.767Z" fill="#FFB8B8"/>
<path d="M271.412 159.712L267.082 158.779C260.689 160.706 249.529 153.921 245.019 150.908C244.17 150.341 243.895 149.217 244.201 147.569C244.652 145.263 245.92 143.199 247.771 141.757L263.655 129.133L267.665 128.461L268.855 135.225L258.735 146.12L273.633 154.248L271.412 159.712Z" fill="#3F3D56"/>
<path d="M269.699 121.645V112.874C269.699 109.163 271.17 105.604 273.788 102.98C276.406 100.356 279.956 98.8819 283.659 98.8819C287.361 98.8819 290.912 100.356 293.53 102.98C296.147 105.604 297.618 109.163 297.618 112.874V121.645C297.618 122.143 297.42 122.621 297.068 122.973C296.717 123.326 296.24 123.524 295.743 123.524H271.574C271.077 123.524 270.601 123.326 270.249 122.973C269.898 122.621 269.7 122.143 269.699 121.645Z" fill="#2F2E41"/>
<path d="M283.098 123.438C288.75 123.438 293.332 118.845 293.332 113.18C293.332 107.514 288.75 102.921 283.098 102.921C277.445 102.921 272.863 107.514 272.863 113.18C272.863 118.845 277.445 123.438 283.098 123.438Z" fill="#FFB8B8"/>
<path d="M272.583 113.14C272.485 113.027 272.412 112.894 272.37 112.751C272.328 112.607 272.317 112.456 272.339 112.308L273.551 103.846C273.575 103.674 273.642 103.51 273.745 103.37C273.847 103.23 273.984 103.118 274.141 103.044C280.329 100.141 286.604 100.138 292.792 103.033C292.956 103.111 293.097 103.231 293.202 103.38C293.306 103.529 293.37 103.702 293.387 103.884L294.197 112.357C294.211 112.502 294.194 112.648 294.148 112.786C294.102 112.924 294.028 113.051 293.931 113.159C293.833 113.266 293.714 113.352 293.581 113.411C293.448 113.47 293.305 113.5 293.16 113.5H291.107C290.909 113.5 290.715 113.443 290.548 113.336C290.381 113.23 290.247 113.078 290.163 112.898L289.277 110.996C289.22 110.872 289.124 110.771 289.005 110.707C288.885 110.644 288.748 110.62 288.614 110.642C288.48 110.663 288.356 110.727 288.262 110.825C288.168 110.922 288.108 111.048 288.091 111.183L287.916 112.585C287.884 112.838 287.761 113.07 287.571 113.239C287.381 113.407 287.136 113.5 286.882 113.5H273.37C273.221 113.5 273.073 113.468 272.937 113.406C272.801 113.344 272.68 113.253 272.583 113.14Z" fill="#2F2E41"/>
<path d="M360.584 269H201.821C201.71 269 201.604 268.956 201.526 268.878C201.448 268.799 201.404 268.693 201.404 268.582C201.404 268.472 201.448 268.365 201.526 268.287C201.604 268.209 201.71 268.165 201.821 268.165H360.584C360.694 268.165 360.8 268.209 360.878 268.287C360.956 268.365 361 268.472 361 268.582C361 268.693 360.956 268.799 360.878 268.878C360.8 268.956 360.694 269 360.584 269Z" fill="#3F3D56"/>
</svg>
