<svg width="473" height="259" viewBox="0 0 473 259" fill="none" xmlns="http://www.w3.org/2000/svg">
<g clip-path="url(#clip0_712_5000)">
<path d="M454.222 248.117C441.31 257.436 424.578 257.904 408.405 256.759C406.146 256.6 403.904 256.412 401.682 256.21C401.669 256.207 401.651 256.208 401.637 256.204C401.531 256.194 401.424 256.184 401.321 256.178C400.863 256.135 400.404 256.092 399.95 256.049L400.057 256.254L400.394 256.89C400.273 256.677 400.152 256.469 400.031 256.256C399.995 256.192 399.955 256.128 399.92 256.064C395.73 248.759 391.575 241.185 390.515 232.843C389.419 224.185 392.498 214.381 400.104 210.125C401.101 209.569 402.158 209.125 403.253 208.804C403.708 208.665 404.169 208.553 404.635 208.453C407.488 207.819 410.457 207.957 413.239 208.853C416.02 209.75 418.513 211.373 420.461 213.554C422.41 215.736 423.742 218.399 424.323 221.268C424.904 224.137 424.711 227.109 423.766 229.879C430.214 223.255 429.011 212.507 426.787 203.525C424.558 194.544 421.86 184.549 426.393 176.482C428.913 171.991 433.344 169.205 438.316 168.083C438.469 168.05 438.621 168.017 438.774 167.988C444.699 166.786 450.858 167.867 456.022 171.017C465.53 177.02 470.414 188.402 471.999 199.553C474.552 217.495 468.901 237.52 454.222 248.117Z" fill="#F1F1F1"/>
<path d="M450.053 219.354C449.678 223.312 448.729 227.193 447.236 230.877C445.86 234.136 444.006 237.171 441.734 239.881C437.094 245.475 430.958 249.68 424.294 252.482C419.198 254.572 413.86 256.01 408.405 256.759C406.146 256.6 403.904 256.412 401.682 256.21C401.669 256.207 401.651 256.208 401.637 256.204C401.531 256.194 401.424 256.184 401.321 256.178C400.863 256.135 400.404 256.092 399.95 256.049L400.057 256.254L400.394 256.89C400.273 256.677 400.152 256.469 400.031 256.256C399.995 256.192 399.955 256.128 399.92 256.064C404.01 251.981 407.063 246.976 408.825 241.468C410.586 235.959 411.004 230.108 410.044 224.404C409.039 218.74 406.712 213.395 403.253 208.804C403.708 208.665 404.169 208.553 404.635 208.453C405.95 210.254 407.103 212.167 408.081 214.171C411.59 221.318 412.71 229.407 411.274 237.241C409.939 244.33 406.613 250.891 401.687 256.152C402.118 256.122 402.554 256.086 402.98 256.047C411.053 255.362 419.11 253.623 426.433 250.061C432.692 247.09 438.126 242.623 442.256 237.052C446.691 230.924 448.645 223.553 448.981 216.061C449.337 208.04 448.298 199.879 446.471 192.079C444.606 184.082 441.771 176.345 438.029 169.038C437.946 168.873 437.929 168.681 437.982 168.503C438.036 168.325 438.155 168.175 438.316 168.083C438.45 167.992 438.615 167.958 438.774 167.988C438.852 168.009 438.924 168.047 438.985 168.1C439.046 168.152 439.095 168.218 439.127 168.292C439.589 169.194 440.042 170.097 440.477 171.011C444.106 178.618 446.778 186.647 448.431 194.914C450.036 202.89 450.893 211.233 450.053 219.354Z" fill="white"/>
<path d="M286.336 259H472.511C472.641 259 472.765 258.948 472.857 258.857C472.949 258.765 473 258.64 473 258.51C473 258.381 472.949 258.256 472.857 258.164C472.765 258.072 472.641 258.021 472.511 258.021H286.336C286.206 258.021 286.082 258.072 285.99 258.164C285.898 258.256 285.847 258.381 285.847 258.51C285.847 258.64 285.898 258.765 285.99 258.857C286.082 258.948 286.206 259 286.336 259Z" fill="#CBCBCB"/>
<path d="M342.222 127.526L350.641 86.1955L354.339 55.6691L362.531 60.9794L361.4 94.6195L348.323 129.474C348.744 130.276 348.916 131.185 348.82 132.086C348.723 132.986 348.361 133.838 347.78 134.532C347.199 135.226 346.425 135.731 345.557 135.983C344.689 136.235 343.765 136.223 342.904 135.948C342.042 135.673 341.282 135.147 340.719 134.438C340.157 133.729 339.818 132.869 339.745 131.966C339.672 131.063 339.868 130.159 340.309 129.368C340.751 128.577 341.417 127.936 342.222 127.526Z" fill="#FFB7B7"/>
<path d="M420.957 130.721L418.627 88.604L419.399 57.8633L408.568 61.9234L406.76 95.3709L414.638 131.76C414.106 132.492 413.803 133.367 413.768 134.272C413.733 135.177 413.968 136.072 414.442 136.843C414.916 137.615 415.608 138.227 416.431 138.603C417.253 138.979 418.169 139.102 419.061 138.955C419.953 138.808 420.781 138.399 421.441 137.78C422.1 137.16 422.561 136.358 422.764 135.475C422.967 134.593 422.904 133.669 422.582 132.823C422.261 131.976 421.695 131.245 420.957 130.721Z" fill="#FFB7B7"/>
<path d="M398.273 253.172L392.739 253.171L390.107 231.783L398.274 231.784L398.273 253.172Z" fill="#FFB7B7"/>
<path d="M399.685 251.361L388.786 251.361C386.944 251.361 385.177 252.094 383.874 253.399C382.572 254.704 381.84 256.474 381.84 258.32V258.546L399.684 258.547L399.685 251.361Z" fill="#2F2E41"/>
<path d="M377.312 250.718L371.843 251.565L365.977 230.833L374.048 229.582L377.312 250.718Z" fill="#FFB7B7"/>
<path d="M378.43 248.713L367.659 250.382C365.839 250.664 364.205 251.66 363.117 253.149C362.029 254.638 361.575 256.499 361.857 258.323L361.891 258.547L379.526 255.814L378.43 248.713Z" fill="#2F2E41"/>
<path d="M399.899 246.786L399.927 246.631L419.962 138.098C421.553 129.385 420.284 120.39 416.346 112.46L404.22 88.1601L368.036 93.0717L363.766 124.009L348.548 183.027L348.564 183.075L368.061 245.128L380.839 245.97L369.52 190.579L390.246 143.412L388.784 245.942L399.899 246.786Z" fill="#2F2E41"/>
<path d="M367.194 97.031L367.433 96.6561C367.476 96.5885 371.871 89.9537 383.831 94.3836C396.041 98.9068 405.502 90.1707 405.596 90.082L405.643 90.0378L408.408 65.3445L411.672 45.2984L401.281 43.4718L396.173 40.401L375.859 40.0386L370.513 44.2512L361.737 45.2095L360.934 63.4751L360.937 63.495L367.194 97.031Z" fill="#4535AF"/>
<path d="M364.283 65.2418V49.6015L361.815 45.0887L361.715 45.0856C359.772 45.1582 357.936 45.9941 356.603 47.4126C354.121 49.9397 352.996 54.15 353.261 59.9265L353.266 60.0322L364.283 65.2418Z" fill="#4535AF"/>
<path d="M407.3 63.5418L419.879 62.0293L419.889 61.8841C420.318 55.5992 419.223 50.9338 416.635 48.0179C414.285 45.3716 411.594 45.2113 411.48 45.2058L411.408 45.2024L408.002 48.3039L407.3 63.5418Z" fill="#4535AF"/>
<path d="M370.886 33.7365H403.987C404.667 33.7357 405.32 33.4644 405.802 32.982C406.283 32.4996 406.554 31.8456 406.555 31.1634V19.1555C406.555 14.0751 404.54 9.20285 400.955 5.6105C397.37 2.01816 392.507 0 387.437 0C382.366 0 377.503 2.01816 373.918 5.6105C370.333 9.20285 368.318 14.0751 368.318 19.1555V31.1634C368.319 31.8456 368.59 32.4996 369.071 32.982C369.553 33.4644 370.206 33.7357 370.886 33.7365Z" fill="#2F2E41"/>
<path d="M374.369 26.3106C370.656 19.5047 373.152 10.9715 379.945 7.25111C386.737 3.53071 395.254 6.03195 398.967 12.8378C402.68 19.6436 400.184 28.1768 393.391 31.8972C386.599 35.6177 378.082 33.1164 374.369 26.3106Z" fill="#FFB7B7"/>
<path d="M373.345 20.0132H391.851C392.198 20.0127 392.534 19.8853 392.795 19.6547C393.055 19.4241 393.223 19.1063 393.266 18.7607L393.506 16.8403C393.529 16.6557 393.611 16.4835 393.741 16.3499C393.87 16.2162 394.039 16.1282 394.222 16.0993C394.406 16.0704 394.594 16.102 394.758 16.1894C394.922 16.2769 395.053 16.4154 395.131 16.584L396.344 19.1884C396.46 19.4345 396.643 19.6426 396.871 19.7886C397.1 19.9346 397.366 20.0125 397.637 20.0132H400.448C400.647 20.0132 400.844 19.9716 401.026 19.891C401.207 19.8104 401.37 19.6926 401.504 19.5452C401.638 19.3978 401.739 19.224 401.802 19.0349C401.865 18.8458 401.887 18.6457 401.868 18.4474L400.76 6.8477C400.736 6.59953 400.649 6.36179 400.506 6.15771C400.363 5.95363 400.17 5.79021 399.945 5.68343C391.47 1.71933 382.876 1.72435 374.401 5.69851C374.186 5.79975 373.999 5.9531 373.858 6.14469C373.717 6.33628 373.626 6.56005 373.593 6.79577L371.933 18.3804C371.904 18.5832 371.919 18.79 371.976 18.9866C372.034 19.1832 372.133 19.3651 372.267 19.52C372.401 19.6749 372.566 19.799 372.752 19.8841C372.938 19.9692 373.141 20.0132 373.345 20.0132Z" fill="#2F2E41"/>
<path d="M342.179 130.165L342.87 129.473L312.837 99.3806H254.635L225.269 69.3508H167.819L138.834 40.0833H3.90952V41.0625H138.427L167.412 70.33H224.859L254.224 100.36H312.432L342.179 130.165Z" fill="#3F3D56"/>
<path d="M224.29 88.1285C214.305 88.1285 206.21 80.018 206.21 70.0132C206.21 60.0084 214.305 51.8979 224.29 51.8979C234.275 51.8979 242.37 60.0084 242.37 70.0132C242.37 80.018 234.275 88.1285 224.29 88.1285Z" fill="white"/>
<path d="M138.288 45.5331C135.59 45.5331 133.402 43.3411 133.402 40.6371C133.402 37.933 135.59 35.741 138.288 35.741C140.987 35.741 143.175 37.933 143.175 40.6371C143.175 43.3411 140.987 45.5331 138.288 45.5331Z" fill="#CBCBCB"/>
<path d="M4.88693 45.5331C2.18819 45.5331 0.000431061 43.3411 0.000431061 40.6371C0.000431061 37.933 2.18819 35.741 4.88693 35.741C7.58568 35.741 9.77344 37.933 9.77344 40.6371C9.77344 43.3411 7.58568 45.5331 4.88693 45.5331Z" fill="#CBCBCB"/>
<path d="M71.343 45.5331C68.6442 45.5331 66.4565 43.3411 66.4565 40.6371C66.4565 37.933 68.6442 35.741 71.343 35.741C74.0417 35.741 76.2295 37.933 76.2295 40.6371C76.2295 43.3411 74.0417 45.5331 71.343 45.5331Z" fill="#CBCBCB"/>
<path d="M224.291 88.6182C227.963 88.6182 231.553 87.527 234.607 85.4827C237.66 83.4383 240.04 80.5326 241.446 77.133C242.851 73.7334 243.219 69.9926 242.503 66.3836C241.786 62.7746 240.018 59.4595 237.421 56.8576C234.824 54.2556 231.515 52.4837 227.913 51.7658C224.311 51.0479 220.578 51.4164 217.185 52.8245C213.792 54.2327 210.892 56.6173 208.851 59.6769C206.811 62.7365 205.722 66.3335 205.722 70.0132C205.728 74.9459 207.686 79.6748 211.167 83.1627C214.648 86.6506 219.368 88.6126 224.291 88.6182ZM224.291 52.3875C227.77 52.3875 231.171 53.4213 234.064 55.358C236.957 57.2947 239.212 60.0475 240.543 63.2682C241.874 66.4888 242.223 70.0328 241.544 73.4518C240.865 76.8709 239.19 80.0115 236.73 82.4765C234.269 84.9415 231.135 86.6202 227.723 87.3003C224.31 87.9804 220.773 87.6313 217.559 86.2973C214.344 84.9632 211.597 82.7041 209.664 79.8056C207.731 76.907 206.699 73.4993 206.699 70.0132C206.705 65.3402 208.56 60.8601 211.857 57.5558C215.155 54.2515 219.627 52.3928 224.291 52.3875Z" fill="#3F3D56"/>
<path d="M224.291 82.9565C217.156 82.9565 211.373 77.1616 211.373 70.0132C211.373 62.8648 217.156 57.0699 224.291 57.0699C231.425 57.0699 237.209 62.8648 237.209 70.0132C237.209 77.1616 231.425 82.9565 224.291 82.9565Z" fill="#4535AF"/>
<path d="M225.521 75.4772L229.388 70.496L227.139 68.7437L225.308 71.1021L219.124 64.5605L217.056 66.5238L225.521 75.4772Z" fill="white"/>
<path d="M313.225 117.994C303.239 117.994 295.145 109.884 295.145 99.879C295.145 89.8742 303.239 81.7637 313.225 81.7637C323.21 81.7637 331.305 89.8742 331.305 99.879C331.305 109.884 323.21 117.994 313.225 117.994Z" fill="white"/>
<path d="M313.225 118.484C316.898 118.484 320.488 117.393 323.541 115.348C326.595 113.304 328.975 110.398 330.38 106.999C331.786 103.599 332.154 99.8584 331.437 96.2494C330.721 92.6404 328.952 89.3253 326.355 86.7234C323.758 84.1214 320.45 82.3495 316.848 81.6316C313.246 80.9137 309.512 81.2822 306.119 82.6903C302.726 84.0985 299.826 86.4831 297.786 89.5427C295.746 92.6023 294.657 96.1993 294.657 99.879C294.662 104.812 296.62 109.541 300.101 113.029C303.582 116.516 308.302 118.478 313.225 118.484ZM313.225 82.2533C316.704 82.2533 320.106 83.2871 322.998 85.2238C325.891 87.1605 328.146 89.9133 329.478 93.134C330.809 96.3546 331.157 99.8986 330.479 103.318C329.8 106.737 328.124 109.877 325.664 112.342C323.204 114.807 320.07 116.486 316.657 117.166C313.245 117.846 309.708 117.497 306.493 116.163C303.279 114.829 300.531 112.57 298.598 109.671C296.666 106.773 295.634 103.365 295.634 99.879C295.639 95.206 297.494 90.7259 300.792 87.4216C304.09 84.1173 308.561 82.2586 313.225 82.2533Z" fill="#3F3D56"/>
<path d="M313.224 112.822C306.09 112.822 300.306 107.027 300.306 99.879C300.306 92.7306 306.09 86.9357 313.224 86.9357C320.359 86.9357 326.143 92.7306 326.143 99.879C326.143 107.027 320.359 112.822 313.224 112.822Z" fill="#4535AF"/>
<path d="M314.456 105.343L318.322 100.362L316.074 98.6095L314.243 100.968L308.059 94.4263L305.991 96.3896L314.456 105.343Z" fill="white"/>
</g>
<defs>
<clipPath id="clip0_712_5000">
<rect width="473" height="259" fill="white" transform="matrix(-1 0 0 1 473 0)"/>
</clipPath>
</defs>
</svg>
