<svg width="415" height="263" viewBox="0 0 415 263" fill="none" xmlns="http://www.w3.org/2000/svg">
<g clip-path="url(#clip0_712_4799)">
<path d="M398.002 254.733C396.152 257.227 393.857 259.36 391.234 261.023C390.676 261.377 390.103 261.71 389.52 262.019H375.808C375.972 261.69 376.132 261.357 376.286 261.023C380.538 252.053 381.871 241.975 380.099 232.208C378.326 222.441 373.537 213.475 366.404 206.57C374.692 209.129 382.353 214.12 387.364 221.196C389.798 224.643 391.53 228.535 392.459 232.651C393.287 224.42 391.971 216.114 388.639 208.542C395.368 214.015 400.608 221.51 402.605 229.947C404.602 238.388 403.153 247.756 398.002 254.733Z" fill="#F0F0F0"/>
<path d="M290.665 7.96442H0.124023V145.814H290.665V7.96442Z" fill="#E6E6E6"/>
<path d="M282.356 19.7853H8.43164V134.798H282.356V19.7853Z" fill="white"/>
<path d="M290.541 0H0V12.3415H290.541V0Z" fill="#4535AF"/>
<path d="M9.1725 7.99599C10.436 7.99599 11.4602 6.97186 11.4602 5.70854C11.4602 4.44521 10.436 3.42108 9.1725 3.42108C7.90902 3.42108 6.88477 4.44521 6.88477 5.70854C6.88477 6.97186 7.90902 7.99599 9.1725 7.99599Z" fill="white"/>
<path d="M17.8561 7.99599C19.1196 7.99599 20.1438 6.97186 20.1438 5.70854C20.1438 4.44521 19.1196 3.42108 17.8561 3.42108C16.5926 3.42108 15.5684 4.44521 15.5684 5.70854C15.5684 6.97186 16.5926 7.99599 17.8561 7.99599Z" fill="white"/>
<path d="M26.5397 7.99599C27.8032 7.99599 28.8274 6.97186 28.8274 5.70854C28.8274 4.44521 27.8032 3.42108 26.5397 3.42108C25.2762 3.42108 24.252 4.44521 24.252 5.70854C24.252 6.97186 25.2762 7.99599 26.5397 7.99599Z" fill="white"/>
<path d="M215.432 43.8042H75.5833C74.563 43.8042 73.5845 44.2095 72.8631 44.9308C72.1416 45.6522 71.7363 46.6306 71.7363 47.6507C71.7363 48.6709 72.1416 49.6492 72.8631 50.3706C73.5845 51.092 74.563 51.4972 75.5833 51.4972H215.432C216.452 51.4972 217.431 51.092 218.152 50.3706C218.874 49.6492 219.279 48.6709 219.279 47.6507C219.279 46.6306 218.874 45.6522 218.152 44.9308C217.431 44.2095 216.452 43.8042 215.432 43.8042Z" fill="#E4E4E4"/>
<path d="M215.432 73.4449H75.5833C74.563 73.4449 73.5845 73.8502 72.8631 74.5715C72.1416 75.2929 71.7363 76.2713 71.7363 77.2914C71.7363 78.3116 72.1416 79.2899 72.8631 80.0113C73.5845 80.7327 74.563 81.1379 75.5833 81.1379H215.432C216.452 81.1368 217.429 80.731 218.15 80.0098C218.87 79.2885 219.275 78.3108 219.275 77.2914C219.275 76.272 218.87 75.2943 218.15 74.5731C217.429 73.8518 216.452 73.4461 215.432 73.4449Z" fill="#E4E4E4"/>
<path d="M215.432 103.086H75.5833C74.563 103.086 73.5845 103.491 72.8631 104.212C72.1416 104.934 71.7363 105.912 71.7363 106.932C71.7363 107.952 72.1416 108.931 72.8631 109.652C73.5845 110.373 74.563 110.779 75.5833 110.779H215.432C216.452 110.779 217.431 110.373 218.152 109.652C218.874 108.931 219.279 107.952 219.279 106.932C219.279 105.912 218.874 104.934 218.152 104.212C217.431 103.491 216.452 103.086 215.432 103.086Z" fill="#E4E4E4"/>
<path d="M148.223 51.7235H75.7173C74.6669 51.7386 73.6497 51.3553 72.8707 50.6506C72.0917 49.946 71.6087 48.9723 71.5189 47.9258C71.4794 47.3685 71.5559 46.8091 71.7436 46.2829C71.9313 45.7567 72.2262 45.2752 72.6095 44.8688C72.9909 44.4623 73.4515 44.138 73.9629 43.916C74.4742 43.6941 75.0256 43.579 75.5831 43.5779H140.303C142.403 43.5803 144.416 44.4154 145.901 45.9C147.385 47.3847 148.221 49.3976 148.223 51.4972V51.7235Z" fill="#4535AF"/>
<path d="M185.788 81.3642H75.7173C74.6669 81.3794 73.6497 80.996 72.8707 80.2913C72.0917 79.5867 71.6087 78.613 71.5189 77.5665C71.4794 77.0093 71.5559 76.4499 71.7436 75.9237C71.9313 75.3975 72.2262 74.9159 72.6095 74.5095C72.9909 74.103 73.4515 73.7788 73.9629 73.5568C74.4742 73.3348 75.0256 73.2197 75.5831 73.2186H177.867C179.967 73.221 181.98 74.0562 183.465 75.5408C184.95 77.0254 185.785 79.0383 185.788 81.1379V81.3642Z" fill="#4535AF"/>
<path d="M170.4 111.005H75.7173C74.6669 111.02 73.6497 110.637 72.8707 109.932C72.0917 109.227 71.6087 108.254 71.5189 107.207C71.4794 106.65 71.5559 106.091 71.7436 105.564C71.9313 105.038 72.2262 104.557 72.6095 104.15C72.9909 103.744 73.4515 103.419 73.9629 103.197C74.4742 102.976 75.0256 102.86 75.5831 102.859H162.479C164.579 102.862 166.592 103.697 168.077 105.182C169.562 106.666 170.397 108.679 170.4 110.779V111.005Z" fill="#4535AF"/>
<path d="M287.817 112.163C288.126 112.754 288.561 113.269 289.091 113.674C289.622 114.078 290.234 114.362 290.886 114.504C291.537 114.646 292.212 114.644 292.863 114.497C293.513 114.35 294.124 114.063 294.651 113.655L308.228 122.511L308.186 114.089L295.3 106.969C294.555 106.129 293.529 105.591 292.414 105.457C291.299 105.323 290.174 105.603 289.251 106.243C288.329 106.883 287.674 107.839 287.409 108.93C287.145 110.021 287.29 111.172 287.817 112.163Z" fill="#FFB6B6"/>
<path d="M355.947 256.164H350.123L347.352 233.699L355.948 233.7L355.947 256.164Z" fill="#FFB6B6"/>
<path d="M357.434 261.809L338.652 261.808V261.571C338.652 259.632 339.423 257.773 340.794 256.403C342.165 255.032 344.024 254.262 345.963 254.262L357.434 254.262L357.434 261.809Z" fill="#2F2E41"/>
<path d="M327.131 256.164H321.306L318.535 233.699L327.132 233.7L327.131 256.164Z" fill="#FFB6B6"/>
<path d="M328.616 261.809L309.835 261.808V261.571C309.835 259.632 310.605 257.773 311.976 256.403C313.347 255.032 315.206 254.262 317.145 254.262L328.617 254.262L328.616 261.809Z" fill="#2F2E41"/>
<path d="M320.408 141.532L314.604 199.441L317.506 249.426H328.726L330.994 202.408L339.818 176.697L344.955 216.318V248.578L357.72 249.168L361.956 170.182C361.956 170.182 363.395 148.09 360.523 145.383C357.652 142.676 320.408 141.532 320.408 141.532Z" fill="#2F2E41"/>
<path d="M369.895 89.2791L358.165 84.8636L356.1 80.6779L341.353 80.8921L338.012 84.2484L326.528 88.0097L319.227 143.943C319.227 143.943 341.702 160.004 361.652 148.907L369.895 89.2791Z" fill="#CCCCCC"/>
<path d="M298.099 117.569L317.401 128.916L333.484 107.405V93.9121C333.485 92.665 333.117 91.4456 332.425 90.4081C331.787 89.4494 330.899 88.6831 329.857 88.192C328.815 87.7008 327.659 87.5033 326.513 87.6209C325.368 87.7385 324.276 88.1667 323.356 88.8592C322.435 89.5518 321.722 90.4824 321.292 91.5507L312.939 112.302L301.092 108.802L298.099 117.569Z" fill="#CCCCCC"/>
<path d="M354.189 147.829C354.307 147.173 354.567 146.55 354.951 146.005C355.335 145.46 355.834 145.006 356.413 144.674C356.991 144.343 357.636 144.142 358.3 144.087C358.965 144.031 359.634 144.122 360.259 144.353L370.548 131.827L373.039 139.873L362.887 150.535C362.429 151.56 361.612 152.382 360.589 152.844C359.566 153.307 358.408 153.378 357.336 153.045C356.264 152.711 355.352 151.996 354.772 151.035C354.192 150.073 353.984 148.933 354.189 147.829Z" fill="#FFB6B6"/>
<path d="M369.534 145.857L363.033 139.356L373.77 120.119L358.197 102.667L359.096 95.6258C359.303 94.0049 359.953 92.4723 360.973 91.196C361.861 90.0862 363.001 89.205 364.299 88.6261C365.596 88.0472 367.014 87.7874 368.433 87.8685C369.852 87.9496 371.23 88.3691 372.454 89.0921C373.677 89.8151 374.709 90.8205 375.465 92.0241L387.64 119.094L387.58 119.184L369.534 145.857Z" fill="#CCCCCC"/>
<path d="M359.525 66.1463C359.075 69.4296 357.34 72.3998 354.701 74.4045C352.062 76.4092 348.735 77.2842 345.451 76.8373C342.167 76.3904 339.194 74.6581 337.187 72.0211C335.18 69.3842 334.302 66.0582 334.746 62.7742L334.77 62.5967C335.288 59.3568 337.059 56.4504 339.701 54.5044C342.343 52.5584 345.644 51.7288 348.892 52.1946C352.14 52.6603 355.075 54.3841 357.064 56.994C359.052 59.604 359.935 62.8909 359.522 66.1458L359.525 66.1463Z" fill="#FFB6B6"/>
<path d="M356.343 72.5861C356.985 71.2819 357.645 69.8816 357.464 68.4392C357.284 66.9967 355.869 65.618 354.48 66.0466C353.649 66.303 353.021 67.1232 352.153 67.1652C350.958 67.223 350.273 65.8557 349.901 64.7189L348.386 60.089C346.932 61.2224 345.245 62.0208 343.446 62.4272C341.648 62.8336 339.781 62.838 337.981 62.44C336.575 62.1185 335.154 61.4917 334.329 60.3084C333.504 59.1251 333.509 57.2896 334.64 56.3948C335.195 55.956 335.934 55.7893 336.464 55.3211C336.793 55.0307 337.019 54.6421 337.11 54.2129C337.201 53.7837 337.151 53.3366 336.968 52.9378C336.785 52.539 336.479 52.2098 336.094 51.9987C335.709 51.7877 335.267 51.7061 334.832 51.766L338.646 51.2894L337.51 49.2345C337.942 49.5284 338.43 49.729 338.944 49.8232C339.458 49.9175 339.986 49.9034 340.494 49.7819C341.52 49.5972 342.486 49.1748 343.49 48.8931C345.923 48.2718 348.493 48.4617 350.808 49.4338C353.123 50.4059 355.058 52.1072 356.318 54.279C357.256 53.9657 358.268 53.9448 359.219 54.2193C360.169 54.4937 361.014 55.0505 361.641 55.8158C362.662 57.1115 362.94 58.8405 362.979 60.4894C363.053 63.7408 362.344 66.9623 360.912 69.8822C360.501 70.8096 359.911 71.6467 359.175 72.3453C358.805 72.6916 358.363 72.9527 357.881 73.1103C357.399 73.2679 356.889 73.3182 356.385 73.2576" fill="#2F2E41"/>
<path d="M414.24 263H97.7351C97.563 263.004 97.3944 262.95 97.2557 262.848C97.1171 262.746 97.0161 262.601 96.9685 262.435C96.9388 262.323 96.9354 262.205 96.9584 262.091C96.9815 261.976 97.0304 261.869 97.1015 261.777C97.1725 261.684 97.2638 261.61 97.3684 261.558C97.4729 261.507 97.5878 261.48 97.7043 261.48H414.177C414.359 261.473 414.537 261.529 414.684 261.637C414.83 261.745 414.935 261.899 414.982 262.074C415.007 262.185 415.006 262.301 414.98 262.412C414.955 262.523 414.904 262.626 414.833 262.715C414.762 262.804 414.671 262.876 414.569 262.925C414.466 262.974 414.354 263 414.24 263Z" fill="#CCCCCC"/>
</g>
<defs>
<clipPath id="clip0_712_4799">
<rect width="415" height="263" fill="white"/>
</clipPath>
</defs>
</svg>
