<svg width="312" height="327" viewBox="0 0 312 327" fill="none" xmlns="http://www.w3.org/2000/svg">
<g clip-path="url(#clip0_712_5030)">
<path d="M217.629 39.8899L217.031 40.5183L258.046 79.5997L258.644 78.9713L217.629 39.8899Z" fill="#E6E6E6"/>
<path d="M258.71 74.7335L257.844 74.7859L258.105 79.0556L253.831 79.0042L253.821 79.8721L259.027 79.9339L258.71 74.7335Z" fill="#E6E6E6"/>
<path d="M221.854 39.6168L221.845 40.4847L217.571 40.4333L217.832 44.703L216.966 44.7554L216.649 39.5546L221.854 39.6168Z" fill="#E6E6E6"/>
<path d="M237.838 64.5163C240.471 64.5163 242.605 62.38 242.605 59.7448C242.605 57.1095 240.471 54.9733 237.838 54.9733C235.205 54.9733 233.07 57.1095 233.07 59.7448C233.07 62.38 235.205 64.5163 237.838 64.5163Z" fill="#E6E6E6"/>
<path d="M95.2378 39.8899L54.2227 78.9714L54.8204 79.5998L95.8356 40.5183L95.2378 39.8899Z" fill="#E6E6E6"/>
<path d="M53.8398 79.9339L59.0457 79.8721L59.0359 79.0042L54.7619 79.0556L55.0233 74.7859L54.1572 74.7335L53.8398 79.9339Z" fill="#E6E6E6"/>
<path d="M96.2171 39.5546L95.9002 44.7554L95.0341 44.703L95.295 40.4333L91.021 40.4847L91.0117 39.6168L96.2171 39.5546Z" fill="#E6E6E6"/>
<path d="M75.0293 64.5163C77.6624 64.5163 79.7969 62.38 79.7969 59.7448C79.7969 57.1095 77.6624 54.9733 75.0293 54.9733C72.3962 54.9733 70.2617 57.1095 70.2617 59.7448C70.2617 62.38 72.3962 64.5163 75.0293 64.5163Z" fill="#E6E6E6"/>
<path d="M191.974 98.9008H120.027C118.993 98.8996 118.001 98.4879 117.27 97.7561C116.538 97.0242 116.127 96.0319 116.126 94.9968V3.90398C116.127 2.86894 116.538 1.87664 117.27 1.14475C118.001 0.412871 118.993 0.0011787 120.027 0H191.974C193.008 0.0011787 193.999 0.412871 194.731 1.14475C195.462 1.87664 195.873 2.86894 195.874 3.90398V94.9968C195.873 96.0319 195.462 97.0242 194.731 97.7561C193.999 98.4879 193.008 98.8996 191.974 98.9008ZM120.027 0.867553C119.222 0.868457 118.451 1.18866 117.882 1.7579C117.314 2.32715 116.994 3.09894 116.993 3.90398V94.9968C116.994 95.8019 117.314 96.5737 117.882 97.1429C118.451 97.7122 119.222 98.0324 120.027 98.0333H191.974C192.778 98.0324 193.549 97.7122 194.118 97.1429C194.687 96.5737 195.007 95.8019 195.008 94.9968V3.90398C195.007 3.09894 194.687 2.32715 194.118 1.7579C193.549 1.18866 192.778 0.868457 191.974 0.867553H120.027Z" fill="#3F3D56"/>
<path d="M150.015 43.786H134.178C133.661 43.7855 133.165 43.5796 132.799 43.2137C132.434 42.8477 132.228 42.3516 132.228 41.8341V23.1298C132.228 22.6123 132.434 22.1161 132.799 21.7502C133.165 21.3842 133.661 21.1784 134.178 21.1778H150.015C150.532 21.1784 151.028 21.3842 151.393 21.7502C151.759 22.1161 151.965 22.6123 151.965 23.1298V41.834C151.965 42.3516 151.759 42.8477 151.393 43.2137C151.028 43.5796 150.532 43.7855 150.015 43.786Z" fill="#4535AF"/>
<path d="M180.787 52.4615H164.95C164.433 52.461 163.938 52.2551 163.572 51.8892C163.206 51.5232 163.001 51.0271 163 50.5096V31.8053C163.001 31.2878 163.206 30.7916 163.572 30.4257C163.938 30.0597 164.433 29.8539 164.95 29.8533H180.787C181.304 29.8539 181.8 30.0597 182.166 30.4257C182.531 30.7916 182.737 31.2878 182.738 31.8053V50.5096C182.737 51.0271 182.531 51.5232 182.166 51.8892C181.8 52.2551 181.304 52.461 180.787 52.4615Z" fill="#CCCCCC"/>
<path d="M156.083 78.9218H140.246C139.729 78.9213 139.233 78.7154 138.868 78.3495C138.502 77.9836 138.296 77.4874 138.296 76.9699V58.2656C138.296 57.7481 138.502 57.2519 138.868 56.886C139.233 56.52 139.729 56.3142 140.246 56.3136H156.083C156.6 56.3142 157.096 56.52 157.462 56.886C157.827 57.2519 158.033 57.7481 158.034 58.2656V76.9699C158.033 77.4874 157.827 77.9836 157.462 78.3495C157.096 78.7154 156.6 78.9213 156.083 78.9218Z" fill="#FF6584"/>
<path d="M308.1 192.567H236.153C235.119 192.565 234.127 192.154 233.396 191.422C232.664 190.69 232.253 189.698 232.252 188.663V97.5698C232.253 96.5348 232.664 95.5425 233.396 94.8106C234.127 94.0787 235.119 93.667 236.153 93.6659H308.1C309.134 93.667 310.125 94.0787 310.857 94.8106C311.588 95.5425 311.999 96.5348 312 97.5698V188.663C311.999 189.698 311.588 190.69 310.857 191.422C310.125 192.154 309.134 192.565 308.1 192.567ZM236.153 94.5334C235.348 94.5343 234.577 94.8545 234.008 95.4238C233.44 95.993 233.12 96.7648 233.119 97.5698V188.663C233.12 189.468 233.44 190.24 234.008 190.809C234.577 191.378 235.348 191.698 236.153 191.699H308.1C308.904 191.698 309.675 191.378 310.244 190.809C310.813 190.24 311.133 189.468 311.134 188.663V97.5698C311.133 96.7648 310.813 95.993 310.244 95.4238C309.675 94.8545 308.904 94.5343 308.1 94.5334H236.153Z" fill="#3F3D56"/>
<path d="M284.478 113.836H259.774C259.314 113.836 258.873 113.654 258.548 113.328C258.223 113.003 258.04 112.561 258.04 112.101C258.04 111.641 258.223 111.2 258.548 110.874C258.873 110.549 259.314 110.366 259.774 110.366H284.478C284.938 110.366 285.379 110.549 285.704 110.874C286.029 111.2 286.212 111.641 286.212 112.101C286.212 112.561 286.029 113.003 285.704 113.328C285.379 113.654 284.938 113.836 284.478 113.836Z" fill="#4535AF"/>
<path d="M296.614 130.32H247.638C247.41 130.32 247.184 130.276 246.974 130.189C246.763 130.102 246.572 129.974 246.41 129.813C246.249 129.652 246.121 129.46 246.034 129.249C245.946 129.039 245.901 128.813 245.901 128.585C245.901 128.357 245.946 128.131 246.034 127.92C246.121 127.709 246.249 127.518 246.41 127.357C246.572 127.196 246.763 127.068 246.974 126.981C247.184 126.894 247.41 126.849 247.638 126.85H296.614C296.842 126.849 297.068 126.894 297.278 126.981C297.489 127.068 297.681 127.196 297.842 127.357C298.003 127.518 298.131 127.709 298.218 127.92C298.306 128.131 298.351 128.357 298.351 128.585C298.351 128.813 298.306 129.039 298.218 129.249C298.131 129.46 298.003 129.652 297.842 129.813C297.681 129.974 297.489 130.102 297.278 130.189C297.068 130.276 296.842 130.32 296.614 130.32Z" fill="#CCCCCC"/>
<path d="M296.614 139.429H247.638C247.41 139.43 247.184 139.385 246.974 139.298C246.763 139.211 246.572 139.083 246.41 138.922C246.249 138.761 246.121 138.569 246.034 138.359C245.946 138.148 245.901 137.922 245.901 137.694C245.901 137.466 245.946 137.24 246.034 137.029C246.121 136.819 246.249 136.627 246.41 136.466C246.572 136.305 246.763 136.177 246.974 136.09C247.184 136.003 247.41 135.959 247.638 135.959H296.614C296.842 135.959 297.068 136.003 297.278 136.09C297.489 136.177 297.681 136.305 297.842 136.466C298.003 136.627 298.131 136.819 298.218 137.029C298.306 137.24 298.351 137.466 298.351 137.694C298.351 137.922 298.306 138.148 298.218 138.359C298.131 138.569 298.003 138.761 297.842 138.922C297.681 139.083 297.489 139.211 297.278 139.298C297.068 139.385 296.842 139.43 296.614 139.429Z" fill="#CCCCCC"/>
<path d="M296.614 148.538H247.638C247.41 148.539 247.184 148.494 246.974 148.407C246.763 148.32 246.572 148.192 246.41 148.031C246.249 147.87 246.121 147.679 246.034 147.468C245.946 147.257 245.901 147.031 245.901 146.803C245.901 146.575 245.946 146.349 246.034 146.139C246.121 145.928 246.249 145.737 246.41 145.575C246.572 145.414 246.763 145.286 246.974 145.199C247.184 145.112 247.41 145.068 247.638 145.068H296.614C296.842 145.068 297.068 145.112 297.278 145.199C297.489 145.286 297.681 145.414 297.842 145.575C298.003 145.737 298.131 145.928 298.218 146.139C298.306 146.349 298.351 146.575 298.351 146.803C298.351 147.031 298.306 147.257 298.218 147.468C298.131 147.679 298.003 147.87 297.842 148.031C297.681 148.192 297.489 148.32 297.278 148.407C297.068 148.494 296.842 148.539 296.614 148.538Z" fill="#CCCCCC"/>
<path d="M296.614 157.648H247.638C247.41 157.648 247.184 157.604 246.974 157.517C246.763 157.43 246.572 157.302 246.41 157.141C246.249 156.979 246.121 156.788 246.034 156.577C245.946 156.367 245.901 156.141 245.901 155.913C245.901 155.685 245.946 155.459 246.034 155.248C246.121 155.037 246.249 154.846 246.41 154.685C246.572 154.524 246.763 154.396 246.974 154.309C247.184 154.222 247.41 154.177 247.638 154.178H296.614C296.842 154.177 297.068 154.222 297.278 154.309C297.489 154.396 297.681 154.524 297.842 154.685C298.003 154.846 298.131 155.037 298.218 155.248C298.306 155.459 298.351 155.685 298.351 155.913C298.351 156.141 298.306 156.367 298.218 156.577C298.131 156.788 298.003 156.979 297.842 157.141C297.681 157.302 297.489 157.43 297.278 157.517C297.068 157.604 296.842 157.648 296.614 157.648Z" fill="#CCCCCC"/>
<path d="M296.614 166.757H247.638C247.41 166.757 247.184 166.713 246.974 166.626C246.763 166.539 246.572 166.411 246.41 166.25C246.249 166.089 246.121 165.897 246.034 165.687C245.946 165.476 245.901 165.25 245.901 165.022C245.901 164.794 245.946 164.568 246.034 164.357C246.121 164.147 246.249 163.955 246.41 163.794C246.572 163.633 246.763 163.505 246.974 163.418C247.184 163.331 247.41 163.286 247.638 163.287H296.614C296.842 163.286 297.068 163.331 297.278 163.418C297.489 163.505 297.681 163.633 297.842 163.794C298.003 163.955 298.131 164.147 298.218 164.357C298.306 164.568 298.351 164.794 298.351 165.022C298.351 165.25 298.306 165.476 298.218 165.687C298.131 165.897 298.003 166.089 297.842 166.25C297.681 166.411 297.489 166.539 297.278 166.626C297.068 166.713 296.842 166.757 296.614 166.757Z" fill="#CCCCCC"/>
<path d="M296.614 175.866H247.638C247.41 175.867 247.184 175.822 246.974 175.735C246.763 175.648 246.572 175.52 246.41 175.359C246.249 175.198 246.121 175.007 246.034 174.796C245.946 174.585 245.901 174.359 245.901 174.131C245.901 173.903 245.946 173.677 246.034 173.467C246.121 173.256 246.249 173.064 246.41 172.903C246.572 172.742 246.763 172.614 246.974 172.527C247.184 172.44 247.41 172.396 247.638 172.396H296.614C296.842 172.396 297.068 172.44 297.278 172.527C297.489 172.614 297.681 172.742 297.842 172.903C298.003 173.064 298.131 173.256 298.218 173.467C298.306 173.677 298.351 173.903 298.351 174.131C298.351 174.359 298.306 174.585 298.218 174.796C298.131 175.007 298.003 175.198 297.842 175.359C297.681 175.52 297.489 175.648 297.278 175.735C297.068 175.822 296.842 175.867 296.614 175.866Z" fill="#CCCCCC"/>
<path d="M75.8477 192.567H3.90074C2.86656 192.565 1.87507 192.154 1.1438 191.422C0.412521 190.69 0.00117635 189.698 0 188.663V97.5698C0.00117635 96.5348 0.412521 95.5425 1.1438 94.8106C1.87507 94.0787 2.86656 93.667 3.90074 93.6659H75.8477C76.8819 93.667 77.8734 94.0787 78.6047 94.8106C79.3359 95.5425 79.7473 96.5348 79.7485 97.5698V188.663C79.7473 189.698 79.3359 190.69 78.6047 191.422C77.8734 192.154 76.8819 192.565 75.8477 192.567ZM3.90074 94.5334C3.09637 94.5343 2.32521 94.8545 1.75644 95.4238C1.18767 95.993 0.867729 96.7648 0.866825 97.5698V188.663C0.867729 189.468 1.18767 190.24 1.75644 190.809C2.32521 191.378 3.09637 191.698 3.90074 191.699H75.8477C76.6521 191.698 77.4233 191.378 77.992 190.809C78.5608 190.24 78.8807 189.468 78.8816 188.663V97.5698C78.8807 96.7648 78.5608 95.993 77.992 95.4238C77.4233 94.8545 76.6521 94.5343 75.8477 94.5334H3.90074Z" fill="#3F3D56"/>
<path d="M64.4376 115.173H42.7669C42.3071 115.173 41.8661 114.99 41.541 114.665C41.2159 114.339 41.0332 113.898 41.0332 113.438C41.0332 112.978 41.2159 112.536 41.541 112.211C41.8661 111.886 42.3071 111.703 42.7669 111.703H64.4376C64.8974 111.703 65.3384 111.886 65.6635 112.211C65.9887 112.536 66.1713 112.978 66.1713 113.438C66.1713 113.898 65.9887 114.339 65.6635 114.665C65.3384 114.99 64.8974 115.173 64.4376 115.173Z" fill="#3F3D56"/>
<path d="M64.4376 124.282H42.7669C42.3071 124.282 41.8661 124.099 41.541 123.774C41.2159 123.449 41.0332 123.007 41.0332 122.547C41.0332 122.087 41.2159 121.646 41.541 121.32C41.8661 120.995 42.3071 120.812 42.7669 120.812H64.4376C64.8974 120.812 65.3384 120.995 65.6635 121.32C65.9887 121.646 66.1713 122.087 66.1713 122.547C66.1713 123.007 65.9887 123.449 65.6635 123.774C65.3384 124.099 64.8974 124.282 64.4376 124.282Z" fill="#3F3D56"/>
<path d="M31.6468 129.469H15.8098C15.2927 129.468 14.7969 129.263 14.4313 128.897C14.0656 128.531 13.8599 128.035 13.8594 127.517V108.813C13.8599 108.295 14.0656 107.799 14.4313 107.433C14.7969 107.067 15.2927 106.861 15.8098 106.861H31.6468C32.1639 106.861 32.6596 107.067 33.0253 107.433C33.3909 107.799 33.5966 108.295 33.5971 108.813V127.517C33.5966 128.035 33.3909 128.531 33.0253 128.897C32.6596 129.263 32.1639 129.468 31.6468 129.469Z" fill="#4535AF"/>
<path d="M64.2869 142.935H15.3109C15.083 142.935 14.8572 142.89 14.6465 142.803C14.4358 142.716 14.2444 142.589 14.0831 142.427C13.9218 142.266 13.7938 142.075 13.7065 141.864C13.6192 141.653 13.5742 141.428 13.5742 141.199C13.5742 140.971 13.6192 140.745 13.7065 140.535C13.7938 140.324 13.9218 140.133 14.0831 139.971C14.2444 139.81 14.4358 139.683 14.6465 139.596C14.8572 139.509 15.083 139.464 15.3109 139.464H64.2869C64.5148 139.464 64.7405 139.509 64.9512 139.596C65.1619 139.683 65.3534 139.81 65.5147 139.971C65.676 140.133 65.804 140.324 65.8913 140.535C65.9786 140.745 66.0235 140.971 66.0235 141.199C66.0235 141.428 65.9786 141.653 65.8913 141.864C65.804 142.075 65.676 142.266 65.5147 142.427C65.3534 142.589 65.1619 142.716 64.9512 142.803C64.7405 142.89 64.5148 142.935 64.2869 142.935Z" fill="#CCCCCC"/>
<path d="M64.2869 152.044H15.3109C15.083 152.044 14.8572 152 14.6465 151.913C14.4358 151.826 14.2444 151.698 14.0831 151.537C13.9218 151.376 13.7938 151.184 13.7065 150.973C13.6192 150.763 13.5742 150.537 13.5742 150.309C13.5742 150.081 13.6192 149.855 13.7065 149.644C13.7938 149.433 13.9218 149.242 14.0831 149.081C14.2444 148.92 14.4358 148.792 14.6465 148.705C14.8572 148.618 15.083 148.573 15.3109 148.574H64.2869C64.5148 148.573 64.7405 148.618 64.9512 148.705C65.1619 148.792 65.3534 148.92 65.5147 149.081C65.676 149.242 65.804 149.433 65.8913 149.644C65.9786 149.855 66.0235 150.081 66.0235 150.309C66.0235 150.537 65.9786 150.763 65.8913 150.973C65.804 151.184 65.676 151.376 65.5147 151.537C65.3534 151.698 65.1619 151.826 64.9512 151.913C64.7405 152 64.5148 152.044 64.2869 152.044Z" fill="#CCCCCC"/>
<path d="M64.2869 161.153H15.3109C15.083 161.154 14.8572 161.109 14.6465 161.022C14.4358 160.935 14.2444 160.807 14.0831 160.646C13.9218 160.485 13.7938 160.293 13.7065 160.083C13.6192 159.872 13.5742 159.646 13.5742 159.418C13.5742 159.19 13.6192 158.964 13.7065 158.753C13.7938 158.543 13.9218 158.351 14.0831 158.19C14.2444 158.029 14.4358 157.901 14.6465 157.814C14.8572 157.727 15.083 157.683 15.3109 157.683H64.2869C64.5148 157.683 64.7405 157.727 64.9512 157.814C65.1619 157.901 65.3534 158.029 65.5147 158.19C65.676 158.351 65.804 158.543 65.8913 158.753C65.9786 158.964 66.0235 159.19 66.0235 159.418C66.0235 159.646 65.9786 159.872 65.8913 160.083C65.804 160.293 65.676 160.485 65.5147 160.646C65.3534 160.807 65.1619 160.935 64.9512 161.022C64.7405 161.109 64.5148 161.154 64.2869 161.153Z" fill="#CCCCCC"/>
<path d="M64.2869 170.262H15.3109C15.083 170.263 14.8572 170.218 14.6465 170.131C14.4358 170.044 14.2444 169.916 14.0831 169.755C13.9218 169.594 13.7938 169.403 13.7065 169.192C13.6192 168.981 13.5742 168.755 13.5742 168.527C13.5742 168.299 13.6192 168.073 13.7065 167.863C13.7938 167.652 13.9218 167.461 14.0831 167.299C14.2444 167.138 14.4358 167.01 14.6465 166.923C14.8572 166.836 15.083 166.792 15.3109 166.792H64.2869C64.5148 166.792 64.7405 166.836 64.9512 166.923C65.1619 167.01 65.3534 167.138 65.5147 167.299C65.676 167.461 65.804 167.652 65.8913 167.863C65.9786 168.073 66.0235 168.299 66.0235 168.527C66.0235 168.755 65.9786 168.981 65.8913 169.192C65.804 169.403 65.676 169.594 65.5147 169.755C65.3534 169.916 65.1619 170.044 64.9512 170.131C64.7405 170.218 64.5148 170.263 64.2869 170.262Z" fill="#CCCCCC"/>
<path d="M64.2869 179.372H15.3109C15.083 179.372 14.8572 179.327 14.6465 179.24C14.4358 179.153 14.2444 179.026 14.0831 178.865C13.9218 178.703 13.7938 178.512 13.7065 178.301C13.6192 178.091 13.5742 177.865 13.5742 177.637C13.5742 177.408 13.6192 177.183 13.7065 176.972C13.7938 176.761 13.9218 176.57 14.0831 176.409C14.2444 176.247 14.4358 176.12 14.6465 176.033C14.8572 175.946 15.083 175.901 15.3109 175.901H64.2869C64.5148 175.901 64.7405 175.946 64.9512 176.033C65.1619 176.12 65.3534 176.247 65.5147 176.409C65.676 176.57 65.804 176.761 65.8913 176.972C65.9786 177.183 66.0235 177.408 66.0235 177.637C66.0235 177.865 65.9786 178.091 65.8913 178.301C65.804 178.512 65.676 178.703 65.5147 178.865C65.3534 179.026 65.1619 179.153 64.9512 179.24C64.7405 179.327 64.5148 179.372 64.2869 179.372Z" fill="#CCCCCC"/>
<path d="M103.047 245.363V226.659C103.047 226.142 103.253 225.646 103.619 225.28C103.984 224.914 104.48 224.708 104.997 224.707H120.834C121.351 224.708 121.847 224.914 122.213 225.28C122.578 225.646 122.784 226.142 122.785 226.659V245.363C122.784 245.881 122.578 246.377 122.213 246.743C121.847 247.109 121.351 247.315 120.834 247.315H104.997C104.48 247.315 103.984 247.109 103.619 246.743C103.253 246.377 103.047 245.881 103.047 245.363Z" fill="#E6E6E6"/>
<path d="M108.752 239.135V220.431C108.753 219.913 108.958 219.417 109.324 219.051C109.689 218.685 110.185 218.479 110.702 218.479H126.539C127.056 218.479 127.552 218.685 127.918 219.051C128.283 219.417 128.489 219.913 128.49 220.431V239.135C128.489 239.652 128.283 240.149 127.918 240.515C127.552 240.881 127.056 241.086 126.539 241.087H110.702C110.185 241.086 109.689 240.881 109.324 240.515C108.958 240.149 108.753 239.652 108.752 239.135Z" fill="#4535AF"/>
<path d="M179.745 233.15C179.149 232.806 178.635 232.334 178.241 231.77C177.847 231.205 177.581 230.561 177.463 229.882C177.344 229.204 177.376 228.507 177.555 227.842C177.734 227.177 178.057 226.56 178.501 226.033L173.592 190.121L183.818 190.624L185.423 225.652C186.258 226.457 186.768 227.54 186.858 228.696C186.948 229.852 186.612 231.001 185.912 231.925C185.212 232.85 184.197 233.485 183.061 233.711C181.924 233.936 180.744 233.737 179.745 233.15Z" fill="#FFB6B6"/>
<path d="M185.221 191.102C185.012 191.349 184.743 191.539 184.441 191.655L175.251 195.165C174.789 195.341 174.278 195.334 173.822 195.144C173.366 194.955 172.999 194.597 172.798 194.145L164.658 175.836C163.876 174.137 163.743 172.211 164.284 170.421C164.684 169.144 165.42 167.998 166.416 167.104C167.412 166.211 168.631 165.603 169.943 165.344C170.952 165.136 171.995 165.151 172.998 165.387C174.2 165.655 175.316 166.219 176.245 167.028C177.174 167.836 177.888 168.864 178.32 170.018L185.558 189.166C185.68 189.489 185.713 189.839 185.654 190.18C185.594 190.52 185.445 190.839 185.221 191.102Z" fill="#CCCCCC"/>
<path d="M137.333 320.803H130.975L128.67 296.142L137.334 296.258L137.333 320.803Z" fill="#FFB6B6"/>
<path d="M126.433 318.984H138.696V326.711H118.713C118.713 325.696 118.913 324.692 119.301 323.754C119.689 322.817 120.257 321.965 120.974 321.247C121.691 320.53 122.542 319.961 123.479 319.572C124.416 319.184 125.42 318.984 126.433 318.984Z" fill="#2F2E41"/>
<path d="M166.895 320.803H160.536L157.512 296.258L166.896 296.258L166.895 320.803Z" fill="#FFB6B6"/>
<path d="M155.995 318.984H168.257V326.711H148.274C148.274 325.696 148.474 324.692 148.862 323.754C149.25 322.817 149.819 321.965 150.536 321.247C151.253 320.53 152.104 319.961 153.04 319.572C153.977 319.184 154.981 318.984 155.995 318.984Z" fill="#2F2E41"/>
<path d="M167.695 312.07L157.708 311.33C157.141 311.287 156.608 311.038 156.21 310.63C155.813 310.222 155.578 309.683 155.55 309.113L153.323 263.058C153.302 262.616 153.12 262.197 152.812 261.88C152.504 261.562 152.09 261.368 151.649 261.334C151.209 261.3 150.771 261.429 150.417 261.695C150.064 261.961 149.821 262.348 149.732 262.781L140.443 308.15C140.328 308.708 140.013 309.205 139.558 309.547C139.103 309.889 138.538 310.054 137.971 310.009L128.944 309.286C128.634 309.261 128.333 309.175 128.057 309.032C127.782 308.89 127.537 308.693 127.338 308.455C127.139 308.217 126.99 307.941 126.899 307.644C126.808 307.347 126.777 307.035 126.807 306.726L135.182 222.912C135.215 222.584 135.316 222.267 135.48 221.982C135.644 221.696 135.866 221.448 136.132 221.255C136.398 221.061 136.702 220.926 137.024 220.859C137.346 220.791 137.678 220.792 138 220.862L169.846 227.791C170.374 227.906 170.845 228.201 171.18 228.625C171.515 229.049 171.693 229.576 171.684 230.117L170.2 309.784C170.189 310.395 169.938 310.977 169.503 311.406C169.068 311.834 168.483 312.075 167.872 312.076C167.813 312.076 167.754 312.074 167.695 312.07Z" fill="#2F2E41"/>
<path d="M158.957 152.833C165.992 152.833 171.695 147.125 171.695 140.085C171.695 133.044 165.992 127.336 158.957 127.336C151.923 127.336 146.22 133.044 146.22 140.085C146.22 147.125 151.923 152.833 158.957 152.833Z" fill="#FFB6B6"/>
<path d="M139.195 229.375C137.97 228.276 136.998 226.924 136.345 225.413C135.692 223.902 135.374 222.267 135.412 220.621C135.412 202.298 151.259 161.362 151.756 160.085C151.804 159.777 152.222 159.644 154.416 158.161C156.611 156.677 159.776 156.449 163.823 157.483C164.235 157.589 164.61 157.805 164.907 158.109C165.204 158.413 165.412 158.792 165.509 159.206L166.262 160.295C166.327 160.571 166.457 160.827 166.639 161.044C166.822 161.261 167.053 161.432 167.314 161.544C170.578 162.92 180.953 169.266 177.418 193.149C174.133 215.335 172.801 228.383 172.38 232.963C172.331 233.506 172.092 234.015 171.707 234.401C171.321 234.786 170.812 235.024 170.269 235.073C168.669 235.216 165.922 235.407 162.651 235.407C155.068 235.407 144.667 234.383 139.195 229.375Z" fill="#CCCCCC"/>
<path d="M123.974 222.587C123.671 221.968 123.507 221.291 123.494 220.602C123.481 219.914 123.619 219.23 123.898 218.601C124.178 217.971 124.591 217.411 125.111 216.958C125.63 216.506 126.242 216.174 126.903 215.984L142.821 183.426L151.033 189.546L132.864 219.528C133.109 220.661 132.93 221.845 132.361 222.856C131.792 223.866 130.872 224.632 129.776 225.009C128.681 225.386 127.485 225.348 126.415 224.902C125.346 224.455 124.477 223.632 123.974 222.587Z" fill="#FFB6B6"/>
<path d="M151.932 190.726C151.62 190.814 151.292 190.822 150.976 190.75L141.391 188.539C140.909 188.428 140.489 188.137 140.216 187.725C139.942 187.313 139.837 186.812 139.922 186.325L143.357 166.582C143.653 164.735 144.615 163.062 146.061 161.877C147.104 161.039 148.353 160.499 149.678 160.312C151.003 160.125 152.353 160.3 153.586 160.817C154.54 161.207 155.398 161.801 156.099 162.556C156.948 163.449 157.561 164.54 157.882 165.73C158.204 166.919 158.224 168.17 157.94 169.37L153.29 189.306C153.211 189.642 153.043 189.951 152.804 190.201C152.566 190.451 152.264 190.632 151.932 190.726Z" fill="#CCCCCC"/>
<path d="M155.976 151.603C155.356 150.97 154.898 150.196 154.642 149.348C154.386 148.499 154.338 147.601 154.504 146.731C154.948 144.406 155.209 142.884 155.258 142.331C155.427 140.438 153.515 138.905 151.622 138.661C151.549 138.651 151.488 138.645 151.436 138.641C151.485 138.688 151.536 138.737 151.582 138.78C151.941 139.117 152.389 139.538 152.282 139.972C152.218 140.233 151.98 140.419 151.553 140.538C148.593 141.367 146.314 140.606 144.38 138.142C143.836 137.442 143.463 136.625 143.288 135.756C142.595 132.353 144.442 129.453 146.113 127.619C147.49 126.107 149.724 124.272 152.54 124.115C154.731 123.992 157.335 125.254 158.115 127.527C158.483 126.982 158.972 126.529 159.545 126.206C160.117 125.883 160.757 125.698 161.414 125.666C162.909 125.633 164.381 126.043 165.645 126.843C171.821 130.384 174.476 138.819 171.441 145.263C169.533 149.317 165.397 152.334 160.649 153.138C160.352 153.189 160.051 153.214 159.749 153.214C159.045 153.213 158.347 153.07 157.699 152.793C157.05 152.516 156.464 152.111 155.976 151.603Z" fill="#2F2E41"/>
<path d="M96.2442 327H197.375C197.512 327 197.644 326.945 197.741 326.848C197.838 326.751 197.893 326.619 197.893 326.481C197.893 326.343 197.838 326.211 197.741 326.114C197.644 326.017 197.512 325.962 197.375 325.962H96.2442C96.1067 325.962 95.9747 326.017 95.8775 326.114C95.7802 326.211 95.7256 326.343 95.7256 326.481C95.7256 326.619 95.7802 326.751 95.8775 326.848C95.9747 326.945 96.1067 327 96.2442 327Z" fill="#3F3D56"/>
</g>
<defs>
<clipPath id="clip0_712_5030">
<rect width="312" height="327" fill="white"/>
</clipPath>
</defs>
</svg>
