<svg width="430" height="932" viewBox="0 0 430 932" fill="none" xmlns="http://www.w3.org/2000/svg">
<g clip-path="url(#clip0_1489_5147)">
<rect width="430" height="932" fill="#4535AF"/>
<path d="M212.875 115.82C212.875 166.779 171.797 207.969 121.273 207.969C70.75 207.969 29.6719 166.779 29.6719 115.82C29.6719 64.8613 70.75 23.6719 121.273 23.6719C171.797 23.6719 212.875 64.8613 212.875 115.82Z" stroke="url(#paint0_linear_1489_5147)" stroke-width="27.3438"/>
<rect x="440.405" y="837.971" width="414.938" height="111.109" rx="45.3906" transform="rotate(-135 440.405 837.971)" fill="url(#paint1_linear_1489_5147)"/>
<rect x="532.405" y="666.971" width="414.938" height="111.109" rx="45.3906" transform="rotate(-135 532.405 666.971)" fill="url(#paint2_linear_1489_5147)"/>
<circle cx="308.812" cy="814.812" r="89.1406" stroke="url(#paint3_linear_1489_5147)" stroke-width="27.3438"/>
<path d="M313.25 585.219L471.844 747.094" stroke="url(#paint4_linear_1489_5147)" stroke-width="0.546875"/>
</g>
<defs>
<linearGradient id="paint0_linear_1489_5147" x1="51.902" y1="117.389" x2="116.328" y2="274.707" gradientUnits="userSpaceOnUse">
<stop stop-color="#EA62D0" stop-opacity="0.579627"/>
<stop offset="1" stop-color="#FF38BC" stop-opacity="0.0838068"/>
</linearGradient>
<linearGradient id="paint1_linear_1489_5147" x1="425.514" y1="893.038" x2="507.059" y2="1047.17" gradientUnits="userSpaceOnUse">
<stop stop-color="#3726AA"/>
<stop offset="1" stop-color="#4C40B3" stop-opacity="0.01"/>
</linearGradient>
<linearGradient id="paint2_linear_1489_5147" x1="818.732" y1="736.533" x2="856.405" y2="613.697" gradientUnits="userSpaceOnUse">
<stop stop-color="white" stop-opacity="0.01"/>
<stop offset="1" stop-color="white" stop-opacity="0.210883"/>
</linearGradient>
<linearGradient id="paint3_linear_1489_5147" x1="206" y1="712" x2="206" y2="917.625" gradientUnits="userSpaceOnUse">
<stop stop-color="#3AA4D4"/>
<stop offset="1" stop-color="#359CCB" stop-opacity="0.01"/>
</linearGradient>
<linearGradient id="paint4_linear_1489_5147" x1="474.628" y1="594.471" x2="346.441" y2="517.74" gradientUnits="userSpaceOnUse">
<stop stop-color="white" stop-opacity="0.844597"/>
<stop offset="1" stop-color="white" stop-opacity="0.01"/>
</linearGradient>
<clipPath id="clip0_1489_5147">
<rect width="430" height="932" fill="white"/>
</clipPath>
</defs>
</svg>
