<svg width="1434" height="1024" viewBox="0 0 1434 1024" fill="none" xmlns="http://www.w3.org/2000/svg">
<g clip-path="url(#clip0_557_10962)">
<rect width="1434" height="1024" fill="#4535AF"/>
<path d="M407.35 287.56C407.35 380.742 332.235 456.06 239.85 456.06C147.464 456.06 72.3496 380.742 72.3496 287.56C72.3496 194.377 147.464 119.06 239.85 119.06C332.235 119.06 407.35 194.377 407.35 287.56Z" stroke="url(#paint0_linear_557_10962)" stroke-width="50"/>
<rect x="1027.51" y="1156.18" width="758.743" height="203.171" rx="83" transform="rotate(-135 1027.51 1156.18)" fill="url(#paint1_linear_557_10962)"/>
<rect x="1413.04" y="874.176" width="758.743" height="203.171" rx="83" transform="rotate(-135 1413.04 874.176)" fill="url(#paint2_linear_557_10962)"/>
<circle cx="1171" cy="790" r="163" stroke="url(#paint3_linear_557_10962)" stroke-width="50"/>
<path d="M1121 534.464L1413 830.464" stroke="url(#paint4_linear_557_10962)"/>
<path d="M795 694L1085 990" stroke="url(#paint5_linear_557_10962)"/>
</g>
<defs>
<linearGradient id="paint0_linear_557_10962" x1="112.999" y1="290.428" x2="230.807" y2="578.095" gradientUnits="userSpaceOnUse">
<stop stop-color="#EA62D0" stop-opacity="0.579627"/>
<stop offset="1" stop-color="#FF38BC" stop-opacity="0.0838068"/>
</linearGradient>
<linearGradient id="paint1_linear_557_10962" x1="1000.28" y1="1256.87" x2="1149.39" y2="1538.72" gradientUnits="userSpaceOnUse">
<stop stop-color="#3726AA"/>
<stop offset="1" stop-color="#4C40B3" stop-opacity="0.01"/>
</linearGradient>
<linearGradient id="paint2_linear_557_10962" x1="1936.6" y1="1001.37" x2="2005.49" y2="776.76" gradientUnits="userSpaceOnUse">
<stop stop-color="white" stop-opacity="0.01"/>
<stop offset="1" stop-color="white" stop-opacity="0.210883"/>
</linearGradient>
<linearGradient id="paint3_linear_557_10962" x1="983" y1="602" x2="983" y2="978" gradientUnits="userSpaceOnUse">
<stop stop-color="#3AA4D4"/>
<stop offset="1" stop-color="#359CCB" stop-opacity="0.01"/>
</linearGradient>
<linearGradient id="paint4_linear_557_10962" x1="1519.07" y1="647.037" x2="1244.63" y2="393.128" gradientUnits="userSpaceOnUse">
<stop stop-color="white" stop-opacity="0.01"/>
<stop offset="1" stop-color="white" stop-opacity="0.871148"/>
</linearGradient>
<linearGradient id="paint5_linear_557_10962" x1="1090.09" y1="710.918" x2="855.692" y2="570.611" gradientUnits="userSpaceOnUse">
<stop stop-color="white" stop-opacity="0.844597"/>
<stop offset="1" stop-color="white" stop-opacity="0.01"/>
</linearGradient>
<clipPath id="clip0_557_10962">
<rect width="1434" height="1024" fill="white"/>
</clipPath>
</defs>
</svg>
