<svg width="20" height="20" viewBox="0 0 20 20" fill="none" xmlns="http://www.w3.org/2000/svg">
<path d="M0.95768 2.6901C0.707162 2.50638 0.355148 2.56054 0.171435 2.81106C-0.0122781 3.06158 0.0418779 3.41359 0.292396 3.5973L19.0424 17.3473C19.2929 17.531 19.6449 17.4769 19.8286 17.2263C20.0124 16.9758 19.9582 16.6238 19.7077 16.4401L0.95768 2.6901Z" fill="#4535AF"/>
<path d="M17.5 5.03985V14.5499L18.6699 15.4078C18.7222 15.2663 18.7499 15.1155 18.75 14.9617V5.03985C18.75 4.69803 18.6144 4.37019 18.3728 4.12835C18.1312 3.8865 17.8036 3.75042 17.4618 3.75001H2.77292L4.4796 5.00157H17.4618C17.4719 5.00157 17.4816 5.0056 17.4888 5.01278C17.496 5.01996 17.5 5.0297 17.5 5.03985Z" fill="#4535AF"/>
<path d="M1.31964 4.62188C1.27414 4.75469 1.25021 4.89525 1.25004 5.03829V14.9602C1.25004 15.302 1.38572 15.6298 1.62727 15.8717C1.86883 16.1135 2.1965 16.2496 2.53832 16.25H17.1762L15.4716 15H2.53988C2.53485 15 2.52988 14.999 2.52523 14.9971C2.52059 14.9952 2.51637 14.9923 2.51281 14.9888C2.50926 14.9852 2.50644 14.981 2.50451 14.9764C2.50259 14.9717 2.5016 14.9668 2.5016 14.9617V5.48865L1.31964 4.62188Z" fill="#4535AF"/>
<path d="M4.39209 6.87501H4.37504C4.20928 6.87501 4.05031 6.94086 3.9331 7.05807C3.81589 7.17528 3.75004 7.33425 3.75004 7.50001C3.75004 7.66577 3.81589 7.82474 3.9331 7.94195C4.05031 8.05916 4.20928 8.12501 4.37504 8.12501H6.09663L4.39209 6.87501Z" fill="#4535AF"/>
<path d="M7.03428 6.87501L8.73883 8.12501H15.625C15.7908 8.12501 15.9498 8.05916 16.067 7.94195C16.1842 7.82474 16.25 7.66577 16.25 7.50001C16.25 7.33425 16.1842 7.17528 16.067 7.05807C15.9498 6.94086 15.7908 6.87501 15.625 6.87501H7.03428Z" fill="#4535AF"/>
<path d="M7.80118 9.37501H4.37504C4.20928 9.37501 4.05031 9.44086 3.9331 9.55807C3.81589 9.67528 3.75004 9.83425 3.75004 10C3.75004 10.1658 3.81589 10.3247 3.9331 10.4419C4.05031 10.5592 4.20928 10.625 4.37504 10.625H9.50572L7.80118 9.37501Z" fill="#4535AF"/>
<path d="M10.4434 9.37501L12.1479 10.625H15.625C15.7908 10.625 15.9498 10.5592 16.067 10.4419C16.1842 10.3247 16.25 10.1658 16.25 10C16.25 9.83425 16.1842 9.67528 16.067 9.55807C15.9498 9.44086 15.7908 9.37501 15.625 9.37501H10.4434Z" fill="#4535AF"/>
<path d="M15.557 13.125L14.4128 12.2859C14.4438 12.2011 14.493 12.1231 14.5581 12.0581C14.6753 11.9409 14.8343 11.875 15 11.875H15.625C15.7908 11.875 15.9498 11.9409 16.067 12.0581C16.1842 12.1753 16.25 12.3342 16.25 12.5C16.25 12.6658 16.1842 12.8247 16.067 12.9419C15.9498 13.0592 15.7908 13.125 15.625 13.125H15.557Z" fill="#4535AF"/>
<path d="M11.2103 11.875H7.50004C7.33428 11.875 7.17531 11.9409 7.0581 12.0581C6.94089 12.1753 6.87504 12.3342 6.87504 12.5C6.87504 12.6658 6.94089 12.8247 7.0581 12.9419C7.17531 13.0592 7.33428 13.125 7.50004 13.125H12.5C12.6081 13.125 12.7132 13.097 12.8058 13.0451L11.2103 11.875Z" fill="#4535AF"/>
<path d="M5.62504 12.5C5.62504 12.6658 5.55919 12.8247 5.44198 12.9419C5.32477 13.0592 5.1658 13.125 5.00004 13.125H4.37504C4.20928 13.125 4.05031 13.0592 3.9331 12.9419C3.81589 12.8247 3.75004 12.6658 3.75004 12.5C3.75004 12.3342 3.81589 12.1753 3.9331 12.0581C4.05031 11.9409 4.20928 11.875 4.37504 11.875H5.00004C5.1658 11.875 5.32477 11.9409 5.44198 12.0581C5.55919 12.1753 5.62504 12.3342 5.62504 12.5Z" fill="#4535AF"/>
</svg>
