<svg width="11" height="10" viewBox="0 0 11 10" fill="none" xmlns="http://www.w3.org/2000/svg">
<path d="M5.5 0C8.2615 0 10.5 2.2385 10.5 5C10.5 7.7615 8.2615 10 5.5 10C2.7385 10 0.5 7.7615 0.5 5C0.5 2.2385 2.7385 0 5.5 0ZM5.5 1C4.43913 1 3.42172 1.42143 2.67157 2.17157C1.92143 2.92172 1.5 3.93913 1.5 5C1.5 6.06087 1.92143 7.07828 2.67157 7.82843C3.42172 8.57857 4.43913 9 5.5 9C6.56087 9 7.57828 8.57857 8.32843 7.82843C9.07857 7.07828 9.5 6.06087 9.5 5C9.5 3.93913 9.07857 2.92172 8.32843 2.17157C7.57828 1.42143 6.56087 1 5.5 1ZM5.5 2C5.62247 2.00002 5.74067 2.04498 5.83219 2.12636C5.9237 2.20774 5.98217 2.31987 5.9965 2.4415L6 2.5V4.793L7.3535 6.1465C7.44317 6.23648 7.49524 6.35722 7.49911 6.48419C7.50299 6.61117 7.45839 6.73486 7.37438 6.83014C7.29036 6.92542 7.17322 6.98515 7.04676 6.9972C6.9203 7.00925 6.794 6.97271 6.6935 6.895L6.6465 6.8535L5.1465 5.3535C5.06879 5.27572 5.01888 5.1745 5.0045 5.0655L5 5V2.5C5 2.36739 5.05268 2.24021 5.14645 2.14645C5.24021 2.05268 5.36739 2 5.5 2Z" fill="#4535AF"/>
</svg>
