<svg width="20" height="20" viewBox="0 0 20 20" fill="none" xmlns="http://www.w3.org/2000/svg">
<path d="M19.326 6.96484L16.4354 15.8187C16.4063 15.908 16.3575 15.9895 16.2926 16.0573C16.2277 16.1252 16.1484 16.1775 16.0605 16.2104C15.9726 16.2434 15.8785 16.2561 15.785 16.2477C15.6915 16.2392 15.6011 16.2099 15.5206 16.1617C15.5026 16.1508 13.5049 15 9.99868 15C6.49243 15 4.49477 16.1508 4.47524 16.1625C4.3947 16.2102 4.30448 16.2392 4.21123 16.2473C4.11799 16.2555 4.02411 16.2425 3.93652 16.2096C3.84893 16.1766 3.76987 16.1243 3.70517 16.0567C3.64048 15.989 3.5918 15.9077 3.56274 15.8187L0.673679 6.9625C0.615468 6.78521 0.610982 6.59467 0.660786 6.41484C0.710589 6.23501 0.812458 6.07393 0.953578 5.95185C1.0947 5.82976 1.26877 5.75214 1.45389 5.72873C1.63902 5.70533 1.82693 5.73719 1.99399 5.82031L5.91508 7.77343L9.19008 2.33125C9.27427 2.19166 9.3931 2.07619 9.53504 1.99604C9.67698 1.91588 9.83723 1.87376 10.0002 1.87376C10.1633 1.87376 10.3235 1.91588 10.4654 1.99604C10.6074 2.07619 10.7262 2.19166 10.8104 2.33125L14.0854 7.77343L18.0081 5.82031C18.1753 5.73707 18.3635 5.70525 18.5488 5.72888C18.7341 5.75251 18.9083 5.83052 19.0493 5.95306C19.1903 6.07561 19.2919 6.23719 19.3411 6.41741C19.3904 6.59762 19.3851 6.78839 19.326 6.96562V6.96484Z" fill="#4535AF"/>
</svg>
