<svg width="20" height="20" viewBox="0 0 20 20" fill="none" xmlns="http://www.w3.org/2000/svg">
<path d="M19.0501 5.95235C18.9091 5.82942 18.7348 5.75116 18.5492 5.72751C18.3637 5.70387 18.1753 5.7359 18.0079 5.81954L14.0853 7.77266L10.8103 2.33282C10.7261 2.19323 10.6073 2.07776 10.4653 1.99761C10.3234 1.91745 10.1631 1.87534 10.0001 1.87534C9.83711 1.87534 9.67686 1.91745 9.53492 1.99761C9.39298 2.07776 9.27415 2.19323 9.18996 2.33282L5.91496 7.77501L1.99387 5.82188C1.82695 5.73898 1.63926 5.70723 1.45436 5.73061C1.26946 5.75399 1.09558 5.83146 0.954551 5.9533C0.813519 6.07514 0.711613 6.23592 0.661622 6.41546C0.611632 6.59501 0.615784 6.78531 0.673556 6.96251L3.56418 15.8188C3.59324 15.9077 3.64192 15.989 3.70661 16.0567C3.77131 16.1243 3.85037 16.1766 3.93796 16.2096C4.02555 16.2426 4.11943 16.2555 4.21267 16.2473C4.30592 16.2392 4.39614 16.2102 4.47668 16.1625C4.49621 16.1508 6.49387 15 10.0001 15C13.5064 15 15.504 16.1508 15.522 16.1617C15.6026 16.2099 15.6929 16.2392 15.7864 16.2477C15.8799 16.2561 15.9741 16.2434 16.062 16.2104C16.1498 16.1775 16.2292 16.1252 16.2941 16.0574C16.359 15.9896 16.4078 15.908 16.4368 15.8188L19.3275 6.96485C19.3869 6.78761 19.3923 6.59669 19.3429 6.41639C19.2935 6.2361 19.1916 6.07456 19.0501 5.95235ZM15.4689 14.7524C14.5314 14.3547 12.6626 13.75 10.0001 13.75C7.33762 13.75 5.46887 14.3547 4.53137 14.7524L2.08684 7.26563L5.60793 9.0211C5.82106 9.12621 6.06583 9.14769 6.29401 9.08132C6.52219 9.01494 6.71724 8.86553 6.84074 8.66251L10.0001 3.41094L13.1595 8.66094C13.283 8.86377 13.4779 9.01305 13.7059 9.07941C13.9339 9.14577 14.1785 9.12441 14.3915 9.01954L17.9134 7.26563L15.4689 14.7524Z" fill="#92929D"/>
</svg>
