<svg width="20" height="16" viewBox="0 0 20 16" fill="none" xmlns="http://www.w3.org/2000/svg">
<path d="M18.125 2H16.25V1.375C16.25 1.04348 16.1183 0.725537 15.8839 0.491116C15.6495 0.256696 15.3315 0.125 15 0.125H5C4.66848 0.125 4.35054 0.256696 4.11612 0.491116C3.8817 0.725537 3.75 1.04348 3.75 1.375V2H1.875C1.54348 2 1.22554 2.1317 0.991117 2.36612C0.756696 2.60054 0.625 2.91848 0.625 3.25V4.5C0.625 5.3288 0.95424 6.12366 1.54029 6.70971C1.83047 6.99989 2.17497 7.23008 2.55411 7.38712C2.93326 7.54417 3.33962 7.625 3.75 7.625H4.03516C4.40332 8.79173 5.10529 9.82501 6.0543 10.5971C7.00331 11.3693 8.15777 11.8464 9.375 11.9695V13.875H7.5C7.33424 13.875 7.17527 13.9408 7.05806 14.0581C6.94085 14.1753 6.875 14.3342 6.875 14.5C6.875 14.6658 6.94085 14.8247 7.05806 14.9419C7.17527 15.0592 7.33424 15.125 7.5 15.125H12.5C12.6658 15.125 12.8247 15.0592 12.9419 14.9419C13.0592 14.8247 13.125 14.6658 13.125 14.5C13.125 14.3342 13.0592 14.1753 12.9419 14.0581C12.8247 13.9408 12.6658 13.875 12.5 13.875H10.625V11.9672C13.1203 11.7148 15.1906 9.96406 15.9438 7.625H16.25C17.0788 7.625 17.8737 7.29576 18.4597 6.70971C19.0458 6.12366 19.375 5.3288 19.375 4.5V3.25C19.375 2.91848 19.2433 2.60054 19.0089 2.36612C18.7745 2.1317 18.4565 2 18.125 2ZM3.75 6.375C3.25272 6.375 2.77581 6.17746 2.42417 5.82583C2.07254 5.47419 1.875 4.99728 1.875 4.5V3.25H3.75V5.75C3.75 5.95833 3.76016 6.16667 3.78047 6.375H3.75ZM15 5.67969C15 8.45469 12.7742 10.7297 10.0383 10.75H10C8.67392 10.75 7.40215 10.2232 6.46447 9.28553C5.52678 8.34785 5 7.07608 5 5.75V1.375H15V5.67969ZM18.125 4.5C18.125 4.99728 17.9275 5.47419 17.5758 5.82583C17.2242 6.17746 16.7473 6.375 16.25 6.375H16.2109C16.2366 6.14411 16.2496 5.912 16.25 5.67969V3.25H18.125V4.5Z" fill="#FFAE1F"/>
</svg>
