<svg width="28" height="28" viewBox="0 0 28 28" fill="none" xmlns="http://www.w3.org/2000/svg">
<path d="M23.9345 11.3498L15.1845 3.09419C15.1803 3.09046 15.1762 3.08644 15.1725 3.08216C14.8503 2.78918 14.4305 2.62683 13.9951 2.62683C13.5596 2.62683 13.1398 2.78918 12.8177 3.08216L12.8056 3.09419L4.06547 11.3498C3.88719 11.5138 3.74487 11.7129 3.64754 11.9347C3.5502 12.1565 3.49996 12.3961 3.5 12.6383V22.75C3.5 23.2141 3.68437 23.6592 4.01256 23.9874C4.34075 24.3156 4.78587 24.5 5.25 24.5H10.5C10.9641 24.5 11.4092 24.3156 11.7374 23.9874C12.0656 23.6592 12.25 23.2141 12.25 22.75V17.5H15.75V22.75C15.75 23.2141 15.9344 23.6592 16.2626 23.9874C16.5908 24.3156 17.0359 24.5 17.5 24.5H22.75C23.2141 24.5 23.6592 24.3156 23.9874 23.9874C24.3156 23.6592 24.5 23.2141 24.5 22.75V12.6383C24.5 12.3961 24.4498 12.1565 24.3525 11.9347C24.2551 11.7129 24.1128 11.5138 23.9345 11.3498ZM22.75 22.75H17.5V17.5C17.5 17.0358 17.3156 16.5907 16.9874 16.2625C16.6592 15.9343 16.2141 15.75 15.75 15.75H12.25C11.7859 15.75 11.3408 15.9343 11.0126 16.2625C10.6844 16.5907 10.5 17.0358 10.5 17.5V22.75H5.25V12.6383L5.26203 12.6273L14 4.37497L22.7391 12.6251L22.7511 12.6361L22.75 22.75Z" fill="#92929D"/>
</svg>
