<svg width="28" height="28" viewBox="0 0 28 28" fill="none" xmlns="http://www.w3.org/2000/svg">
<path d="M24.5 12.6383V22.75C24.5 23.2141 24.3156 23.6592 23.9874 23.9874C23.6592 24.3156 23.2141 24.5 22.75 24.5H18.375C17.9109 24.5 17.4658 24.3156 17.1376 23.9874C16.8094 23.6592 16.625 23.2141 16.625 22.75V18.375C16.625 18.1429 16.5328 17.9203 16.3687 17.7563C16.2046 17.5922 15.9821 17.5 15.75 17.5H12.25C12.0179 17.5 11.7954 17.5922 11.6313 17.7563C11.4672 17.9203 11.375 18.1429 11.375 18.375V22.75C11.375 23.2141 11.1906 23.6592 10.8624 23.9874C10.5342 24.3156 10.0891 24.5 9.625 24.5H5.25C4.78587 24.5 4.34075 24.3156 4.01256 23.9874C3.68437 23.6592 3.5 23.2141 3.5 22.75V12.6383C3.49996 12.3961 3.5502 12.1565 3.64754 11.9347C3.74487 11.7129 3.88719 11.5138 4.06547 11.3498L12.8155 3.09419L12.8275 3.08216C13.1497 2.78918 13.5695 2.62683 14.0049 2.62683C14.4404 2.62683 14.8602 2.78918 15.1823 3.08216C15.1861 3.08644 15.1901 3.09046 15.1944 3.09419L23.9444 11.3498C24.1209 11.5146 24.2614 11.7142 24.357 11.9359C24.4526 12.1576 24.5013 12.3968 24.5 12.6383Z" fill="#4535AF"/>
</svg>
