<svg width="13" height="12" viewBox="0 0 13 12" fill="none" xmlns="http://www.w3.org/2000/svg">
<path d="M1.66683 12C1.30016 12 0.986164 11.8693 0.72483 11.608C0.463497 11.3467 0.333053 11.0329 0.333497 10.6667V1.33333C0.333497 0.966668 0.464164 0.652668 0.725497 0.391334C0.986831 0.130001 1.30061 -0.000443313 1.66683 1.13186e-06H11.0002C11.3668 1.13186e-06 11.6808 0.130668 11.9422 0.392001C12.2035 0.653334 12.3339 0.967112 12.3335 1.33333V10.6667C12.3335 11.0333 12.2028 11.3473 11.9415 11.6087C11.6802 11.87 11.3664 12.0004 11.0002 12H1.66683ZM5.00016 10.6667V6.66667H1.66683V10.6667H5.00016ZM6.3335 10.6667H11.0002V6.66667H6.3335V10.6667ZM1.66683 5.33333H11.0002V1.33333H1.66683V5.33333Z" fill="#272D3D"/>
</svg>
