<svg width="28" height="20" viewBox="0 0 28 20" fill="none" xmlns="http://www.w3.org/2000/svg">
<path d="M7.01314 11.1657C7.0161 11.2249 7.00698 11.2842 6.98633 11.3398C6.96568 11.3955 6.93392 11.4463 6.89299 11.4893C6.85207 11.5322 6.80283 11.5664 6.74827 11.5898C6.69371 11.6131 6.63498 11.6251 6.57564 11.625H1.75001C1.55252 11.6253 1.36073 11.5588 1.20584 11.4363C1.05095 11.3138 0.942063 11.1425 0.896887 10.9502C0.868757 10.8186 0.870054 10.6824 0.900685 10.5514C0.931316 10.4204 0.990524 10.2977 1.07407 10.1922C1.84605 9.16846 2.87033 8.36238 4.04689 7.8527C3.53034 7.38174 3.13416 6.79385 2.89153 6.13829C2.64891 5.48272 2.5669 4.77856 2.65237 4.08479C2.73784 3.39101 2.98832 2.72782 3.3828 2.15075C3.77729 1.57367 4.30432 1.09953 4.91973 0.768025C5.53515 0.436519 6.22104 0.257303 6.91996 0.245387C7.61888 0.23347 8.31048 0.3892 8.93684 0.699534C9.5632 1.00987 10.1061 1.46577 10.52 2.02906C10.9339 2.59234 11.2069 3.24662 11.3159 3.93708C11.33 4.02993 11.3134 4.12484 11.2686 4.20736C11.2238 4.28989 11.1532 4.35552 11.0677 4.39426C9.85403 4.95533 8.82621 5.85184 8.10547 6.978C7.38473 8.10417 7.00116 9.41299 7.00001 10.75C7.00001 10.89 7.00001 11.0279 7.01314 11.1657ZM26.9194 10.1911C26.1492 9.16855 25.1273 8.36291 23.9531 7.8527C24.4697 7.38174 24.8659 6.79385 25.1085 6.13829C25.3511 5.48272 25.4331 4.77856 25.3477 4.08479C25.2622 3.39101 25.0117 2.72782 24.6172 2.15075C24.2227 1.57367 23.6957 1.09953 23.0803 0.768025C22.4649 0.436519 21.779 0.257303 21.0801 0.245387C20.3811 0.23347 19.6895 0.3892 19.0632 0.699534C18.4368 1.00987 17.8939 1.46577 17.48 2.02906C17.0661 2.59234 16.7931 3.24662 16.6841 3.93708C16.67 4.02993 16.6866 4.12484 16.7314 4.20736C16.7763 4.28989 16.8468 4.35552 16.9324 4.39426C18.146 4.95533 19.1738 5.85184 19.8946 6.978C20.6153 8.10417 20.9989 9.41299 21 10.75C21 10.89 21 11.0279 20.9869 11.1657C20.9839 11.2249 20.993 11.2842 21.0137 11.3398C21.0343 11.3955 21.0661 11.4463 21.107 11.4893C21.148 11.5322 21.1972 11.5664 21.2518 11.5898C21.3063 11.6131 21.365 11.6251 21.4244 11.625H26.25C26.4475 11.6253 26.6393 11.5588 26.7942 11.4363C26.9491 11.3138 27.058 11.1425 27.1031 10.9502C27.1314 10.8184 27.1301 10.6819 27.0993 10.5506C27.0685 10.4194 27.0089 10.2966 26.9249 10.1911H26.9194ZM17.185 14.914C18.0562 14.2467 18.6965 13.3233 19.0158 12.2734C19.3351 11.2235 19.3173 10.0999 18.9651 9.06063C18.6128 8.02133 17.9438 7.11854 17.0519 6.47913C16.1601 5.83973 15.0903 5.49587 13.9929 5.49587C12.8955 5.49587 11.8257 5.83973 10.9339 6.47913C10.0421 7.11854 9.37299 8.02133 9.02073 9.06063C8.66848 10.0999 8.65075 11.2235 8.97003 12.2734C9.28932 13.3233 9.92957 14.2467 10.8008 14.914C9.25482 15.5838 7.9639 16.731 7.11704 18.1875C7.04024 18.3206 6.99981 18.4715 6.99982 18.6251C6.99982 18.7787 7.04027 18.9296 7.11709 19.0626C7.19391 19.1957 7.3044 19.3061 7.43744 19.3829C7.57049 19.4597 7.7214 19.5001 7.87501 19.5H20.125C20.2786 19.5001 20.4295 19.4597 20.5626 19.3829C20.6956 19.3061 20.8061 19.1957 20.8829 19.0626C20.9598 18.9296 21.0002 18.7787 21.0002 18.6251C21.0002 18.4715 20.9598 18.3206 20.883 18.1875C20.0343 16.73 18.741 15.5828 17.1927 14.914H17.185Z" fill="#4535AF"/>
</svg>
