<svg width="28" height="28" viewBox="0 0 28 28" fill="none" xmlns="http://www.w3.org/2000/svg">
<path d="M7.01289 16.1656C7.01586 16.2249 7.00674 16.2842 6.98609 16.3398C6.96543 16.3954 6.93368 16.4463 6.89275 16.4892C6.85183 16.5322 6.80259 16.5664 6.74803 16.5897C6.69347 16.6131 6.63473 16.6251 6.57539 16.625H1.74977C1.55228 16.6253 1.36049 16.5588 1.2056 16.4363C1.05071 16.3137 0.941819 16.1424 0.896643 15.9502C0.868513 15.8186 0.869809 15.6824 0.90044 15.5514C0.931071 15.4203 0.99028 15.2977 1.07383 15.1922C1.84581 14.1684 2.87009 13.3623 4.04664 12.8527C3.53009 12.3817 3.13391 11.7938 2.89129 11.1383C2.64866 10.4827 2.56665 9.77853 2.65213 9.08476C2.7376 8.39098 2.98807 7.72779 3.38256 7.15071C3.77705 6.57364 4.30407 6.0995 4.91949 5.76799C5.5349 5.43649 6.22079 5.25727 6.91971 5.24536C7.61863 5.23344 8.31024 5.38917 8.93659 5.6995C9.56295 6.00984 10.1058 6.46574 10.5198 7.02903C10.9337 7.59231 11.2066 8.24659 11.3157 8.93705C11.3298 9.0299 11.3132 9.1248 11.2683 9.20733C11.2235 9.28986 11.153 9.35549 11.0674 9.39423C9.85379 9.9553 8.82596 10.8518 8.10523 11.978C7.38449 13.1041 7.00092 14.413 6.99977 15.75C6.99977 15.89 6.99977 16.0278 7.01289 16.1656ZM26.9191 15.1911C26.149 14.1685 25.127 13.3629 23.9529 12.8527C24.4694 12.3817 24.8656 11.7938 25.1082 11.1383C25.3509 10.4827 25.4329 9.77853 25.3474 9.08476C25.2619 8.39098 25.0115 7.72779 24.617 7.15071C24.2225 6.57364 23.6955 6.0995 23.08 5.76799C22.4646 5.43649 21.7787 5.25727 21.0798 5.24536C20.3809 5.23344 19.6893 5.38917 19.0629 5.6995C18.4366 6.00984 17.8937 6.46574 17.4798 7.02903C17.0658 7.59231 16.7929 8.24659 16.6838 8.93705C16.6697 9.0299 16.6864 9.1248 16.7312 9.20733C16.776 9.28986 16.8466 9.35549 16.9321 9.39423C18.1457 9.9553 19.1736 10.8518 19.8943 11.978C20.615 13.1041 20.9986 14.413 20.9998 15.75C20.9998 15.89 20.9998 16.0278 20.9866 16.1656C20.9837 16.2249 20.9928 16.2842 21.0135 16.3398C21.0341 16.3954 21.0659 16.4463 21.1068 16.4892C21.1477 16.5322 21.1969 16.5664 21.2515 16.5897C21.3061 16.6131 21.3648 16.6251 21.4241 16.625H26.2498C26.4473 16.6253 26.639 16.5588 26.7939 16.4363C26.9488 16.3137 27.0577 16.1424 27.1029 15.9502C27.1312 15.8183 27.1299 15.6819 27.0991 15.5506C27.0682 15.4193 27.0086 15.2966 26.9246 15.1911H26.9191ZM17.1848 19.9139C18.056 19.2467 18.6962 18.3232 19.0155 17.2733C19.3348 16.2235 19.3171 15.0999 18.9648 14.0606C18.6126 13.0213 17.9435 12.1185 17.0517 11.4791C16.1598 10.8397 15.09 10.4958 13.9927 10.4958C12.8953 10.4958 11.8255 10.8397 10.9337 11.4791C10.0418 12.1185 9.37274 13.0213 9.02049 14.0606C8.66823 15.0999 8.6505 16.2235 8.96979 17.2733C9.28907 18.3232 9.92932 19.2467 10.8005 19.9139C9.25457 20.5838 7.96365 21.731 7.1168 23.1875C7.03999 23.3205 6.99956 23.4715 6.99957 23.6251C6.99958 23.7787 7.04003 23.9296 7.11685 24.0626C7.19367 24.1956 7.30415 24.3061 7.4372 24.3829C7.57024 24.4596 7.72116 24.5 7.87477 24.5H20.1248C20.2784 24.5 20.4293 24.4596 20.5623 24.3829C20.6954 24.3061 20.8059 24.1956 20.8827 24.0626C20.9595 23.9296 21 23.7787 21 23.6251C21 23.4715 20.9595 23.3205 20.8827 23.1875C20.0341 21.73 18.7407 20.5827 17.1924 19.9139H17.1848Z" fill="#4535AF"/>
</svg>
