<svg width="98" height="98" viewBox="0 0 98 98" fill="none" xmlns="http://www.w3.org/2000/svg">
<circle cx="49" cy="48.9999" r="49" fill="#F7F7FC"/>
<path d="M69.8506 69.8249H45.3506V36.667L66.5348 48.2723L69.8506 69.8249Z" fill="#2F2E41"/>
<path d="M49.8771 63.9727C58.6619 63.9727 65.7835 56.8512 65.7835 48.0663C65.7835 39.2815 58.6619 32.1599 49.8771 32.1599C41.0922 32.1599 33.9707 39.2815 33.9707 48.0663C33.9707 56.8512 41.0922 63.9727 49.8771 63.9727Z" fill="#FFB6B6"/>
<path d="M40.7453 66.3249L40.0267 59.0608L54.3769 56.3775L62.8506 77.0091L48.1138 93.9565L37.6138 73.3249L40.7453 66.3249Z" fill="#FFB6B6"/>
<path d="M84.1917 83.0954C84.013 83.2815 83.8306 83.4657 83.6483 83.648C83.0698 84.2265 82.4804 84.7883 81.878 85.3336C72.8517 93.5199 61.2704 97.9999 49.0001 97.9999C37.6877 97.9999 26.9611 94.1923 18.283 87.183C18.2775 87.1794 18.2738 87.1757 18.2682 87.1701C18.0048 86.9583 17.7451 86.7428 17.4854 86.5236C17.5314 86.3909 17.5811 86.2601 17.6309 86.1312C20.4217 78.8604 25.9333 75.3033 29.2785 73.7467C30.9364 72.9749 32.0619 72.693 32.0619 72.693L35.9893 65.6194L38.7543 70.7773L40.7917 74.5794L49.1511 90.1765L56.363 72.2196L58.5975 66.6528L59.1704 65.227L61.8948 67.3473L64.4738 69.3533L69.6667 70.4991L73.8796 71.4294L79.6011 72.693C81.9148 74.5775 83.3222 78.1623 84.1088 82.6165C84.1382 82.7749 84.1659 82.9351 84.1917 83.0954Z" fill="#4535AF"/>
<path d="M41.5101 29.9899C43.4477 26.7353 47.0062 24.5022 50.7796 24.1731C54.553 23.844 58.4444 25.4272 60.9161 28.2973C62.3891 30.0075 63.3548 32.1021 64.7906 33.8437C67.8802 37.5915 73.1486 39.7829 74.4983 44.4488C75.0873 46.4849 74.7938 48.6586 74.4958 50.7571C74.2403 52.5557 73.9849 54.3544 73.7295 56.153C73.5307 57.5528 73.3401 59.0284 73.8649 60.3412C74.4807 61.8813 75.9543 62.8901 76.9071 64.2478C78.5283 66.5581 78.4098 69.9406 76.6309 72.1317C75.8594 73.082 74.8366 73.7986 74.0278 74.7173C73.2189 75.6359 72.619 76.892 72.9577 78.0682C73.6067 80.3213 77.1402 80.8616 77.5277 83.1741C77.7259 84.3564 76.9092 85.5371 75.8393 86.0777C74.7693 86.6183 73.5098 86.634 72.3198 86.4894C67.7968 85.9397 63.609 83.1135 61.4069 79.1247C59.2047 75.136 59.0444 70.0863 60.989 65.9659C62.5862 62.5817 65.5547 59.5912 65.5224 55.8491C65.5047 53.8105 64.5697 51.9064 63.6553 50.0843C61.7839 46.3548 59.9124 42.6253 58.041 38.8958C57.0385 36.8981 55.8751 34.7453 53.8113 33.887C52.2163 33.2238 50.4065 33.481 48.7005 33.7523C46.9945 34.0236 45.1873 34.2877 43.5875 33.6359C41.9878 32.9842 40.779 31.0478 41.5412 29.4976" fill="#2F2E41"/>
<path d="M44.2973 30.1599C41.2242 29.1483 37.7768 30.7722 35.6963 33.2499C33.6158 35.7276 32.6065 38.9063 31.6451 41.9955C31.0944 43.765 30.5437 45.5344 29.993 47.3039C29.475 48.9685 28.9569 50.6331 28.4389 52.2977C27.8295 54.2556 27.2152 56.3356 27.7153 58.3243C28.0768 59.762 29.0071 61.0674 29.0271 62.5497C29.048 64.0981 28.0784 65.4575 27.2286 66.752C26.3788 68.0466 25.5811 69.5846 25.986 71.0793C26.6018 73.3528 29.7626 74.6025 29.5894 76.9515C29.5315 77.7354 29.0782 78.4606 29.0864 79.2466C29.0969 80.2467 29.8799 81.1109 30.7973 81.5093C31.7146 81.9078 32.7466 81.9294 33.7466 81.9118C36.8139 81.8579 39.8757 81.4936 42.8701 80.8264C44.0222 80.5697 45.1937 80.2548 46.1527 79.5667C47.1116 78.8786 47.827 77.7385 47.7022 76.5648C47.5078 74.7358 45.5413 73.6982 44.5489 72.1496C43.5742 70.6286 43.5968 68.7013 43.1765 66.9443C42.5988 64.5296 41.1722 62.4215 40.1013 60.1815C36.075 51.7601 37.4844 41.0259 43.5483 33.9294C44.0844 33.302 44.6702 32.6707 44.8938 31.8763C45.1175 31.0819 44.8292 30.0697 44.052 29.7918" fill="#2F2E41"/>
<path d="M83.6482 14.3517C74.3934 5.09698 62.0882 -0.00012207 49 -0.00012207C35.9118 -0.00012207 23.6066 5.09698 14.3518 14.3517C5.0971 23.6064 0 35.9117 0 48.9999C0 60.9459 4.24605 72.2399 12.0271 81.1575C12.7695 82.0104 13.545 82.8412 14.3518 83.648C14.5416 83.8378 14.7332 84.0275 14.9266 84.2117C15.4424 84.7109 15.9674 85.1991 16.5016 85.6725C16.8258 85.9617 17.1537 86.2454 17.4853 86.5236C17.745 86.7428 18.0047 86.9583 18.2682 87.1701C18.2737 87.1757 18.2774 87.1793 18.2829 87.183C26.9611 94.1922 37.6876 97.9999 49 97.9999C61.2703 97.9999 72.8516 93.5199 81.8779 85.3336C82.4803 84.7883 83.0697 84.2264 83.6482 83.648C83.8305 83.4657 84.0129 83.2814 84.1916 83.0954C84.6889 82.5833 85.1716 82.062 85.6432 81.5333C93.6324 72.5586 98 61.1154 98 48.9999C98 35.9117 92.9029 23.6064 83.6482 14.3517ZM85.5234 81.0746C85.0629 81.5978 84.5913 82.1135 84.1087 82.6165C83.3571 83.3993 82.5816 84.1583 81.7803 84.8896C81.4763 85.1696 81.1687 85.4422 80.8574 85.713C77.7129 88.4486 74.2129 90.7843 70.4384 92.6449C69.1139 93.2988 67.7563 93.8938 66.3674 94.4262C60.9718 96.4967 55.1158 97.6315 49 97.6315C43.0979 97.6315 37.4389 96.5741 32.2018 94.6399C30.0521 93.8478 27.9742 92.9064 25.9792 91.8288C25.6863 91.6704 25.3953 91.5101 25.106 91.3462C23.5845 90.4841 22.1126 89.5428 20.6997 88.5259C19.6442 87.7688 18.62 86.9712 17.6308 86.1312C17.2845 85.8383 16.9418 85.5417 16.6047 85.2378C16.0558 84.7496 15.5179 84.2467 14.9929 83.7309C13.9982 82.7564 13.0476 81.7414 12.1395 80.6859C4.80606 72.168 0.368421 61.0933 0.368421 48.9999C0.368421 22.1843 22.1845 0.368299 49 0.368299C75.8155 0.368299 97.6316 22.1843 97.6316 48.9999C97.6316 61.2793 93.0576 72.5088 85.5234 81.0746Z" fill="#4535AF"/>
</svg>
