<svg width="20" height="20" viewBox="0 0 20 20" fill="none" xmlns="http://www.w3.org/2000/svg">
<path d="M18.0156 3.86954C17.9194 3.64728 17.76 3.4582 17.5572 3.32583C17.3544 3.19345 17.1172 3.12362 16.875 3.12501H3.12498C2.88305 3.12548 2.64646 3.19615 2.4439 3.32845C2.24135 3.46074 2.08154 3.64897 1.98386 3.87031C1.88618 4.09164 1.85483 4.33656 1.8936 4.57536C1.93238 4.81416 2.03963 5.03658 2.20232 5.21563L2.20857 5.22266L7.49998 10.8727V16.875C7.49993 17.1012 7.56127 17.3232 7.67747 17.5174C7.79368 17.7115 7.96038 17.8704 8.15981 17.9772C8.35924 18.084 8.58392 18.1347 8.8099 18.1239C9.03587 18.113 9.25466 18.041 9.44295 17.9156L11.9429 16.2484C12.1143 16.1343 12.2548 15.9796 12.352 15.798C12.4492 15.6165 12.5 15.4137 12.5 15.2078V10.8727L17.7922 5.22266L17.7984 5.21563C17.9628 5.0374 18.0711 4.81468 18.1097 4.57529C18.1484 4.3359 18.1156 4.09044 18.0156 3.86954ZM11.589 10.0219C11.3719 10.252 11.2507 10.5563 11.25 10.8727V15.2078L8.74998 16.875V10.8727C8.75071 10.5551 8.62996 10.2493 8.41248 10.018L3.12498 4.37501H16.875L11.589 10.0219Z" fill="#92929D"/>
</svg>
