<svg width="20" height="20" viewBox="0 0 20 20" fill="none" xmlns="http://www.w3.org/2000/svg">
<path d="M17.7976 5.21563L17.7914 5.22266L12.5 10.8727V15.2078C12.5003 15.414 12.4496 15.617 12.3524 15.7989C12.2552 15.9807 12.1145 16.1357 11.9429 16.25L9.44295 17.9172C9.25455 18.0427 9.03561 18.1147 8.8095 18.1254C8.5834 18.1362 8.3586 18.0854 8.15912 17.9784C7.95964 17.8714 7.79296 17.7122 7.67687 17.5179C7.56078 17.3236 7.49964 17.1014 7.49998 16.875V10.8727L2.20857 5.22266L2.20232 5.21563C2.03963 5.03657 1.93238 4.81416 1.8936 4.57536C1.85483 4.33656 1.88618 4.09163 1.98386 3.8703C2.08154 3.64897 2.24135 3.46074 2.4439 3.32844C2.64646 3.19615 2.88305 3.12548 3.12498 3.125H16.875C17.1171 3.12502 17.354 3.19537 17.5569 3.32749C17.7598 3.4596 17.92 3.64781 18.018 3.86923C18.1159 4.09065 18.1475 4.33576 18.1088 4.57478C18.0701 4.81379 17.9628 5.03643 17.8 5.21563H17.7976Z" fill="#4535AF"/>
</svg>
