<svg width="19" height="18" viewBox="0 0 19 18" fill="none" xmlns="http://www.w3.org/2000/svg">
<path fill-rule="evenodd" clip-rule="evenodd" d="M18.0795 9.20419C18.0795 8.56601 18.0222 7.95237 17.9158 7.36328H9.43945V10.8446H14.2831C14.0745 11.9696 13.4404 12.9228 12.4872 13.561V15.8192H15.3958C17.0976 14.2524 18.0795 11.9451 18.0795 9.20419Z" fill="#4285F4"/>
<path fill-rule="evenodd" clip-rule="evenodd" d="M9.43921 18C11.8692 18 13.9065 17.1941 15.3956 15.8195L12.4869 13.5613C11.681 14.1013 10.6501 14.4204 9.43921 14.4204C7.09512 14.4204 5.11103 12.8372 4.4033 10.71H1.39648V13.0418C2.87739 15.9831 5.92103 18 9.43921 18Z" fill="#34A853"/>
<path fill-rule="evenodd" clip-rule="evenodd" d="M4.40354 10.7098C4.22354 10.1698 4.12127 9.59301 4.12127 8.99983C4.12127 8.40664 4.22354 7.82983 4.40354 7.28983V4.95801H1.39673C0.78718 6.17301 0.439453 7.54755 0.439453 8.99983C0.439453 10.4521 0.78718 11.8266 1.39673 13.0416L4.40354 10.7098Z" fill="#FBBC05"/>
<path fill-rule="evenodd" clip-rule="evenodd" d="M9.43921 3.57955C10.7606 3.57955 11.9469 4.03364 12.8797 4.92545L15.461 2.34409C13.9024 0.891818 11.8651 0 9.43921 0C5.92103 0 2.87739 2.01682 1.39648 4.95818L4.4033 7.29C5.11103 5.16273 7.09512 3.57955 9.43921 3.57955Z" fill="#EA4335"/>
</svg>
