<svg width="24" height="24" viewBox="0 0 24 24" fill="none" xmlns="http://www.w3.org/2000/svg">
<path d="M12.7499 7.5V11.5753L16.1362 13.6069C16.3068 13.7093 16.4296 13.8753 16.4778 14.0684C16.526 14.2614 16.4955 14.4657 16.3931 14.6362C16.2906 14.8068 16.1246 14.9297 15.9316 14.9779C15.7385 15.0261 15.5343 14.9956 15.3637 14.8931L11.6137 12.6431C11.5027 12.5764 11.4109 12.4822 11.3471 12.3695C11.2834 12.2568 11.2499 12.1295 11.2499 12V7.5C11.2499 7.30109 11.329 7.11032 11.4696 6.96967C11.6103 6.82902 11.801 6.75 11.9999 6.75C12.1989 6.75 12.3896 6.82902 12.5303 6.96967C12.6709 7.11032 12.7499 7.30109 12.7499 7.5ZM11.9999 3C10.8168 2.99705 9.64484 3.22878 8.55187 3.68177C7.45889 4.13477 6.4666 4.80003 5.63244 5.63906C4.95088 6.32906 4.34525 6.99281 3.74994 7.6875V6C3.74994 5.80109 3.67092 5.61032 3.53027 5.46967C3.38962 5.32902 3.19885 5.25 2.99994 5.25C2.80103 5.25 2.61026 5.32902 2.46961 5.46967C2.32896 5.61032 2.24994 5.80109 2.24994 6V9.75C2.24994 9.94891 2.32896 10.1397 2.46961 10.2803C2.61026 10.421 2.80103 10.5 2.99994 10.5H6.74994C6.94885 10.5 7.13962 10.421 7.28027 10.2803C7.42092 10.1397 7.49994 9.94891 7.49994 9.75C7.49994 9.55109 7.42092 9.36032 7.28027 9.21967C7.13962 9.07902 6.94885 9 6.74994 9H4.59369C5.264 8.21062 5.9315 7.46719 6.69275 6.69656C7.73511 5.6542 9.06154 4.94213 10.5063 4.64932C11.951 4.35651 13.45 4.49594 14.816 5.0502C16.1819 5.60446 17.3543 6.54896 18.1865 7.76569C19.0187 8.98242 19.4739 10.4174 19.4953 11.8914C19.5166 13.3654 19.1031 14.8129 18.3064 16.0532C17.5097 17.2935 16.3652 18.2715 15.0158 18.8651C13.6665 19.4586 12.1721 19.6413 10.7195 19.3904C9.26692 19.1395 7.92046 18.4661 6.84838 17.4544C6.77672 17.3867 6.69244 17.3337 6.60033 17.2986C6.50821 17.2634 6.41008 17.2468 6.31154 17.2496C6.21299 17.2524 6.11596 17.2745 6.02598 17.3148C5.936 17.3551 5.85484 17.4127 5.78713 17.4844C5.71941 17.556 5.66648 17.6403 5.63134 17.7324C5.5962 17.8245 5.57955 17.9227 5.58233 18.0212C5.58512 18.1198 5.60729 18.2168 5.64757 18.3068C5.68786 18.3967 5.74547 18.4779 5.81713 18.5456C6.88536 19.5537 8.18408 20.285 9.59994 20.6757C11.0158 21.0664 12.5058 21.1047 13.9398 20.7872C15.3739 20.4696 16.7084 19.8059 17.827 18.854C18.9455 17.9021 19.8141 16.6909 20.3569 15.3261C20.8997 13.9613 21.1003 12.4844 20.941 11.0242C20.7818 9.56411 20.2676 8.16514 19.4434 6.94943C18.6191 5.73373 17.5099 4.73822 16.2124 4.04979C14.915 3.36137 13.4687 3.00095 11.9999 3Z" fill="#4535AF"/>
</svg>
