<svg width="23" height="22" viewBox="0 0 23 22" fill="none" xmlns="http://www.w3.org/2000/svg">
<path d="M12.5 5.75V10.5045L16.4506 12.8747C16.6496 12.9942 16.793 13.1879 16.8492 13.4131C16.9054 13.6383 16.8698 13.8766 16.7503 14.0756C16.6308 14.2746 16.4371 14.418 16.2119 14.4742C15.9867 14.5304 15.7484 14.4948 15.5494 14.3753L11.1744 11.7503C11.0449 11.6725 10.9377 11.5625 10.8634 11.431C10.789 11.2996 10.75 11.1511 10.75 11V5.75C10.75 5.51794 10.8422 5.29538 11.0063 5.13128C11.1704 4.96719 11.3929 4.875 11.625 4.875C11.8571 4.875 12.0796 4.96719 12.2437 5.13128C12.4078 5.29538 12.5 5.51794 12.5 5.75ZM11.625 0.500002C10.2447 0.496564 8.87739 0.766914 7.60225 1.29541C6.32711 1.8239 5.16944 2.60004 4.19625 3.57891C3.40109 4.38391 2.69453 5.15828 2 5.96875V4C2 3.76794 1.90781 3.54538 1.74372 3.38128C1.57962 3.21719 1.35706 3.125 1.125 3.125C0.892936 3.125 0.670376 3.21719 0.506282 3.38128C0.342187 3.54538 0.25 3.76794 0.25 4V8.375C0.25 8.60707 0.342187 8.82963 0.506282 8.99372C0.670376 9.15781 0.892936 9.25 1.125 9.25H5.5C5.73206 9.25 5.95462 9.15781 6.11872 8.99372C6.28281 8.82963 6.375 8.60707 6.375 8.375C6.375 8.14294 6.28281 7.92038 6.11872 7.75628C5.95462 7.59219 5.73206 7.5 5.5 7.5H2.98438C3.76641 6.57906 4.54516 5.71172 5.43328 4.81266C6.64937 3.59657 8.19687 2.76582 9.8824 2.42421C11.5679 2.0826 13.3168 2.24527 14.9104 2.89191C16.504 3.53854 17.8717 4.64046 18.8426 6.05998C19.8136 7.4795 20.3447 9.15366 20.3695 10.8733C20.3944 12.5929 19.912 14.2817 18.9825 15.7288C18.0531 17.1758 16.7178 18.3168 15.1435 19.0092C13.5693 19.7017 11.8259 19.9149 10.1312 19.6222C8.43648 19.3295 6.8656 18.5438 5.61484 17.3634C5.53125 17.2844 5.43291 17.2227 5.32545 17.1817C5.21799 17.1407 5.1035 17.1213 4.98853 17.1245C4.87356 17.1278 4.76036 17.1536 4.65538 17.2006C4.55041 17.2476 4.45572 17.3148 4.37672 17.3984C4.29772 17.482 4.23596 17.5804 4.19497 17.6878C4.15397 17.7953 4.13454 17.9098 4.13779 18.0247C4.14104 18.1397 4.16691 18.2529 4.21391 18.3579C4.26091 18.4629 4.32812 18.5576 4.41172 18.6366C5.65799 19.8126 7.17317 20.6658 8.825 21.1217C10.4768 21.5775 12.2151 21.6221 13.8882 21.2517C15.5613 20.8812 17.1182 20.1069 18.4232 18.9963C19.7282 17.8858 20.7415 16.4727 21.3748 14.8804C22.0081 13.2882 22.2421 11.5651 22.0563 9.86161C21.8705 8.15813 21.2706 6.52601 20.309 5.10768C19.3474 3.68935 18.0533 2.52793 16.5396 1.72476C15.0258 0.921604 13.3386 0.501117 11.625 0.500002Z" fill="#4535AF"/>
</svg>
