<svg width="22" height="23" viewBox="0 0 22 23" fill="none" xmlns="http://www.w3.org/2000/svg">
<path d="M21.5 10.6383V20.75C21.5 21.2141 21.3156 21.6592 20.9874 21.9874C20.6592 22.3156 20.2141 22.5 19.75 22.5H15.375C14.9109 22.5 14.4658 22.3156 14.1376 21.9874C13.8094 21.6592 13.625 21.2141 13.625 20.75V16.375C13.625 16.1429 13.5328 15.9203 13.3687 15.7563C13.2046 15.5922 12.9821 15.5 12.75 15.5H9.25C9.01794 15.5 8.79538 15.5922 8.63128 15.7563C8.46719 15.9203 8.375 16.1429 8.375 16.375V20.75C8.375 21.2141 8.19063 21.6592 7.86244 21.9874C7.53425 22.3156 7.08913 22.5 6.625 22.5H2.25C1.78587 22.5 1.34075 22.3156 1.01256 21.9874C0.684374 21.6592 0.5 21.2141 0.5 20.75V10.6383C0.499963 10.3961 0.550202 10.1565 0.647538 9.9347C0.744873 9.71292 0.887185 9.51375 1.06547 9.34981L9.81547 1.09419L9.8275 1.08216C10.1497 0.789179 10.5695 0.626831 11.0049 0.626831C11.4404 0.626831 11.8602 0.789179 12.1823 1.08216C12.1861 1.08644 12.1901 1.09046 12.1944 1.09419L20.9444 9.34981C21.1209 9.51462 21.2614 9.71417 21.357 9.93591C21.4526 10.1576 21.5013 10.3968 21.5 10.6383Z" fill="#4535AF"/>
</svg>
