<svg width="28" height="28" viewBox="0 0 28 28" fill="none" xmlns="http://www.w3.org/2000/svg">
<path d="M23.625 4.375H4.375C3.91087 4.375 3.46575 4.55937 3.13756 4.88756C2.80937 5.21575 2.625 5.66087 2.625 6.125V21.875C2.625 22.3391 2.80937 22.7842 3.13756 23.1124C3.46575 23.4406 3.91087 23.625 4.375 23.625H23.625C24.0891 23.625 24.5342 23.4406 24.8624 23.1124C25.1906 22.7842 25.375 22.3391 25.375 21.875V6.125C25.375 5.66087 25.1906 5.21575 24.8624 4.88756C24.5342 4.55937 24.0891 4.375 23.625 4.375ZM23.625 21.875H4.375V6.125H23.625V21.875ZM20.125 10.5C20.125 10.7321 20.0328 10.9546 19.8687 11.1187C19.7046 11.2828 19.4821 11.375 19.25 11.375H8.75C8.51794 11.375 8.29538 11.2828 8.13128 11.1187C7.96719 10.9546 7.875 10.7321 7.875 10.5C7.875 10.2679 7.96719 10.0454 8.13128 9.88128C8.29538 9.71719 8.51794 9.625 8.75 9.625H19.25C19.4821 9.625 19.7046 9.71719 19.8687 9.88128C20.0328 10.0454 20.125 10.2679 20.125 10.5ZM20.125 14C20.125 14.2321 20.0328 14.4546 19.8687 14.6187C19.7046 14.7828 19.4821 14.875 19.25 14.875H8.75C8.51794 14.875 8.29538 14.7828 8.13128 14.6187C7.96719 14.4546 7.875 14.2321 7.875 14C7.875 13.7679 7.96719 13.5454 8.13128 13.3813C8.29538 13.2172 8.51794 13.125 8.75 13.125H19.25C19.4821 13.125 19.7046 13.2172 19.8687 13.3813C20.0328 13.5454 20.125 13.7679 20.125 14ZM20.125 17.5C20.125 17.7321 20.0328 17.9546 19.8687 18.1187C19.7046 18.2828 19.4821 18.375 19.25 18.375H8.75C8.51794 18.375 8.29538 18.2828 8.13128 18.1187C7.96719 17.9546 7.875 17.7321 7.875 17.5C7.875 17.2679 7.96719 17.0454 8.13128 16.8813C8.29538 16.7172 8.51794 16.625 8.75 16.625H19.25C19.4821 16.625 19.7046 16.7172 19.8687 16.8813C20.0328 17.0454 20.125 17.2679 20.125 17.5Z" fill="#92929D"/>
</svg>
