<svg width="24" height="20" viewBox="0 0 24 20" fill="none" xmlns="http://www.w3.org/2000/svg">
<path d="M21.625 0.375H2.375C1.91087 0.375 1.46575 0.559374 1.13756 0.887563C0.809374 1.21575 0.625 1.66087 0.625 2.125V17.875C0.625 18.3391 0.809374 18.7842 1.13756 19.1124C1.46575 19.4406 1.91087 19.625 2.375 19.625H21.625C22.0891 19.625 22.5342 19.4406 22.8624 19.1124C23.1906 18.7842 23.375 18.3391 23.375 17.875V2.125C23.375 1.66087 23.1906 1.21575 22.8624 0.887563C22.5342 0.559374 22.0891 0.375 21.625 0.375ZM17.25 14.375H6.75C6.51794 14.375 6.29538 14.2828 6.13128 14.1187C5.96719 13.9546 5.875 13.7321 5.875 13.5C5.875 13.2679 5.96719 13.0454 6.13128 12.8813C6.29538 12.7172 6.51794 12.625 6.75 12.625H17.25C17.4821 12.625 17.7046 12.7172 17.8687 12.8813C18.0328 13.0454 18.125 13.2679 18.125 13.5C18.125 13.7321 18.0328 13.9546 17.8687 14.1187C17.7046 14.2828 17.4821 14.375 17.25 14.375ZM17.25 10.875H6.75C6.51794 10.875 6.29538 10.7828 6.13128 10.6187C5.96719 10.4546 5.875 10.2321 5.875 10C5.875 9.76794 5.96719 9.54538 6.13128 9.38128C6.29538 9.21719 6.51794 9.125 6.75 9.125H17.25C17.4821 9.125 17.7046 9.21719 17.8687 9.38128C18.0328 9.54538 18.125 9.76794 18.125 10C18.125 10.2321 18.0328 10.4546 17.8687 10.6187C17.7046 10.7828 17.4821 10.875 17.25 10.875ZM17.25 7.375H6.75C6.51794 7.375 6.29538 7.28281 6.13128 7.11872C5.96719 6.95462 5.875 6.73206 5.875 6.5C5.875 6.26794 5.96719 6.04538 6.13128 5.88128C6.29538 5.71719 6.51794 5.625 6.75 5.625H17.25C17.4821 5.625 17.7046 5.71719 17.8687 5.88128C18.0328 6.04538 18.125 6.26794 18.125 6.5C18.125 6.73206 18.0328 6.95462 17.8687 7.11872C17.7046 7.28281 17.4821 7.375 17.25 7.375Z" fill="#4535AF"/>
</svg>
