<svg width="24" height="25" viewBox="0 0 24 25" fill="none" xmlns="http://www.w3.org/2000/svg">
<path d="M21.75 16.4956H21V7.49561C21 6.89887 20.7629 6.32657 20.341 5.90462C19.919 5.48266 19.3467 5.24561 18.75 5.24561H5.25C4.65326 5.24561 4.08097 5.48266 3.65901 5.90462C3.23705 6.32657 3 6.89887 3 7.49561V16.4956H2.25C2.05109 16.4956 1.86032 16.5746 1.71967 16.7153C1.57902 16.8559 1.5 17.0467 1.5 17.2456V18.7456C1.5 19.3423 1.73705 19.9146 2.15901 20.3366C2.58097 20.7586 3.15326 20.9956 3.75 20.9956H20.25C20.8467 20.9956 21.419 20.7586 21.841 20.3366C22.2629 19.9146 22.5 19.3423 22.5 18.7456V17.2456C22.5 17.0467 22.421 16.8559 22.2803 16.7153C22.1397 16.5746 21.9489 16.4956 21.75 16.4956ZM4.5 7.49561C4.5 7.29669 4.57902 7.10593 4.71967 6.96528C4.86032 6.82462 5.05109 6.74561 5.25 6.74561H18.75C18.9489 6.74561 19.1397 6.82462 19.2803 6.96528C19.421 7.10593 19.5 7.29669 19.5 7.49561V16.4956H4.5V7.49561ZM21 18.7456C21 18.9445 20.921 19.1353 20.7803 19.2759C20.6397 19.4166 20.4489 19.4956 20.25 19.4956H3.75C3.55109 19.4956 3.36032 19.4166 3.21967 19.2759C3.07902 19.1353 3 18.9445 3 18.7456V17.9956H21V18.7456ZM14.25 8.99561C14.25 9.19452 14.171 9.38528 14.0303 9.52594C13.8897 9.66659 13.6989 9.74561 13.5 9.74561H10.5C10.3011 9.74561 10.1103 9.66659 9.96967 9.52594C9.82902 9.38528 9.75 9.19452 9.75 8.99561C9.75 8.79669 9.82902 8.60593 9.96967 8.46528C10.1103 8.32462 10.3011 8.24561 10.5 8.24561H13.5C13.6989 8.24561 13.8897 8.32462 14.0303 8.46528C14.171 8.60593 14.25 8.79669 14.25 8.99561Z" fill="#4535AF"/>
</svg>
