<svg width="16" height="15" viewBox="0 0 16 15" fill="none" xmlns="http://www.w3.org/2000/svg">
<path d="M6.33365 1.66668H9.00032V3.00002H6.60032L7.93365 4.33335H13.0003V9.40002L14.3337 10.7334V4.33335C14.3337 3.59335 13.7403 3.00002 13.0003 3.00002H10.3337V1.66668C10.3337 0.926684 9.74032 0.333351 9.00032 0.333351H6.33365C5.67365 0.333351 5.13365 0.800018 5.02699 1.42668L6.33365 2.73335V1.66668ZM1.93365 0.226685L0.993652 1.16668L2.82699 3.00002H2.33365C1.59365 3.00002 1.00699 3.59335 1.00699 4.33335L1.00032 11.6667C1.00032 12.4067 1.59365 13 2.33365 13H12.827L14.1603 14.3334L15.1003 13.3934L1.93365 0.226685ZM2.33365 11.6667V4.33335H4.16032L11.4937 11.6667H2.33365Z" fill="#272D3D"/>
</svg>
