<svg width="28" height="28" viewBox="0 0 28 28" fill="none" xmlns="http://www.w3.org/2000/svg">
<path d="M12.25 23.625C12.25 23.8571 12.1578 24.0796 11.9937 24.2437C11.8296 24.4078 11.6071 24.5 11.375 24.5H5.25C4.78587 24.5 4.34075 24.3156 4.01256 23.9874C3.68437 23.6592 3.5 23.2141 3.5 22.75V5.25C3.5 4.78587 3.68437 4.34075 4.01256 4.01256C4.34075 3.68437 4.78587 3.5 5.25 3.5H11.375C11.6071 3.5 11.8296 3.59219 11.9937 3.75628C12.1578 3.92038 12.25 4.14294 12.25 4.375C12.25 4.60706 12.1578 4.82962 11.9937 4.99372C11.8296 5.15781 11.6071 5.25 11.375 5.25H5.25V22.75H11.375C11.6071 22.75 11.8296 22.8422 11.9937 23.0063C12.1578 23.1704 12.25 23.3929 12.25 23.625ZM24.2441 13.3809L19.8691 9.00594C19.7467 8.88343 19.5907 8.79998 19.4209 8.76616C19.2511 8.73234 19.075 8.74967 18.9151 8.81596C18.7551 8.88224 18.6184 8.9945 18.5222 9.13852C18.4261 9.28254 18.3749 9.45184 18.375 9.625V13.125H11.375C11.1429 13.125 10.9204 13.2172 10.7563 13.3813C10.5922 13.5454 10.5 13.7679 10.5 14C10.5 14.2321 10.5922 14.4546 10.7563 14.6187C10.9204 14.7828 11.1429 14.875 11.375 14.875H18.375V18.375C18.3749 18.5482 18.4261 18.7175 18.5222 18.8615C18.6184 19.0055 18.7551 19.1178 18.9151 19.184C19.075 19.2503 19.2511 19.2677 19.4209 19.2338C19.5907 19.2 19.7467 19.1166 19.8691 18.9941L24.2441 14.6191C24.3254 14.5378 24.39 14.4413 24.434 14.3351C24.478 14.2288 24.5007 14.115 24.5007 14C24.5007 13.885 24.478 13.7712 24.434 13.6649C24.39 13.5587 24.3254 13.4622 24.2441 13.3809Z" fill="#4535AF"/>
</svg>
