<svg width="98" height="98" viewBox="0 0 98 98" fill="none" xmlns="http://www.w3.org/2000/svg">
<g clip-path="url(#clip0_1366_8838)">
<circle cx="49" cy="48.9999" r="49" fill="#F7F7FC"/>
<path d="M40.7453 66.3253L40.0267 59.0612L54.3769 56.3779L62.8506 77.0095L48.1138 93.9568L37.6138 73.3253L40.7453 66.3253Z" fill="#FFB6B6"/>
<path d="M79.7928 87.1222C71.1 94.1701 60.3457 97.9999 49.0002 97.9999C38.6402 97.9999 28.7721 94.8057 20.5176 88.8851C20.5323 88.7304 20.5471 88.5775 20.56 88.4246C20.7792 86.0299 20.9744 83.7014 21.1034 81.7709C21.6026 74.2754 39.0897 69.2796 39.0897 69.2796C39.0897 69.2796 39.1689 69.3588 39.3273 69.497C40.2926 70.3443 44.2107 73.417 51.0818 74.2754C57.2086 75.0417 59.2257 71.4072 59.8355 69.6664C60.0197 69.1359 60.075 68.7804 60.075 68.7804L78.0613 77.2743C79.2347 78.9507 79.6934 82.5612 79.7836 86.6193C79.7873 86.787 79.791 86.9528 79.7928 87.1222Z" fill="#4535AF"/>
<path d="M83.6482 14.3517C74.3934 5.09698 62.0882 -0.00012207 49 -0.00012207C35.9118 -0.00012207 23.6066 5.09698 14.3518 14.3517C5.09711 23.6065 0 35.9117 0 48.9999C0 60.9459 4.24606 72.2399 12.0271 81.1575C12.7695 82.0104 13.545 82.8412 14.3518 83.648C14.5416 83.8378 14.7332 84.0275 14.9266 84.2117C15.4424 84.7109 15.9674 85.1991 16.5016 85.6725C16.8258 85.9617 17.1537 86.2454 17.4853 86.5236C17.745 86.7428 18.0047 86.9583 18.2682 87.1701C18.2737 87.1757 18.2774 87.1794 18.2829 87.183C19.0142 87.7725 19.7584 88.3399 20.5174 88.8851C28.7718 94.8057 38.64 97.9999 49 97.9999C60.3455 97.9999 71.0997 94.1701 79.7926 87.1222C80.5018 86.5475 81.1963 85.9507 81.8779 85.3336C82.4803 84.7883 83.0697 84.2264 83.6482 83.648C83.8305 83.4657 84.0129 83.2815 84.1916 83.0954C84.689 82.5833 85.1716 82.062 85.6432 81.5333C93.6324 72.5586 98 61.1154 98 48.9999C98 35.9117 92.9029 23.6065 83.6482 14.3517ZM85.5234 81.0746C85.0629 81.5978 84.5913 82.1136 84.1087 82.6165C83.3571 83.3993 82.5816 84.1583 81.7803 84.8896C81.4763 85.1696 81.1687 85.4422 80.8574 85.713C80.5037 86.0207 80.1463 86.3228 79.7834 86.6194C76.9226 88.968 73.7892 90.9944 70.4384 92.6449C69.1139 93.2988 67.7563 93.8938 66.3674 94.4262C60.9719 96.4967 55.1158 97.6315 49 97.6315C43.0979 97.6315 37.439 96.5741 32.2018 94.6399C30.0521 93.8478 27.9742 92.9065 25.9792 91.8288C25.6863 91.6704 25.3953 91.5101 25.1061 91.3462C23.5845 90.4841 22.1126 89.5428 20.6997 88.5259C20.6537 88.4928 20.6058 88.4578 20.5597 88.4246C19.554 87.6988 18.5758 86.9343 17.6308 86.1312C17.2845 85.8383 16.9418 85.5417 16.6047 85.2378C16.0558 84.7496 15.5179 84.2467 14.9929 83.7309C13.9982 82.7565 13.0476 81.7415 12.1395 80.6859C4.80606 72.168 0.368421 61.0933 0.368421 48.9999C0.368421 22.1843 22.1845 0.368299 49 0.368299C75.8155 0.368299 97.6316 22.1843 97.6316 48.9999C97.6316 61.2794 93.0576 72.5088 85.5234 81.0746Z" fill="#4535AF"/>
<path d="M49.4604 66.3157C57.752 66.3157 64.4736 58.5219 64.4736 48.9078C64.4736 39.2937 57.752 31.4999 49.4604 31.4999C41.1689 31.4999 34.4473 39.2937 34.4473 48.9078C34.4473 58.5219 41.1689 66.3157 49.4604 66.3157Z" fill="#FFB8B8"/>
<path d="M35.1785 54.342C35.1785 54.342 36.4562 51.751 36.1592 43.0953C35.8622 34.4397 47.2762 39.3352 56.8138 38.5095C66.3514 37.6838 64.3325 52.9603 64.3325 52.9603C64.3325 52.9603 65.0206 52.0522 66.4937 44.6793C67.9669 37.3064 64.622 29.959 64.622 29.959C63.6369 22.2115 58.3278 24.6945 58.3278 24.6945C60.8846 25.8439 60.3935 28.3016 60.3935 28.3016C58.2293 23.9198 52.9201 26.4029 52.9201 26.4029C45.8393 21.2718 38.663 28.0288 38.663 28.0288C30.109 30.2706 35.1256 38.126 35.1256 38.126C26.5231 43.1462 35.1785 54.342 35.1785 54.342Z" fill="#2F2E41"/>
</g>
<defs>
<clipPath id="clip0_1366_8838">
<rect width="98" height="98" fill="white"/>
</clipPath>
</defs>
</svg>
