<svg width="28" height="28" viewBox="0 0 28 28" fill="none" xmlns="http://www.w3.org/2000/svg">
<path d="M24.9649 6.89828L24.4552 6.60406C24.515 6.28749 24.515 5.96251 24.4552 5.64594L24.9649 5.35172C25.166 5.23569 25.3127 5.04455 25.3728 4.82036C25.4329 4.59616 25.4014 4.35728 25.2854 4.15625C25.1694 3.95522 24.9782 3.80853 24.754 3.74843C24.5298 3.68833 24.291 3.71975 24.0899 3.83578L23.5792 4.13109C23.3347 3.92137 23.0536 3.75859 22.7501 3.65094V3.0625C22.7501 2.83044 22.6579 2.60788 22.4938 2.44378C22.3297 2.27969 22.1072 2.1875 21.8751 2.1875C21.643 2.1875 21.4205 2.27969 21.2564 2.44378C21.0923 2.60788 21.0001 2.83044 21.0001 3.0625V3.65094C20.6965 3.75859 20.4155 3.92137 20.171 4.13109L19.6602 3.83578C19.5607 3.77833 19.4508 3.74104 19.3369 3.72605C19.2229 3.71107 19.1071 3.71867 18.9961 3.74843C18.8851 3.77818 18.7811 3.82952 18.6899 3.89949C18.5987 3.96947 18.5222 4.05671 18.4648 4.15625C18.4073 4.25579 18.37 4.36567 18.3551 4.47961C18.3401 4.59356 18.3477 4.70935 18.3774 4.82036C18.4072 4.93137 18.4585 5.03543 18.5285 5.1266C18.5985 5.21777 18.6857 5.29427 18.7852 5.35172L19.2949 5.64594C19.2351 5.96251 19.2351 6.28749 19.2949 6.60406L18.7852 6.89828C18.6183 6.99455 18.4879 7.14321 18.4141 7.32121C18.3403 7.4992 18.3273 7.69657 18.3772 7.88269C18.4271 8.06881 18.537 8.23326 18.6899 8.35053C18.8427 8.4678 19.0301 8.53132 19.2227 8.53125C19.3764 8.53173 19.5274 8.49133 19.6602 8.41422L20.171 8.11891C20.4155 8.32863 20.6965 8.49141 21.0001 8.59906V9.1875C21.0001 9.41956 21.0923 9.64212 21.2564 9.80622C21.4205 9.97031 21.643 10.0625 21.8751 10.0625C22.1072 10.0625 22.3297 9.97031 22.4938 9.80622C22.6579 9.64212 22.7501 9.41956 22.7501 9.1875V8.59906C23.0536 8.49141 23.3347 8.32863 23.5792 8.11891L24.0899 8.41422C24.2228 8.49133 24.3738 8.53173 24.5274 8.53125C24.7201 8.53132 24.9074 8.4678 25.0603 8.35053C25.2132 8.23326 25.3231 8.06881 25.373 7.88269C25.4228 7.69657 25.4099 7.4992 25.3361 7.32121C25.2623 7.14321 25.1318 6.99455 24.9649 6.89828ZM21.0001 6.125C21.0001 5.95194 21.0514 5.78277 21.1476 5.63888C21.2437 5.49498 21.3804 5.38283 21.5402 5.31661C21.7001 5.25038 21.8761 5.23305 22.0458 5.26681C22.2155 5.30057 22.3714 5.38391 22.4938 5.50628C22.6162 5.62865 22.6995 5.78456 22.7333 5.9543C22.767 6.12403 22.7497 6.29996 22.6835 6.45985C22.6173 6.61973 22.5051 6.75639 22.3612 6.85254C22.2173 6.94868 22.0481 7 21.8751 7C21.643 7 21.4205 6.90781 21.2564 6.74372C21.0923 6.57962 21.0001 6.35706 21.0001 6.125ZM24.2102 11.387C23.9814 11.4253 23.7771 11.553 23.6423 11.7419C23.5076 11.9308 23.4534 12.1655 23.4917 12.3944C23.5805 12.925 23.6251 13.462 23.6251 14C23.6272 16.3561 22.7612 18.6305 21.1926 20.3886C20.2167 18.9745 18.8445 17.8804 17.2485 17.2441C18.1058 16.5688 18.7314 15.6432 19.0383 14.596C19.3451 13.5487 19.318 12.4319 18.9607 11.4008C18.6034 10.3696 17.9336 9.47547 17.0446 8.84263C16.1555 8.20979 15.0914 7.86973 14.0001 7.86973C12.9088 7.86973 11.8446 8.20979 10.9556 8.84263C10.0665 9.47547 9.39679 10.3696 9.03948 11.4008C8.68217 12.4319 8.65506 13.5487 8.96192 14.596C9.26878 15.6432 9.89435 16.5688 10.7517 17.2441C9.15567 17.8804 7.78347 18.9745 6.80759 20.3886C5.57681 19.0017 4.77286 17.2888 4.49239 15.4558C4.21192 13.6229 4.46688 11.7479 5.22661 10.0564C5.98635 8.36495 7.21851 6.92892 8.77494 5.92102C10.3314 4.91312 12.1458 4.37626 14.0001 4.375C14.5381 4.37491 15.0751 4.41955 15.6057 4.50844C15.8336 4.54439 16.0664 4.48892 16.2535 4.3541C16.4407 4.21928 16.567 4.01601 16.6051 3.78851C16.6432 3.56101 16.5898 3.32769 16.4568 3.13929C16.3237 2.9509 16.1216 2.82267 15.8945 2.7825C13.5182 2.38275 11.0764 2.74852 8.92163 3.827C6.76682 4.90548 5.01052 6.64087 3.90629 8.78259C2.80206 10.9243 2.40706 13.3616 2.7783 15.7424C3.14954 18.1233 4.26783 20.3245 5.97169 22.0284C7.67555 23.7323 9.87682 24.8505 12.2577 25.2218C14.6385 25.593 17.0758 25.198 19.2175 24.0938C21.3592 22.9896 23.0946 21.2333 24.1731 19.0785C25.2516 16.9237 25.6173 14.4819 25.2176 12.1056C25.1793 11.8768 25.0516 11.6725 24.8627 11.5377C24.6738 11.403 24.4391 11.3488 24.2102 11.387ZM10.5001 13.125C10.5001 12.4328 10.7054 11.7561 11.0899 11.1805C11.4745 10.6049 12.0212 10.1563 12.6607 9.89142C13.3002 9.62651 14.004 9.5572 14.6829 9.69225C15.3618 9.8273 15.9855 10.1606 16.475 10.6501C16.9644 11.1396 17.2978 11.7633 17.4328 12.4422C17.5679 13.1211 17.4986 13.8249 17.2337 14.4644C16.9688 15.1039 16.5202 15.6506 15.9446 16.0351C15.369 16.4197 14.6923 16.625 14.0001 16.625C13.0718 16.625 12.1816 16.2563 11.5252 15.5999C10.8688 14.9435 10.5001 14.0533 10.5001 13.125ZM8.10259 21.6016C8.73558 20.6116 9.6076 19.7969 10.6383 19.2326C11.6689 18.6682 12.825 18.3724 14.0001 18.3724C15.1751 18.3724 16.3313 18.6682 17.3619 19.2326C18.3926 19.7969 19.2646 20.6116 19.8976 21.6016C18.2114 22.913 16.1362 23.6249 14.0001 23.6249C11.864 23.6249 9.78879 22.913 8.10259 21.6016Z" fill="#92929D"/>
</svg>
