<svg width="28" height="28" viewBox="0 0 28 28" fill="none" xmlns="http://www.w3.org/2000/svg">
<path d="M24.9649 6.89828L24.4552 6.60406C24.515 6.28749 24.515 5.96251 24.4552 5.64594L24.9649 5.35172C25.166 5.23569 25.3127 5.04455 25.3728 4.82036C25.4329 4.59616 25.4014 4.35728 25.2854 4.15625C25.1694 3.95522 24.9782 3.80853 24.754 3.74843C24.5298 3.68833 24.291 3.71975 24.0899 3.83578L23.5792 4.13109C23.3347 3.92137 23.0536 3.75859 22.7501 3.65094V3.0625C22.7501 2.83044 22.6579 2.60788 22.4938 2.44378C22.3297 2.27969 22.1072 2.1875 21.8751 2.1875C21.643 2.1875 21.4205 2.27969 21.2564 2.44378C21.0923 2.60788 21.0001 2.83044 21.0001 3.0625V3.65094C20.6965 3.75859 20.4155 3.92137 20.171 4.13109L19.6602 3.83578C19.5607 3.77833 19.4508 3.74104 19.3369 3.72605C19.2229 3.71107 19.1071 3.71867 18.9961 3.74843C18.8851 3.77818 18.7811 3.82952 18.6899 3.89949C18.5987 3.96947 18.5222 4.05671 18.4648 4.15625C18.4073 4.25579 18.37 4.36567 18.3551 4.47961C18.3401 4.59356 18.3477 4.70935 18.3774 4.82036C18.4072 4.93137 18.4585 5.03543 18.5285 5.1266C18.5985 5.21777 18.6857 5.29427 18.7852 5.35172L19.2949 5.64594C19.2351 5.96251 19.2351 6.28749 19.2949 6.60406L18.7852 6.89828C18.6183 6.99455 18.4879 7.14321 18.4141 7.32121C18.3403 7.4992 18.3273 7.69657 18.3772 7.88269C18.4271 8.06881 18.537 8.23326 18.6899 8.35053C18.8427 8.4678 19.0301 8.53132 19.2227 8.53125C19.3764 8.53173 19.5274 8.49133 19.6602 8.41422L20.171 8.11891C20.4155 8.32863 20.6965 8.49141 21.0001 8.59906V9.1875C21.0001 9.41956 21.0923 9.64212 21.2564 9.80622C21.4205 9.97031 21.643 10.0625 21.8751 10.0625C22.1072 10.0625 22.3297 9.97031 22.4938 9.80622C22.6579 9.64212 22.7501 9.41956 22.7501 9.1875V8.59906C23.0536 8.49141 23.3347 8.32863 23.5792 8.11891L24.0899 8.41422C24.2228 8.49133 24.3738 8.53173 24.5274 8.53125C24.7201 8.53132 24.9074 8.4678 25.0603 8.35053C25.2132 8.23326 25.3231 8.06881 25.373 7.88269C25.4228 7.69657 25.4099 7.4992 25.3361 7.32121C25.2623 7.14321 25.1318 6.99455 24.9649 6.89828ZM21.8751 7C21.702 7 21.5329 6.94868 21.389 6.85254C21.2451 6.75639 21.1329 6.61973 21.0667 6.45985C21.0005 6.29996 20.9831 6.12403 21.0169 5.9543C21.0507 5.78456 21.134 5.62865 21.2564 5.50628C21.3787 5.38391 21.5347 5.30057 21.7044 5.26681C21.8741 5.23305 22.0501 5.25038 22.2099 5.31661C22.3698 5.38283 22.5065 5.49498 22.6026 5.63888C22.6988 5.78277 22.7501 5.95194 22.7501 6.125C22.7501 6.35706 22.6579 6.57962 22.4938 6.74372C22.3297 6.90781 22.1072 7 21.8751 7ZM14.0001 8.3125C14.9519 8.3125 15.8824 8.59475 16.6738 9.12355C17.4652 9.65236 18.082 10.404 18.4463 11.2833C18.8105 12.1627 18.9058 13.1303 18.7201 14.0639C18.5344 14.9974 18.0761 15.8549 17.403 16.528C16.73 17.201 15.8725 17.6593 14.939 17.845C14.0054 18.0307 13.0378 17.9354 12.1584 17.5712C11.2791 17.2069 10.5274 16.5901 9.99864 15.7987C9.46984 15.0073 9.18759 14.0768 9.18759 13.125C9.18759 11.8486 9.69462 10.6246 10.5971 9.72205C11.4997 8.81953 12.7237 8.3125 14.0001 8.3125ZM25.2176 12.1056C25.6173 14.4819 25.2516 16.9237 24.1731 19.0785C23.0946 21.2333 21.3592 22.9896 19.2175 24.0938C17.0758 25.198 14.6385 25.593 12.2577 25.2218C9.87682 24.8505 7.67555 23.7323 5.97169 22.0284C4.26783 20.3245 3.14954 18.1233 2.7783 15.7424C2.40706 13.3616 2.80206 10.9243 3.90629 8.78259C5.01052 6.64087 6.76682 4.90548 8.92163 3.827C11.0764 2.74852 13.5182 2.38275 15.8945 2.7825C16.1216 2.82267 16.3237 2.9509 16.4568 3.13929C16.5898 3.32769 16.6432 3.56101 16.6051 3.78851C16.567 4.01601 16.4407 4.21928 16.2535 4.3541C16.0664 4.48892 15.8336 4.54439 15.6057 4.50844C14.2255 4.27626 12.8114 4.34763 11.4616 4.71757C10.1118 5.08751 8.85884 5.74714 7.78991 6.65055C6.72097 7.55396 5.86174 8.67945 5.27201 9.94869C4.68227 11.2179 4.3762 12.6004 4.37509 14C4.37302 16.3561 5.23899 18.6305 6.80759 20.3886C7.44374 19.4659 8.25182 18.6745 9.18759 18.0578C9.26737 18.0051 9.36222 17.98 9.45763 17.9863C9.55303 17.9927 9.64374 18.0301 9.71587 18.0928C10.9047 19.1215 12.4242 19.6876 13.9963 19.6876C15.5683 19.6876 17.0878 19.1215 18.2767 18.0928C18.3489 18.0298 18.4398 17.9922 18.5354 17.9859C18.6311 17.9796 18.7261 18.0049 18.806 18.0578C19.7427 18.6745 20.5519 19.4659 21.1893 20.3886C22.7591 18.631 23.6263 16.3566 23.6251 14C23.6251 13.462 23.5805 12.925 23.4917 12.3944C23.4715 12.2806 23.4741 12.1639 23.4994 12.0511C23.5246 11.9383 23.5719 11.8316 23.6386 11.7372C23.7053 11.6428 23.79 11.5625 23.8879 11.501C23.9858 11.4395 24.0949 11.3981 24.2089 11.379C24.3229 11.3599 24.4396 11.3636 24.5521 11.3899C24.6647 11.4162 24.7709 11.4645 24.8647 11.532C24.9585 11.5996 25.038 11.6851 25.0985 11.7835C25.1591 11.882 25.1996 11.9914 25.2176 12.1056Z" fill="#4535AF"/>
</svg>
