<svg width="18" height="18" viewBox="0 0 18 18" fill="none" xmlns="http://www.w3.org/2000/svg">
<path d="M6.1875 9.9375C6.00208 9.9375 5.82083 9.88252 5.66666 9.7795C5.51249 9.67649 5.39232 9.53007 5.32137 9.35876C5.25041 9.18746 5.23184 8.99896 5.26802 8.8171C5.30419 8.63525 5.39348 8.4682 5.52459 8.33709C5.6557 8.20598 5.82275 8.11669 6.00461 8.08051C6.18646 8.04434 6.37496 8.06291 6.54627 8.13386C6.71758 8.20482 6.86399 8.32498 6.96701 8.47915C7.07002 8.63332 7.125 8.81458 7.125 9C7.125 9.24864 7.02623 9.4871 6.85042 9.66291C6.6746 9.83873 6.43614 9.9375 6.1875 9.9375ZM11.8125 8.0625C11.6271 8.0625 11.4458 8.11748 11.2917 8.2205C11.1375 8.32351 11.0173 8.46993 10.9464 8.64123C10.8754 8.81254 10.8568 9.00104 10.893 9.1829C10.9292 9.36475 11.0185 9.5318 11.1496 9.66291C11.2807 9.79402 11.4477 9.88331 11.6296 9.91949C11.8115 9.95566 12 9.93709 12.1713 9.86614C12.3426 9.79518 12.489 9.67502 12.592 9.52085C12.695 9.36668 12.75 9.18542 12.75 9C12.75 8.75136 12.6512 8.5129 12.4754 8.33709C12.2996 8.16127 12.0611 8.0625 11.8125 8.0625ZM10.8539 11.5961C10.2973 11.9416 9.65515 12.1246 9 12.1246C8.34486 12.1246 7.70275 11.9416 7.1461 11.5961C7.00582 11.5076 6.83615 11.4785 6.6744 11.5151C6.51265 11.5517 6.37207 11.6511 6.2836 11.7914C6.19512 11.9317 6.166 12.1014 6.20262 12.2631C6.23925 12.4249 6.33864 12.5654 6.47891 12.6539C7.23527 13.1254 8.10871 13.3754 9 13.3754C9.8913 13.3754 10.7647 13.1254 11.5211 12.6539C11.6614 12.5654 11.7608 12.4249 11.7974 12.2631C11.834 12.1014 11.8049 11.9317 11.7164 11.7914C11.6279 11.6511 11.4874 11.5517 11.3256 11.5151C11.1639 11.4785 10.9942 11.5076 10.8539 11.5961ZM17.125 9C17.125 10.607 16.6485 12.1779 15.7557 13.514C14.8629 14.8502 13.594 15.8916 12.1093 16.5065C10.6247 17.1215 8.99099 17.2824 7.4149 16.9689C5.8388 16.6554 4.39106 15.8815 3.25476 14.7452C2.11846 13.6089 1.34463 12.1612 1.03112 10.5851C0.717618 9.00901 0.87852 7.37535 1.49348 5.8907C2.10844 4.40605 3.14985 3.1371 4.486 2.24431C5.82214 1.35152 7.39303 0.875 9 0.875C11.1542 0.877275 13.2195 1.73403 14.7427 3.25727C16.266 4.78051 17.1227 6.84581 17.125 9ZM15.875 9C15.8728 7.23019 15.1891 5.52922 13.9657 4.2503C12.7424 2.97137 11.0734 2.21278 9.30547 2.13203C8.4 3.40469 8.375 4.61562 8.375 4.625C8.375 4.79076 8.44085 4.94973 8.55806 5.06694C8.67527 5.18415 8.83424 5.25 9 5.25C9.16576 5.25 9.32474 5.18415 9.44195 5.06694C9.55916 4.94973 9.625 4.79076 9.625 4.625C9.625 4.45924 9.69085 4.30027 9.80806 4.18306C9.92527 4.06585 10.0842 4 10.25 4C10.4158 4 10.5747 4.06585 10.6919 4.18306C10.8092 4.30027 10.875 4.45924 10.875 4.625C10.875 5.12228 10.6775 5.59919 10.3258 5.95083C9.9742 6.30246 9.49728 6.5 9 6.5C8.50272 6.5 8.02581 6.30246 7.67418 5.95083C7.32255 5.59919 7.125 5.12228 7.125 4.625C7.125 4.56797 7.13516 3.50781 7.78594 2.23203C6.49872 2.46297 5.30407 3.05626 4.34217 3.94228C3.38028 4.8283 2.69105 5.97029 2.35536 7.23425C2.01967 8.49821 2.05144 9.83169 2.44696 11.0782C2.84247 12.3248 3.58532 13.4326 4.58833 14.2718C5.59133 15.111 6.81289 15.6467 8.10965 15.8161C9.40641 15.9855 10.7246 15.7814 11.9095 15.228C13.0944 14.6746 14.0968 13.7946 14.7992 12.6915C15.5016 11.5884 15.8748 10.3078 15.875 9Z" fill="#04ADD7"/>
</svg>
