<svg width="19" height="18" viewBox="0 0 19 18" fill="none" xmlns="http://www.w3.org/2000/svg">
<path d="M5.09998 7.8L5.98332 6.91667L5.09998 6.03333L5.98332 5.15L7.74998 6.91667L5.98332 8.68333L5.09998 7.8ZM2.74998 6.5C2.77498 6.5 2.79165 6.50833 2.81665 6.50833C3.31373 5.27534 4.168 4.21907 5.26979 3.47514C6.37157 2.73122 7.67057 2.3336 8.99998 2.33333C10.825 2.33333 12.4667 3.06667 13.675 4.25C13.8 3.75 14.05 3.175 14.35 2.61667C12.85 1.35459 10.9519 0.663845 8.99165 0.666665C4.92498 0.666665 1.54165 3.59167 0.81665 7.45C1.28332 6.86667 1.99165 6.5 2.74998 6.5ZM16.5 7.75C16.15 7.75 15.8167 7.675 15.5083 7.56667C15.6083 8.025 15.6667 8.50833 15.6667 9C15.6667 12.6833 12.6833 15.6667 8.99998 15.6667C6.19998 15.6667 3.80832 13.9417 2.81665 11.4917C2.79165 11.4917 2.77498 11.5 2.74998 11.5C2.31665 11.5 1.88332 11.3833 1.49998 11.1667C1.23332 11.0167 1.00832 10.8167 0.81665 10.5833C1.55832 14.425 4.92498 17.3333 8.98332 17.3333C13.6 17.3333 17.3333 13.6 17.3333 9C17.3333 8.54167 17.2833 8.09167 17.2167 7.65C16.9828 7.71295 16.7421 7.74654 16.5 7.75ZM16.5 1.5C16.5 1.5 14.8333 3.91667 14.8333 4.83333C14.8333 5.75 15.5833 6.5 16.5 6.5C17.4167 6.5 18.1667 5.75 18.1667 4.83333C18.1667 3.91667 16.5 1.5 16.5 1.5ZM12.0167 5.15L10.25 6.91667L12.0167 8.68333L12.9 7.8L12.0167 6.91667L12.9 6.03333L12.0167 5.15ZM6.13332 13.1667C6.70832 12.175 7.77498 11.5 8.99998 11.5C10.225 11.5 11.2916 12.175 11.8667 13.1667H13.2667C12.6 11.4583 10.9417 10.25 8.99998 10.25C8.27498 10.25 7.58332 10.4167 6.97498 10.725L3.99165 9C3.99165 8.56667 3.77498 8.15 3.37498 7.925C2.77498 7.58333 2.01665 7.78333 1.66665 8.38333C1.32498 8.98333 1.52498 9.74167 2.12498 10.0917C2.52498 10.325 2.99998 10.3 3.36665 10.0917L5.84165 11.525C5.36665 11.9667 4.98332 12.5333 4.73332 13.1667H6.13332Z" fill="#FA896B"/>
</svg>
