<svg width="28" height="28" viewBox="0 0 28 28" fill="none" xmlns="http://www.w3.org/2000/svg">
<path d="M21.875 3.49999H17.9091C17.4174 2.94954 16.8151 2.50912 16.1414 2.20757C15.4678 1.90603 14.7381 1.75015 14 1.75015C13.2619 1.75015 12.5322 1.90603 11.8586 2.20757C11.1849 2.50912 10.5826 2.94954 10.0909 3.49999H6.125C5.66087 3.49999 5.21575 3.68437 4.88756 4.01256C4.55937 4.34075 4.375 4.78587 4.375 5.24999V23.625C4.375 24.0891 4.55937 24.5342 4.88756 24.8624C5.21575 25.1906 5.66087 25.375 6.125 25.375H21.875C22.3391 25.375 22.7842 25.1906 23.1124 24.8624C23.4406 24.5342 23.625 24.0891 23.625 23.625V5.24999C23.625 4.78587 23.4406 4.34075 23.1124 4.01256C22.7842 3.68437 22.3391 3.49999 21.875 3.49999ZM14 3.49999C14.9283 3.49999 15.8185 3.86874 16.4749 4.52512C17.1313 5.1815 17.5 6.07174 17.5 6.99999H10.5C10.5 6.07174 10.8687 5.1815 11.5251 4.52512C12.1815 3.86874 13.0717 3.49999 14 3.49999ZM17.5 17.5H10.5C10.2679 17.5 10.0454 17.4078 9.88128 17.2437C9.71719 17.0796 9.625 16.8571 9.625 16.625C9.625 16.3929 9.71719 16.1704 9.88128 16.0063C10.0454 15.8422 10.2679 15.75 10.5 15.75H17.5C17.7321 15.75 17.9546 15.8422 18.1187 16.0063C18.2828 16.1704 18.375 16.3929 18.375 16.625C18.375 16.8571 18.2828 17.0796 18.1187 17.2437C17.9546 17.4078 17.7321 17.5 17.5 17.5ZM17.5 14H10.5C10.2679 14 10.0454 13.9078 9.88128 13.7437C9.71719 13.5796 9.625 13.3571 9.625 13.125C9.625 12.8929 9.71719 12.6704 9.88128 12.5063C10.0454 12.3422 10.2679 12.25 10.5 12.25H17.5C17.7321 12.25 17.9546 12.3422 18.1187 12.5063C18.2828 12.6704 18.375 12.8929 18.375 13.125C18.375 13.3571 18.2828 13.5796 18.1187 13.7437C17.9546 13.9078 17.7321 14 17.5 14Z" fill="#4535AF"/>
</svg>
