<svg width="28" height="28" viewBox="0 0 28 28" fill="none" xmlns="http://www.w3.org/2000/svg">
<path d="M14 8.75C12.9616 8.75 11.9466 9.05791 11.0832 9.63478C10.2199 10.2117 9.54696 11.0316 9.1496 11.9909C8.75224 12.9502 8.64827 14.0058 8.85084 15.0242C9.05341 16.0426 9.55343 16.9781 10.2877 17.7123C11.0219 18.4465 11.9573 18.9466 12.9757 19.1491C13.9941 19.3517 15.0497 19.2477 16.0091 18.8504C16.9684 18.453 17.7883 17.7801 18.3652 16.9167C18.9421 16.0534 19.25 15.0384 19.25 14C19.2485 12.6081 18.6949 11.2735 17.7107 10.2893C16.7264 9.30504 15.3919 8.75145 14 8.75ZM14 17.5C13.3077 17.5 12.631 17.2947 12.0555 16.9101C11.4799 16.5256 11.0313 15.9789 10.7664 15.3394C10.5015 14.6999 10.4322 13.9961 10.5672 13.3172C10.7023 12.6383 11.0356 12.0146 11.5251 11.5251C12.0146 11.0356 12.6382 10.7023 13.3171 10.5673C13.9961 10.4322 14.6998 10.5015 15.3394 10.7664C15.9789 11.0313 16.5255 11.4799 16.9101 12.0555C17.2947 12.6311 17.5 13.3078 17.5 14C17.5 14.9283 17.1312 15.8185 16.4748 16.4749C15.8185 17.1313 14.9282 17.5 14 17.5ZM26.0247 11.7261C26.0003 11.6029 25.9497 11.4864 25.8763 11.3844C25.8028 11.2825 25.7083 11.1976 25.5992 11.1355L22.3365 9.27609L22.3234 5.59891C22.323 5.47226 22.2951 5.34722 22.2417 5.23241C22.1882 5.11759 22.1105 5.01575 22.0139 4.93391C20.8304 3.93279 19.4675 3.1656 17.9976 2.67312C17.8819 2.63395 17.7592 2.61945 17.6375 2.63056C17.5158 2.64168 17.3978 2.67816 17.2911 2.73766L14 4.57734L10.7056 2.73437C10.5988 2.67454 10.4806 2.63778 10.3587 2.62648C10.2368 2.61518 10.1139 2.62958 9.99793 2.66875C8.52919 3.16483 7.16785 3.93494 5.98606 4.93828C5.88955 5.02 5.81191 5.12167 5.75847 5.23628C5.70504 5.3509 5.67708 5.47573 5.67653 5.60219L5.66012 9.28266L2.39746 11.142C2.28831 11.2042 2.19381 11.2891 2.1204 11.391C2.04698 11.4929 1.99637 11.6094 1.972 11.7327C1.6734 13.2332 1.6734 14.7778 1.972 16.2783C1.99637 16.4015 2.04698 16.518 2.1204 16.6199C2.19381 16.7219 2.28831 16.8068 2.39746 16.8689L5.66012 18.7283L5.67325 22.4055C5.67364 22.5321 5.70152 22.6572 5.75496 22.772C5.80841 22.8868 5.88613 22.9886 5.98278 23.0705C7.16629 24.0716 8.5292 24.8388 9.99903 25.3313C10.1148 25.3704 10.2374 25.3849 10.3591 25.3738C10.4808 25.3627 10.5989 25.3262 10.7056 25.2667L14 23.4227L17.2943 25.2656C17.4247 25.3383 17.5717 25.3759 17.7209 25.375C17.8165 25.375 17.9114 25.3595 18.002 25.3291C19.4706 24.8336 20.8319 24.0643 22.0139 23.0617C22.1104 22.98 22.188 22.8783 22.2415 22.7637C22.2949 22.6491 22.3228 22.5243 22.3234 22.3978L22.3398 18.7173L25.6025 16.858C25.7116 16.7958 25.8061 16.7109 25.8795 16.609C25.9529 16.5071 26.0036 16.3906 26.0279 16.2673C26.3249 14.768 26.3238 13.225 26.0247 11.7261ZM24.384 15.5444L21.2592 17.3217C21.1223 17.3996 21.0089 17.5129 20.9311 17.6498C20.8676 17.7592 20.8009 17.8752 20.7331 17.9845C20.6463 18.1225 20.6 18.282 20.5997 18.445L20.5832 21.9723C19.7433 22.6319 18.8076 23.1594 17.8084 23.5364L14.6562 21.7798C14.5254 21.7074 14.3781 21.6698 14.2286 21.6705H14.2078C14.0754 21.6705 13.942 21.6705 13.8097 21.6705C13.6531 21.6666 13.4984 21.7043 13.3612 21.7798L10.2068 23.5408C9.20552 23.1666 8.26721 22.6418 7.42434 21.9844L7.41231 18.4625C7.41177 18.2992 7.36555 18.1393 7.27887 18.0009C7.21106 17.8916 7.14434 17.7822 7.082 17.6663C7.00469 17.5272 6.89134 17.4116 6.75387 17.3316L3.62575 15.5498C3.46387 14.5259 3.46387 13.4829 3.62575 12.4589L6.74512 10.6783C6.88203 10.6004 6.99539 10.4871 7.07325 10.3502C7.13668 10.2408 7.2034 10.1248 7.27121 10.0155C7.35802 9.87754 7.40426 9.71797 7.40465 9.555L7.42106 6.02766C8.26098 5.36807 9.19672 4.84063 10.1959 4.46359L13.3437 6.22016C13.4807 6.29609 13.6356 6.33387 13.7922 6.32953C13.9245 6.32953 14.0579 6.32953 14.1903 6.32953C14.3468 6.33344 14.5016 6.2957 14.6387 6.22016L17.7931 4.45922C18.7944 4.83336 19.7327 5.35821 20.5756 6.01562L20.5876 9.5375C20.5882 9.70079 20.6344 9.86067 20.7211 9.99906C20.7889 10.1084 20.8556 10.2178 20.9179 10.3338C20.9952 10.4728 21.1086 10.5884 21.2461 10.6684L24.3742 12.4502C24.5382 13.4749 24.5401 14.5191 24.3797 15.5444H24.384Z" fill="#92929D"/>
</svg>
