<svg width="28" height="28" viewBox="0 0 28 28" fill="none" xmlns="http://www.w3.org/2000/svg">
<path d="M26.0247 11.7261C26.0003 11.6029 25.9497 11.4864 25.8763 11.3844C25.8028 11.2825 25.7083 11.1976 25.5992 11.1355L22.3365 9.27609L22.3234 5.59891C22.323 5.47226 22.2951 5.34722 22.2417 5.23241C22.1882 5.11759 22.1105 5.01575 22.0139 4.93391C20.8304 3.93279 19.4675 3.1656 17.9976 2.67312C17.8819 2.63395 17.7592 2.61945 17.6375 2.63056C17.5158 2.64168 17.3978 2.67816 17.2911 2.73766L14 4.57734L10.7056 2.73437C10.5988 2.67454 10.4806 2.63778 10.3587 2.62648C10.2368 2.61518 10.1139 2.62958 9.99793 2.66875C8.52899 3.16439 7.16757 3.93455 5.98606 4.93828C5.88955 5.02 5.81191 5.12167 5.75847 5.23628C5.70504 5.3509 5.67708 5.47573 5.67653 5.60219L5.66012 9.28266L2.39746 11.142C2.28831 11.2042 2.19381 11.2891 2.1204 11.391C2.04698 11.4929 1.99637 11.6094 1.972 11.7327C1.6734 13.2332 1.6734 14.7778 1.972 16.2783C1.99637 16.4015 2.04698 16.518 2.1204 16.6199C2.19381 16.7219 2.28831 16.8068 2.39746 16.8689L5.66012 18.7283L5.67325 22.4066C5.67364 22.5332 5.70152 22.6582 5.75496 22.7731C5.80841 22.8879 5.88613 22.9897 5.98278 23.0716C7.16629 24.0727 8.5292 24.8399 9.99903 25.3323C10.1148 25.3715 10.2374 25.386 10.3591 25.3749C10.4808 25.3638 10.5989 25.3273 10.7056 25.2678L14 23.4227L17.2943 25.2656C17.4247 25.3383 17.5717 25.3759 17.7209 25.375C17.8165 25.375 17.9114 25.3595 18.002 25.3291C19.4706 24.8336 20.8319 24.0643 22.0139 23.0617C22.1104 22.98 22.188 22.8783 22.2415 22.7637C22.2949 22.6491 22.3228 22.5243 22.3234 22.3978L22.3398 18.7173L25.6025 16.858C25.7116 16.7958 25.8061 16.7109 25.8795 16.609C25.9529 16.5071 26.0036 16.3906 26.0279 16.2673C26.3249 14.768 26.3238 13.225 26.0247 11.7261ZM14 18.375C13.1347 18.375 12.2888 18.1184 11.5693 17.6377C10.8499 17.1569 10.2891 16.4737 9.95799 15.6742C9.62686 14.8748 9.54022 13.9951 9.70903 13.1465C9.87784 12.2978 10.2945 11.5183 10.9064 10.9064C11.5182 10.2946 12.2978 9.87787 13.1464 9.70906C13.9951 9.54025 14.8748 9.62689 15.6742 9.95803C16.4736 10.2892 17.1569 10.8499 17.6376 11.5694C18.1184 12.2888 18.375 13.1347 18.375 14C18.375 15.1603 17.914 16.2731 17.0936 17.0936C16.2731 17.9141 15.1603 18.375 14 18.375Z" fill="#4535AF"/>
</svg>
