<svg width="16" height="16" viewBox="0 0 16 16" fill="none" xmlns="http://www.w3.org/2000/svg">
<path d="M15.3 9.40001C15.2475 9.43941 15.1877 9.46807 15.1241 9.48437C15.0605 9.50066 14.9943 9.50427 14.9293 9.49499C14.8643 9.4857 14.8018 9.4637 14.7453 9.43025C14.6888 9.39679 14.6394 9.35254 14.6 9.30001C14.2986 8.89492 13.9064 8.56625 13.4548 8.34046C13.0032 8.11466 12.5049 7.99805 12 8.00001C11.9017 8 11.8055 7.971 11.7236 7.91664C11.6417 7.86228 11.5776 7.78497 11.5394 7.69439C11.5134 7.63287 11.5001 7.56678 11.5001 7.50001C11.5001 7.43324 11.5134 7.36715 11.5394 7.30563C11.5776 7.21505 11.6417 7.13774 11.7236 7.08338C11.8055 7.02902 11.9017 7.00002 12 7.00001C12.2806 6.99999 12.5555 6.92128 12.7935 6.77285C13.0316 6.62441 13.2232 6.41219 13.3467 6.16029C13.4702 5.90838 13.5206 5.6269 13.4921 5.3478C13.4637 5.0687 13.3575 4.80318 13.1857 4.5814C13.0139 4.35962 12.7833 4.19046 12.5202 4.09315C12.2571 3.99583 11.9719 3.97426 11.6972 4.03087C11.4224 4.08749 11.169 4.22003 10.9658 4.41344C10.7626 4.60685 10.6176 4.85337 10.5475 5.12501C10.5311 5.18862 10.5023 5.24837 10.4628 5.30086C10.4233 5.35334 10.3738 5.39753 10.3172 5.4309C10.2607 5.46427 10.1981 5.48617 10.133 5.49535C10.068 5.50453 10.0017 5.5008 9.93813 5.48438C9.87452 5.46797 9.81477 5.43919 9.76228 5.39968C9.7098 5.36017 9.66561 5.31071 9.63224 5.25413C9.59887 5.19754 9.57697 5.13494 9.56779 5.06989C9.55862 5.00484 9.56234 4.93862 9.57876 4.87501C9.6761 4.49833 9.86002 4.14957 10.1159 3.85648C10.3717 3.56339 10.6925 3.33406 11.0525 3.18673C11.4126 3.0394 11.8021 2.97815 12.19 3.00784C12.578 3.03753 12.9536 3.15735 13.2871 3.35777C13.6205 3.55818 13.9026 3.83365 14.1109 4.16227C14.3191 4.49089 14.4478 4.86358 14.4867 5.25068C14.5256 5.63779 14.4736 6.02863 14.3349 6.3921C14.1961 6.75558 13.9744 7.08165 13.6875 7.34439C14.3674 7.63876 14.9584 8.10589 15.4019 8.69939C15.4413 8.75205 15.4699 8.81196 15.4861 8.8757C15.5023 8.93944 15.5058 9.00575 15.4963 9.07083C15.4868 9.13592 15.4646 9.19849 15.4309 9.25498C15.3973 9.31146 15.3528 9.36075 15.3 9.40001ZM11.9325 13.25C11.9687 13.3069 11.993 13.3706 12.0039 13.4371C12.0149 13.5036 12.0122 13.5717 11.9962 13.6372C11.9801 13.7027 11.951 13.7643 11.9106 13.8182C11.8701 13.8722 11.8192 13.9174 11.7608 13.9511C11.7024 13.9849 11.6378 14.0065 11.5708 14.0146C11.5039 14.0227 11.436 14.0172 11.3712 13.9984C11.3065 13.9797 11.2462 13.948 11.194 13.9053C11.1418 13.8626 11.0988 13.8098 11.0675 13.75C10.7525 13.2167 10.304 12.7747 9.76602 12.4676C9.22809 12.1606 8.6194 11.9991 8.00001 11.9991C7.38061 11.9991 6.77192 12.1606 6.23399 12.4676C5.69606 12.7747 5.24748 13.2167 4.93251 13.75C4.90125 13.8098 4.85823 13.8626 4.80603 13.9053C4.75383 13.948 4.69354 13.9797 4.62878 13.9984C4.56401 14.0172 4.49612 14.0227 4.42917 14.0146C4.36223 14.0065 4.29762 13.9849 4.23924 13.9511C4.18086 13.9174 4.12991 13.8722 4.08945 13.8182C4.04899 13.7643 4.01986 13.7027 4.00382 13.6372C3.98778 13.5717 3.98515 13.5036 3.99609 13.4371C4.00704 13.3706 4.03133 13.3069 4.06751 13.25C4.55226 12.4171 5.29138 11.7617 6.17626 11.38C5.67834 10.9988 5.3124 10.4711 5.12988 9.87115C4.94736 9.2712 4.95744 8.62913 5.1587 8.0352C5.35996 7.44127 5.74228 6.92534 6.25192 6.55993C6.76157 6.19452 7.3729 5.99801 8.00001 5.99801C8.62711 5.99801 9.23845 6.19452 9.74809 6.55993C10.2577 6.92534 10.64 7.44127 10.8413 8.0352C11.0426 8.62913 11.0526 9.2712 10.8701 9.87115C10.6876 10.4711 10.3217 10.9988 9.82376 11.38C10.7086 11.7617 11.4478 12.4171 11.9325 13.25ZM8.00001 11C8.39557 11 8.78225 10.8827 9.11115 10.6629C9.44005 10.4432 9.69639 10.1308 9.84777 9.76538C9.99914 9.39992 10.0387 8.99779 9.96158 8.60983C9.88441 8.22187 9.69392 7.8655 9.41422 7.5858C9.13451 7.30609 8.77815 7.11561 8.39019 7.03844C8.00223 6.96127 7.60009 7.00088 7.23464 7.15225C6.86919 7.30363 6.55683 7.55997 6.33707 7.88887C6.1173 8.21777 6.00001 8.60445 6.00001 9.00001C6.00001 9.53044 6.21072 10.0392 6.58579 10.4142C6.96087 10.7893 7.46957 11 8.00001 11ZM4.50001 7.50001C4.50001 7.3674 4.44733 7.24022 4.35356 7.14646C4.25979 7.05269 4.13261 7.00001 4.00001 7.00001C3.71946 6.99999 3.44455 6.92128 3.20649 6.77285C2.96843 6.62441 2.77677 6.41219 2.65328 6.16029C2.52978 5.90838 2.47941 5.6269 2.50788 5.3478C2.53635 5.0687 2.64252 4.80318 2.81432 4.5814C2.98613 4.35962 3.21669 4.19046 3.47982 4.09315C3.74294 3.99583 4.02809 3.97426 4.30286 4.03087C4.57763 4.08749 4.83102 4.22003 5.03424 4.41344C5.23746 4.60685 5.38237 4.85337 5.45251 5.12501C5.48566 5.25347 5.56849 5.36351 5.68277 5.4309C5.79704 5.4983 5.93342 5.51754 6.06188 5.48438C6.19035 5.45123 6.30038 5.36841 6.36777 5.25413C6.43517 5.13985 6.45441 5.00347 6.42126 4.87501C6.32391 4.49833 6.13999 4.14957 5.88414 3.85648C5.62829 3.56339 5.30756 3.33406 4.94748 3.18673C4.5874 3.0394 4.1979 2.97815 3.80998 3.00784C3.42206 3.03753 3.04642 3.15735 2.71296 3.35777C2.3795 3.55818 2.09741 3.83365 1.88914 4.16227C1.68088 4.49089 1.55218 4.86358 1.5133 5.25068C1.47441 5.63779 1.52641 6.02863 1.66516 6.3921C1.8039 6.75558 2.02557 7.08165 2.31251 7.34439C1.63331 7.63904 1.04295 8.10615 0.600007 8.69939C0.520359 8.80547 0.486116 8.93885 0.504811 9.07019C0.523506 9.20152 0.593607 9.32005 0.699694 9.3997C0.805781 9.47935 0.939162 9.51359 1.0705 9.49489C1.20183 9.4762 1.32036 9.4061 1.40001 9.30001C1.70137 8.89492 2.09364 8.56625 2.54523 8.34046C2.99682 8.11466 3.49512 7.99805 4.00001 8.00001C4.13261 8.00001 4.25979 7.94733 4.35356 7.85356C4.44733 7.7598 4.50001 7.63262 4.50001 7.50001Z" fill="#4535AF"/>
</svg>
