<svg width="12" height="13" viewBox="0 0 12 13" fill="none" xmlns="http://www.w3.org/2000/svg">
<path d="M6 0.333313C5.34073 0.333313 4.69626 0.528809 4.1481 0.895081C3.59994 1.26135 3.17269 1.78195 2.9204 2.39103C2.66811 3.00012 2.6021 3.67034 2.73072 4.31695C2.85933 4.96355 3.1768 5.55749 3.64298 6.02367C4.10915 6.48984 4.7031 6.80731 5.3497 6.93593C5.9963 7.06455 6.66652 6.99854 7.27561 6.74624C7.8847 6.49395 8.40529 6.06671 8.77157 5.51855C9.13784 4.97038 9.33333 4.32592 9.33333 3.66665C9.33333 2.78259 8.98214 1.93474 8.35702 1.30962C7.7319 0.684502 6.88406 0.333313 6 0.333313ZM6 5.66665C5.60444 5.66665 5.21776 5.54935 4.88886 5.32959C4.55996 5.10982 4.30362 4.79747 4.15224 4.43201C4.00087 4.06656 3.96126 3.66443 4.03843 3.27647C4.1156 2.8885 4.30608 2.53214 4.58579 2.25243C4.86549 1.97273 5.22186 1.78225 5.60982 1.70508C5.99778 1.62791 6.39991 1.66751 6.76537 1.81889C7.13082 1.97026 7.44318 2.22661 7.66294 2.55551C7.8827 2.8844 8 3.27108 8 3.66665C8 4.19708 7.78929 4.70579 7.41421 5.08086C7.03914 5.45593 6.53043 5.66665 6 5.66665ZM12 13V12.3333C12 11.0956 11.5083 9.90865 10.6332 9.03348C9.758 8.15831 8.57101 7.66665 7.33333 7.66665H4.66667C3.42899 7.66665 2.242 8.15831 1.36683 9.03348C0.491665 9.90865 0 11.0956 0 12.3333V13H1.33333V12.3333C1.33333 11.4493 1.68452 10.6014 2.30964 9.97629C2.93477 9.35117 3.78261 8.99998 4.66667 8.99998H7.33333C8.21739 8.99998 9.06523 9.35117 9.69036 9.97629C10.3155 10.6014 10.6667 11.4493 10.6667 12.3333V13H12Z" fill="#272D3D"/>
</svg>
