<svg width="16" height="17" viewBox="0 0 16 17" fill="none" xmlns="http://www.w3.org/2000/svg">
<path fill-rule="evenodd" clip-rule="evenodd" d="M4.73001 5.04998L4.80917 5.11915L11.8808 12.19C11.9735 12.2826 12.0431 12.3957 12.0838 12.5202C12.1246 12.6447 12.1354 12.7771 12.1155 12.9066C12.0955 13.036 12.0453 13.159 11.9689 13.2654C11.8925 13.3719 11.7921 13.4588 11.6758 13.5192L11.5792 13.5608L2.92501 16.75C1.29834 17.35 -0.285828 15.8208 0.208339 14.1967L0.250005 14.075L3.43834 5.41998C3.48058 5.30542 3.54748 5.20153 3.63431 5.11568C3.72113 5.02983 3.82577 4.9641 3.9408 4.92316C4.05584 4.88222 4.17847 4.86706 4.30001 4.87875C4.42156 4.89044 4.53905 4.9287 4.64417 4.99082L4.73001 5.04915V5.04998ZM4.55167 7.21832L1.81417 14.6517C1.78872 14.7208 1.78207 14.7955 1.79489 14.8681C1.80771 14.9406 1.83955 15.0085 1.88716 15.0647C1.93477 15.121 1.99644 15.1636 2.0659 15.1882C2.13535 15.2129 2.21009 15.2187 2.28251 15.205L2.34917 15.1858L9.78084 12.4475L4.55167 7.21832ZM12.2558 8.66998C13.015 8.70999 14.0558 8.86999 14.9608 9.41332C15.1443 9.52209 15.2791 9.69707 15.3374 9.90222C15.3958 10.1074 15.3732 10.3271 15.2744 10.5161C15.1756 10.7051 15.0081 10.8491 14.8064 10.9183C14.6047 10.9876 14.3841 10.9768 14.19 10.8883L14.1033 10.8425C13.535 10.5008 12.8083 10.3675 12.1683 10.3342C11.9046 10.3189 11.6402 10.32 11.3767 10.3375L11.1133 10.3633C10.896 10.3914 10.6763 10.3326 10.5019 10.1999C10.3275 10.0671 10.2124 9.87095 10.1816 9.65393C10.1508 9.43692 10.2068 9.21651 10.3373 9.04045C10.4679 8.86439 10.6626 8.74686 10.8792 8.71332C11.3356 8.65436 11.7966 8.63957 12.2558 8.66915V8.66998ZM13.9433 6.34832C14.1557 6.34876 14.3598 6.43024 14.5141 6.57612C14.6684 6.72199 14.7612 6.92126 14.7735 7.13323C14.7859 7.3452 14.7168 7.55389 14.5805 7.71667C14.4442 7.87946 14.2508 7.98408 14.04 8.00915L13.9433 8.01498H13.3533C13.141 8.01454 12.9369 7.93306 12.7826 7.78719C12.6283 7.64131 12.5355 7.44205 12.5232 7.23007C12.5108 7.0181 12.5799 6.80942 12.7162 6.64663C12.8525 6.48384 13.0458 6.37923 13.2567 6.35415L13.3533 6.34832H13.9433ZM11.2917 5.70832C11.4352 5.85181 11.5213 6.04273 11.5341 6.24525C11.5468 6.44777 11.4852 6.64798 11.3608 6.80832L11.2917 6.88665L10.4083 7.77082C10.2587 7.92186 10.057 8.01001 9.84455 8.01722C9.63207 8.02443 9.42487 7.95015 9.26536 7.8096C9.10584 7.66904 9.00609 7.47283 8.9865 7.26113C8.96692 7.04943 9.02899 6.83825 9.16001 6.67082L9.22917 6.59248L10.1125 5.70915C10.1899 5.63167 10.2818 5.57021 10.383 5.52827C10.4841 5.48633 10.5926 5.46475 10.7021 5.46475C10.8116 5.46475 10.92 5.48633 11.0212 5.52827C11.1224 5.57021 11.2143 5.63084 11.2917 5.70832ZM9.13584 1.31998C9.50917 2.44165 9.30917 3.66998 9.07584 4.52832C8.93561 5.06344 8.74301 5.58345 8.50084 6.08082C8.40216 6.27863 8.22894 6.42913 8.01929 6.49922C7.80964 6.56931 7.58073 6.55325 7.38292 6.45457C7.18511 6.35589 7.03461 6.18267 6.96452 5.97302C6.89443 5.76337 6.91049 5.53446 7.00917 5.33665C7.20241 4.93711 7.35593 4.51955 7.46751 4.08998C7.65667 3.39665 7.75167 2.64415 7.60584 2.02748L7.55501 1.84748C7.51869 1.74327 7.50344 1.63287 7.51013 1.52271C7.51682 1.41255 7.54533 1.30482 7.594 1.20577C7.64267 1.10671 7.71053 1.01832 7.79365 0.945703C7.87676 0.87309 7.97347 0.81771 8.07815 0.782777C8.18284 0.747843 8.29343 0.734053 8.40349 0.742206C8.51355 0.75036 8.6209 0.780294 8.7193 0.830272C8.8177 0.88025 8.90519 0.949276 8.9767 1.03334C9.0482 1.11741 9.1023 1.21484 9.13584 1.31998ZM13.6483 3.35165C13.8046 3.50792 13.8923 3.71985 13.8923 3.94082C13.8923 4.16179 13.8046 4.37371 13.6483 4.52998L13.0592 5.11915C12.9823 5.19874 12.8903 5.26223 12.7887 5.3059C12.687 5.34958 12.5777 5.37257 12.467 5.37353C12.3564 5.37449 12.2466 5.3534 12.1442 5.3115C12.0418 5.2696 11.9488 5.20772 11.8705 5.12948C11.7923 5.05124 11.7304 4.95819 11.6885 4.85578C11.6466 4.75337 11.6255 4.64363 11.6265 4.53298C11.6274 4.42233 11.6504 4.31298 11.6941 4.21131C11.7378 4.10964 11.8012 4.01769 11.8808 3.94082L12.47 3.35165C12.6263 3.19543 12.8382 3.10766 13.0592 3.10766C13.2801 3.10766 13.4921 3.19543 13.6483 3.35165Z" fill="#38A58B"/>
</svg>
