<svg width="20" height="20" viewBox="0 0 20 20" fill="none" xmlns="http://www.w3.org/2000/svg">
<path d="M17.0961 8.10703L10.8461 2.21016C10.843 2.20749 10.8402 2.20462 10.8375 2.20156C10.6074 1.99229 10.3075 1.87633 9.99648 1.87633C9.68545 1.87633 9.38558 1.99229 9.15547 2.20156L9.14688 2.21016L2.90391 8.10703C2.77656 8.22413 2.67491 8.36639 2.60538 8.5248C2.53586 8.68322 2.49997 8.85434 2.5 9.02734V16.25C2.5 16.5815 2.6317 16.8995 2.86612 17.1339C3.10054 17.3683 3.41848 17.5 3.75 17.5H7.5C7.83152 17.5 8.14946 17.3683 8.38388 17.1339C8.6183 16.8995 8.75 16.5815 8.75 16.25V12.5H11.25V16.25C11.25 16.5815 11.3817 16.8995 11.6161 17.1339C11.8505 17.3683 12.1685 17.5 12.5 17.5H16.25C16.5815 17.5 16.8995 17.3683 17.1339 17.1339C17.3683 16.8995 17.5 16.5815 17.5 16.25V9.02734C17.5 8.85434 17.4641 8.68322 17.3946 8.5248C17.3251 8.36639 17.2234 8.22413 17.0961 8.10703ZM16.25 16.25H12.5V12.5C12.5 12.1685 12.3683 11.8505 12.1339 11.6161C11.8995 11.3817 11.5815 11.25 11.25 11.25H8.75C8.41848 11.25 8.10054 11.3817 7.86612 11.6161C7.6317 11.8505 7.5 12.1685 7.5 12.5V16.25H3.75V9.02734L3.75859 9.01953L10 3.125L16.2422 9.01797L16.2508 9.02578L16.25 16.25Z" fill="#4535AF"/>
</svg>
