<svg width="475" height="116" viewBox="0 0 475 116" fill="none" xmlns="http://www.w3.org/2000/svg">
<path d="M37.6157 58.0986L74.4725 116H102.889L51.6699 36.0664L37.6157 58.0986Z" fill="white"/>
<path d="M103.056 0L51.7341 80.207L37.6157 58.0987L74.6524 0H103.056Z" fill="white"/>
<path opacity="0.5" d="M0 116L33.7094 64.3184L47.8278 86.4266L28.4038 116H0Z" fill="white"/>
<path opacity="0.5" d="M0.00146484 0L33.7108 51.6822L47.8292 29.574L28.4052 0H0.00146484Z" fill="white"/>
<path d="M135.924 62.1218H165.882V74.0539H135.924V62.1218Z" fill="white"/>
<path d="M237.099 61.4268C239.952 61.4268 242.439 61.0792 244.559 60.3842C246.68 59.6505 248.434 58.6272 249.822 57.3142C251.248 55.9627 252.309 54.3409 253.003 52.4487C253.697 50.518 254.044 48.3748 254.044 46.0193C254.044 43.7796 253.697 41.7523 253.003 39.9374C252.309 38.1225 251.268 36.5779 249.88 35.3036C248.492 34.0293 246.738 33.0639 244.617 32.4075C242.496 31.7124 239.99 31.3648 237.099 31.3648H225.474V61.4268H237.099ZM237.099 19.3169C242.689 19.3169 247.528 19.9734 251.615 21.2863C255.702 22.5992 259.075 24.4334 261.736 26.7889C264.396 29.1445 266.362 31.9634 267.635 35.2457C268.945 38.528 269.601 42.1192 269.601 46.0193C269.601 50.0739 268.926 53.8003 267.577 57.1984C266.227 60.5579 264.203 63.4541 261.504 65.8868C258.805 68.3196 255.412 70.2117 251.326 71.5633C247.277 72.9148 242.535 73.5905 237.099 73.5905H225.474V103.073H209.917V19.3169H237.099Z" fill="white"/>
<path d="M330.174 43.6445V103.073H321.441C319.552 103.073 318.356 102.204 317.855 100.467L316.872 95.717C314.443 98.1884 311.764 100.196 308.833 101.741C305.903 103.247 302.452 104 298.481 104C295.243 104 292.37 103.459 289.864 102.378C287.397 101.258 285.315 99.6944 283.618 97.6864C281.922 95.6784 280.63 93.3036 279.743 90.5619C278.895 87.7816 278.471 84.731 278.471 81.4101V43.6445H292.756V81.4101C292.756 85.0399 293.585 87.8589 295.243 89.8668C296.939 91.8362 299.464 92.8209 302.819 92.8209C305.286 92.8209 307.6 92.2803 309.759 91.1991C311.918 90.0792 313.961 88.5539 315.889 86.6232V43.6445H330.174Z" fill="white"/>
<path d="M358.796 17V103.073H344.511V17H358.796Z" fill="white"/>
<path d="M409.231 55.229C408.846 55.8469 408.441 56.2909 408.017 56.5613C407.593 56.7929 407.053 56.9088 406.398 56.9088C405.704 56.9088 404.952 56.7157 404.142 56.3296C403.371 55.9434 402.465 55.5186 401.424 55.0553C400.383 54.5533 399.188 54.1092 397.838 53.723C396.527 53.3369 394.966 53.1438 393.154 53.1438C390.339 53.1438 388.122 53.7423 386.503 54.9394C384.922 56.1365 384.132 57.7004 384.132 59.6312C384.132 60.9055 384.537 61.9867 385.346 62.8748C386.195 63.7244 387.293 64.4774 388.643 65.1338C390.031 65.7903 391.592 66.3888 393.327 66.9294C395.062 67.4314 396.817 67.9913 398.59 68.6092C400.402 69.227 402.176 69.9414 403.911 70.7523C405.646 71.5246 407.188 72.5286 408.537 73.7643C409.925 74.9614 411.024 76.4095 411.834 78.1085C412.682 79.8076 413.106 81.8542 413.106 84.2483C413.106 87.1059 412.586 89.751 411.545 92.1838C410.542 94.5779 409.039 96.6631 407.034 98.4394C405.029 100.177 402.542 101.548 399.573 102.552C396.643 103.517 393.25 104 389.395 104C387.351 104 385.346 103.807 383.38 103.421C381.452 103.073 379.582 102.571 377.77 101.915C375.997 101.258 374.339 100.486 372.797 99.5979C371.293 98.7097 369.963 97.7443 368.806 96.7017L372.103 91.257C372.527 90.6005 373.028 90.0985 373.606 89.751C374.185 89.4035 374.917 89.2297 375.804 89.2297C376.691 89.2297 377.52 89.4807 378.291 89.9827C379.1 90.4847 380.026 91.0253 381.067 91.6045C382.108 92.1838 383.322 92.7244 384.71 93.2264C386.137 93.7284 387.93 93.9794 390.089 93.9794C391.785 93.9794 393.231 93.7863 394.426 93.4001C395.66 92.9754 396.662 92.4348 397.433 91.7783C398.243 91.1218 398.821 90.3688 399.168 89.5193C399.554 88.6312 399.747 87.7237 399.747 86.7969C399.747 85.4068 399.323 84.2676 398.474 83.3795C397.665 82.4913 396.566 81.719 395.178 81.0626C393.829 80.4061 392.267 79.8269 390.494 79.3249C388.759 78.7843 386.966 78.2051 385.115 77.5872C383.303 76.9694 381.51 76.255 379.737 75.4441C378.002 74.5945 376.44 73.5326 375.052 72.2583C373.703 70.984 372.604 69.4201 371.756 67.5666C370.946 65.7131 370.541 63.4734 370.541 60.8475C370.541 58.4148 371.023 56.0979 371.987 53.8968C372.951 51.6957 374.358 49.7843 376.209 48.1624C378.098 46.502 380.431 45.1891 383.207 44.2237C386.021 43.2197 389.26 42.7177 392.922 42.7177C397.009 42.7177 400.73 43.3935 404.084 44.745C407.439 46.0965 410.234 47.8728 412.47 50.0739L409.231 55.229Z" fill="white"/>
<path d="M462.085 66.524C462.085 64.6704 461.815 62.9328 461.276 61.3109C460.775 59.6505 460.003 58.2024 458.962 56.9667C457.921 55.731 456.591 54.7656 454.972 54.0706C453.391 53.3369 451.54 52.97 449.42 52.97C445.295 52.97 442.037 54.1478 439.646 56.5033C437.294 58.8589 435.791 62.1991 435.135 66.524H462.085ZM434.846 75.1545C435.077 78.2051 435.617 80.8502 436.465 83.0899C437.314 85.2909 438.432 87.1252 439.82 88.5925C441.208 90.0213 442.846 91.1025 444.735 91.8362C446.663 92.5313 448.784 92.8788 451.097 92.8788C453.41 92.8788 455.396 92.6085 457.054 92.0679C458.75 91.5273 460.215 90.9288 461.449 90.2723C462.722 89.6158 463.82 89.0173 464.746 88.4767C465.71 87.9361 466.635 87.6658 467.522 87.6658C468.717 87.6658 469.604 88.1099 470.182 88.998L474.288 94.2111C472.707 96.0646 470.934 97.6285 468.967 98.9028C467.001 100.138 464.938 101.142 462.779 101.915C460.659 102.648 458.48 103.17 456.244 103.479C454.047 103.788 451.907 103.942 449.825 103.942C445.699 103.942 441.863 103.266 438.316 101.915C434.769 100.525 431.684 98.4973 429.063 95.8329C426.441 93.1298 424.378 89.8089 422.875 85.8702C421.371 81.8928 420.619 77.2976 420.619 72.0846C420.619 68.03 421.275 64.2264 422.585 60.6738C423.896 57.0826 425.766 53.974 428.195 51.3482C430.663 48.6838 433.651 46.5792 437.159 45.0346C440.706 43.49 444.697 42.7177 449.131 42.7177C452.871 42.7177 456.321 43.3162 459.483 44.5133C462.644 45.7104 465.363 47.4674 467.637 49.7843C469.912 52.0626 471.686 54.8815 472.958 58.241C474.269 61.5619 474.924 65.3655 474.924 69.6518C474.924 71.8143 474.693 73.2816 474.23 74.0539C473.768 74.7876 472.881 75.1545 471.57 75.1545H434.846Z" fill="white"/>
</svg>
