<svg width="73" height="73" viewBox="0 0 73 73" fill="none" xmlns="http://www.w3.org/2000/svg">
<path d="M0.74752 6.70463C0.677492 3.29499 3.45982 0.512676 6.86946 0.582699L66.5746 1.80891C71.8597 1.91746 74.432 8.31236 70.694 12.0503L12.2151 70.5292C8.47717 74.2671 2.08227 71.6949 1.97373 66.4098L0.74752 6.70463Z" fill="#FFAE1F"/>
<path d="M23.4829 37.1762C23.5678 37.0914 23.6738 37.0513 23.8011 37.056L25.0456 37.1126C25.1211 38.0177 24.9938 38.9039 24.6638 39.7713C24.3385 40.634 23.7563 41.4849 22.9172 42.324C22.1819 43.0593 21.3875 43.5991 20.5343 43.9432C19.6858 44.2826 18.8207 44.4358 17.9392 44.4029C17.0624 44.3651 16.1903 44.1436 15.3229 43.7382C14.4555 43.3328 13.64 42.7482 12.8763 41.9845C12.1126 41.2209 11.5328 40.4006 11.1368 39.5238C10.7456 38.6423 10.5405 37.7537 10.5217 36.858C10.5028 35.9624 10.6702 35.0832 11.0237 34.2205C11.382 33.3531 11.9312 32.5494 12.6713 31.8093C13.3925 31.088 14.1515 30.5648 14.9481 30.2395C15.7448 29.9142 16.5462 29.7398 17.3523 29.7162L17.5574 30.9113C17.5762 30.9961 17.5762 31.081 17.5574 31.1658C17.5432 31.2459 17.4961 31.3261 17.4159 31.4062C17.3264 31.4958 17.1755 31.5571 16.9634 31.5901C16.756 31.6184 16.4991 31.6773 16.1927 31.7669C15.8862 31.847 15.5445 31.9861 15.1673 32.184C14.7902 32.382 14.3872 32.6955 13.9582 33.1245C13.4538 33.6289 13.0814 34.1804 12.841 34.7791C12.5958 35.3731 12.4874 35.9906 12.5157 36.6317C12.544 37.2634 12.716 37.9069 13.0319 38.5621C13.3477 39.208 13.8097 39.8349 14.4178 40.4431C15.0354 41.0606 15.6718 41.5226 16.327 41.829C16.9823 42.1354 17.6304 42.3027 18.2715 42.331C18.9127 42.3593 19.5278 42.2532 20.1171 42.0128C20.7064 41.7724 21.2414 41.4118 21.7222 40.931C22.0145 40.6387 22.2596 40.3606 22.4576 40.0966C22.6556 39.8232 22.8159 39.5545 22.9385 39.2905C23.0657 39.0218 23.1624 38.746 23.2284 38.4632C23.2897 38.1756 23.3274 37.8692 23.3415 37.5439C23.3462 37.4732 23.3604 37.4072 23.3839 37.3459C23.4028 37.2799 23.4358 37.2234 23.4829 37.1762ZM26.0146 21.2095L22.7902 24.4339L31.6856 33.3293L30.1865 34.8284L21.2911 25.933L18.0526 29.1715L16.7939 27.9129L24.7559 19.9509L26.0146 21.2095ZM40.3264 14.5344C41.0854 15.2934 41.6605 16.1136 42.0518 16.9952C42.443 17.8673 42.6481 18.7559 42.667 19.661C42.6811 20.5613 42.5067 21.4476 42.1437 22.3197C41.7807 23.1918 41.2221 24.005 40.4679 24.7592C39.7183 25.5087 38.9051 26.0673 38.0283 26.435C37.1562 26.798 36.27 26.9724 35.3696 26.9583C34.4692 26.9347 33.5806 26.7297 32.7038 26.3431C31.8223 25.9519 31.002 25.3767 30.2431 24.6178C29.4888 23.8635 28.9161 23.0456 28.5248 22.1641C28.1336 21.2826 27.9285 20.394 27.9096 19.4983C27.8908 18.5932 28.0628 17.7046 28.4258 16.8325C28.7888 15.951 29.3451 15.1355 30.0946 14.3859C30.8488 13.6317 31.6644 13.0754 32.5412 12.7172C33.4133 12.3542 34.3019 12.1821 35.207 12.201C36.1074 12.2151 36.996 12.4202 37.8728 12.8162C38.7543 13.2074 39.5722 13.7802 40.3264 14.5344ZM38.7849 16.0759C38.1815 15.4725 37.5569 15.0129 36.9111 14.6971C36.2653 14.3812 35.6218 14.2092 34.9807 14.1809C34.3443 14.1479 33.7197 14.2587 33.1069 14.5132C32.4988 14.7631 31.9284 15.1543 31.3957 15.687C30.863 16.2197 30.4694 16.7925 30.2148 17.4053C29.965 18.0134 29.8542 18.638 29.8825 19.2791C29.9107 19.9202 30.0828 20.5637 30.3987 21.2095C30.7145 21.8553 31.1741 22.48 31.7775 23.0834C32.3856 23.6915 33.0126 24.1534 33.6584 24.4693C34.2995 24.7804 34.9406 24.9501 35.5817 24.9784C36.2229 25.0067 36.8475 24.8959 37.4556 24.6461C38.0637 24.3868 38.6341 23.9908 39.1668 23.4581C39.6995 22.9254 40.0931 22.3574 40.3476 21.754C40.6022 21.1412 40.713 20.5166 40.68 19.8802C40.6517 19.2391 40.482 18.5979 40.1709 17.9568C39.855 17.311 39.393 16.684 38.7849 16.0759Z" fill="white"/>
</svg>
