<svg width="148" height="43" viewBox="0 0 148 43" fill="none" xmlns="http://www.w3.org/2000/svg">
<path d="M11.6736 21.0306L23.1119 38.9999H31.9308L16.0352 14.1931L11.6736 21.0306Z" fill="#4535AF"/>
<path d="M31.9827 3L16.0551 27.8918L11.6736 21.0306L23.1677 3H31.9827Z" fill="#4535AF"/>
<path d="M0 39L10.4615 22.9608L14.8431 29.8219L8.81496 39H0Z" fill="#92929D"/>
<path d="M0.000488281 3L10.462 19.0393L14.8436 12.1781L8.81544 3H0.000488281Z" fill="#92929D"/>
<path d="M42.0347 22.274H51.3587V25.982H42.0347V22.274ZM73.5243 22.058C74.4123 22.058 75.1863 21.95 75.8463 21.734C76.5063 21.506 77.0523 21.188 77.4843 20.78C77.9283 20.36 78.2583 19.856 78.4743 19.268C78.6903 18.668 78.7983 18.002 78.7983 17.27C78.7983 16.574 78.6903 15.944 78.4743 15.38C78.2583 14.816 77.9343 14.336 77.5023 13.94C77.0703 13.544 76.5243 13.244 75.8643 13.04C75.2043 12.824 74.4243 12.716 73.5243 12.716H69.9063V22.058H73.5243ZM73.5243 8.972C75.2643 8.972 76.7703 9.176 78.0423 9.584C79.3143 9.992 80.3643 10.562 81.1923 11.294C82.0203 12.026 82.6323 12.902 83.0283 13.922C83.4363 14.942 83.6403 16.058 83.6403 17.27C83.6403 18.53 83.4303 19.688 83.0103 20.744C82.5903 21.788 81.9603 22.688 81.1203 23.444C80.2803 24.2 79.2243 24.788 77.9523 25.208C76.6923 25.628 75.2163 25.838 73.5243 25.838H69.9063V35H65.0643V8.972H73.5243ZM102.493 16.532V35H99.775C99.187 35 98.815 34.73 98.659 34.19L98.353 32.714C97.597 33.482 96.763 34.106 95.851 34.586C94.939 35.054 93.865 35.288 92.629 35.288C91.621 35.288 90.727 35.12 89.947 34.784C89.179 34.436 88.531 33.95 88.003 33.326C87.475 32.702 87.073 31.964 86.797 31.112C86.533 30.248 86.401 29.3 86.401 28.268V16.532H90.847V28.268C90.847 29.396 91.105 30.272 91.621 30.896C92.149 31.508 92.935 31.814 93.979 31.814C94.747 31.814 95.467 31.646 96.139 31.31C96.811 30.962 97.447 30.488 98.047 29.888V16.532H102.493ZM111.401 8.252V35H106.955V8.252H111.401ZM127.099 20.132C126.979 20.324 126.853 20.462 126.721 20.546C126.589 20.618 126.421 20.654 126.217 20.654C126.001 20.654 125.767 20.594 125.515 20.474C125.275 20.354 124.993 20.222 124.669 20.078C124.345 19.922 123.973 19.784 123.553 19.664C123.145 19.544 122.659 19.484 122.095 19.484C121.219 19.484 120.529 19.67 120.025 20.042C119.533 20.414 119.287 20.9 119.287 21.5C119.287 21.896 119.413 22.232 119.665 22.508C119.929 22.772 120.271 23.006 120.691 23.21C121.123 23.414 121.609 23.6 122.149 23.768C122.689 23.924 123.235 24.098 123.787 24.29C124.351 24.482 124.903 24.704 125.443 24.956C125.983 25.196 126.463 25.508 126.883 25.892C127.315 26.264 127.657 26.714 127.909 27.242C128.173 27.77 128.305 28.406 128.305 29.15C128.305 30.038 128.143 30.86 127.819 31.616C127.507 32.36 127.039 33.008 126.415 33.56C125.791 34.1 125.017 34.526 124.093 34.838C123.181 35.138 122.125 35.288 120.925 35.288C120.289 35.288 119.665 35.228 119.053 35.108C118.453 35 117.871 34.844 117.307 34.64C116.755 34.436 116.239 34.196 115.759 33.92C115.291 33.644 114.877 33.344 114.517 33.02L115.543 31.328C115.675 31.124 115.831 30.968 116.011 30.86C116.191 30.752 116.419 30.698 116.695 30.698C116.971 30.698 117.229 30.776 117.469 30.932C117.721 31.088 118.009 31.256 118.333 31.436C118.657 31.616 119.035 31.784 119.467 31.94C119.911 32.096 120.469 32.174 121.141 32.174C121.669 32.174 122.119 32.114 122.491 31.994C122.875 31.862 123.187 31.694 123.427 31.49C123.679 31.286 123.859 31.052 123.967 30.788C124.087 30.512 124.147 30.23 124.147 29.942C124.147 29.51 124.015 29.156 123.751 28.88C123.499 28.604 123.157 28.364 122.725 28.16C122.305 27.956 121.819 27.776 121.267 27.62C120.727 27.452 120.169 27.272 119.593 27.08C119.029 26.888 118.471 26.666 117.919 26.414C117.379 26.15 116.893 25.82 116.461 25.424C116.041 25.028 115.699 24.542 115.435 23.966C115.183 23.39 115.057 22.694 115.057 21.878C115.057 21.122 115.207 20.402 115.507 19.718C115.807 19.034 116.245 18.44 116.821 17.936C117.409 17.42 118.135 17.012 118.999 16.712C119.875 16.4 120.883 16.244 122.023 16.244C123.295 16.244 124.453 16.454 125.497 16.874C126.541 17.294 127.411 17.846 128.107 18.53L127.099 20.132ZM143.549 23.642C143.549 23.066 143.465 22.526 143.297 22.022C143.141 21.506 142.901 21.056 142.577 20.672C142.253 20.288 141.839 19.988 141.335 19.772C140.843 19.544 140.267 19.43 139.607 19.43C138.323 19.43 137.309 19.796 136.565 20.528C135.833 21.26 135.365 22.298 135.161 23.642H143.549ZM135.071 26.324C135.143 27.272 135.311 28.094 135.575 28.79C135.839 29.474 136.187 30.044 136.619 30.5C137.051 30.944 137.561 31.28 138.149 31.508C138.749 31.724 139.409 31.832 140.129 31.832C140.849 31.832 141.467 31.748 141.983 31.58C142.511 31.412 142.967 31.226 143.351 31.022C143.747 30.818 144.089 30.632 144.377 30.464C144.677 30.296 144.965 30.212 145.241 30.212C145.613 30.212 145.889 30.35 146.069 30.626L147.347 32.246C146.855 32.822 146.303 33.308 145.691 33.704C145.079 34.088 144.437 34.4 143.765 34.64C143.105 34.868 142.427 35.03 141.731 35.126C141.047 35.222 140.381 35.27 139.733 35.27C138.449 35.27 137.255 35.06 136.151 34.64C135.047 34.208 134.087 33.578 133.271 32.75C132.455 31.91 131.813 30.878 131.345 29.654C130.877 28.418 130.643 26.99 130.643 25.37C130.643 24.11 130.847 22.928 131.255 21.824C131.663 20.708 132.245 19.742 133.001 18.926C133.769 18.098 134.699 17.444 135.791 16.964C136.895 16.484 138.137 16.244 139.517 16.244C140.681 16.244 141.755 16.43 142.739 16.802C143.723 17.174 144.569 17.72 145.277 18.44C145.985 19.148 146.537 20.024 146.933 21.068C147.341 22.1 147.545 23.282 147.545 24.614C147.545 25.286 147.473 25.742 147.329 25.982C147.185 26.21 146.909 26.324 146.501 26.324H135.071Z" fill="#4535AF"/>
</svg>
