<svg width="313" height="252" viewBox="0 0 313 252" fill="none" xmlns="http://www.w3.org/2000/svg">
<g clip-path="url(#clip0_275_13135)">
<path d="M310.681 146.076H71.6932C71.0784 146.076 70.489 145.831 70.0543 145.396C69.6196 144.961 69.3751 144.371 69.3744 143.755V2.32113C69.3751 1.70573 69.6196 1.11573 70.0543 0.680584C70.489 0.245434 71.0784 0.000671794 71.6932 0H310.681C311.296 0.000671795 311.885 0.245435 312.32 0.680585C312.755 1.11574 312.999 1.70573 313 2.32113V143.755C312.999 144.371 312.755 144.961 312.32 145.396C311.885 145.831 311.296 146.076 310.681 146.076ZM71.6932 0.928451C71.3243 0.928854 70.9707 1.07571 70.7098 1.3368C70.449 1.59789 70.3023 1.95189 70.3019 2.32113V143.755C70.3023 144.124 70.449 144.478 70.7098 144.74C70.9707 145.001 71.3243 145.147 71.6932 145.148H310.681C311.05 145.147 311.404 145.001 311.665 144.74C311.925 144.478 312.072 144.124 312.072 143.755V2.32113C312.072 1.95189 311.925 1.59789 311.665 1.3368C311.404 1.07571 311.05 0.928854 310.681 0.928451H71.6932Z" fill="#E6E6E6"/>
<path d="M168.151 11.2957C167.668 11.3038 167.209 11.5012 166.87 11.8454C166.532 12.1896 166.343 12.6531 166.343 13.1359C166.343 13.6186 166.532 14.0821 166.87 14.4263C167.209 14.7705 167.668 14.968 168.151 14.9761H214.243C214.73 14.9833 215.2 14.7971 215.549 14.4583C215.899 14.1195 216.1 13.6558 216.109 13.1687C216.117 12.6817 215.933 12.211 215.596 11.86C215.258 11.5089 214.796 11.306 214.309 11.2958L214.304 11.2957C214.284 11.2953 214.263 11.2953 214.243 11.2957H168.151Z" fill="#3F3D56"/>
<path d="M224.696 10.7833C224.628 10.8512 224.59 10.9433 224.59 11.0393C224.59 11.1354 224.628 11.2275 224.696 11.2954L226.249 12.8499H222.42C222.324 12.8502 222.232 12.8885 222.165 12.9563C222.097 13.0242 222.059 13.1162 222.059 13.212C222.059 13.3079 222.097 13.3998 222.165 13.4677C222.232 13.5356 222.324 13.5739 222.42 13.5741H226.249L224.696 15.1286C224.662 15.1623 224.636 15.2022 224.618 15.2461C224.599 15.29 224.59 15.3371 224.59 15.3847C224.59 15.4322 224.599 15.4793 224.618 15.5233C224.636 15.5672 224.662 15.6071 224.696 15.6407C224.73 15.6744 224.769 15.701 224.813 15.7192C224.857 15.7374 224.904 15.7468 224.952 15.7468C224.999 15.7468 225.046 15.7374 225.09 15.7192C225.134 15.701 225.174 15.6744 225.208 15.6408L227.378 13.4681C227.446 13.4002 227.484 13.3081 227.484 13.212C227.484 13.116 227.446 13.0239 227.378 12.956L225.208 10.7833C225.174 10.7497 225.134 10.723 225.09 10.7048C225.046 10.6866 224.999 10.6772 224.952 10.6772C224.904 10.6772 224.857 10.6866 224.813 10.7048C224.77 10.723 224.73 10.7497 224.696 10.7833Z" fill="#E6E6E6"/>
<path d="M157.678 10.7833C157.746 10.8512 157.784 10.9433 157.784 11.0393C157.784 11.1354 157.746 11.2275 157.678 11.2954L156.125 12.8499H159.955C160.002 12.8497 160.05 12.8589 160.094 12.877C160.138 12.8951 160.178 12.9217 160.211 12.9553C160.245 12.9889 160.272 13.0289 160.29 13.0728C160.308 13.1168 160.318 13.164 160.318 13.2116C160.318 13.2592 160.309 13.3064 160.29 13.3504C160.272 13.3945 160.246 13.4345 160.212 13.4681C160.178 13.5018 160.138 13.5285 160.094 13.5467C160.05 13.5649 160.003 13.5742 159.956 13.5741H156.125L157.678 15.1286C157.712 15.1623 157.739 15.2022 157.757 15.2461C157.775 15.2901 157.784 15.3371 157.784 15.3847C157.784 15.4323 157.775 15.4793 157.757 15.5233C157.739 15.5672 157.712 15.6071 157.678 15.6408C157.645 15.6744 157.605 15.701 157.561 15.7192C157.517 15.7374 157.47 15.7468 157.423 15.7468C157.375 15.7468 157.328 15.7375 157.284 15.7193C157.24 15.7011 157.2 15.6744 157.167 15.6408L154.996 13.4681C154.928 13.4002 154.89 13.3081 154.89 13.212C154.89 13.116 154.928 13.0239 154.996 12.956L157.167 10.7833C157.235 10.7154 157.327 10.6772 157.423 10.6772C157.518 10.6772 157.611 10.7154 157.678 10.7833Z" fill="#E6E6E6"/>
<path d="M69.236 153.867C67.1403 153.867 65.0917 153.245 63.3492 152.08C61.6067 150.914 60.2486 149.258 59.4466 147.319C58.6446 145.381 58.4348 143.249 58.8436 141.191C59.2525 139.134 60.2616 137.244 61.7435 135.76C63.2254 134.277 65.1134 133.267 67.1689 132.857C69.2243 132.448 71.3548 132.658 73.2909 133.461C75.2271 134.264 76.882 135.623 78.0463 137.368C79.2106 139.112 79.832 141.163 79.832 143.26C79.832 146.073 78.7157 148.771 76.7285 150.76C74.7414 152.75 72.0463 153.867 69.236 153.867Z" fill="#4535AF"/>
<path d="M73.417 142.214H70.2813V139.075C70.2813 138.798 70.1712 138.531 69.9752 138.335C69.7791 138.139 69.5133 138.029 69.2361 138.029C68.9588 138.029 68.693 138.139 68.497 138.335C68.3009 138.531 68.1908 138.798 68.1908 139.075V142.214H65.0551C64.7779 142.214 64.512 142.324 64.316 142.52C64.12 142.717 64.0099 142.983 64.0099 143.26C64.0099 143.538 64.12 143.804 64.316 144C64.512 144.196 64.7779 144.307 65.0551 144.307H68.1908V147.445C68.1908 147.723 68.3009 147.989 68.497 148.185C68.693 148.382 68.9588 148.492 69.236 148.492C69.5133 148.492 69.7791 148.382 69.9752 148.185C70.1712 147.989 70.2813 147.723 70.2813 147.445V144.307H73.417C73.6942 144.307 73.96 144.196 74.156 144C74.3521 143.804 74.4622 143.538 74.4622 143.26C74.4622 142.983 74.3521 142.717 74.156 142.52C73.96 142.324 73.6942 142.214 73.417 142.214Z" fill="white"/>
<path d="M120.542 30.1367H88.6975V51.8006H120.542V30.1367Z" fill="#F1F1F1"/>
<path d="M163.826 30.1367H131.981V51.8006H163.826V30.1367Z" fill="#F1F1F1"/>
<path d="M207.109 30.1367H175.265V51.8006H207.109V30.1367Z" fill="#F1F1F1"/>
<path d="M250.393 30.1367H218.549V51.8006H250.393V30.1367Z" fill="#F1F1F1"/>
<path d="M293.677 30.1367H261.832V51.8006H293.677V30.1367Z" fill="#F1F1F1"/>
<path d="M120.659 68.2034H88.8142V89.8672H120.659V68.2034Z" fill="#F1F1F1"/>
<path d="M163.942 68.2034H132.098V89.8672H163.942V68.2034Z" fill="#F1F1F1"/>
<path d="M207.226 68.2034H175.382V89.8672H207.226V68.2034Z" fill="#F1F1F1"/>
<path d="M250.51 68.2034H218.665V89.8672H250.51V68.2034Z" fill="#F1F1F1"/>
<path d="M293.794 68.2034H261.949V89.8672H293.794V68.2034Z" fill="#F1F1F1"/>
<path d="M120.775 106.27H88.931V127.934H120.775V106.27Z" fill="#F1F1F1"/>
<path d="M164.059 106.27H132.215V127.934H164.059V106.27Z" fill="#F1F1F1"/>
<path d="M207.343 106.27H175.499V127.934H207.343V106.27Z" fill="#F1F1F1"/>
<path d="M250.627 106.27H218.782V127.934H250.627V106.27Z" fill="#F1F1F1"/>
<path d="M293.91 106.27H262.066V127.934H293.91V106.27Z" fill="#F1F1F1"/>
<path d="M181.874 40.9687C184.094 40.9687 185.894 39.1674 185.894 36.9454C185.894 34.7234 184.094 32.9221 181.874 32.9221C179.655 32.9221 177.855 34.7234 177.855 36.9454C177.855 39.1674 179.655 40.9687 181.874 40.9687Z" fill="#4535AF"/>
<path d="M137.972 79.0351C140.192 79.0351 141.991 77.2338 141.991 75.0118C141.991 72.7898 140.192 70.9885 137.972 70.9885C135.752 70.9885 133.953 72.7898 133.953 75.0118C133.953 77.2338 135.752 79.0351 137.972 79.0351Z" fill="#4535AF"/>
<path d="M181.874 117.102C184.094 117.102 185.894 115.3 185.894 113.078C185.894 110.856 184.094 109.055 181.874 109.055C179.655 109.055 177.855 110.856 177.855 113.078C177.855 115.3 179.655 117.102 181.874 117.102Z" fill="#4535AF"/>
<path d="M226.085 79.0351C228.305 79.0351 230.105 77.2338 230.105 75.0118C230.105 72.7898 228.305 70.9885 226.085 70.9885C223.866 70.9885 222.066 72.7898 222.066 75.0118C222.066 77.2338 223.866 79.0351 226.085 79.0351Z" fill="#3F3D56"/>
<path d="M269.06 79.0351C271.28 79.0351 273.079 77.2338 273.079 75.0118C273.079 72.7898 271.28 70.9885 269.06 70.9885C266.84 70.9885 265.041 72.7898 265.041 75.0118C265.041 77.2338 266.84 79.0351 269.06 79.0351Z" fill="#3F3D56"/>
<path d="M137.972 117.102C140.192 117.102 141.991 115.3 141.991 113.078C141.991 110.856 140.192 109.055 137.972 109.055C135.752 109.055 133.953 110.856 133.953 113.078C133.953 115.3 135.752 117.102 137.972 117.102Z" fill="#3F3D56"/>
<path d="M32.5915 151.506C36.7144 151.506 40.0566 148.16 40.0566 144.033C40.0566 139.906 36.7144 136.561 32.5915 136.561C28.4687 136.561 25.1265 139.906 25.1265 144.033C25.1265 148.16 28.4687 151.506 32.5915 151.506Z" fill="#FFB8B8"/>
<path d="M29.8964 188.25C29.8023 188.25 29.7079 188.246 29.6131 188.238C29.1436 188.198 28.6876 188.06 28.2752 187.832C27.8627 187.605 27.503 187.292 27.2196 186.915C26.9362 186.538 26.7356 186.106 26.6308 185.646C26.5261 185.186 26.5195 184.71 26.6117 184.247C26.6334 184.14 26.6608 184.033 26.6937 183.929L15.6759 170.885C15.3169 170.456 15.1054 169.924 15.0729 169.365C15.0403 168.807 15.1884 168.253 15.4952 167.786L15.5152 167.762L25.4326 157.973C25.9741 157.439 26.7052 157.143 27.4651 157.148C28.2251 157.154 28.9517 157.461 29.4852 158.003C30.0188 158.545 30.3157 159.276 30.3106 160.037C30.3055 160.798 29.9989 161.525 29.4581 162.06C29.4456 162.072 29.4331 162.084 29.4204 162.096L22.2376 168.932L30.101 181.565C30.25 181.573 30.3982 181.591 30.5445 181.62C31.3579 181.782 32.082 182.242 32.5761 182.909C33.0702 183.576 33.299 184.402 33.2183 185.229C33.1375 186.055 32.7528 186.822 32.1389 187.38C31.5251 187.939 30.7258 188.249 29.8964 188.25Z" fill="#FFB8B8"/>
<path d="M44.8864 248.034H48.6129L50.3854 233.646L44.8857 233.647L44.8864 248.034Z" fill="#FFB8B8"/>
<path d="M43.936 246.816L51.2743 246.816C51.8884 246.816 52.4968 246.937 53.0642 247.172C53.6316 247.407 54.1471 247.752 54.5813 248.187C55.0156 248.621 55.3601 249.137 55.5951 249.705C55.8301 250.273 55.9511 250.882 55.9511 251.497V251.649L43.9363 251.649L43.936 246.816Z" fill="#2F2E41"/>
<path d="M7.84985 242.877L11.0515 244.785L19.9281 233.331L15.2026 230.515L7.84985 242.877Z" fill="#FFB8B8"/>
<path d="M7.65551 241.344L13.9608 245.101C15.0265 245.737 15.7967 246.77 16.1015 247.973C16.4064 249.177 16.2212 250.452 15.5867 251.519L15.5089 251.65L5.1853 245.497L7.65551 241.344Z" fill="#2F2E41"/>
<path d="M49.4921 242.952H45.3195C44.9816 242.953 44.6556 242.828 44.4044 242.602C44.1531 242.376 43.9946 242.064 43.9595 241.728L39.7529 202.146C39.7423 202.046 39.6992 201.953 39.6304 201.88C39.5615 201.808 39.4706 201.76 39.3718 201.744C39.2729 201.728 39.1716 201.745 39.0835 201.792C38.9953 201.84 38.9252 201.915 38.884 202.006L31.2953 218.827L17.8599 240.757C17.686 241.039 17.4168 241.248 17.1015 241.346C16.7863 241.445 16.446 241.427 16.1432 241.295L10.7758 238.931C10.5984 238.853 10.4395 238.737 10.3099 238.593C10.1802 238.449 10.0827 238.279 10.0237 238.094C9.96477 237.909 9.94578 237.713 9.96798 237.52C9.99019 237.328 10.0531 237.142 10.1525 236.975L22.5033 216.274L26.2912 198.832C25.0999 191.268 30.2071 180.022 30.2589 179.909L30.2842 179.854L44.3523 174.35L44.4228 174.437C49.9709 192.662 53.3516 212.275 50.8554 241.698C50.8246 242.039 50.6679 242.357 50.4158 242.589C50.1638 242.821 49.8344 242.95 49.4921 242.952Z" fill="#2F2E41"/>
<path d="M29.7174 181.697L29.6519 181.559C29.6206 181.493 26.4924 174.889 24.081 167.83C23.6176 166.465 23.4424 165.019 23.5665 163.583C23.6907 162.146 24.1115 160.751 24.8022 159.486C25.502 158.208 26.4592 157.09 27.6134 156.201C28.7676 155.313 30.0936 154.674 31.5073 154.325C33.9615 153.736 36.5454 154.05 38.7882 155.208C41.031 156.366 42.7834 158.293 43.7262 160.636C45.639 165.424 45.0294 170.535 44.4557 174.554L44.4443 174.635L44.3711 174.67L29.7174 181.697Z" fill="#4535AF"/>
<path d="M41.6427 139.812H29.7891V134.64C32.3908 133.605 34.9367 132.725 36.4757 134.64C37.8461 134.64 39.1603 135.185 40.1293 136.155C41.0983 137.125 41.6427 138.44 41.6427 139.812Z" fill="#2F2E41"/>
<path d="M29.1328 133.727C22.0465 133.727 20.063 142.619 20.063 147.635C20.063 150.432 21.3268 151.433 23.3128 151.771L24.0142 148.027L25.6569 151.932C26.2148 151.935 26.8009 151.924 27.4084 151.913L27.9654 150.765L29.2074 151.892C34.1819 151.9 38.2024 152.626 38.2024 147.635C38.2024 142.619 36.463 133.727 29.1328 133.727Z" fill="#2F2E41"/>
<path d="M60.6311 143.678C60.6761 143.761 60.7177 143.846 60.7559 143.933C60.9466 144.364 61.0442 144.831 61.0421 145.303C61.0401 145.774 60.9385 146.24 60.744 146.67C60.5496 147.099 60.2667 147.483 59.9138 147.795C59.5609 148.108 59.1461 148.342 58.6964 148.483C58.5918 148.515 58.4856 148.542 58.3781 148.564L52.225 164.496C52.0216 165.017 51.6558 165.458 51.1821 165.754C50.7083 166.051 50.1518 166.186 49.5951 166.141L49.5642 166.135L36.2277 162.116C35.4997 161.896 34.8885 161.396 34.5288 160.726C34.169 160.055 34.09 159.269 34.3093 158.54C34.5285 157.812 35.0279 157.2 35.6977 156.84C36.3676 156.48 37.1528 156.401 37.8809 156.62C37.8975 156.625 37.9141 156.63 37.9307 156.636L47.3669 159.668L54.6725 146.704C54.6079 146.569 54.5528 146.43 54.5077 146.288C54.2603 145.495 54.3158 144.639 54.6636 143.885C55.0113 143.132 55.6265 142.534 56.3896 142.209C57.1528 141.884 58.0094 141.854 58.7932 142.126C59.577 142.397 60.232 142.95 60.6311 143.678Z" fill="#FFB8B8"/>
<path d="M62.1776 252H0.322164C0.23672 252 0.154777 251.966 0.0943593 251.906C0.0339419 251.845 0 251.763 0 251.677C0 251.592 0.0339419 251.51 0.0943593 251.449C0.154777 251.389 0.23672 251.355 0.322164 251.355H62.1776C62.263 251.355 62.345 251.389 62.4054 251.449C62.4658 251.51 62.4997 251.592 62.4997 251.677C62.4997 251.763 62.4658 251.845 62.4054 251.906C62.345 251.966 62.263 252 62.1776 252Z" fill="#CCCCCC"/>
</g>
<defs>
<clipPath id="clip0_275_13135">
<rect width="313" height="252" fill="white"/>
</clipPath>
</defs>
</svg>
