<svg width="241" height="160" viewBox="0 0 241 160" fill="none" xmlns="http://www.w3.org/2000/svg">
<g clip-path="url(#clip0_823_10603)">
<path opacity="0.21" d="M237.715 102.605C237.589 104.147 237.423 105.699 237.217 107.259C236.437 113.175 235.084 119.203 233.157 125.253C230.866 132.455 227.761 139.685 223.846 146.796C221.711 150.672 219.382 154.438 216.867 158.08C216.426 158.723 215.975 159.363 215.519 160.002C215.146 160.002 214.779 160 214.406 160H214.404L208.02 159.98C203.188 159.967 198.357 159.952 193.526 159.936C188.765 159.923 184.005 159.909 179.245 159.894C174.196 159.879 169.147 159.864 164.097 159.85H164.095L141.932 159.785C141.529 159.782 141.128 159.782 140.725 159.78H140.723C133.57 159.76 126.418 159.739 119.267 159.717C111.825 159.694 104.382 159.672 96.9373 159.653C93.7671 159.642 90.5976 159.632 87.4288 159.625L76.3078 159.59C70.941 159.572 65.5736 159.556 60.2057 159.542C56.1498 159.531 52.0939 159.518 48.038 159.505C45.2798 159.498 42.5223 159.49 39.7655 159.48C30.4885 159.454 21.2108 159.427 11.9324 159.399C8.69395 141.675 7.14486 126.993 6.87721 114.828C6.56559 100.498 8.03817 89.657 10.6288 81.4378C11.7745 77.8075 13.1359 74.6882 14.6629 72.0078C17.4806 67.0523 20.8509 63.591 24.4155 61.1515C24.7462 60.9257 25.0765 60.7085 25.4092 60.5003C27.2517 59.3432 29.2303 58.4163 31.3002 57.7405C36.3277 56.0978 41.628 56.0254 47.314 56.6987C48.2142 56.8062 49.1249 56.932 50.0459 57.0758C54.8022 57.8043 59.8321 58.9492 65.1985 60.0635C68.9459 60.8402 72.8564 61.6014 76.9542 62.1937H76.9563C79.0251 62.4919 81.142 62.7484 83.3078 62.9415C94.5476 63.944 107.14 63.2597 121.478 58.1442C124.62 57.0242 127.7 55.7391 130.705 54.2944C134.292 52.5706 137.526 50.7407 140.511 48.8893C144.628 46.3361 148.283 43.7387 151.76 41.3237C156.338 38.1406 160.609 35.2651 165.236 33.1986C166.13 32.7973 167.04 32.4288 167.965 32.093C170.815 31.0531 173.787 30.3823 176.808 30.0969C179.082 29.8776 181.498 29.858 184.105 30.0727C186.245 30.2508 188.372 30.5718 190.469 31.0336C191.119 31.1784 191.761 31.3341 192.395 31.5007C199.094 33.2645 204.921 36.3024 209.735 39.5996C218.567 45.6514 223.998 52.5809 225.183 54.1341C235.051 67.074 239.226 84.1706 237.715 102.605Z" fill="#4535AF"/>
<path opacity="0.03" d="M76.3074 159.59C70.9406 159.572 65.5732 159.556 60.2053 159.542C56.1494 159.53 52.0935 159.518 48.0376 159.504L6.87819 114.828C6.56657 100.497 8.03914 89.6567 10.6297 81.4375C11.7755 77.8072 13.1369 74.6879 14.6638 72.0074L76.3074 159.59Z" fill="black"/>
<path opacity="0.03" d="M141.932 159.783C141.528 159.781 141.128 159.781 140.724 159.778H140.722C133.569 159.759 126.417 159.737 119.266 159.715C111.825 159.692 104.381 159.671 96.9365 159.651L31.3008 57.7402C36.3282 56.0974 41.6285 56.025 47.3146 56.6983C48.2148 56.8059 49.1254 56.9316 50.0464 57.0755L141.932 159.783Z" fill="black"/>
<path opacity="0.03" d="M193.525 159.934C188.764 159.921 184.004 159.907 179.245 159.892C174.196 159.877 169.146 159.863 164.097 159.849H164.095L76.957 62.194C79.0258 62.4922 81.1428 62.7487 83.3085 62.9418C94.5483 63.9443 107.141 63.26 121.478 58.1446C124.62 57.0244 127.699 55.7392 130.704 54.2944L193.525 159.934Z" fill="black"/>
<path opacity="0.03" d="M216.867 158.078L208.02 159.978L140.511 48.8893C144.628 46.3361 148.283 43.7387 151.76 41.3237C156.338 38.1406 160.609 35.2651 165.236 33.1986L216.867 158.078Z" fill="black"/>
<path opacity="0.03" d="M237.714 102.605C237.589 104.147 237.423 105.699 237.216 107.259C236.437 113.175 235.084 119.203 233.156 125.253C230.865 132.455 227.761 139.685 223.846 146.796L176.809 30.0976C179.082 29.8783 181.499 29.8587 184.105 30.0735C186.246 30.2515 188.372 30.5725 190.47 31.0343L237.714 102.605Z" fill="black"/>
<path d="M34.0488 30.8991H0.992188V69.8589H34.0488V30.8991Z" fill="#7749D2"/>
<path opacity="0.26" d="M30.8191 34.7056H4.22168V66.0525H30.8191V34.7056Z" fill="white"/>
<path d="M225.193 29.1078H192.137V68.0676H225.193V29.1078Z" fill="#7749D2"/>
<path opacity="0.26" d="M221.964 32.9142H195.366V64.2612H221.964V32.9142Z" fill="white"/>
<path d="M167.166 35.6874C167.166 35.6874 164.184 41.4413 164.929 44.2255C165.675 47.0098 164.469 54.2482 163.351 57.9605C162.233 61.6728 167.638 62.0437 172.299 61.3015C176.959 60.5592 183.297 62.415 187.771 60.0021C192.245 57.5892 189.075 53.5059 185.72 50.9072C182.365 48.3085 183.11 47.752 182.924 40.3278C182.738 32.9035 174.536 30.119 174.536 30.119L167.166 35.6874Z" fill="#00001C"/>
<path d="M172.768 42.5253C176.675 42.5253 179.842 39.7009 179.842 36.217C179.842 32.733 176.675 29.9087 172.768 29.9087C168.861 29.9087 165.693 32.733 165.693 36.217C165.693 39.7009 168.861 42.5253 172.768 42.5253Z" fill="#00001C"/>
<path d="M150.34 147.522L150.307 147.615L149.845 148.978L148.902 151.767L152.332 153.148L153.825 149.471L153.85 149.408L154.016 149.002L150.34 147.522Z" fill="#FBD3C0"/>
<path opacity="0.28" d="M150.307 147.615L149.845 148.978L153.824 149.471L154.021 149.496C154.021 149.496 153.958 149.463 153.849 149.408C153.192 149.067 150.841 147.846 150.641 147.76L150.307 147.615Z" fill="black"/>
<path d="M165.897 76.0958L165.343 78.1957L160.414 96.8406L156.104 113.15L149.188 147.505L155.006 150.02L167.853 117.252L179.177 83.8914L181.004 78.5136L173.399 77.2963L165.897 76.0958Z" fill="#020268"/>
<path d="M153.065 153.444L151.876 156.37L151.282 157.834L139.034 152.902C139.034 152.902 139.475 149.376 142.64 149.231C142.882 149.221 143.125 149.228 143.367 149.254C147.192 149.66 149.548 149.473 149.548 149.473C149.548 149.473 149.246 151.621 150.814 151.97C152.383 152.318 153.057 151.36 153.057 151.36C153.057 151.36 154.056 151.005 153.065 153.444Z" fill="#F2B02C"/>
<path d="M151.876 156.37L151.282 157.834L139.034 152.902C139.034 152.902 139.475 149.376 142.64 149.231C143.067 149.963 143.446 151.162 142.813 152.721L151.876 156.37Z" fill="#C4881E"/>
<path d="M148.067 151.715C148.047 151.707 148.028 151.696 148.011 151.684C147.983 151.663 147.959 151.638 147.941 151.608C147.923 151.579 147.911 151.546 147.905 151.512C147.9 151.478 147.901 151.443 147.909 151.409C147.918 151.376 147.932 151.344 147.953 151.316C148.479 150.597 147.912 149.664 147.906 149.655C147.869 149.595 147.857 149.524 147.873 149.455C147.889 149.387 147.932 149.328 147.991 149.291C148.051 149.255 148.123 149.243 148.191 149.259C148.26 149.275 148.319 149.317 148.356 149.376C148.388 149.427 149.118 150.618 148.381 151.626C148.346 151.673 148.297 151.708 148.24 151.724C148.183 151.741 148.122 151.737 148.067 151.715Z" fill="white"/>
<path d="M146.644 151.709C146.624 151.701 146.605 151.691 146.588 151.678C146.56 151.658 146.536 151.632 146.518 151.603C146.5 151.573 146.488 151.541 146.482 151.506C146.477 151.472 146.478 151.438 146.486 151.404C146.494 151.37 146.509 151.339 146.53 151.311C147.056 150.591 146.489 149.658 146.483 149.649C146.465 149.62 146.453 149.587 146.447 149.553C146.441 149.519 146.442 149.484 146.45 149.45C146.458 149.416 146.473 149.384 146.493 149.356C146.513 149.328 146.539 149.304 146.569 149.286C146.598 149.268 146.631 149.255 146.665 149.25C146.7 149.244 146.735 149.245 146.769 149.253C146.802 149.261 146.834 149.276 146.863 149.296C146.891 149.316 146.915 149.342 146.933 149.371C146.964 149.421 147.695 150.612 146.958 151.62C146.924 151.668 146.874 151.703 146.817 151.719C146.76 151.735 146.699 151.732 146.644 151.709Z" fill="white"/>
<path d="M145.222 151.704C145.185 151.689 145.151 151.666 145.125 151.636C145.098 151.606 145.078 151.571 145.067 151.533C145.056 151.494 145.054 151.454 145.061 151.414C145.068 151.375 145.084 151.338 145.107 151.305C145.633 150.586 145.066 149.653 145.06 149.644C145.023 149.584 145.011 149.513 145.027 149.444C145.043 149.376 145.086 149.317 145.146 149.28C145.205 149.244 145.277 149.232 145.346 149.248C145.414 149.264 145.473 149.306 145.51 149.365C145.542 149.416 146.272 150.607 145.535 151.615C145.501 151.663 145.451 151.697 145.394 151.714C145.337 151.73 145.276 151.726 145.222 151.704Z" fill="white"/>
<path d="M183.138 150.148L183.145 150.246L183.267 151.679L183.517 154.611L187.216 154.518L187.115 150.553L187.112 150.485L187.102 150.047L183.138 150.148Z" fill="#FBD3C0"/>
<path opacity="0.28" d="M183.146 150.246L183.268 151.679L187.115 150.554L187.305 150.499C187.305 150.499 187.234 150.493 187.113 150.486C186.374 150.433 183.728 150.247 183.512 150.247L183.146 150.246Z" fill="black"/>
<path opacity="0.48" d="M169.344 80.2243L171.185 101.803L176.791 88.7931V76.7033L175.283 76.4086L169.344 80.2243Z" fill="black"/>
<path d="M168.838 78.4612L169.169 80.6073L172.106 99.6642L174.676 116.333L182.075 150.589H188.417L187.094 115.437L184.137 80.3453L183.662 74.6882L176.199 76.5875L168.838 78.4612Z" fill="#020268"/>
<path opacity="0.22" d="M164.475 80.3153C164.591 80.428 164.741 80.4988 164.902 80.5166C165.719 80.5897 167.283 80.6097 169.17 80.6073C171.482 80.6021 174.28 80.5621 176.792 80.5418C179.685 80.519 182.202 80.5218 183.159 80.6376C183.551 80.6856 183.875 80.5897 184.138 80.3453L183.662 74.6882L176.201 76.5875L175.285 76.4086L166.487 74.6882C166.487 74.6882 165.689 76.9022 164.475 80.3153Z" fill="black"/>
<path d="M185.355 68.5844C185.352 76.0614 185.152 79.5207 183.158 79.2807C181.745 79.1083 176.909 79.1821 172.491 79.2262C169.216 79.2576 166.167 79.2724 164.902 79.1573C163.621 79.0439 163.347 75.3578 163.448 70.8308C163.479 69.4325 163.545 67.9542 163.631 66.4759C163.638 66.3414 163.646 66.2066 163.652 66.0722C163.695 65.3551 163.743 64.638 163.791 63.9347C163.873 62.7626 163.958 61.6218 164.038 60.5537C164.268 57.4941 164.456 55.0318 164.376 54.1655C164.134 51.5433 166.369 50.0905 166.803 49.5858C166.859 49.5186 166.893 49.4824 166.893 49.4824L174.677 48.6418L179.203 49.5103L179.325 49.5337C179.325 49.5337 182.599 50.3432 184.316 55.4149C184.919 57.1938 185.332 59.4964 185.344 62.4716C185.346 62.5219 185.346 62.5705 185.346 62.6209V63.1249C185.348 65.1379 185.357 66.9568 185.355 68.5844Z" fill="#F2B02C"/>
<path d="M144.557 48.6418C144.557 48.6418 145.614 64.6911 147.726 69.1622C149.221 72.3257 157.478 69.2249 162.183 67.1371C162.717 66.9003 163.203 66.6762 163.63 66.4769C163.83 66.3838 164.017 66.2956 164.189 66.2125C164.991 65.8298 165.47 65.583 165.47 65.583C165.47 65.583 168.496 49.7447 167.175 49.483H167.092C166.989 49.4999 166.891 49.5349 166.801 49.5865C164.367 50.8255 153.277 61.5332 153.277 61.5332L147.992 47.8524L144.557 48.6418Z" fill="#F2B02C"/>
<path d="M188.008 154.498L188.088 157.655L188.128 159.233L174.92 159.566C174.92 159.566 173.913 156.156 176.759 154.769C176.977 154.663 177.203 154.574 177.434 154.502C181.104 153.357 183.192 152.251 183.192 152.251C183.192 152.251 183.774 154.342 185.352 154.039C186.93 153.736 187.165 152.591 187.165 152.591C187.165 152.591 187.941 151.868 188.008 154.498Z" fill="#F2B02C"/>
<path d="M188.088 157.656L188.128 159.234L174.92 159.566C174.92 159.566 173.913 156.156 176.759 154.769C177.443 155.27 178.271 156.22 178.313 157.901L188.088 157.656Z" fill="#C4881E"/>
<path d="M182.731 154.895C182.709 154.895 182.688 154.893 182.666 154.888C182.633 154.881 182.601 154.867 182.572 154.847C182.544 154.827 182.52 154.802 182.501 154.773C182.482 154.743 182.47 154.711 182.464 154.677C182.458 154.643 182.459 154.608 182.466 154.574C182.661 153.705 181.768 153.075 181.759 153.069C181.704 153.028 181.667 152.968 181.656 152.9C181.645 152.833 181.66 152.764 181.699 152.708C181.738 152.652 181.797 152.613 181.864 152.599C181.932 152.586 182.001 152.599 182.059 152.635C182.108 152.67 183.255 153.471 182.982 154.689C182.969 154.746 182.937 154.797 182.892 154.835C182.846 154.872 182.79 154.893 182.731 154.895Z" fill="white"/>
<path d="M181.424 155.454C181.403 155.454 181.381 155.452 181.36 155.448C181.326 155.44 181.294 155.426 181.265 155.406C181.237 155.386 181.213 155.361 181.194 155.332C181.176 155.303 181.163 155.27 181.157 155.236C181.151 155.202 181.152 155.168 181.159 155.134C181.354 154.265 180.461 153.634 180.452 153.628C180.394 153.588 180.355 153.527 180.342 153.459C180.33 153.39 180.345 153.319 180.385 153.262C180.425 153.204 180.486 153.165 180.555 153.153C180.624 153.14 180.695 153.155 180.752 153.195C180.801 153.229 181.948 154.03 181.675 155.248C181.662 155.305 181.63 155.357 181.585 155.394C181.54 155.431 181.483 155.452 181.424 155.454Z" fill="white"/>
<path d="M180.117 156.013C180.096 156.014 180.074 156.012 180.053 156.007C180.019 155.999 179.987 155.985 179.958 155.966C179.93 155.946 179.906 155.921 179.887 155.891C179.869 155.862 179.856 155.83 179.85 155.796C179.844 155.762 179.845 155.727 179.852 155.693C180.047 154.824 179.154 154.193 179.145 154.187C179.088 154.148 179.048 154.087 179.036 154.018C179.023 153.949 179.038 153.879 179.078 153.821C179.118 153.764 179.179 153.724 179.248 153.712C179.317 153.699 179.388 153.715 179.446 153.754C179.494 153.789 180.641 154.589 180.368 155.807C180.355 155.865 180.324 155.916 180.278 155.953C180.233 155.991 180.176 156.012 180.117 156.013Z" fill="white"/>
<path opacity="0.4" d="M172.299 64.6901C174.196 64.6901 175.734 63.1588 175.734 61.2698C175.734 59.3808 174.196 57.8495 172.299 57.8495C170.402 57.8495 168.864 59.3808 168.864 61.2698C168.864 63.1588 170.402 64.6901 172.299 64.6901Z" fill="white"/>
<path d="M147.579 48.0558C147.579 48.0558 148.049 44.5428 147.108 44.5428C146.167 44.5428 145.931 45.2457 145.931 45.2457C145.931 45.2457 144.048 42.6683 143.107 43.3709C142.166 44.0735 144.873 48.6429 144.873 48.6429L147.579 48.0558Z" fill="#FBD3C0"/>
<path d="M171.843 51.3368C173.822 51.0847 174.763 48.667 174.763 48.667L174.169 43.6464L171.039 44.2207L170.801 45.5808L170.344 48.2178L170.197 49.0617C170.197 49.0617 169.865 51.5912 171.843 51.3368Z" fill="#E8BBAA"/>
<path opacity="0.23" d="M170.344 48.2185C171.254 48.1278 172.813 47.7199 173.956 46.1103C175.046 44.5765 172.671 45.0416 170.801 45.5814L170.344 48.2185Z" fill="black"/>
<path d="M176.723 41.601C176.723 41.601 175.687 46.4537 171.545 47.0725C167.403 47.6914 166.597 43.5774 166.39 41.5155C166.183 39.4535 166.254 37.4529 166.254 37.4529L166.285 34.4753L174.337 33.33L177.344 35.8267L176.723 41.601Z" fill="#FBD3C0"/>
<path d="M171.605 40.6812C171.872 40.6812 172.089 40.4657 172.089 40.1999C172.089 39.9341 171.872 39.7186 171.605 39.7186C171.338 39.7186 171.122 39.9341 171.122 40.1999C171.122 40.4657 171.338 40.6812 171.605 40.6812Z" fill="black"/>
<path d="M167.805 40.6812C168.072 40.6812 168.288 40.4657 168.288 40.1999C168.288 39.9341 168.072 39.7186 167.805 39.7186C167.538 39.7186 167.321 39.9341 167.321 40.1999C167.321 40.4657 167.538 40.6812 167.805 40.6812Z" fill="black"/>
<path d="M168.65 43.1561H170.973C170.973 43.1561 169.917 45.2588 168.65 43.1561Z" fill="black"/>
<path opacity="0.12" d="M163.63 66.4769C163.543 67.9555 163.478 69.4342 163.447 70.8318L164.188 66.2121L164.285 65.6154L163.652 66.0739L162.183 67.1368C162.716 66.9003 163.202 66.6758 163.63 66.4769Z" fill="black"/>
<path opacity="0.12" d="M185.355 68.5844C184.215 73.0755 182.574 76.7636 180.688 76.3789C176.244 75.4705 167.614 68.0521 163.793 64.3936C163.072 63.6981 162.434 62.922 161.893 62.0806L163.905 60.491L164.036 60.5541L177.36 66.8789C177.535 56.4305 178.88 51.3995 178.924 51.2451L178.979 51.314L179.904 51.3623C181.805 52.3652 183.271 53.7635 184.316 55.4142C184.92 57.1931 185.332 59.4957 185.344 62.4709C185.346 62.5212 185.346 62.5698 185.346 62.6202V63.1249C185.349 65.1379 185.357 66.9568 185.355 68.5844Z" fill="black"/>
<path d="M163.638 59.4226C163.638 59.4226 161.319 56.4577 160.62 57.1661C159.922 57.8746 160.28 58.5738 160.28 58.5738C160.28 58.5738 156.925 58.0766 156.76 59.3071C156.594 60.5375 162.073 61.8927 162.073 61.8927L163.638 59.4226Z" fill="#FBD3C0"/>
<path opacity="0.12" d="M179.632 50.9362L180.054 52.1976L180.477 51.9873C185.779 54.7864 186.501 57.5192 185.328 63.3793C184.208 68.9677 182.498 74.7106 180.245 74.2504C174.433 73.0624 164.147 63.1804 164.147 63.1804L166.329 61.2394L176.676 64.8142C176.852 54.3647 179.589 51.091 179.632 50.9362Z" fill="black"/>
<path d="M178.712 49.7726L178.767 49.8416L179.694 49.8906C184.996 52.6893 186.924 58.5697 185.75 64.4295C184.63 70.0179 182.92 75.7611 180.668 75.3005C174.855 74.1129 161.824 62.1279 161.824 62.1279L163.694 59.0168L177.15 65.4068C177.325 54.9588 178.669 49.9274 178.712 49.7726Z" fill="#F2B02C"/>
<path d="M166.116 38.3196L170.972 35.1655C170.972 35.1655 173.506 38.5296 177.308 39.3714L178.153 37.2685C178.153 37.2685 176.675 33.2731 175.83 32.8525C174.985 32.4319 169.705 31.1705 169.705 31.1705L167.593 34.1143L166.115 34.3246L166.116 38.3196Z" fill="#00001C"/>
<path d="M176.819 42.5249C177.789 42.5249 178.575 41.7419 178.575 40.776C178.575 39.8101 177.789 39.027 176.819 39.027C175.849 39.027 175.062 39.8101 175.062 40.776C175.062 41.7419 175.849 42.5249 176.819 42.5249Z" fill="#FBD3C0"/>
<path d="M167.209 159.592C166.981 159.592 166.76 159.516 166.58 159.377C166.401 159.237 166.273 159.042 166.218 158.822L151.368 99.2281L150.272 94.8356L151.422 94.5698L154.83 93.7817L154.994 94.5698L155.959 99.2281L168.209 158.371C168.239 158.519 168.236 158.672 168.2 158.818C168.164 158.965 168.096 159.102 168 159.219C167.904 159.336 167.784 159.43 167.647 159.494C167.51 159.559 167.36 159.592 167.209 159.592Z" fill="url(#paint0_linear_823_10603)"/>
<path opacity="0.34" d="M155.958 99.2281H151.368L150.272 94.8356L151.422 94.5695H154.994L155.958 99.2281Z" fill="black"/>
<path d="M96.8189 94.8356L95.6943 99.2281L80.4053 158.987C80.3562 159.194 80.2269 159.373 80.0456 159.485C79.8642 159.598 79.6456 159.634 79.4374 159.586C79.2293 159.539 79.0486 159.411 78.9348 159.231C78.821 159.051 78.7834 158.833 78.8302 158.626L91.1326 99.2281L92.0983 94.5698L92.262 93.7817L95.6694 94.5698L96.8189 94.8356Z" fill="url(#paint1_linear_823_10603)"/>
<path opacity="0.34" d="M95.669 94.5695L96.8192 94.8356L95.6942 99.2281H91.1328L92.0978 94.5695H95.669Z" fill="black"/>
<path d="M170.895 91.4639H70.6973V96.1222H170.895V91.4639Z" fill="#4535AF"/>
<path d="M123.308 48.7946H120.981V55.7434H123.308V48.7946Z" fill="#020268"/>
<path d="M123.973 47.9251C123.973 48.4242 123.774 48.9029 123.419 49.2558C123.065 49.6088 122.584 49.8071 122.083 49.8071C121.581 49.8071 121.1 49.6088 120.746 49.2558C120.392 48.9029 120.192 48.4242 120.192 47.9251C120.192 46.8863 122.226 42.8596 122.226 42.8596L122.33 43.1058C122.706 43.9928 123.973 47.0418 123.973 47.9251Z" fill="#4535AF"/>
<path d="M123.972 47.9251C124.004 48.0885 123.991 48.2575 123.935 48.4144C123.879 48.5713 123.782 48.7103 123.654 48.8169C123.525 48.9235 123.37 48.9938 123.205 49.0204C123.04 49.0469 122.871 49.0288 122.715 48.9679C122.467 48.9679 122.221 48.9192 121.992 48.8245C121.762 48.7298 121.554 48.591 121.378 48.416C121.203 48.241 121.063 48.0333 120.968 47.8047C120.874 47.5761 120.825 47.3312 120.825 47.0839C120.825 46.3923 121.725 44.3758 122.329 43.1058C122.706 43.9928 123.972 47.0418 123.972 47.9251Z" fill="#4535AF"/>
<path opacity="0.23" d="M123.852 48.5894C123.696 49.002 123.4 49.347 123.014 49.5643C122.629 49.7815 122.179 49.8572 121.744 49.7781C121.308 49.6991 120.914 49.4702 120.631 49.1316C120.347 48.7929 120.192 48.366 120.192 47.9251C120.192 46.8863 122.226 42.8596 122.226 42.8596L122.33 43.1058C121.728 44.3758 120.826 46.3923 120.826 47.0839C120.826 47.4338 120.923 47.777 121.108 48.0747C121.293 48.3725 121.557 48.6132 121.871 48.7696C122.186 48.926 122.538 48.992 122.888 48.9602C123.238 48.9283 123.572 48.7999 123.853 48.5894H123.852Z" fill="black"/>
<path d="M132.105 57.915V71.0887H112.111V57.915C112.111 56.7166 112.804 55.743 113.657 55.743H130.559C130.971 55.743 131.345 55.9702 131.624 56.3402C131.919 56.7356 132.105 57.2948 132.105 57.915Z" fill="#FFBC45"/>
<path opacity="0.6" d="M122.144 60.0866C122.947 60.0866 123.598 59.4385 123.598 58.639C123.598 57.8395 122.947 57.1913 122.144 57.1913C121.341 57.1913 120.69 57.8395 120.69 58.639C120.69 59.4385 121.341 60.0866 122.144 60.0866Z" fill="white"/>
<path opacity="0.44" d="M127.961 60.0866C128.764 60.0866 129.415 59.4385 129.415 58.639C129.415 57.8395 128.764 57.1913 127.961 57.1913C127.158 57.1913 126.507 57.8395 126.507 58.639C126.507 59.4385 127.158 60.0866 127.961 60.0866Z" fill="white"/>
<path opacity="0.72" d="M116.329 60.0866C117.132 60.0866 117.783 59.4385 117.783 58.639C117.783 57.8395 117.132 57.1913 116.329 57.1913C115.526 57.1913 114.875 57.8395 114.875 58.639C114.875 59.4385 115.526 60.0866 116.329 60.0866Z" fill="white"/>
<path d="M136.175 73.2606V86.434H107.969V73.2606C107.969 72.6849 108.198 72.1327 108.607 71.7254C109.016 71.3182 109.57 71.0891 110.148 71.0887H133.993C134.28 71.0887 134.563 71.1449 134.828 71.2541C135.092 71.3632 135.333 71.5232 135.535 71.725C135.738 71.9267 135.898 72.1661 136.007 72.4296C136.117 72.6931 136.173 72.9755 136.173 73.2606H136.175Z" fill="#F2B02C"/>
<path opacity="0.16" d="M136.174 85.1559H107.969V86.4343H136.174V85.1559Z" fill="black"/>
<path opacity="0.16" d="M132.105 70.2264H112.112V71.0887H132.105V70.2264Z" fill="black"/>
<path opacity="0.53" d="M122.095 75.9749C122.932 75.9749 123.61 75.2994 123.61 74.4662C123.61 73.633 122.932 72.9576 122.095 72.9576C121.258 72.9576 120.58 73.633 120.58 74.4662C120.58 75.2994 121.258 75.9749 122.095 75.9749Z" fill="white"/>
<path opacity="0.42" d="M127.056 75.9749C127.893 75.9749 128.571 75.2994 128.571 74.4662C128.571 73.633 127.893 72.9576 127.056 72.9576C126.219 72.9576 125.541 73.633 125.541 74.4662C125.541 75.2994 126.219 75.9749 127.056 75.9749Z" fill="white"/>
<path opacity="0.32" d="M132.237 75.9749C133.074 75.9749 133.752 75.2994 133.752 74.4662C133.752 73.633 133.074 72.9576 132.237 72.9576C131.4 72.9576 130.722 73.633 130.722 74.4662C130.722 75.2994 131.4 75.9749 132.237 75.9749Z" fill="white"/>
<path opacity="0.72" d="M112.175 75.9749C113.012 75.9749 113.69 75.2994 113.69 74.4662C113.69 73.633 113.012 72.9576 112.175 72.9576C111.339 72.9576 110.66 73.633 110.66 74.4662C110.66 75.2994 111.339 75.9749 112.175 75.9749Z" fill="white"/>
<path opacity="0.6" d="M117.135 75.9749C117.972 75.9749 118.65 75.2994 118.65 74.4662C118.65 73.633 117.972 72.9576 117.135 72.9576C116.298 72.9576 115.62 73.633 115.62 74.4662C115.62 75.2994 116.298 75.9749 117.135 75.9749Z" fill="white"/>
<path d="M139.909 85.9968H104.219V91.4639H139.909V85.9968Z" fill="#020268"/>
<path d="M97.6008 16.383C97.7684 15.8727 97.8273 15.4735 97.7012 14.935C97.5697 14.373 97.3616 13.8352 97.4994 13.2533C97.3938 13.6994 97.1639 14.1179 97.0579 14.5661C96.8415 15.4811 97.4994 16.3244 97.3048 17.2397L97.4087 16.9128L97.3668 17.0401C97.3588 17.0642 97.1995 17.5227 97.2975 17.2786C97.4139 16.9866 97.5053 16.6798 97.6019 16.3823L97.6008 16.383Z" fill="#4535AF"/>
<path d="M92.1916 12.5659C92.0378 11.835 91.8561 11.0662 91.2616 10.5605C91.2862 10.5815 91.0538 11.1566 91.0341 11.2155C91.0126 11.2796 90.7751 11.8361 90.8201 11.874C91.4146 12.3797 91.5967 13.1496 91.7501 13.8794C91.7449 13.8549 91.8194 13.6884 91.8194 13.6888C91.8734 13.5347 91.9253 13.3785 91.9773 13.2254C92.0292 13.0724 92.0811 12.9151 92.1317 12.7607C92.1466 12.7142 92.2009 12.6128 92.1916 12.5669V12.5659Z" fill="#4535AF"/>
<path d="M98.7941 6.00872C98.6404 5.27785 98.4586 4.50905 97.8641 4.0033C97.8887 4.02433 97.6564 4.59937 97.6366 4.65833C97.6152 4.72245 97.3776 5.27888 97.4227 5.3168C98.0172 5.82255 98.1993 6.59239 98.3527 7.32223C98.3475 7.29775 98.4219 7.13124 98.4219 7.13158C98.4759 6.97748 98.5279 6.82131 98.5798 6.66823C98.6318 6.51516 98.6837 6.35796 98.7342 6.20351C98.7491 6.15697 98.8035 6.05561 98.7941 6.00976V6.00872Z" fill="#4535AF"/>
<path d="M102.817 13.6998C103.353 13.5391 103.337 12.648 103.952 12.6504C103.993 12.6504 104.159 12.0546 104.179 11.9953C104.198 11.936 104.36 11.3369 104.393 11.3369C103.778 11.3344 103.794 12.226 103.259 12.3866C103.244 12.3911 103.183 12.5935 103.19 12.5773C103.136 12.7314 103.084 12.8876 103.031 13.0406C102.979 13.1937 102.927 13.3509 102.877 13.5054C102.869 13.5305 102.833 13.6946 102.817 13.6991V13.6998Z" fill="#F2B02C"/>
<path d="M92.2568 21.565C92.7921 21.4043 92.7762 20.5131 93.3911 20.5155C93.4327 20.5155 93.5989 19.9198 93.6183 19.8605C93.6377 19.8012 93.799 19.202 93.8326 19.202C93.2177 19.2 93.2332 20.0911 92.6983 20.2518C92.6834 20.2563 92.6228 20.4587 92.629 20.4424C92.575 20.5966 92.5231 20.7527 92.4708 20.9058C92.4185 21.0589 92.3669 21.2161 92.3167 21.3705C92.3088 21.3957 92.2721 21.5598 92.2568 21.5643V21.565Z" fill="#4535AF"/>
<path d="M91.8386 16.9536C91.9921 16.9536 92.1166 16.8296 92.1166 16.6767C92.1166 16.5238 91.9921 16.3999 91.8386 16.3999C91.685 16.3999 91.5605 16.5238 91.5605 16.6767C91.5605 16.8296 91.685 16.9536 91.8386 16.9536Z" fill="#F2B02C"/>
<path d="M101.863 16.4926C102.093 16.4926 102.28 16.3066 102.28 16.0772C102.28 15.8477 102.093 15.6617 101.863 15.6617C101.632 15.6617 101.445 15.8477 101.445 16.0772C101.445 16.3066 101.632 16.4926 101.863 16.4926Z" fill="#020268"/>
<path d="M97.2858 19.9374C97.4394 19.9374 97.5639 19.8135 97.5639 19.6606C97.5639 19.5077 97.4394 19.3837 97.2858 19.3837C97.1323 19.3837 97.0078 19.5077 97.0078 19.6606C97.0078 19.8135 97.1323 19.9374 97.2858 19.9374Z" fill="#F2B02C"/>
<path d="M96.9446 11.9336C97.175 11.9336 97.3618 11.7476 97.3618 11.5182C97.3618 11.2888 97.175 11.1028 96.9446 11.1028C96.7141 11.1028 96.5273 11.2888 96.5273 11.5182C96.5273 11.7476 96.7141 11.9336 96.9446 11.9336Z" fill="#F2B02C"/>
<path d="M94.1176 22.6613C94.4247 22.6613 94.6737 22.4134 94.6737 22.1076C94.6737 21.8018 94.4247 21.554 94.1176 21.554C93.8105 21.554 93.5615 21.8018 93.5615 22.1076C93.5615 22.4134 93.8105 22.6613 94.1176 22.6613Z" fill="#F2B02C"/>
<path d="M93.961 8.58057C94.4217 8.58057 94.7952 8.20874 94.7952 7.75006C94.7952 7.29139 94.4217 6.91956 93.961 6.91956C93.5004 6.91956 93.127 7.29139 93.127 7.75006C93.127 8.20874 93.5004 8.58057 93.961 8.58057Z" fill="#020268"/>
<path d="M105.477 9.50794C105.86 9.50794 106.172 9.198 106.172 8.81568C106.172 8.43335 105.86 8.12341 105.477 8.12341C105.093 8.12341 104.781 8.43335 104.781 8.81568C104.781 9.198 105.093 9.50794 105.477 9.50794Z" fill="#F2B02C"/>
<path d="M89.5619 10.0489C89.869 10.0489 90.118 9.80099 90.118 9.4952C90.118 9.18942 89.869 8.94153 89.5619 8.94153C89.2548 8.94153 89.0059 9.18942 89.0059 9.4952C89.0059 9.80099 89.2548 10.0489 89.5619 10.0489Z" fill="#F2B02C"/>
<path d="M92.0354 1.24699C92.2658 1.24699 92.4526 1.061 92.4526 0.831565C92.4526 0.602131 92.2658 0.416138 92.0354 0.416138C91.805 0.416138 91.6182 0.602131 91.6182 0.831565C91.6182 1.061 91.805 1.24699 92.0354 1.24699Z" fill="#F2B02C"/>
<path d="M102.007 18.3639C102.472 18.0933 102.851 17.9502 103.405 17.9605C103.985 17.9702 104.557 18.0591 105.099 17.8023C104.683 17.9992 104.321 18.3112 103.903 18.509C103.051 18.9131 102.083 18.4508 101.227 18.8331L101.526 18.6632L101.409 18.7321C101.388 18.7449 100.972 18.9965 101.19 18.8507C101.452 18.6759 101.735 18.5235 102.007 18.3653V18.3639Z" fill="#4535AF"/>
<path d="M106.896 22.8233C107.645 22.8185 108.439 22.8333 109.06 23.306C109.035 23.2863 108.519 23.6342 108.466 23.6652C108.408 23.6997 107.912 24.0482 107.865 24.0127C107.242 23.5411 106.45 23.5259 105.7 23.5301C105.725 23.5301 105.873 23.4222 105.873 23.4225C106.012 23.3377 106.154 23.2543 106.295 23.1708C106.436 23.0874 106.577 23.0043 106.719 22.923C106.761 22.8985 106.849 22.824 106.896 22.8237L106.896 22.8233Z" fill="#4535AF"/>
<path d="M111.937 15.0122C112.687 15.0074 113.481 15.0222 114.102 15.4949C114.077 15.4752 113.561 15.8231 113.508 15.8541C113.45 15.8886 112.954 16.2371 112.907 16.2016C112.284 15.7297 111.492 15.7148 110.742 15.719C110.767 15.719 110.915 15.6111 110.915 15.6114C111.054 15.5263 111.196 15.4428 111.337 15.3597C111.478 15.2767 111.619 15.1932 111.76 15.1115C111.803 15.0874 111.891 15.0126 111.938 15.0122H111.937Z" fill="#4535AF"/>
<path d="M103.539 12.7197C103.584 12.165 104.463 11.9929 104.331 11.3944C104.322 11.3537 104.871 11.0666 104.925 11.0352C104.978 11.0038 105.533 10.7204 105.526 10.6877C105.658 11.2855 104.78 11.4585 104.735 12.0133C104.735 12.0288 104.547 12.1305 104.562 12.1208C104.423 12.2056 104.281 12.2891 104.14 12.3725C104 12.4559 103.859 12.539 103.717 12.6204C103.694 12.6338 103.54 12.7038 103.539 12.7197H103.539Z" fill="#4535AF"/>
<path d="M98.0472 24.6588C98.0919 24.1041 98.9706 23.9317 98.8384 23.3332C98.8294 23.2929 99.3792 23.0057 99.4325 22.974C99.4859 22.9423 100.041 22.6592 100.034 22.6268C100.166 23.2246 99.2875 23.3977 99.2428 23.9521C99.2428 23.9676 99.0544 24.0696 99.0697 24.06C98.9312 24.1448 98.7892 24.2282 98.6483 24.3116C98.5074 24.3951 98.3665 24.4778 98.2245 24.5595C98.2016 24.5726 98.0483 24.6429 98.0469 24.6588H98.0472Z" fill="#4535AF"/>
<path d="M102.934 24.3106C103.088 24.3106 103.212 24.1866 103.212 24.0337C103.212 23.8808 103.088 23.7569 102.934 23.7569C102.781 23.7569 102.656 23.8808 102.656 24.0337C102.656 24.1866 102.781 24.3106 102.934 24.3106Z" fill="#F2B02C"/>
<path d="M101.406 14.5665C101.637 14.5665 101.824 14.3805 101.824 14.1511C101.824 13.9216 101.637 13.7357 101.406 13.7357C101.176 13.7357 100.989 13.9216 100.989 14.1511C100.989 14.3805 101.176 14.5665 101.406 14.5665Z" fill="#F2B02C"/>
<path d="M98.8552 19.6388C99.0087 19.6388 99.1332 19.5149 99.1332 19.362C99.1332 19.2091 99.0087 19.0851 98.8552 19.0851C98.7016 19.0851 98.5771 19.2091 98.5771 19.362C98.5771 19.5149 98.7016 19.6388 98.8552 19.6388Z" fill="#F2B02C"/>
<path d="M106.92 18.3905C107.151 18.3905 107.337 18.2045 107.337 17.9751C107.337 17.7456 107.151 17.5596 106.92 17.5596C106.69 17.5596 106.503 17.7456 106.503 17.9751C106.503 18.2045 106.69 18.3905 106.92 18.3905Z" fill="#F2B02C"/>
<path d="M97.1215 23.5159C97.4286 23.5159 97.6776 23.268 97.6776 22.9622C97.6776 22.6565 97.4286 22.4086 97.1215 22.4086C96.8144 22.4086 96.5654 22.6565 96.5654 22.9622C96.5654 23.268 96.8144 23.5159 97.1215 23.5159Z" fill="#020268"/>
<path d="M111.249 20.9147C111.71 20.9147 112.083 20.5429 112.083 20.0842C112.083 19.6256 111.71 19.2537 111.249 19.2537C110.788 19.2537 110.415 19.6256 110.415 20.0842C110.415 20.5429 110.788 20.9147 111.249 20.9147Z" fill="#020268"/>
<path d="M107.772 9.79267C108.156 9.79267 108.468 9.48273 108.468 9.10041C108.468 8.71808 108.156 8.40814 107.772 8.40814C107.388 8.40814 107.077 8.71808 107.077 9.10041C107.077 9.48273 107.388 9.79267 107.772 9.79267Z" fill="#020268"/>
<path d="M110.465 25.2869C110.772 25.2869 111.021 25.039 111.021 24.7332C111.021 24.4275 110.772 24.1796 110.465 24.1796C110.158 24.1796 109.909 24.4275 109.909 24.7332C109.909 25.039 110.158 25.2869 110.465 25.2869Z" fill="#F2B02C"/>
<path d="M118.447 20.9127C118.678 20.9127 118.865 20.7267 118.865 20.4973C118.865 20.2678 118.678 20.0818 118.447 20.0818C118.217 20.0818 118.03 20.2678 118.03 20.4973C118.03 20.7267 118.217 20.9127 118.447 20.9127Z" fill="#F2B02C"/>
<path d="M101.771 29.9487L92.873 38.0045L86.8854 43.4223L83.4209 46.5595L83.9576 44.45L84.6916 41.5599L85.5617 38.1383L86.2809 35.3034L87.3653 31.0284H87.3681L88.1551 27.9281L89.2586 23.5818C90.8372 23.5249 92.4138 23.7404 93.9187 24.2185C94.8027 24.5005 95.6574 24.8667 96.4708 25.3121C97.5529 25.9074 98.564 26.6225 99.4849 27.4437C100.113 27.9994 100.697 28.603 101.231 29.2488C101.591 29.6774 101.771 29.9487 101.771 29.9487Z" fill="#4535AF"/>
<g opacity="0.76">
<path d="M96.4719 25.3114C93.2719 28.2073 89.9327 29.9762 87.3691 31.0281L88.1562 27.9277C90.2179 26.9224 92.1526 25.6771 93.9197 24.2178C94.8038 24.4998 95.6585 24.866 96.4719 25.3114Z" fill="white"/>
</g>
<g opacity="0.76">
<path d="M101.198 29.3088C97.1744 32.9677 90.7 36.6627 85.5908 38.1627L86.3079 35.3392C90.8551 33.7123 96.1758 30.4586 99.4593 27.5109C100.085 28.0645 100.666 28.6656 101.198 29.3088Z" fill="white"/>
</g>
<g opacity="0.76">
<path d="M92.8702 38.0303L86.9083 43.4264C85.792 43.8484 84.8007 44.1873 83.9922 44.4493L84.7231 41.5706C86.8972 40.8015 89.8216 39.6324 92.8702 38.0303Z" fill="white"/>
</g>
<path d="M133.623 16.0141C133.455 15.5025 133.396 15.1022 133.522 14.5634C133.654 13.9997 133.863 13.4602 133.725 12.8768C133.831 13.325 134.061 13.7439 134.167 14.1931C134.385 15.1112 133.724 15.9582 133.92 16.8749L133.816 16.5471L133.858 16.6746C133.866 16.6988 134.025 17.1573 133.927 16.9139C133.81 16.6212 133.719 16.3133 133.622 16.0141H133.623Z" fill="#4535AF"/>
<path d="M139.049 12.1856C139.203 11.453 139.385 10.6818 139.981 10.1743C139.956 10.1957 140.189 10.7721 140.209 10.8293C140.231 10.8938 140.469 11.4499 140.424 11.4899C139.828 11.997 139.645 12.7682 139.491 13.5012C139.497 13.4767 139.422 13.3095 139.422 13.3098C139.368 13.1554 139.316 12.9996 139.264 12.8451C139.211 12.6907 139.16 12.5348 139.109 12.379C139.094 12.3325 139.04 12.2308 139.049 12.1846L139.049 12.1856Z" fill="#4535AF"/>
<path d="M132.426 5.60913C132.579 4.87618 132.762 4.10497 133.358 3.59784C133.333 3.61887 133.566 4.19564 133.586 4.25287C133.608 4.31699 133.846 4.87342 133.801 4.91307C133.205 5.42055 133.022 6.19176 132.868 6.92436C132.873 6.90022 132.799 6.73302 132.799 6.73337C132.745 6.57892 132.692 6.42401 132.641 6.26864C132.588 6.1135 132.537 5.95836 132.486 5.80253C132.471 5.75599 132.417 5.65429 132.426 5.60809L132.426 5.60913Z" fill="#4535AF"/>
<path d="M128.39 13.3233C127.853 13.1619 127.87 12.268 127.252 12.2704C127.211 12.2704 127.044 11.673 127.024 11.6154C127.004 11.5578 126.843 10.9548 126.81 10.9548C127.426 10.9524 127.411 11.8467 127.947 12.0077C127.962 12.0122 128.023 12.2146 128.016 12.199C128.07 12.3535 128.123 12.5093 128.175 12.6638C128.227 12.8182 128.279 12.9741 128.329 13.1299C128.338 13.155 128.374 13.3195 128.389 13.3243L128.39 13.3233Z" fill="#F2B02C"/>
<path d="M138.983 21.2116C138.446 21.0506 138.463 20.1567 137.845 20.1591C137.803 20.1591 137.637 19.5616 137.617 19.5041C137.597 19.4465 137.436 18.8435 137.402 18.8435C138.019 18.8411 138.003 19.735 138.54 19.8964C138.555 19.9009 138.616 20.1032 138.609 20.0874C138.663 20.2422 138.716 20.3977 138.768 20.5524C138.82 20.7072 138.871 20.8627 138.922 21.0186C138.93 21.0437 138.967 21.2082 138.982 21.2126L138.983 21.2116Z" fill="#4535AF"/>
<path d="M139.402 16.5864C139.556 16.5864 139.68 16.4621 139.68 16.3088C139.68 16.1556 139.556 16.0313 139.402 16.0313C139.248 16.0313 139.123 16.1556 139.123 16.3088C139.123 16.4621 139.248 16.5864 139.402 16.5864Z" fill="#F2B02C"/>
<path d="M129.348 16.1238C129.579 16.1238 129.766 15.9373 129.766 15.7073C129.766 15.4773 129.579 15.2908 129.348 15.2908C129.117 15.2908 128.93 15.4773 128.93 15.7073C128.93 15.9373 129.117 16.1238 129.348 16.1238Z" fill="#020268"/>
<path d="M133.938 19.5789C134.092 19.5789 134.217 19.4546 134.217 19.3013C134.217 19.1481 134.092 19.0238 133.938 19.0238C133.784 19.0238 133.659 19.1481 133.659 19.3013C133.659 19.4546 133.784 19.5789 133.938 19.5789Z" fill="#F2B02C"/>
<path d="M134.28 11.5516C134.511 11.5516 134.698 11.3652 134.698 11.1351C134.698 10.9051 134.511 10.7187 134.28 10.7187C134.049 10.7187 133.861 10.9051 133.861 11.1351C133.861 11.3652 134.049 11.5516 134.28 11.5516Z" fill="#F2B02C"/>
<path d="M137.116 22.311C137.424 22.311 137.674 22.0623 137.674 21.7556C137.674 21.4489 137.424 21.2002 137.116 21.2002C136.808 21.2002 136.559 21.4489 136.559 21.7556C136.559 22.0623 136.808 22.311 137.116 22.311Z" fill="#F2B02C"/>
<path d="M137.273 8.18855C137.735 8.18855 138.11 7.81564 138.11 7.35563C138.11 6.89562 137.735 6.52271 137.273 6.52271C136.811 6.52271 136.437 6.89562 136.437 7.35563C136.437 7.81564 136.811 8.18855 137.273 8.18855Z" fill="#020268"/>
<path d="M125.722 9.11838C126.107 9.11838 126.419 8.80767 126.419 8.42439C126.419 8.04112 126.107 7.73041 125.722 7.73041C125.337 7.73041 125.025 8.04112 125.025 8.42439C125.025 8.80767 125.337 9.11838 125.722 9.11838Z" fill="#F2B02C"/>
<path d="M141.685 9.66133C141.993 9.66133 142.243 9.41267 142.243 9.10593C142.243 8.7992 141.993 8.55054 141.685 8.55054C141.377 8.55054 141.127 8.7992 141.127 9.10593C141.127 9.41267 141.377 9.66133 141.685 9.66133Z" fill="#F2B02C"/>
<path d="M139.204 0.832922C139.435 0.832922 139.623 0.646466 139.623 0.416461C139.623 0.186456 139.435 0 139.204 0C138.973 0 138.786 0.186456 138.786 0.416461C138.786 0.646466 138.973 0.832922 139.204 0.832922Z" fill="#F2B02C"/>
<path d="M129.204 18.0009C128.737 17.7296 128.357 17.5872 127.801 17.5965C127.22 17.6062 126.646 17.6955 126.103 17.4379C126.518 17.6355 126.883 17.9482 127.301 18.1464C128.156 18.5518 129.127 18.0881 129.986 18.4715L129.686 18.3012L129.803 18.3701C129.825 18.3829 130.242 18.6353 130.023 18.4891C129.76 18.3136 129.477 18.1609 129.204 18.0019V18.0009Z" fill="#4535AF"/>
<path d="M124.299 22.4734C123.547 22.4682 122.751 22.4834 122.127 22.9561C122.153 22.9364 122.67 23.2853 122.723 23.3167C122.782 23.3512 123.279 23.7007 123.326 23.6649C123.949 23.1915 124.746 23.1767 125.497 23.1822C125.472 23.1822 125.324 23.074 125.324 23.0743C125.184 22.9893 125.043 22.9052 124.901 22.822C124.76 22.7385 124.619 22.6551 124.477 22.573C124.434 22.5486 124.346 22.4738 124.299 22.4738V22.4734Z" fill="#4535AF"/>
<path d="M119.244 14.6396C118.492 14.6347 117.696 14.6495 117.072 15.1222C117.098 15.1022 117.615 15.4511 117.668 15.4825C117.727 15.5169 118.224 15.8665 118.271 15.8307C118.895 15.3577 119.691 15.3428 120.443 15.348C120.418 15.348 120.269 15.2398 120.269 15.2398C120.131 15.1546 119.988 15.0712 119.847 14.9878C119.705 14.9043 119.564 14.8205 119.422 14.7388C119.379 14.7144 119.291 14.6396 119.244 14.6392V14.6396Z" fill="#4535AF"/>
<path d="M127.666 12.3401C127.621 11.7836 126.74 11.6109 126.873 11.0107C126.882 10.97 126.33 10.6821 126.277 10.6504C126.223 10.6187 125.667 10.3346 125.674 10.3019C125.541 10.9014 126.422 11.0752 126.467 11.6316C126.467 11.6471 126.656 11.7491 126.64 11.7395C126.779 11.8247 126.922 11.9081 127.063 11.9919C127.204 12.0756 127.346 12.1587 127.488 12.2404C127.511 12.2539 127.665 12.3242 127.666 12.3401Z" fill="#4535AF"/>
<path d="M133.175 24.3147C133.13 23.758 132.249 23.5856 132.381 22.9854C132.39 22.9447 131.839 22.6565 131.785 22.6247C131.732 22.593 131.175 22.3093 131.183 22.2766C131.05 22.8761 131.931 23.0495 131.976 23.6059C131.976 23.6214 132.164 23.7235 132.149 23.7138C132.289 23.7989 132.43 23.883 132.572 23.9662C132.713 24.0496 132.854 24.133 132.997 24.2151C133.02 24.2282 133.173 24.2985 133.175 24.3147Z" fill="#4535AF"/>
<path d="M128.273 23.9651C128.427 23.9651 128.552 23.8409 128.552 23.6876C128.552 23.5343 128.427 23.4101 128.273 23.4101C128.119 23.4101 127.994 23.5343 127.994 23.6876C127.994 23.8409 128.119 23.9651 128.273 23.9651Z" fill="#F2B02C"/>
<path d="M129.805 14.1921C130.036 14.1921 130.223 14.0056 130.223 13.7756C130.223 13.5456 130.036 13.3591 129.805 13.3591C129.574 13.3591 129.387 13.5456 129.387 13.7756C129.387 14.0056 129.574 14.1921 129.805 14.1921Z" fill="#F2B02C"/>
<path d="M132.365 19.2796C132.519 19.2796 132.643 19.1553 132.643 19.0021C132.643 18.8488 132.519 18.7245 132.365 18.7245C132.211 18.7245 132.086 18.8488 132.086 19.0021C132.086 19.1553 132.211 19.2796 132.365 19.2796Z" fill="#F2B02C"/>
<path d="M124.276 18.0274C124.507 18.0274 124.694 17.841 124.694 17.611C124.694 17.381 124.507 17.1945 124.276 17.1945C124.045 17.1945 123.857 17.381 123.857 17.611C123.857 17.841 124.045 18.0274 124.276 18.0274Z" fill="#F2B02C"/>
<path d="M134.103 23.1684C134.411 23.1684 134.661 22.9197 134.661 22.613C134.661 22.3063 134.411 22.0576 134.103 22.0576C133.795 22.0576 133.545 22.3063 133.545 22.613C133.545 22.9197 133.795 23.1684 134.103 23.1684Z" fill="#020268"/>
<path d="M119.933 20.5593C120.395 20.5593 120.77 20.1864 120.77 19.7264C120.77 19.2664 120.395 18.8935 119.933 18.8935C119.471 18.8935 119.097 19.2664 119.097 19.7264C119.097 20.1864 119.471 20.5593 119.933 20.5593Z" fill="#020268"/>
<path d="M123.421 9.40415C123.806 9.40415 124.118 9.09344 124.118 8.71016C124.118 8.32688 123.806 8.01617 123.421 8.01617C123.036 8.01617 122.724 8.32688 122.724 8.71016C122.724 9.09344 123.036 9.40415 123.421 9.40415Z" fill="#020268"/>
<path d="M120.72 24.9446C121.028 24.9446 121.278 24.6959 121.278 24.3892C121.278 24.0825 121.028 23.8338 120.72 23.8338C120.412 23.8338 120.162 24.0825 120.162 24.3892C120.162 24.6959 120.412 24.9446 120.72 24.9446Z" fill="#F2B02C"/>
<path d="M112.713 20.5572C112.944 20.5572 113.131 20.3708 113.131 20.1408C113.131 19.9108 112.944 19.7243 112.713 19.7243C112.482 19.7243 112.295 19.9108 112.295 20.1408C112.295 20.3708 112.482 20.5572 112.713 20.5572Z" fill="#F2B02C"/>
<path d="M129.439 29.6201L138.366 37.6997L144.37 43.1337L147.844 46.2796L147.306 44.1635L146.57 41.2648L145.697 37.8331L144.975 34.99L143.887 30.703H143.884L143.095 27.593L141.987 23.2339C140.404 23.1765 138.822 23.3925 137.313 23.8724C136.426 24.1552 135.569 24.5224 134.753 24.969C133.668 25.566 132.654 26.2831 131.73 27.1065C131.1 27.6639 130.515 28.2691 129.979 28.9168C129.621 29.3477 129.439 29.6201 129.439 29.6201Z" fill="#F2B02C"/>
<g opacity="0.76">
<path d="M134.755 24.969C137.965 27.8736 141.314 29.6477 143.885 30.703L143.096 27.5929C141.027 26.5848 139.086 25.3359 137.313 23.8724C136.427 24.1552 135.57 24.5225 134.755 24.969Z" fill="white"/>
</g>
<g opacity="0.76">
<path d="M130.015 28.9785C134.05 32.6484 140.544 36.3542 145.669 37.8583L144.949 35.0276C140.389 33.3958 135.053 30.1321 131.759 27.1765C131.132 27.7313 130.548 28.3338 130.015 28.9785Z" fill="white"/>
</g>
<g opacity="0.76">
<path d="M138.367 37.7256L144.347 43.1382C145.466 43.5612 146.459 43.9015 147.272 44.1642L146.539 41.2769C144.358 40.505 141.425 39.3325 138.367 37.7256Z" fill="white"/>
</g>
<path d="M223.582 159.871H221.764L218.066 118.657L217.593 113.4L217.517 112.551L221.519 112.286L221.567 113.4L221.795 118.657L223.582 159.871Z" fill="#4535AF"/>
<path d="M204.859 112.551L204.783 113.4L204.31 118.657L200.61 159.871H198.794L200.578 118.657L200.806 113.4L200.855 112.286L204.859 112.551Z" fill="#4535AF"/>
<path opacity="0.34" d="M200.806 113.401H204.783L204.31 118.657H200.578L200.806 113.401Z" fill="black"/>
<path opacity="0.34" d="M221.795 118.657H218.066L217.593 113.401H221.567L221.795 118.657Z" fill="black"/>
<path d="M46.6994 149.701L46.6918 149.798L46.5709 151.227L46.3213 154.151L42.6338 154.058L42.7345 150.105L42.7373 150.037L42.7474 149.6L46.6994 149.701Z" fill="#FBD3C0"/>
<path opacity="0.28" d="M46.6925 149.798L46.5713 151.227L42.7349 150.106L42.5459 150.051C42.5459 150.051 42.6151 150.046 42.7377 150.038C43.4742 149.985 46.1122 149.799 46.3293 149.799L46.6925 149.798Z" fill="black"/>
<path d="M74.3601 149.701L74.3299 150.05L74.2465 151.034L73.9844 154.151L70.2969 154.058L70.3976 150.077V150.05L70.4104 149.6L74.3601 149.701Z" fill="#FBD3C0"/>
<path opacity="0.28" d="M74.3297 150.05L74.2463 151.034L70.3974 150.077L70.2891 150.05H74.3297Z" fill="black"/>
<path d="M75.4221 150.14H69.0989L65.1469 116.655L58.6164 101.499L57.6985 99.3663L53.0273 88.5276V76.4733L53.616 76.3578L54.529 76.1793L63.3011 74.4641C63.3011 74.4641 64.0954 76.6705 65.3062 80.0743C68.8649 90.0945 76.0152 110.481 76.9988 115.316C78.3201 121.79 75.4221 150.14 75.4221 150.14Z" fill="#020268"/>
<path opacity="0.48" d="M60.4525 79.984L58.6164 101.498L53.0273 88.5277V76.4731L54.5304 76.1793L60.4525 79.984Z" fill="black"/>
<path d="M60.9571 78.2261L60.6268 80.3656L57.6986 99.3663L55.1361 115.986L47.7587 150.14H41.4355L42.7547 115.092L45.703 80.1046L46.177 74.4641L53.6175 76.3575L60.9571 78.2261Z" fill="#020268"/>
<path opacity="0.22" d="M65.3081 80.0743C65.1926 80.1868 65.0426 80.2576 64.8819 80.2753C64.0672 80.348 62.5084 80.3684 60.6269 80.3656C58.3216 80.3608 55.532 80.3204 53.0276 80.3004C50.1423 80.2777 47.6327 80.2804 46.6792 80.3959C46.2883 80.4435 45.9656 80.348 45.7031 80.1046L46.1775 74.4641L53.6179 76.3578L54.531 76.1793L63.3031 74.4641C63.3031 74.4641 64.0973 76.6716 65.3081 80.0743Z" fill="black"/>
<path d="M64.8835 78.9218C63.6224 79.0349 60.5831 79.0197 57.317 78.9908C52.9107 78.9452 48.0906 78.8725 46.6807 79.0435C44.2622 79.3345 44.4914 74.1563 44.4994 62.9356V62.4337C44.4994 62.3833 44.4994 62.3354 44.5022 62.2854C44.5499 50.8562 50.5022 49.3848 50.5022 49.3848L50.6258 49.362L55.1381 48.4957H63.3226C63.3226 48.4957 63.3551 48.5301 63.4133 48.5991C63.8447 49.1014 65.6528 51.3892 65.4108 54.0034C65.2872 55.3518 65.8117 60.5655 66.1296 65.8767C66.1372 66.0098 66.1448 66.1456 66.1524 66.2787C66.238 67.7529 66.3037 69.227 66.3339 70.6209C66.4332 75.1323 66.1583 78.8087 64.8835 78.9218Z" fill="#4535AF"/>
<path d="M50.6531 49.2831L50.623 49.361L45.7036 61.2598L45.126 62.6584C45.126 62.6584 44.8992 62.7639 44.4979 62.9342C44.1399 63.0901 43.6379 63.2959 43.0437 63.5245C39.432 64.9059 32.2665 67.073 30.8996 63.1832C29.0558 57.9367 32.4808 41.6737 32.4808 41.6737H35.9059L37.2216 55.5762C45.7794 50.6721 50.5084 49.3234 50.6531 49.2831Z" fill="#4535AF"/>
<path d="M85.1678 48.4946C85.1678 48.4946 84.1135 64.4967 82.0076 68.9543C80.517 72.1084 72.2844 69.017 67.5935 66.9351C67.0609 66.6993 66.5769 66.4755 66.1507 66.2773C65.9512 66.1842 65.7646 66.0963 65.5932 66.0136C64.7937 65.6319 64.3169 65.3858 64.3169 65.3858C64.3169 65.3858 61.7201 48.7559 63.0383 48.4946H63.1214C63.2236 48.5114 63.3218 48.5465 63.4115 48.598C65.838 49.8336 76.4739 61.348 76.4739 61.348L81.7427 47.7089L85.1678 48.4946Z" fill="#4535AF"/>
<path d="M41.8448 154.038L41.7648 157.185L41.7246 158.759L54.8926 159.091C54.8926 159.091 55.8967 155.691 53.0575 154.308C52.8402 154.202 52.6152 154.113 52.3844 154.042C48.7239 152.9 46.6437 151.798 46.6437 151.798C46.6437 151.798 46.0637 153.882 44.4904 153.58C42.9171 153.278 42.6823 152.136 42.6823 152.136C42.6823 152.136 41.9112 151.416 41.8448 154.038Z" fill="#4535AF"/>
<path d="M41.7648 157.185L41.7246 158.759L54.8926 159.091C54.8926 159.091 55.8967 155.691 53.0575 154.308C52.3754 154.808 51.5503 155.756 51.5077 157.431L41.7648 157.185Z" fill="url(#paint2_linear_823_10603)"/>
<path d="M47.1054 154.433C47.127 154.434 47.1487 154.432 47.1698 154.427C47.2379 154.412 47.2973 154.37 47.3347 154.312C47.3722 154.253 47.3847 154.182 47.3696 154.114C47.1753 153.248 48.0655 152.619 48.0745 152.613C48.1295 152.572 48.1665 152.512 48.1777 152.445C48.189 152.378 48.1735 152.309 48.1347 152.253C48.0959 152.197 48.0366 152.158 47.9696 152.144C47.9025 152.131 47.8329 152.144 47.7753 152.181C47.7265 152.215 46.5829 153.014 46.8554 154.228C46.8681 154.285 46.8996 154.336 46.9449 154.374C46.9902 154.411 47.0467 154.432 47.1054 154.433Z" fill="white"/>
<path d="M48.4092 154.991C48.4307 154.991 48.4522 154.989 48.4732 154.985C48.507 154.977 48.539 154.963 48.5673 154.943C48.5956 154.924 48.6197 154.899 48.6383 154.869C48.6569 154.84 48.6695 154.808 48.6754 154.774C48.6814 154.74 48.6806 154.705 48.673 154.672C48.4788 153.805 49.369 153.177 49.3783 153.17C49.4358 153.131 49.4752 153.07 49.4878 153.002C49.5004 152.933 49.4852 152.863 49.4455 152.805C49.4058 152.748 49.3448 152.709 49.2761 152.696C49.2073 152.684 49.1363 152.699 49.0788 152.738C49.0303 152.773 47.8863 153.571 48.1592 154.786C48.1719 154.843 48.2034 154.894 48.2487 154.931C48.294 154.969 48.3505 154.99 48.4092 154.991Z" fill="white"/>
<path d="M49.7118 155.549C49.7335 155.549 49.7551 155.547 49.7762 155.542C49.8444 155.527 49.9037 155.486 49.9412 155.427C49.9786 155.368 49.9912 155.297 49.976 155.229C49.7818 154.363 50.672 153.734 50.6813 153.728C50.7098 153.709 50.7341 153.684 50.7529 153.655C50.7717 153.626 50.7846 153.593 50.7908 153.56C50.7971 153.526 50.7965 153.491 50.7893 153.457C50.782 153.423 50.7681 153.392 50.7485 153.363C50.7288 153.335 50.7037 153.311 50.6746 153.292C50.6456 153.273 50.6131 153.26 50.579 153.254C50.545 153.248 50.5101 153.248 50.4762 153.256C50.4424 153.263 50.4103 153.277 50.3818 153.296C50.333 153.331 49.1893 154.129 49.4618 155.343C49.4745 155.401 49.506 155.452 49.5513 155.489C49.5966 155.526 49.6531 155.547 49.7118 155.549Z" fill="white"/>
<path d="M69.5069 154.038L69.4269 157.185L69.3867 158.759L82.5551 159.091C82.5551 159.091 83.5592 155.691 80.72 154.308C80.5027 154.202 80.2777 154.113 80.0469 154.042C76.3867 152.9 74.3065 151.798 74.3065 151.798C74.3065 151.798 73.7262 153.882 72.1529 153.58C70.5795 153.278 70.3448 152.136 70.3448 152.136C70.3448 152.136 69.5737 151.416 69.5069 154.038Z" fill="#4535AF"/>
<path d="M69.4269 157.185L69.3867 158.759L82.5551 159.091C82.5551 159.091 83.5592 155.691 80.72 154.308C80.0379 154.808 79.2128 155.756 79.1702 157.431L69.4269 157.185Z" fill="url(#paint3_linear_823_10603)"/>
<path d="M74.7665 154.433C74.7881 154.434 74.8098 154.432 74.8309 154.427C74.8991 154.412 74.9584 154.37 74.9959 154.312C75.0333 154.253 75.0459 154.182 75.0307 154.114C74.8365 153.248 75.7266 152.619 75.736 152.613C75.7921 152.573 75.8301 152.512 75.8419 152.444C75.8537 152.377 75.8384 152.307 75.7991 152.25C75.7599 152.194 75.6999 152.155 75.632 152.142C75.5642 152.129 75.494 152.143 75.4365 152.181C75.3877 152.215 74.244 153.014 74.5165 154.228C74.5292 154.285 74.5608 154.336 74.6061 154.374C74.6514 154.411 74.7078 154.432 74.7665 154.433Z" fill="white"/>
<path d="M76.0702 154.991C76.0919 154.992 76.1135 154.989 76.1346 154.985C76.1684 154.977 76.2003 154.963 76.2286 154.943C76.2569 154.924 76.2811 154.899 76.2996 154.869C76.3181 154.84 76.3307 154.808 76.3366 154.774C76.3425 154.74 76.3417 154.705 76.3341 154.672C76.1402 153.806 77.0304 153.177 77.0394 153.17C77.0969 153.131 77.1363 153.07 77.1489 153.002C77.1616 152.933 77.1464 152.863 77.1067 152.806C77.067 152.748 77.0061 152.709 76.9374 152.696C76.8687 152.684 76.7977 152.699 76.7402 152.739C76.6914 152.773 75.5477 153.571 75.8202 154.786C75.833 154.843 75.8645 154.894 75.9098 154.931C75.9551 154.969 76.0115 154.99 76.0702 154.991Z" fill="white"/>
<path d="M77.3743 155.549C77.3958 155.549 77.4173 155.547 77.4383 155.542C77.4721 155.535 77.5041 155.521 77.5324 155.501C77.5607 155.481 77.5849 155.456 77.6034 155.427C77.622 155.398 77.6346 155.366 77.6405 155.332C77.6465 155.298 77.6457 155.263 77.6381 155.229C77.4439 154.363 78.3341 153.734 78.3434 153.728C78.3719 153.709 78.3962 153.684 78.415 153.655C78.4338 153.626 78.4467 153.593 78.4529 153.56C78.4592 153.526 78.4586 153.491 78.4514 153.457C78.4441 153.423 78.4302 153.392 78.4106 153.363C78.3909 153.335 78.3658 153.311 78.3368 153.292C78.3077 153.273 78.2752 153.26 78.2412 153.254C78.2071 153.248 78.1722 153.248 78.1383 153.256C78.1045 153.263 78.0724 153.277 78.0439 153.296C77.9951 153.331 76.8514 154.129 77.1239 155.343C77.1367 155.401 77.1682 155.452 77.2136 155.489C77.259 155.526 77.3155 155.547 77.3743 155.549Z" fill="white"/>
<path opacity="0.4" d="M57.5067 64.4953C59.3981 64.4953 60.9314 62.9686 60.9314 61.0853C60.9314 59.202 59.3981 57.6754 57.5067 57.6754C55.6153 57.6754 54.082 59.202 54.082 61.0853C54.082 62.9686 55.6153 64.4953 57.5067 64.4953Z" fill="white"/>
<path d="M50.4429 21.7128C50.928 21.7128 51.3213 21.3212 51.3213 20.8382C51.3213 20.3552 50.928 19.9636 50.4429 19.9636C49.9577 19.9636 49.5645 20.3552 49.5645 20.8382C49.5645 21.3212 49.9577 21.7128 50.4429 21.7128Z" fill="#00001C"/>
<path d="M82.1544 47.9106C82.1544 47.9106 81.6852 44.4048 82.6239 44.4048C83.5625 44.4048 83.7969 45.1057 83.7969 45.1057C83.7969 45.1057 85.6739 42.5359 86.6122 43.2368C87.5506 43.9377 84.8526 48.4932 84.8526 48.4932L82.1544 47.9106Z" fill="#FBD3C0"/>
<path d="M35.5501 41.8254C35.5501 41.8254 36.8343 38.5296 35.922 38.3089C35.0096 38.0883 34.6163 38.715 34.6163 38.715C34.6163 38.715 33.3992 35.7778 32.3214 36.239C31.2435 36.7003 32.7895 41.7603 32.7895 41.7603L35.5501 41.8254Z" fill="#FBD3C0"/>
<path d="M63.6334 31.3325C63.6334 31.3325 65.9446 34.9179 63.1103 40.6522L62.8779 35.282L63.6334 31.3325Z" fill="#00001C"/>
<path d="M59.8671 25.5914L54.6263 31.5456L52.679 31.3311H52.677L50.6885 31.1095L50.498 31.0891L50.5874 27.1224L50.6185 25.7537L50.7034 21.949C50.706 21.8293 50.7393 21.7122 50.8001 21.6089C50.8609 21.5056 50.9473 21.4195 51.0509 21.3587C51.1545 21.2979 51.272 21.2645 51.3923 21.2616C51.5125 21.2587 51.6315 21.2865 51.7379 21.3423L52.5932 21.7905L53.6665 22.35L56.0331 23.5877L57.0975 24.1448L59.8671 25.5914Z" fill="#F2B02C"/>
<g opacity="0.4">
<path d="M53.665 22.3486C53.388 23.8534 52.6374 26.0685 50.5869 27.1238L50.6181 25.7537C51.9646 24.7195 52.43 22.9085 52.5917 21.7891L53.665 22.3486Z" fill="white"/>
</g>
<g opacity="0.4">
<path d="M57.0963 24.1434C56.649 26.1805 55.507 29.5353 52.6789 31.3325H52.6768L50.6884 31.1108L50.6631 31.0357C54.3167 29.807 55.6078 25.6758 56.0319 23.5862L57.0963 24.1434Z" fill="white"/>
</g>
<path d="M57.9613 51.1816C55.9877 50.9306 55.0508 48.5198 55.0508 48.5198L55.6435 43.5146L58.7636 44.0873L59.0007 45.4435L59.4571 48.0726L59.6035 48.9142C59.6035 48.9142 59.9325 51.4353 57.9613 51.1816Z" fill="#E8BBAA"/>
<path opacity="0.23" d="M59.4565 48.0726C58.5487 47.9823 56.9947 47.5755 55.8556 45.9696C54.7684 44.4403 57.1367 44.905 59.0009 45.4425L59.4565 48.0726Z" fill="black"/>
<path d="M53.0951 41.4744C53.0951 41.4744 54.1279 46.313 58.2583 46.9298C62.3886 47.5466 63.1909 43.4454 63.3972 41.3889C63.6036 39.3325 63.5326 37.3374 63.5326 37.3374L63.5011 34.3687L55.4738 33.2269L52.4746 35.716L53.0951 41.4744Z" fill="#FBD3C0"/>
<path d="M62.1236 39.5094C62.3898 39.5094 62.6055 39.2945 62.6055 39.0295C62.6055 38.7644 62.3898 38.5496 62.1236 38.5496C61.8574 38.5496 61.6416 38.7644 61.6416 39.0295C61.6416 39.2945 61.8574 39.5094 62.1236 39.5094Z" fill="black"/>
<path d="M58.3335 39.5094C58.5997 39.5094 58.8155 39.2945 58.8155 39.0295C58.8155 38.7644 58.5997 38.5496 58.3335 38.5496C58.0674 38.5496 57.8516 38.7644 57.8516 39.0295C57.8516 39.2945 58.0674 39.5094 58.3335 39.5094Z" fill="black"/>
<path d="M59.1768 42.1867H61.4928C61.4928 42.1867 60.4399 44.2831 59.1768 42.1867Z" fill="black"/>
<path d="M52.7886 38.6223C52.7886 38.6223 55.4751 37.7949 55.9339 34.5983C55.9339 34.5983 64.0197 38.8884 66.084 30.896C66.6498 28.7048 66.8901 25.3514 64.081 24.6598C62.0614 24.1623 60.201 25.139 58.6768 26.3836C57.2773 27.525 57.4303 27.775 56.1492 29.0382C56.0107 29.1761 55.856 29.3181 55.6624 29.3447C55.5222 29.3636 55.3823 29.3181 55.2469 29.2778C53.2848 28.6969 51.092 29.1281 49.9695 30.9464C48.1344 33.915 49.4387 37.9704 50.9656 39.2549L52.7886 38.6223Z" fill="#00001C"/>
<path d="M52.4761 42.7083C53.6166 42.7083 54.5411 41.7877 54.5411 40.6522C54.5411 39.5166 53.6166 38.5961 52.4761 38.5961C51.3357 38.5961 50.4111 39.5166 50.4111 40.6522C50.4111 41.7877 51.3357 42.7083 52.4761 42.7083Z" fill="#FBD3C0"/>
<path opacity="0.12" d="M57.3158 78.9897C52.9095 78.9442 48.0894 78.8715 46.6795 79.0425C44.261 79.3335 44.4902 74.1553 44.4982 62.9346C44.1402 63.0904 43.6381 63.2963 43.0439 63.5248L44.502 62.2837L45.3215 61.6508C45.3215 61.6508 44.4999 75.355 46.0781 77.9744C46.835 79.23 45.0695 77.7231 57.1759 78.9787C57.4048 79.0035 57.1039 78.8891 57.3158 78.9897Z" fill="black"/>
<path opacity="0.12" d="M66.1504 66.2773C66.236 67.7515 66.3017 69.2256 66.3319 70.6195L65.593 66.0136L65.4971 65.4185L66.1276 65.8753L67.5932 66.9351C67.0607 66.6993 66.5767 66.4755 66.1504 66.2773Z" fill="black"/>
<path d="M229.559 111.298H192.18V116.555H229.559V111.298Z" fill="#020268"/>
<path d="M31.4034 159.172H29.5849L25.887 117.958L25.4141 112.701L25.3379 111.852L29.3401 111.587L29.3886 112.701L29.6168 117.958L31.4034 159.172Z" fill="#4535AF"/>
<path d="M12.6794 111.852L12.6032 112.701L12.1303 117.958L8.43031 159.172H6.61426L8.3988 117.958L8.62663 112.701L8.67545 111.587L12.6794 111.852Z" fill="#4535AF"/>
<path opacity="0.34" d="M8.62627 112.701H12.6029L12.1299 117.958H8.39844L8.62627 112.701Z" fill="black"/>
<path opacity="0.34" d="M29.6168 117.958H25.887L25.4141 112.701H29.3886L29.6168 117.958Z" fill="black"/>
<path d="M37.3791 110.599H0V115.855H37.3791V110.599Z" fill="#020268"/>
<g opacity="0.68">
<path d="M24.459 92.9384C24.6266 92.4282 24.6854 92.029 24.5598 91.4905C24.4278 90.9285 24.2197 90.3911 24.3576 89.8088C24.2537 90.2549 24.0224 90.6738 23.9164 91.1216C23.6997 92.0366 24.3579 92.8798 24.1633 93.7951L24.2672 93.4683L24.2253 93.5955C24.2177 93.6197 24.0581 94.0782 24.156 93.8341C24.2724 93.5424 24.3638 93.2353 24.46 92.9378L24.459 92.9384Z" fill="#4535AF"/>
<path d="M19.0496 89.1213C18.8963 88.3905 18.7141 87.6217 18.1196 87.1159C18.1446 87.1369 17.9119 87.712 17.8925 87.7709C17.8707 87.8354 17.6335 88.3915 17.6785 88.4298C18.2727 88.9352 18.4548 89.7053 18.6085 90.4348C18.6033 90.4107 18.6778 90.2438 18.6778 90.2442C18.7313 90.0902 18.784 89.9358 18.8357 89.7808C18.8876 89.6261 18.9395 89.4706 18.9897 89.3161C19.0046 89.2696 19.059 89.1682 19.0496 89.1224V89.1213Z" fill="#4535AF"/>
<path d="M25.6532 82.5641C25.4998 81.8333 25.3177 81.0645 24.7231 80.5587C24.7481 80.5797 24.5154 81.1548 24.496 81.2137C24.4742 81.2782 24.237 81.8343 24.282 81.8722C24.8762 82.378 25.0583 83.1478 25.2121 83.8776C25.2069 83.8535 25.2813 83.6867 25.2813 83.687C25.3351 83.5328 25.3877 83.3783 25.4392 83.2237C25.4911 83.0689 25.5431 82.9134 25.5933 82.7589C25.6082 82.7124 25.6625 82.611 25.6532 82.5652V82.5641Z" fill="#4535AF"/>
<path d="M29.6768 90.2569C30.2121 90.0963 30.1961 89.2051 30.8107 89.2075C30.8526 89.2075 31.0185 88.6118 31.0382 88.5525C31.0579 88.4932 31.2186 87.894 31.2522 87.894C30.6376 87.8919 30.6532 88.7831 30.1179 88.9438C30.103 88.9482 30.0427 89.1506 30.0486 89.1344C29.995 89.2885 29.9427 89.4447 29.8907 89.5977C29.8388 89.7508 29.7869 89.908 29.7367 90.0625C29.7283 90.0877 29.692 90.2517 29.6768 90.2562V90.2569Z" fill="#F2B02C"/>
<path d="M19.1152 98.1204C19.6505 97.9597 19.6346 97.0685 20.2492 97.071C20.2911 97.071 20.4569 96.4756 20.4767 96.4159C20.4964 96.3563 20.6571 95.7574 20.6906 95.7574C20.0761 95.7554 20.0916 96.6466 19.5563 96.8072C19.5415 96.8117 19.4812 97.0141 19.4871 96.9979C19.4334 97.152 19.3811 97.3081 19.3292 97.4612C19.2773 97.6143 19.2253 97.7715 19.1751 97.9259C19.1668 97.9511 19.1305 98.1152 19.1152 98.1197V98.1204Z" fill="#4535AF"/>
<path d="M18.697 93.509C18.8505 93.509 18.975 93.3851 18.975 93.2322C18.975 93.0793 18.8505 92.9553 18.697 92.9553C18.5434 92.9553 18.4189 93.0793 18.4189 93.2322C18.4189 93.3851 18.5434 93.509 18.697 93.509Z" fill="#F2B02C"/>
<path d="M28.7209 93.0481C28.9514 93.0481 29.1382 92.8621 29.1382 92.6327C29.1382 92.4032 28.9514 92.2172 28.7209 92.2172C28.4905 92.2172 28.3037 92.4032 28.3037 92.6327C28.3037 92.8621 28.4905 93.0481 28.7209 93.0481Z" fill="#020268"/>
<path d="M24.1442 96.4928C24.2978 96.4928 24.4223 96.3689 24.4223 96.216C24.4223 96.0631 24.2978 95.9391 24.1442 95.9391C23.9907 95.9391 23.8662 96.0631 23.8662 96.216C23.8662 96.3689 23.9907 96.4928 24.1442 96.4928Z" fill="#F2B02C"/>
<path d="M23.803 88.4894C24.0334 88.4894 24.2202 88.3034 24.2202 88.0739C24.2202 87.8445 24.0334 87.6585 23.803 87.6585C23.5725 87.6585 23.3857 87.8445 23.3857 88.0739C23.3857 88.3034 23.5725 88.4894 23.803 88.4894Z" fill="#F2B02C"/>
<path d="M20.976 99.2167C21.2831 99.2167 21.5321 98.9688 21.5321 98.663C21.5321 98.3573 21.2831 98.1094 20.976 98.1094C20.6689 98.1094 20.4199 98.3573 20.4199 98.663C20.4199 98.9688 20.6689 99.2167 20.976 99.2167Z" fill="#F2B02C"/>
<path d="M20.8185 85.136C21.2791 85.136 21.6526 84.7642 21.6526 84.3055C21.6526 83.8468 21.2791 83.475 20.8185 83.475C20.3578 83.475 19.9844 83.8468 19.9844 84.3055C19.9844 84.7642 20.3578 85.136 20.8185 85.136Z" fill="#020268"/>
<path d="M32.3359 86.0634C32.7199 86.0634 33.0311 85.7534 33.0311 85.3711C33.0311 84.9888 32.7199 84.6788 32.3359 84.6788C31.9519 84.6788 31.6406 84.9888 31.6406 85.3711C31.6406 85.7534 31.9519 86.0634 32.3359 86.0634Z" fill="#F2B02C"/>
<path d="M16.4203 86.6043C16.7274 86.6043 16.9764 86.3564 16.9764 86.0506C16.9764 85.7448 16.7274 85.4969 16.4203 85.4969C16.1132 85.4969 15.8643 85.7448 15.8643 86.0506C15.8643 86.3564 16.1132 86.6043 16.4203 86.6043Z" fill="#F2B02C"/>
<path d="M18.8938 77.8024C19.1242 77.8024 19.311 77.6164 19.311 77.387C19.311 77.1576 19.1242 76.9716 18.8938 76.9716C18.6634 76.9716 18.4766 77.1576 18.4766 77.387C18.4766 77.6164 18.6634 77.8024 18.8938 77.8024Z" fill="#F2B02C"/>
<path d="M28.8654 94.9194C29.3307 94.6488 29.7102 94.5057 30.2638 94.5164C30.8435 94.5257 31.4151 94.615 31.9573 94.3578C31.5418 94.5546 31.1793 94.8666 30.7621 95.0645C29.9093 95.4686 28.9415 95.0063 28.0853 95.3886L28.3844 95.2186L28.2681 95.2876C28.2463 95.3003 27.8301 95.5524 28.0486 95.4062C28.3107 95.2314 28.5929 95.079 28.8654 94.9208V94.9194Z" fill="#4535AF"/>
<path d="M38.7971 91.567C39.5468 91.5622 40.34 91.5766 40.9622 92.0496C40.9362 92.03 40.4207 92.3778 40.368 92.4089C40.3095 92.4433 39.8141 92.7919 39.7666 92.7564C39.1434 92.2844 38.3512 92.2696 37.6016 92.2737C37.6268 92.2737 37.7747 92.1658 37.7747 92.1662C37.9132 92.0814 38.0551 91.9979 38.1961 91.9145C38.337 91.8311 38.4779 91.748 38.6199 91.6663C38.6621 91.6421 38.7504 91.5673 38.7975 91.5673L38.7971 91.567Z" fill="#4535AF"/>
<path d="M30.3972 89.2754C30.4418 88.7204 31.3203 88.5483 31.188 87.9498C31.179 87.9092 31.7288 87.622 31.7822 87.5906C31.8355 87.5592 32.3909 87.2759 32.3836 87.2431C32.5155 87.8409 31.6371 88.014 31.5924 88.5687C31.5924 88.5842 31.4041 88.6859 31.4193 88.6762C31.2808 88.7614 31.1385 88.8445 30.9976 88.9279C30.8566 89.0113 30.7157 89.0944 30.5741 89.1761C30.5509 89.1892 30.3975 89.2592 30.3965 89.2754H30.3972Z" fill="#4535AF"/>
<path d="M28.2649 91.1219C28.4953 91.1219 28.6821 90.9359 28.6821 90.7065C28.6821 90.4771 28.4953 90.2911 28.2649 90.2911C28.0345 90.2911 27.8477 90.4771 27.8477 90.7065C27.8477 90.9359 28.0345 91.1219 28.2649 91.1219Z" fill="#F2B02C"/>
<path d="M25.7136 96.1943C25.8671 96.1943 25.9916 96.0704 25.9916 95.9175C25.9916 95.7646 25.8671 95.6406 25.7136 95.6406C25.56 95.6406 25.4355 95.7646 25.4355 95.9175C25.4355 96.0704 25.56 96.1943 25.7136 96.1943Z" fill="#F2B02C"/>
<path d="M33.7786 94.9459C34.009 94.9459 34.1958 94.7599 34.1958 94.5305C34.1958 94.301 34.009 94.1151 33.7786 94.1151C33.5481 94.1151 33.3613 94.301 33.3613 94.5305C33.3613 94.7599 33.5481 94.9459 33.7786 94.9459Z" fill="#F2B02C"/>
<path d="M38.1075 97.4702C38.5682 97.4702 38.9416 97.0984 38.9416 96.6397C38.9416 96.181 38.5682 95.8092 38.1075 95.8092C37.6469 95.8092 37.2734 96.181 37.2734 96.6397C37.2734 97.0984 37.6469 97.4702 38.1075 97.4702Z" fill="#020268"/>
<path d="M34.6308 86.3481C35.0148 86.3481 35.3261 86.0382 35.3261 85.6559C35.3261 85.2736 35.0148 84.9636 34.6308 84.9636C34.2468 84.9636 33.9355 85.2736 33.9355 85.6559C33.9355 86.0382 34.2468 86.3481 34.6308 86.3481Z" fill="#020268"/>
</g>
<g opacity="0.68">
<path d="M224.496 90.5255C224.664 90.0152 224.723 89.616 224.597 89.0775C224.465 88.5156 224.257 87.9781 224.395 87.3958C224.289 87.8419 224.059 88.2608 223.953 88.7086C223.737 89.6236 224.395 90.4669 224.2 91.3822L224.304 91.0554L224.262 91.1826C224.254 91.2067 224.095 91.6652 224.193 91.4211C224.309 91.1295 224.401 90.8223 224.497 90.5248L224.496 90.5255Z" fill="#4535AF"/>
<path d="M219.087 86.7084C218.933 85.9775 218.752 85.2087 218.157 84.7029C218.182 84.724 217.949 85.299 217.93 85.358C217.908 85.4224 217.671 85.9785 217.716 86.0168C218.31 86.5222 218.492 87.2924 218.646 88.0219C218.64 87.9977 218.715 87.8309 218.715 87.8312C218.769 87.6771 218.821 87.521 218.873 87.3679C218.925 87.2148 218.977 87.0576 219.027 86.9032C219.042 86.8566 219.096 86.7553 219.087 86.7094V86.7084Z" fill="#4535AF"/>
<path d="M225.691 80.1512C225.537 79.4203 225.355 78.6515 224.761 78.1458C224.785 78.1668 224.553 78.7418 224.533 78.8008C224.512 78.8653 224.274 79.4213 224.319 79.4593C224.914 79.965 225.096 80.7348 225.249 81.4647C225.244 81.4406 225.318 81.2737 225.318 81.274C225.372 81.1199 225.424 80.9655 225.477 80.8107C225.529 80.6559 225.581 80.5004 225.631 80.346C225.646 80.2994 225.7 80.1981 225.691 80.1522V80.1512Z" fill="#4535AF"/>
<path d="M229.714 87.8437C230.249 87.683 230.233 86.7918 230.848 86.7942C230.89 86.7942 231.056 86.1985 231.075 86.1392C231.095 86.0799 231.256 85.4807 231.29 85.4807C230.675 85.4786 230.69 86.3698 230.155 86.5305C230.14 86.535 230.08 86.7373 230.086 86.7211C230.032 86.8752 229.98 87.0314 229.928 87.1845C229.876 87.3376 229.824 87.4948 229.774 87.6492C229.766 87.6744 229.729 87.8385 229.714 87.843V87.8437Z" fill="#F2B02C"/>
<path d="M219.153 95.7075C219.689 95.5468 219.673 94.6556 220.288 94.658C220.329 94.658 220.495 94.0627 220.515 94.003C220.534 93.9434 220.695 93.3445 220.729 93.3445C220.114 93.3425 220.13 94.2337 219.595 94.3943C219.58 94.3988 219.519 94.6012 219.526 94.585C219.472 94.7391 219.42 94.8952 219.367 95.0483C219.315 95.2014 219.263 95.3586 219.213 95.513C219.205 95.5382 219.169 95.7023 219.153 95.7068V95.7075Z" fill="#4535AF"/>
<path d="M218.735 91.096C218.889 91.096 219.013 90.9721 219.013 90.8192C219.013 90.6663 218.889 90.5424 218.735 90.5424C218.582 90.5424 218.457 90.6663 218.457 90.8192C218.457 90.9721 218.582 91.096 218.735 91.096Z" fill="#F2B02C"/>
<path d="M228.759 90.6351C228.989 90.6351 229.176 90.4491 229.176 90.2197C229.176 89.9903 228.989 89.8043 228.759 89.8043C228.529 89.8043 228.342 89.9903 228.342 90.2197C228.342 90.4491 228.529 90.6351 228.759 90.6351Z" fill="#020268"/>
<path d="M224.182 94.0799C224.336 94.0799 224.46 93.9559 224.46 93.803C224.46 93.6501 224.336 93.5262 224.182 93.5262C224.029 93.5262 223.904 93.6501 223.904 93.803C223.904 93.9559 224.029 94.0799 224.182 94.0799Z" fill="#F2B02C"/>
<path d="M223.841 86.0765C224.071 86.0765 224.258 85.8905 224.258 85.661C224.258 85.4316 224.071 85.2456 223.841 85.2456C223.611 85.2456 223.424 85.4316 223.424 85.661C223.424 85.8905 223.611 86.0765 223.841 86.0765Z" fill="#F2B02C"/>
<path d="M221.013 96.8038C221.32 96.8038 221.569 96.5559 221.569 96.2501C221.569 95.9443 221.32 95.6964 221.013 95.6964C220.706 95.6964 220.457 95.9443 220.457 96.2501C220.457 96.5559 220.706 96.8038 221.013 96.8038Z" fill="#F2B02C"/>
<path d="M220.857 82.723C221.317 82.723 221.691 82.3512 221.691 81.8925C221.691 81.4338 221.317 81.062 220.857 81.062C220.396 81.062 220.022 81.4338 220.022 81.8925C220.022 82.3512 220.396 82.723 220.857 82.723Z" fill="#020268"/>
<path d="M232.373 83.6504C232.757 83.6504 233.068 83.3405 233.068 82.9581C233.068 82.5758 232.757 82.2659 232.373 82.2659C231.989 82.2659 231.678 82.5758 231.678 82.9581C231.678 83.3405 231.989 83.6504 232.373 83.6504Z" fill="#F2B02C"/>
<path d="M216.458 84.1913C216.766 84.1913 217.014 83.9434 217.014 83.6377C217.014 83.3319 216.766 83.084 216.458 83.084C216.151 83.084 215.902 83.3319 215.902 83.6377C215.902 83.9434 216.151 84.1913 216.458 84.1913Z" fill="#F2B02C"/>
<path d="M218.932 75.3895C219.162 75.3895 219.349 75.2035 219.349 74.974C219.349 74.7446 219.162 74.5586 218.932 74.5586C218.701 74.5586 218.515 74.7446 218.515 74.974C218.515 75.2035 218.701 75.3895 218.932 75.3895Z" fill="#F2B02C"/>
<path d="M228.903 92.5064C229.368 92.2358 229.748 92.0927 230.302 92.1034C230.882 92.1127 231.453 92.202 231.995 91.9448C231.58 92.1417 231.217 92.4537 230.8 92.6516C229.947 93.0556 228.979 92.5933 228.123 92.9756L228.422 92.8057L228.306 92.8746C228.284 92.8874 227.868 93.1394 228.087 92.9932C228.349 92.8184 228.631 92.666 228.903 92.5078V92.5064Z" fill="#4535AF"/>
<path d="M238.837 89.1537C239.587 89.1489 240.38 89.1634 241.002 89.6364C240.976 89.6167 240.461 89.9646 240.408 89.9956C240.349 90.0301 239.854 90.3786 239.807 90.3431C239.183 89.8711 238.391 89.8563 237.642 89.8605C237.667 89.8605 237.815 89.7525 237.815 89.7529C237.953 89.6681 238.096 89.5847 238.236 89.5012C238.377 89.4178 238.518 89.3347 238.66 89.253C238.702 89.2289 238.79 89.1541 238.837 89.1541L238.837 89.1537Z" fill="#4535AF"/>
<path d="M230.435 86.8625C230.48 86.3074 231.358 86.1354 231.226 85.5369C231.217 85.4962 231.767 85.209 231.82 85.1776C231.874 85.1463 232.429 84.8629 232.421 84.8301C232.554 85.4279 231.675 85.601 231.63 86.1557C231.63 86.1712 231.442 86.2729 231.457 86.2633C231.319 86.3484 231.177 86.4315 231.036 86.5149C230.895 86.5984 230.754 86.6815 230.612 86.7632C230.589 86.7763 230.436 86.8463 230.435 86.8625H230.435Z" fill="#4535AF"/>
<path d="M228.303 88.709C228.533 88.709 228.72 88.523 228.72 88.2935C228.72 88.0641 228.533 87.8781 228.303 87.8781C228.073 87.8781 227.886 88.0641 227.886 88.2935C227.886 88.523 228.073 88.709 228.303 88.709Z" fill="#F2B02C"/>
<path d="M225.752 93.7813C225.905 93.7813 226.03 93.6574 226.03 93.5045C226.03 93.3516 225.905 93.2277 225.752 93.2277C225.598 93.2277 225.474 93.3516 225.474 93.5045C225.474 93.6574 225.598 93.7813 225.752 93.7813Z" fill="#F2B02C"/>
<path d="M233.817 92.5329C234.047 92.5329 234.234 92.3469 234.234 92.1175C234.234 91.8881 234.047 91.7021 233.817 91.7021C233.586 91.7021 233.399 91.8881 233.399 92.1175C233.399 92.3469 233.586 92.5329 233.817 92.5329Z" fill="#F2B02C"/>
<path d="M238.146 95.0573C238.606 95.0573 238.98 94.6854 238.98 94.2267C238.98 93.7681 238.606 93.3962 238.146 93.3962C237.685 93.3962 237.312 93.7681 237.312 94.2267C237.312 94.6854 237.685 95.0573 238.146 95.0573Z" fill="#020268"/>
<path d="M234.669 83.9352C235.053 83.9352 235.364 83.6253 235.364 83.2429C235.364 82.8606 235.053 82.5507 234.669 82.5507C234.285 82.5507 233.974 82.8606 233.974 83.2429C233.974 83.6253 234.285 83.9352 234.669 83.9352Z" fill="#020268"/>
</g>
</g>
<defs>
<linearGradient id="paint0_linear_823_10603" x1="147.719" y1="93.7817" x2="147.719" y2="178.31" gradientUnits="userSpaceOnUse">
<stop stop-color="#4535AF"/>
<stop offset="1" stop-color="#26197B"/>
</linearGradient>
<linearGradient id="paint1_linear_823_10603" x1="76.2495" y1="93.7817" x2="76.2495" y2="178.329" gradientUnits="userSpaceOnUse">
<stop stop-color="#4535AF"/>
<stop offset="1" stop-color="#26197B"/>
</linearGradient>
<linearGradient id="paint2_linear_823_10603" x1="41.4591" y1="158.959" x2="55.2199" y2="154.292" gradientUnits="userSpaceOnUse">
<stop stop-color="#4535AF"/>
<stop offset="1" stop-color="#4B30FF" stop-opacity="0.71"/>
</linearGradient>
<linearGradient id="paint3_linear_823_10603" x1="69.1212" y1="158.959" x2="82.8823" y2="154.292" gradientUnits="userSpaceOnUse">
<stop stop-color="#4535AF"/>
<stop offset="1" stop-color="#4B30FF" stop-opacity="0.71"/>
</linearGradient>
<clipPath id="clip0_823_10603">
<rect width="241" height="160" fill="white"/>
</clipPath>
</defs>
</svg>
