<svg width="356" height="203" viewBox="0 0 356 203" fill="none" xmlns="http://www.w3.org/2000/svg">
<g clip-path="url(#clip0_275_10787)">
<path d="M58.5163 92.3012V35.2513C58.5163 34.4366 58.8406 33.6553 59.4178 33.0792C59.995 32.5031 60.7778 32.1794 61.5941 32.1794C62.4104 32.1794 63.1932 32.5031 63.7704 33.0792C64.3476 33.6553 64.6719 34.4366 64.6719 35.2513V92.3012C64.6719 93.116 64.3476 93.8973 63.7704 94.4734C63.1932 95.0495 62.4104 95.3731 61.5941 95.3731C60.7778 95.3731 59.995 95.0495 59.4178 94.4734C58.8406 93.8973 58.5163 93.116 58.5163 92.3012Z" fill="#F0F0F0"/>
<path d="M51.1516 92.3012V35.2513C51.1516 34.4366 51.4759 33.6553 52.0531 33.0792C52.6303 32.5031 53.4131 32.1794 54.2294 32.1794C55.0457 32.1794 55.8285 32.5031 56.4057 33.0792C56.9829 33.6553 57.3072 34.4366 57.3072 35.2513V92.3012C57.3072 93.116 56.9829 93.8973 56.4057 94.4734C55.8285 95.0495 55.0457 95.3731 54.2294 95.3731C53.4131 95.3731 52.6303 95.0495 52.0531 94.4734C51.4759 93.8973 51.1516 93.116 51.1516 92.3012Z" fill="#F0F0F0"/>
<path d="M43.787 92.3012V35.2513C43.787 34.4366 44.1112 33.6553 44.6884 33.0792C45.2656 32.5031 46.0485 32.1794 46.8647 32.1794C47.681 32.1794 48.4639 32.5031 49.041 33.0792C49.6182 33.6553 49.9425 34.4366 49.9425 35.2513V92.3012C49.9425 93.116 49.6182 93.8973 49.041 94.4734C48.4639 95.0495 47.681 95.3731 46.8647 95.3731C46.0485 95.3731 45.2656 95.0495 44.6884 94.4734C44.1112 93.8973 43.787 93.116 43.787 92.3012Z" fill="#F0F0F0"/>
<path d="M321.844 183.421C320.605 183.422 319.374 183.209 318.208 182.791L318.028 182.727L318.111 182.329C316.021 178.116 316.752 172.344 319.981 167.599C322.916 163.284 327.38 160.148 331.318 157.38C331.818 157.029 332.412 156.835 333.023 156.824C333.634 156.812 334.234 156.983 334.747 157.315C335.26 157.647 335.661 158.124 335.9 158.685C336.139 159.247 336.205 159.866 336.088 160.465L334.679 167.677C333.663 172.88 332.454 177.804 328.868 180.874C326.899 182.519 324.412 183.421 321.844 183.421Z" fill="#E6E6E6"/>
<path d="M331.067 195.883C329.703 195.876 328.363 195.527 327.167 194.871C325.972 194.215 324.961 193.271 324.224 192.125L324.122 191.966L324.365 191.752C324.995 188.321 327.959 185.264 331.938 183.949C335.554 182.754 339.547 182.95 343.067 183.121C343.532 183.144 343.98 183.304 344.354 183.581C344.728 183.858 345.011 184.239 345.168 184.677C345.324 185.115 345.347 185.589 345.233 186.04C345.119 186.491 344.874 186.898 344.528 187.209L340.567 190.777C337.689 193.37 334.819 195.71 331.356 195.878C331.26 195.882 331.163 195.884 331.067 195.883Z" fill="#E6E6E6"/>
<path d="M318.776 199.698C318.191 195.351 317.589 190.948 318 186.555C318.364 182.653 319.531 178.842 321.906 175.717C323.161 174.067 324.695 172.648 326.439 171.525C326.893 171.234 327.31 171.967 326.858 172.257C323.835 174.216 321.509 177.079 320.214 180.437C318.767 184.192 318.535 188.284 318.784 192.272C318.935 194.684 319.255 197.08 319.577 199.473C319.603 199.58 319.587 199.693 319.533 199.79C319.48 199.886 319.392 199.959 319.287 199.994C319.233 200.008 319.178 200.012 319.124 200.004C319.069 199.997 319.017 199.979 318.969 199.952C318.922 199.924 318.88 199.888 318.847 199.844C318.814 199.801 318.79 199.751 318.776 199.698Z" fill="#F2F2F2"/>
<path d="M317.123 202.197C319.938 197.114 323.203 191.466 329.038 189.66C330.658 189.16 332.36 188.981 334.049 189.132C334.581 189.179 334.448 190.016 333.917 189.969C331.08 189.732 328.25 190.496 325.92 192.128C323.665 193.694 321.909 195.872 320.423 198.181C319.512 199.595 318.697 201.069 317.881 202.542C317.621 203.012 316.859 202.673 317.123 202.197Z" fill="#F2F2F2"/>
<path d="M315.856 202.122L318.698 202.187L301.56 110.803L298.717 111.338L303.192 135.044H288.774L293.249 111.338L290.407 110.803L273.411 202.187L276.11 202.122L285.046 154.792H306.921L315.856 202.122ZM285.708 151.281L288.111 138.555H303.855L306.258 151.281H285.708Z" fill="#CACACA"/>
<path d="M191.74 93.7569V63.7462C191.74 62.8552 193.121 62.1303 194.818 62.1303C196.515 62.1303 197.896 62.8552 197.896 63.7462V93.7569C197.896 94.6479 196.515 95.3728 194.818 95.3728C193.121 95.3728 191.74 94.6479 191.74 93.7569Z" fill="#F0F0F0"/>
<path d="M184.375 93.7569V63.7462C184.375 62.8552 185.756 62.1303 187.453 62.1303C189.15 62.1303 190.531 62.8552 190.531 63.7462V93.7569C190.531 94.6479 189.15 95.3728 187.453 95.3728C185.756 95.3728 184.375 94.6479 184.375 93.7569Z" fill="#F0F0F0"/>
<path d="M177.011 93.7569V63.7462C177.011 62.8552 178.391 62.1303 180.088 62.1303C181.786 62.1303 183.166 62.8552 183.166 63.7462V93.7569C183.166 94.6479 181.786 95.3728 180.088 95.3728C178.391 95.3728 177.011 94.6479 177.011 93.7569Z" fill="#F0F0F0"/>
<path d="M238.968 71.6871C238.954 71.5959 238.922 71.5086 238.872 71.4308C238.822 71.3531 238.757 71.2867 238.68 71.2358L215.476 55.947C215.826 55.8013 216.118 55.5456 216.309 55.2188C216.541 54.8153 216.603 54.3366 216.483 53.8873C216.362 53.4381 216.068 53.0547 215.665 52.8209L213.762 51.7238C213.357 51.4924 212.878 51.4301 212.428 51.5505C211.977 51.6709 211.593 51.9642 211.359 52.3663C211.233 52.5873 211.157 52.8335 211.136 53.0873L194.387 42.051C193.825 40.6913 192.972 39.4704 191.888 38.4732C190.805 37.4761 189.516 36.7268 188.113 36.2775V31.4114H181.957V36.2775C179.915 36.9293 178.133 38.212 176.868 39.9403C175.604 41.6686 174.922 43.7533 174.922 45.8933V47.2099H181.078C181.078 48.2574 181.495 49.262 182.237 50.0027C182.979 50.7434 183.985 51.1595 185.035 51.1595C186.084 51.1595 187.091 50.7434 187.833 50.0027C188.575 49.262 188.992 48.2574 188.992 47.2099H195.148V45.8933C195.147 45.2622 195.087 44.6326 194.97 44.0125L237.341 71.9318L219.74 93.2905C219.604 93.2899 219.468 93.2887 219.33 93.2887C217.926 93.2887 216.565 93.3218 215.269 93.3789C215.347 93.1619 215.381 92.9316 215.369 92.7014C215.344 92.2369 215.135 91.8015 214.789 91.4902C214.442 91.1788 213.987 91.0169 213.521 91.0397L211.326 91.1539C210.861 91.1795 210.424 91.3878 210.112 91.7334C209.8 92.0789 209.638 92.5337 209.661 92.9983C209.677 93.2727 209.759 93.5393 209.899 93.7759C206.017 94.1876 203.502 94.7553 203.502 95.044C203.502 95.5172 210.257 95.0667 218.711 95.0451C218.75 95.1548 218.817 95.2523 218.906 95.3275C218.995 95.4027 219.103 95.4529 219.217 95.473C219.332 95.4931 219.45 95.4824 219.56 95.4419C219.669 95.4014 219.766 95.3327 219.839 95.2427L220.002 95.0452C228.432 95.0686 235.159 95.5162 235.159 95.044C235.159 94.5988 229.178 93.4912 221.429 93.3136L238.826 72.2033C238.884 72.132 238.927 72.0492 238.952 71.9603C238.976 71.8714 238.982 71.7783 238.968 71.6871Z" fill="#CCCCCC"/>
<path d="M239.603 202.342H185.427C184.332 202.341 183.283 201.906 182.508 201.133C181.734 200.36 181.299 199.313 181.298 198.22V109.478C181.297 108.502 180.907 107.566 180.216 106.876C179.524 106.185 178.586 105.797 177.608 105.796H50.8844C49.9061 105.797 48.9683 106.185 48.2765 106.876C47.5848 107.566 47.1957 108.502 47.1945 109.478V198.22C47.1933 199.313 46.7578 200.36 45.9837 201.133C45.2095 201.906 44.1599 202.341 43.065 202.342H41.2114C40.1165 202.341 39.0669 201.906 38.2927 201.133C37.5186 200.36 37.0831 199.313 37.0818 198.22V104.699C37.0848 102.081 38.128 99.5711 39.9826 97.72C41.8373 95.8689 44.3519 94.8277 46.9747 94.8247H233.84C236.463 94.8277 238.977 95.869 240.832 97.72C242.686 99.5711 243.73 102.081 243.733 104.699V198.22C243.731 199.313 243.296 200.36 242.522 201.133C241.747 201.906 240.698 202.341 239.603 202.342Z" fill="#E4E4E4"/>
<path d="M243.513 117.864H181.517V120.497H243.513V117.864Z" fill="white"/>
<path d="M243.513 153.41H181.517V156.044H243.513V153.41Z" fill="white"/>
<path d="M130.199 94.3913L128.418 93.6425L127.195 84.7273H110.918L109.593 93.606L107.999 94.4016C107.923 94.4397 107.862 94.5023 107.826 94.5794C107.789 94.6565 107.78 94.7435 107.8 94.8263C107.82 94.9091 107.867 94.9829 107.934 95.0357C108 95.0886 108.083 95.1173 108.168 95.1173H130.052C130.14 95.1173 130.225 95.0871 130.292 95.0319C130.36 94.9767 130.406 94.8998 130.424 94.8143C130.441 94.7288 130.428 94.6399 130.387 94.5628C130.346 94.4857 130.28 94.4251 130.199 94.3913Z" fill="#E6E6E6"/>
<path d="M159.125 85.9135H79.1671C78.7476 85.9125 78.3455 85.7455 78.0492 85.4491C77.7529 85.1527 77.5865 84.7511 77.5865 84.3324V73.0787H160.705V84.3324C160.705 84.7511 160.539 85.1527 160.243 85.4491C159.946 85.7455 159.544 85.9125 159.125 85.9135Z" fill="#CCCCCC"/>
<path d="M160.789 78.3975H77.5135V30.2455C77.5141 29.7402 77.7155 29.2557 78.0735 28.8984C78.4315 28.5411 78.9169 28.3401 79.4232 28.3395H158.879C159.386 28.3401 159.871 28.5411 160.229 28.8984C160.587 29.2557 160.789 29.7402 160.789 30.2455V78.3975Z" fill="#272D3D"/>
<path d="M155.815 74.9026H82.4872C82.0969 74.9022 81.7227 74.7472 81.4467 74.4718C81.1707 74.1963 81.0154 73.8228 81.015 73.4332V33.3038C81.0154 32.9142 81.1707 32.5407 81.4467 32.2652C81.7227 31.9897 82.0969 31.8348 82.4872 31.8343H155.815C156.206 31.8348 156.58 31.9897 156.856 32.2652C157.132 32.5407 157.287 32.9142 157.288 33.3038V73.4332C157.287 73.8228 157.132 74.1963 156.856 74.4718C156.58 74.7472 156.206 74.9022 155.815 74.9026Z" fill="white"/>
<path d="M238.017 36.4411C238.719 36.3402 239.434 36.3941 240.112 36.5989C240.791 36.8037 241.416 37.1544 241.943 37.6264C242.471 38.0985 242.889 38.6802 243.167 39.3308C243.445 39.9814 243.577 40.6849 243.554 41.3918L259.631 47.5684L252.347 52.7626L238.196 46.1009C237.009 45.9825 235.907 45.4335 235.098 44.5579C234.289 43.6824 233.83 42.5411 233.808 41.3504C233.786 40.1597 234.202 39.0023 234.978 38.0975C235.754 37.1927 236.835 36.6033 238.017 36.4411Z" fill="#9E616A"/>
<path d="M299.062 33.4091L301.782 38.3447C301.125 41.4751 299.426 44.2916 296.962 46.3364C292.797 49.8417 271.024 62.8969 271.024 62.8969L243.536 49.1236L248.345 42.7458L269.925 49.9644C277.931 42.4193 287.591 36.845 298.137 33.686L299.062 33.4091Z" fill="#E4E4E4"/>
<path d="M294.004 115.08C305.852 115.08 315.457 111.957 315.457 108.103C315.457 104.25 305.852 101.127 294.004 101.127C282.157 101.127 272.552 104.25 272.552 108.103C272.552 111.957 282.157 115.08 294.004 115.08Z" fill="#CACACA"/>
<path d="M245.878 196.21L240.181 194.638L243.544 171.96L251.952 174.28L245.878 196.21Z" fill="#9E616A"/>
<path d="M245.804 202.122L227.436 197.054L227.5 196.823C228.025 194.93 229.281 193.323 230.992 192.355C232.703 191.386 234.73 191.136 236.626 191.659L236.626 191.659L247.845 194.755L245.804 202.122Z" fill="#2F2E41"/>
<path d="M229.362 196.284L223.955 193.901L230.591 171.953L238.57 175.47L229.362 196.284Z" fill="#9E616A"/>
<path d="M228.426 202.122L210.993 194.439L211.091 194.219C211.886 192.423 213.362 191.015 215.197 190.306C217.031 189.597 219.073 189.644 220.872 190.437L220.873 190.437L231.52 195.13L228.426 202.122Z" fill="#2F2E41"/>
<path d="M310.7 91.0459C310.7 91.0459 313.566 99.9075 295.983 111.114L273.339 133.635L249.811 189.81L235.842 183.56L238.582 176.261L240.42 171.363L241.361 168.857L242.369 166.171L257.323 126.33L269.885 104.378L270.249 92.4658L273.339 84.0691L295.756 76.13L310.7 91.0459Z" fill="#2F2E41"/>
<path d="M299.268 91.4848C299.268 91.4848 302.134 100.346 284.551 111.553L261.907 134.074L238.379 190.249L224.41 183.999L227.15 176.7L228.988 171.802L229.929 169.296L230.937 166.61L245.891 126.769L250.097 119.419C255.646 109.722 262.388 100.756 270.167 92.7302L274.29 88.4761L274.73 81.8935L284.324 76.5689L299.268 91.4848Z" fill="#2F2E41"/>
<path d="M285.722 48.1024L292.757 33.1816L305.034 31.5102C305.034 31.5102 314.62 43.7 312.103 60.8289C311.159 67.2522 310.39 73.6471 310.344 79.2604C310.332 80.754 311.641 81.4209 311.663 82.7712C311.685 84.0976 309.182 86.2582 309.905 87.1596C310.938 88.402 311.553 89.9373 311.663 91.5481C310.792 93.6177 284.422 82.4052 273.339 84.0691L285.722 48.1024Z" fill="#E4E4E4"/>
<path d="M303.159 23.9984C306.293 18.7369 304.56 11.9362 299.288 8.80856C294.017 5.68091 287.203 7.41072 284.069 12.6722C280.936 17.9337 282.669 24.7344 287.94 27.862C293.212 30.9897 300.026 29.2599 303.159 23.9984Z" fill="#9E616A"/>
<path d="M300.713 14.3559C300.692 14.6476 300.663 15.0338 300.629 15.4707C300.594 16.6669 300.932 17.8443 301.596 18.841C302.217 19.8896 301.476 26.2228 301.476 26.2228C319.664 13.5681 305.293 0.854456 299.671 1.98461C299.788 0.375307 295.203 1.01284 295.203 1.01284C293.456 -1.70266 289.627 1.90194 289.627 1.90194L290.366 0.66135C287.393 1.41604 284.455 10.586 284.455 10.586C285.463 14.542 300.831 12.7466 300.713 14.3559Z" fill="#2F2E41"/>
<path d="M230.153 53.9718C236.403 45.6738 241.344 36.4698 244.805 26.6796C245.005 26.094 244.991 25.4564 244.764 24.8803C244.538 24.3042 244.114 23.827 243.568 23.5336L222.18 12.095C221.834 11.9085 221.45 11.8033 221.057 11.7874C220.664 11.7715 220.272 11.8453 219.912 12.0031C219.546 12.1622 219.22 12.4026 218.961 12.7062C218.701 13.0098 218.514 13.3684 218.415 13.7549C215.925 23.189 211.246 31.9058 204.755 39.2C204.488 39.4968 204.292 39.8507 204.182 40.2345C204.073 40.6184 204.052 41.0221 204.123 41.4149C204.191 41.8015 204.346 42.1676 204.577 42.4853C204.808 42.803 205.108 43.0639 205.455 43.2482L226.844 54.6868C227.391 54.978 228.024 55.0659 228.63 54.935C229.236 54.8041 229.776 54.4628 230.153 53.9718Z" fill="#CCCCCC"/>
<path d="M228.694 52.8772C228.578 53.0205 228.417 53.1193 228.237 53.1564C228.056 53.1935 227.869 53.1668 227.706 53.0807L206.318 41.6418C206.214 41.5878 206.124 41.5105 206.055 41.4159C205.986 41.3214 205.94 41.2122 205.921 41.097C205.898 40.9753 205.905 40.8501 205.939 40.7312C205.973 40.6123 206.035 40.503 206.118 40.4118C212.801 32.9028 217.618 23.9292 220.181 14.2171C220.21 14.0971 220.267 13.9855 220.347 13.8912C220.427 13.7969 220.528 13.7224 220.642 13.6734C220.749 13.6256 220.866 13.6032 220.983 13.6081C221.1 13.6129 221.215 13.6448 221.318 13.7013L242.706 25.1398C242.868 25.2272 242.994 25.3683 243.063 25.5388C243.132 25.7093 243.139 25.8984 243.083 26.0735C239.685 35.6884 234.832 44.7276 228.694 52.8772Z" fill="white"/>
<path d="M221.211 24.569L235.963 33.1994C237.431 34.0581 238.76 31.7832 237.294 30.9258L222.542 22.2954C221.074 21.4367 219.745 23.7117 221.211 24.569Z" fill="#4535AF"/>
<path d="M218.573 29.3963L233.325 38.0267C234.793 38.8854 236.122 36.6105 234.656 35.7531L219.904 27.1227C218.436 26.264 217.107 28.539 218.573 29.3963Z" fill="#4535AF"/>
<path d="M215.495 34.6625L230.247 43.2929C231.715 44.1515 233.044 41.8766 231.579 41.0193L216.826 32.3889C215.358 31.5302 214.029 33.8052 215.495 34.6625Z" fill="#4535AF"/>
<path d="M212.417 39.0509L227.169 47.6813C228.637 48.54 229.966 46.2651 228.501 45.4077L213.748 36.7773C212.281 35.9186 210.952 38.1936 212.417 39.0509Z" fill="#4535AF"/>
<path d="M279.669 89.8158L285.207 102.246C285.34 102.544 285.398 102.87 285.373 103.195C285.349 103.52 285.243 103.834 285.067 104.109C284.859 104.436 284.558 104.696 284.203 104.853C283.848 105.011 283.454 105.06 283.071 104.995C282.94 104.975 282.812 104.941 282.689 104.893C282.199 104.704 281.805 104.33 281.591 103.851L276.053 91.4207C275.947 91.1837 275.889 90.9283 275.883 90.6691C275.876 90.4098 275.921 90.1518 276.014 89.9097C276.202 89.4209 276.577 89.0267 277.057 88.8138C277.536 88.601 278.081 88.587 278.571 88.7749C279.06 88.9629 279.455 89.3373 279.669 89.8158Z" fill="#4535AF"/>
<path d="M284.76 101.244L285.87 103.753L286.437 107.309C286.475 107.544 286.434 107.784 286.32 107.992C286.207 108.201 286.028 108.366 285.811 108.462C285.594 108.558 285.351 108.58 285.12 108.525C284.889 108.469 284.683 108.339 284.534 108.154L282.238 105.303L281.145 102.849L284.76 101.244Z" fill="#272D3D"/>
<path d="M274.822 86.3574L275.616 91.334C275.642 91.4969 275.705 91.6517 275.8 91.7864C275.896 91.9211 276.021 92.0321 276.166 92.1108C276.311 92.1895 276.473 92.2338 276.638 92.2403C276.803 92.2468 276.968 92.2153 277.119 92.1483L277.906 91.799L279.424 95.2074C279.472 95.3136 279.559 95.3966 279.668 95.4382C279.777 95.4798 279.898 95.4767 280.004 95.4294C280.111 95.3822 280.194 95.2947 280.236 95.1862C280.278 95.0777 280.275 94.9571 280.228 94.8508L278.709 91.4424L279.496 91.0932C279.757 90.9772 279.961 90.7629 280.064 90.497C280.167 90.2312 280.16 89.9355 280.045 89.6746C280.006 89.5883 279.956 89.5073 279.897 89.4338L276.726 85.5124C276.577 85.3278 276.371 85.1977 276.14 85.1421C275.909 85.0865 275.666 85.1086 275.449 85.205C275.232 85.3013 275.053 85.4665 274.939 85.6749C274.826 85.8833 274.785 86.1233 274.822 86.3574Z" fill="#272D3D"/>
<path d="M277.12 95.3399C277.244 94.6436 277.521 93.9831 277.929 93.4049C278.337 92.8267 278.867 92.3448 279.482 91.9933C280.097 91.6418 280.782 91.4291 281.488 91.3703C282.195 91.3115 282.905 91.4079 283.57 91.6528L294.503 78.3654L297.151 86.9006L286.362 98.2101C285.876 99.2976 285.007 100.169 283.92 100.66C282.833 101.151 281.603 101.226 280.464 100.873C279.324 100.519 278.355 99.7601 277.738 98.7404C277.122 97.7207 276.902 96.5108 277.12 95.3399Z" fill="#9E616A"/>
<path d="M290.884 94.4765L286.068 87.5342L299.742 69.3374L292.698 54.2718L293.211 36.3515L299.032 35.2783L299.104 35.3144C301.934 36.9403 304.121 39.4834 305.303 42.5215C306.755 46.1447 309.997 59.7464 311.8 67.5313C312.154 69.04 312.115 70.614 311.687 72.1035C311.259 73.5929 310.456 74.9482 309.355 76.0402L290.884 94.4765Z" fill="#E4E4E4"/>
<path d="M155.302 60.9318C155.262 61.269 155.249 61.6088 155.262 61.9481L130.608 79.8503L123.835 76.8584L117.975 86.4707L129.45 92.9301C130.377 93.4519 131.448 93.6596 132.503 93.5218C133.559 93.384 134.541 92.9083 135.302 92.1661L160.116 67.9755C161.386 68.2976 162.724 68.2261 163.953 67.7706C165.181 67.315 166.241 66.497 166.993 65.4253C167.744 64.3536 168.151 63.079 168.158 61.771C168.166 60.463 167.775 59.1837 167.036 58.1032C166.298 57.0227 165.247 56.1921 164.024 55.7221C162.801 55.2521 161.464 55.1648 160.19 55.4718C158.916 55.7789 157.766 56.4658 156.893 57.4411C156.02 58.4164 155.465 59.634 155.302 60.9318Z" fill="#FFB6B6"/>
<path d="M129.81 80.5047L122.621 92.4623C122.416 92.8026 122.141 93.0948 121.813 93.3191C121.485 93.5434 121.112 93.6945 120.721 93.7622C120.329 93.8299 119.927 93.8125 119.543 93.7112C119.158 93.61 118.8 93.4272 118.493 93.1754L107.728 84.3514C105.991 83.2967 104.743 81.5973 104.258 79.6258C103.774 77.6544 104.092 75.5716 105.144 73.8341C106.196 72.0967 107.895 70.8463 109.868 70.357C111.842 69.8677 113.93 70.1795 115.674 71.2241L128.499 76.5337C128.866 76.6858 129.196 76.9152 129.467 77.2061C129.737 77.497 129.941 77.8426 130.066 78.2195C130.19 78.5963 130.232 78.9955 130.188 79.3899C130.144 79.7842 130.015 80.1644 129.81 80.5047Z" fill="#4535AF"/>
<path d="M99.0051 184.439H113.098V161.13H99.0051V184.439Z" fill="#CACACA"/>
<path d="M112.392 173.464L110.583 176.124L144.406 199.032L146.215 196.371L112.392 173.464Z" fill="#CACACA"/>
<path d="M99.7113 173.464L65.8883 196.371L67.6971 199.032L101.52 176.124L99.7113 173.464Z" fill="#CACACA"/>
<path d="M145.31 202.122C147.756 202.122 149.739 200.143 149.739 197.702C149.739 195.26 147.756 193.281 145.31 193.281C142.864 193.281 140.881 195.26 140.881 197.702C140.881 200.143 142.864 202.122 145.31 202.122Z" fill="#CACACA"/>
<path d="M105.85 202.122C108.296 202.122 110.279 200.143 110.279 197.702C110.279 195.26 108.296 193.281 105.85 193.281C103.404 193.281 101.421 195.26 101.421 197.702C101.421 200.143 103.404 202.122 105.85 202.122Z" fill="#CACACA"/>
<path d="M66.7927 202.122C69.2389 202.122 71.2219 200.143 71.2219 197.702C71.2219 195.26 69.2389 193.281 66.7927 193.281C64.3465 193.281 62.3635 195.26 62.3635 197.702C62.3635 200.143 64.3465 202.122 66.7927 202.122Z" fill="#CACACA"/>
<path d="M107.461 174.794H104.24V197.702H107.461V174.794Z" fill="#CACACA"/>
<path d="M103.032 171.579H109.071V140.633H103.032V171.579Z" fill="#CACACA"/>
<path d="M88.7374 145.456V138.222C88.7389 136.89 89.2697 135.613 90.2132 134.672C91.1568 133.73 92.4362 133.2 93.7706 133.199H120.748C122.083 133.2 123.362 133.73 124.306 134.672C125.249 135.613 125.78 136.89 125.782 138.222V145.456C125.78 146.788 125.249 148.065 124.306 149.007C123.362 149.948 122.083 150.478 120.748 150.48H93.7706C92.4362 150.478 91.1568 149.948 90.2132 149.007C89.2697 148.065 88.7389 146.788 88.7374 145.456Z" fill="#272D3D"/>
<path d="M137.463 194.904L144.923 194.904L148.473 175.59L137.462 175.59L137.463 194.904Z" fill="#FFB8B8"/>
<path d="M135.56 202.122L159.617 202.121V201.818C159.617 200.59 159.375 199.375 158.905 198.241C158.434 197.107 157.744 196.077 156.875 195.209C156.005 194.341 154.973 193.653 153.837 193.183C152.701 192.714 151.483 192.472 150.254 192.472H150.253L135.56 192.472L135.56 202.122Z" fill="#2F2E41"/>
<path d="M148.622 182.927L163.496 149.636C164.738 146.83 164.875 143.66 163.881 140.758C162.886 137.855 160.833 135.433 158.129 133.974L125.867 116.707L111.145 115.457L97.5645 114.225L97.4666 114.39C97.3413 114.602 94.4215 119.635 96.3952 125.155C97.8923 129.341 101.786 132.612 107.97 134.875C122.401 140.156 139.073 144.67 145.571 146.366C145.858 146.439 146.127 146.572 146.359 146.756C146.59 146.941 146.781 147.172 146.917 147.435C147.053 147.694 147.134 147.98 147.155 148.272C147.175 148.565 147.135 148.858 147.036 149.135L133.218 180.122C133.073 180.515 133.021 180.936 133.066 181.352C133.11 181.768 133.25 182.169 133.474 182.522C133.698 182.876 134 183.174 134.358 183.393C134.715 183.612 135.118 183.745 135.536 183.784L145.861 184.534C145.949 184.543 146.036 184.547 146.123 184.547C146.652 184.547 147.169 184.394 147.613 184.106C148.056 183.819 148.407 183.409 148.622 182.927Z" fill="#2F2E41"/>
<path d="M132.594 194.904L140.055 194.904L143.605 175.59L132.593 175.59L132.594 194.904Z" fill="#FFB8B8"/>
<path d="M130.691 202.122L154.749 202.121V201.818C154.749 200.59 154.506 199.375 154.036 198.241C153.565 197.107 152.876 196.077 152.006 195.209C151.137 194.341 150.104 193.653 148.968 193.183C147.832 192.714 146.615 192.472 145.385 192.472H145.384L130.691 192.472L130.691 202.122Z" fill="#2F2E41"/>
<path d="M143.145 184.749L158.019 151.458C159.261 148.652 159.398 145.482 158.403 142.58C157.409 139.678 155.355 137.256 152.652 135.796L120.39 118.529L105.667 117.279L95.0308 116.358L95.0323 116.213C94.907 116.424 91.9872 121.458 93.9609 126.977C95.458 131.164 96.3093 134.434 102.492 136.697C116.924 141.979 133.596 146.493 140.094 148.188C140.381 148.261 140.649 148.394 140.881 148.579C141.113 148.763 141.304 148.994 141.44 149.257C141.576 149.517 141.657 149.802 141.678 150.094C141.698 150.387 141.658 150.681 141.559 150.957L127.74 181.944C127.596 182.337 127.544 182.758 127.589 183.174C127.633 183.59 127.773 183.991 127.997 184.345C128.221 184.699 128.523 184.996 128.88 185.215C129.238 185.434 129.641 185.568 130.059 185.606L140.384 186.357C140.472 186.365 140.559 186.369 140.646 186.369C141.175 186.369 141.692 186.216 142.136 185.928C142.579 185.641 142.93 185.231 143.145 184.749Z" fill="#2F2E41"/>
<path d="M133.815 41.3562C135.724 33.3404 130.762 25.2969 122.731 23.3906C114.7 21.4844 106.641 26.4371 104.731 34.453C102.821 42.4688 107.784 50.5123 115.815 52.4186C123.846 54.3248 131.905 49.3721 133.815 41.3562Z" fill="#FFB8B8"/>
<path d="M170.796 95.2233C177.046 86.9252 181.987 77.7213 185.448 67.9311C185.648 67.3455 185.634 66.7078 185.407 66.1317C185.181 65.5556 184.757 65.0784 184.211 64.785L162.823 53.3464C162.477 53.16 162.093 53.0548 161.7 53.0389C161.307 53.0229 160.915 53.0967 160.555 53.2546C160.189 53.4136 159.863 53.6541 159.604 53.9576C159.344 54.2612 159.157 54.6199 159.057 55.0064C156.568 64.4405 151.889 73.1572 145.398 80.4514C145.13 80.7483 144.935 81.1021 144.825 81.486C144.716 81.8698 144.695 82.2735 144.766 82.6664C144.834 83.053 144.989 83.4191 145.22 83.7368C145.451 84.0545 145.751 84.3154 146.098 84.4996L167.487 95.9383C168.034 96.2295 168.667 96.3174 169.273 96.1865C169.879 96.0556 170.418 95.7142 170.796 95.2233Z" fill="#CCCCCC"/>
<path d="M169.336 94.1287C169.221 94.272 169.06 94.3707 168.88 94.4079C168.699 94.445 168.512 94.4183 168.349 94.3322L146.961 82.8933C146.857 82.8393 146.767 82.762 146.698 82.6674C146.629 82.5729 146.583 82.4637 146.563 82.3485C146.541 82.2268 146.547 82.1016 146.582 81.9827C146.616 81.8638 146.678 81.7545 146.761 81.6633C153.443 74.1543 158.261 65.1807 160.824 55.4685C160.853 55.3485 160.91 55.237 160.99 55.1427C161.07 55.0484 161.171 54.9739 161.285 54.9249C161.392 54.8771 161.509 54.8547 161.626 54.8596C161.743 54.8644 161.858 54.8963 161.961 54.9528L183.349 66.3913C183.511 66.4787 183.637 66.6198 183.706 66.7903C183.775 66.9608 183.782 67.1499 183.726 67.325C180.327 76.9399 175.475 85.9791 169.336 94.1287Z" fill="white"/>
<path d="M161.854 65.8205L176.606 74.4509C178.074 75.3096 179.403 73.0346 177.937 72.1773L163.185 63.5469C161.717 62.6882 160.388 64.9632 161.854 65.8205Z" fill="#CCCCCC"/>
<path d="M159.215 70.6478L173.968 79.2782C175.436 80.1369 176.765 77.8619 175.299 77.0046L160.547 68.3742C159.079 67.5155 157.75 69.7905 159.215 70.6478Z" fill="#CCCCCC"/>
<path d="M157.143 75.4563L170.559 83.4058C171.894 84.1968 173.322 82.5615 171.989 81.7719L158.572 73.8223C157.238 73.0314 155.81 74.6666 157.143 75.4563Z" fill="#CCCCCC"/>
<path d="M153.06 80.3024L167.812 88.9328C169.28 89.7915 170.609 87.5165 169.144 86.6592L154.391 78.0288C152.924 77.1701 151.594 79.4451 153.06 80.3024Z" fill="#CCCCCC"/>
<path d="M127.891 117.915L98.3121 117.739L98.3041 117.529C97.7401 102.716 99.5539 89.2977 103.849 76.5078C103.91 76.0291 103.976 75.5174 104.04 75.0151C104.774 69.293 105.356 64.7498 110.808 63.0579C110.354 62.4551 110.086 61.7329 110.038 60.9802C110.003 60.48 110.069 59.9779 110.231 59.5033C110.393 59.0287 110.648 58.5909 110.981 58.2156C111.299 57.8531 111.687 57.5575 112.121 57.346C112.556 57.1345 113.028 57.0114 113.51 56.9839L124.038 56.626C124.592 56.6223 125.13 56.8045 125.567 57.1433C126.369 57.7376 126.932 58.5973 127.156 59.5685C127.38 60.5396 127.251 61.5588 126.791 62.4433C126.667 62.6897 126.619 62.802 126.601 62.8509C126.976 64.8081 128.086 67.133 129.261 69.5934C130.944 73.1162 132.851 77.1086 133.342 81.3801C133.606 83.6864 133.496 86.0202 133.016 88.2915C132.796 89.5154 132.746 90.7635 132.865 92.0011C132.962 93.8362 133.052 95.5688 132.013 97.2445C131.748 97.6988 131.445 98.1831 131.089 98.7196L129.628 102.208L127.891 117.915Z" fill="#4535AF"/>
<path d="M83.5029 138.645V78.3203C83.5051 76.3546 84.2884 74.47 85.6811 73.08C87.0737 71.69 88.9619 70.9082 90.9313 70.9059H92.9859C94.9554 70.9082 96.8435 71.69 98.2362 73.08C99.6288 74.47 100.412 76.3546 100.414 78.3203V138.645C100.412 140.61 99.6288 142.495 98.2362 143.885C96.8435 145.275 94.9554 146.057 92.9859 146.059H90.9313C88.9619 146.057 87.0737 145.275 85.6811 143.885C84.2884 142.495 83.5051 140.61 83.5029 138.645Z" fill="#272D3D"/>
<path d="M162.823 84.3411C162.611 84.6064 162.42 84.888 162.252 85.1833L131.845 87.3993L127.674 81.2899L117.614 86.3667L123.944 97.8983C124.455 98.8299 125.255 99.5708 126.224 100.01C127.194 100.449 128.279 100.562 129.318 100.333L163.187 92.8598C164.095 93.8026 165.27 94.4469 166.554 94.7072C167.838 94.9675 169.172 94.8313 170.376 94.3169C171.581 93.8024 172.601 92.9341 173.299 91.8272C173.997 90.7204 174.341 89.4277 174.286 88.1209C174.23 86.8141 173.777 85.5552 172.987 84.5117C172.197 83.4682 171.107 82.6894 169.863 82.2791C168.618 81.8688 167.278 81.8463 166.021 82.2147C164.763 82.583 163.648 83.3247 162.823 84.3411Z" fill="#FFB6B6"/>
<path d="M130.821 87.5351L118.391 93.9033C118.037 94.0845 117.649 94.1875 117.251 94.2052C116.854 94.223 116.458 94.1551 116.09 94.0062C115.721 93.8573 115.389 93.6309 115.116 93.3423C114.843 93.0538 114.636 92.71 114.508 92.3343L110.032 79.1683C109.114 77.3608 108.951 75.2642 109.577 73.3369C110.204 71.4095 111.57 69.8084 113.377 68.8837C107.867 71.7066 119.343 63.688 123.723 72.2048L131.808 83.4715C132.039 83.7941 132.198 84.1628 132.274 84.5523C132.35 84.9418 132.34 85.343 132.247 85.7287C132.153 86.1143 131.977 86.4753 131.731 86.787C131.485 87.0987 131.175 87.3539 130.821 87.5351Z" fill="#4535AF"/>
<path d="M112.521 52.415C111.621 52.415 110.628 51.9822 109.509 51.1053C106.216 48.5243 103.862 44.9361 102.808 40.8912C101.755 36.8464 102.06 32.5682 103.677 28.7131C104.49 26.773 106.012 24.136 108.642 22.5907C110.532 21.4803 112.752 21.0791 114.685 20.7903C116.358 20.54 118.053 20.3407 119.721 20.1989C121.714 20.0287 124.016 19.9139 126.116 20.7101C127.655 21.2938 128.965 22.3245 130.231 23.3213C130.672 23.6685 131.129 24.028 131.586 24.3606C132.694 25.2231 133.971 25.8425 135.336 26.1781C135.623 26.2377 135.895 26.3582 136.132 26.5316C136.369 26.705 136.566 26.9271 136.71 27.1831C136.857 27.4432 136.946 27.7318 136.971 28.0292C136.996 28.3266 136.957 28.626 136.857 28.9072C136.659 29.46 136.481 29.9584 136.842 30.4984C136.975 30.6886 137.154 30.8433 137.361 30.9488C137.569 31.0543 137.799 31.1074 138.032 31.1035C138.154 31.1015 138.276 31.1302 138.385 31.187C138.494 31.2437 138.587 31.3267 138.655 31.4284C138.725 31.5292 138.769 31.6455 138.783 31.7671C138.797 31.8887 138.781 32.012 138.737 32.1261L138.679 32.2748C138.834 32.2892 138.983 32.3409 139.113 32.4255C139.243 32.5101 139.351 32.625 139.427 32.7604C139.54 32.9531 139.583 33.1785 139.55 33.3993C139.518 33.6202 139.41 33.8232 139.246 33.9749C137.912 35.2421 136.249 36.1108 134.446 36.4824C133.212 36.724 131.942 36.7211 130.709 36.4738L130.511 36.4353L130.535 36.2158C125.547 34.4403 121.045 37.4535 118.478 40.8983L118.107 40.6647C118.171 40.5363 118.208 40.3964 118.216 40.2534C118.224 40.1104 118.203 39.9672 118.154 39.8325C118.103 39.6708 118.02 39.5209 117.91 39.3913C117.8 39.2617 117.666 39.155 117.515 39.0773C117.209 38.9515 116.873 38.9188 116.548 38.9834C116.224 39.048 115.926 39.207 115.692 39.4403C115.454 39.6895 115.271 39.9854 115.153 40.3092C115.036 40.6331 114.988 40.9777 115.011 41.3213C115.078 42.0494 115.264 42.7617 115.561 43.4302C115.682 43.7499 115.807 44.0808 115.908 44.4142C116.476 46.3083 116.325 48.345 115.483 50.1346C115.094 50.951 114.392 51.992 113.251 52.3147C113.013 52.3817 112.768 52.4155 112.521 52.415Z" fill="#2F2E41"/>
<path d="M355.476 203H0.523535C0.384951 203 0.252183 202.944 0.154331 202.846C0.0564784 202.748 0.00152588 202.616 0.00152588 202.477C0.00152588 202.339 0.0564784 202.206 0.154331 202.109C0.252183 202.011 0.384951 201.955 0.523535 201.955H355.476C355.615 201.955 355.749 202.01 355.847 202.108C355.945 202.206 356 202.339 356 202.477C356 202.616 355.945 202.749 355.847 202.847C355.749 202.945 355.615 203 355.476 203Z" fill="#CACACA"/>
</g>
<defs>
<clipPath id="clip0_275_10787">
<rect width="356" height="203" fill="white"/>
</clipPath>
</defs>
</svg>
