<svg width="222" height="265" viewBox="0 0 222 265" fill="none" xmlns="http://www.w3.org/2000/svg">
<g clip-path="url(#clip0_275_10588)">
<path d="M85.9826 217.502C81.5653 212.939 75.1639 210.322 68.42 210.322L68.1598 210.323C63.7178 210.324 59.3549 209.144 55.5176 206.903L55.1183 206.67L55.4399 206.338C57.1811 204.533 58.6349 202.472 59.7506 200.225C58.9582 200.965 58.0132 201.521 56.9823 201.855C55.9515 202.188 54.86 202.291 53.7853 202.155C52.6505 202.02 51.5612 201.628 50.5989 201.011C49.6366 200.394 48.8264 199.566 48.229 198.59C45.872 194.76 43.0623 189.324 43.0623 185.183C43.0659 181.683 43.7976 178.222 45.2105 175.021C46.6235 171.82 48.6868 168.949 51.2689 166.591C52.9036 165.114 54.2094 163.309 55.101 161.293C55.9925 159.278 56.45 157.096 56.4435 154.891L56.4422 154.578C56.4417 151.675 56.7958 148.783 57.4967 145.967L57.5678 145.682L57.86 145.692C59.7439 145.757 61.6288 145.599 63.4758 145.221C61.7433 145.008 60.0485 144.557 58.4393 143.879L58.1251 143.752L58.2317 143.429C65.5842 138.87 82.1808 141.231 91.814 119.154C99.6251 101.253 127.186 135.045 127.186 154.578C127.186 156.571 125.216 159.205 126.691 160.522C142.626 174.762 131.631 183.906 128.164 193.108C127.342 195.291 129.125 197.688 129.125 200.049C129.125 200.45 129.115 200.864 129.095 201.279L129.064 201.917L128.533 201.563C127.482 200.873 126.507 200.073 125.626 199.175C126.54 201.282 126.971 203.567 126.887 205.862C126.803 208.157 126.206 210.404 125.14 212.438C123.47 215.595 121.854 217.855 120.338 219.155C115.48 223.319 109.219 225.467 102.833 225.16C96.4467 224.852 90.4192 222.113 85.9826 217.502Z" fill="#E6E6E6"/>
<path d="M112.662 265C112.771 265 112.875 264.96 112.957 264.889C113.039 264.818 113.093 264.719 113.108 264.611C113.127 264.476 115.006 250.908 113.319 232.874C111.761 216.22 106.758 192.232 91.7712 172.531C91.7353 172.483 91.6904 172.444 91.6391 172.414C91.5879 172.384 91.5313 172.364 91.4725 172.356C91.4137 172.348 91.3539 172.352 91.2966 172.367C91.2392 172.382 91.1854 172.409 91.1382 172.445C91.0911 172.481 91.0514 172.526 91.0216 172.577C90.9918 172.628 90.9724 172.685 90.9645 172.744C90.9566 172.803 90.9603 172.863 90.9755 172.92C90.9908 172.978 91.0171 173.031 91.0531 173.079C105.911 192.61 110.873 216.422 112.42 232.958C114.097 250.887 112.234 264.35 112.215 264.484C112.205 264.548 112.21 264.613 112.229 264.676C112.247 264.738 112.278 264.795 112.321 264.844C112.363 264.893 112.416 264.932 112.474 264.959C112.533 264.986 112.597 265 112.662 265Z" fill="#272D3D"/>
<path d="M100.432 200.32C100.527 200.32 100.62 200.29 100.697 200.234C100.774 200.178 100.832 200.099 100.861 200.008C100.891 199.917 100.891 199.819 100.861 199.729C100.832 199.638 100.775 199.559 100.698 199.502C96.4272 196.607 91.814 194.255 86.9641 192.5C79.3871 189.721 67.8652 187.202 56.0036 190.984C55.947 191.002 55.8945 191.03 55.849 191.069C55.8036 191.107 55.7662 191.154 55.7388 191.207C55.7115 191.259 55.6948 191.317 55.6898 191.376C55.6847 191.436 55.6914 191.495 55.7094 191.552C55.7274 191.609 55.7564 191.661 55.7947 191.706C55.833 191.752 55.8799 191.789 55.9326 191.817C55.9854 191.844 56.043 191.86 56.1021 191.865C56.1613 191.87 56.2208 191.863 56.2773 191.845C67.8959 188.142 79.209 190.619 86.6537 193.349C91.4256 195.074 95.9648 197.387 100.167 200.234C100.244 200.29 100.337 200.32 100.432 200.32Z" fill="#272D3D"/>
<path d="M121.09 148.784C121.097 148.689 121.073 148.594 121.023 148.512C120.973 148.431 120.898 148.368 120.81 148.332C120.721 148.296 120.624 148.289 120.531 148.312C120.439 148.335 120.356 148.386 120.294 148.459C117.104 152.517 114.429 156.957 112.332 161.676C109.02 169.045 105.682 180.375 108.593 192.498C108.607 192.556 108.632 192.61 108.667 192.658C108.702 192.706 108.746 192.747 108.796 192.778C108.847 192.809 108.903 192.83 108.961 192.839C109.02 192.848 109.08 192.846 109.138 192.832C109.195 192.818 109.25 192.793 109.298 192.758C109.346 192.723 109.386 192.679 109.417 192.628C109.448 192.578 109.469 192.521 109.478 192.463C109.487 192.404 109.485 192.344 109.471 192.286C106.619 180.412 109.901 169.288 113.156 162.047C115.217 157.404 117.847 153.035 120.984 149.042C121.046 148.97 121.083 148.879 121.09 148.784Z" fill="#272D3D"/>
<path d="M208.149 264.521H172.218L172.064 264.241C171.604 263.406 171.161 262.522 170.746 261.613C167.045 253.676 165.481 244.599 164.101 236.59L163.061 230.554C162.935 229.822 163.03 229.07 163.334 228.394C163.637 227.717 164.135 227.146 164.764 226.754C165.393 226.363 166.125 226.168 166.865 226.195C167.605 226.223 168.32 226.47 168.919 226.907C174.379 230.887 179.842 234.863 185.307 238.836C187.376 240.344 189.739 242.089 192.002 243.975C192.221 242.913 192.449 241.848 192.677 240.797C192.835 240.072 193.205 239.41 193.74 238.896C194.275 238.383 194.951 238.041 195.682 237.914C196.412 237.788 197.163 237.883 197.839 238.186C198.516 238.49 199.086 238.989 199.478 239.619L203.682 246.385C206.748 251.325 209.454 256.194 208.903 261.445C208.905 261.509 208.9 261.573 208.888 261.635C208.778 262.498 208.573 263.346 208.278 264.163L208.149 264.521Z" fill="#F0F0F0"/>
<path d="M191.409 123.029L184.475 97.3198C184.178 96.2315 183.466 95.3038 182.492 94.7368C181.518 94.1699 180.36 94.0093 179.269 94.2895C178.705 94.4345 178.176 94.6931 177.715 95.0496C177.253 95.4061 176.869 95.853 176.586 96.363C176.302 96.873 176.126 97.4354 176.066 98.0161C176.007 98.5967 176.066 99.1834 176.241 99.7403L184.261 126.224L188.458 142.523C187.847 142.99 187.394 143.635 187.161 144.369C186.929 145.103 186.927 145.891 187.157 146.626C187.387 147.361 187.837 148.007 188.447 148.477C189.056 148.947 189.795 149.217 190.563 149.251C191.332 149.286 192.092 149.082 192.741 148.669C193.389 148.255 193.895 147.652 194.19 146.94C194.484 146.229 194.553 145.444 194.386 144.692C194.22 143.94 193.826 143.257 193.259 142.737L191.409 123.029Z" fill="#A0616A"/>
<path d="M133.058 117.492L154.127 101.25C155.018 100.559 155.602 99.5453 155.752 98.4272C155.903 97.3091 155.609 96.1764 154.934 95.2735C154.585 94.8065 154.144 94.4155 153.639 94.1246C153.133 93.8337 152.574 93.6489 151.996 93.5815C151.417 93.5141 150.83 93.5654 150.272 93.7324C149.714 93.8994 149.195 94.1786 148.748 94.5529L127.378 112.096L113.945 122.208C113.28 121.821 112.512 121.648 111.746 121.713C110.98 121.778 110.252 122.078 109.662 122.572C109.072 123.065 108.648 123.729 108.447 124.473C108.247 125.216 108.28 126.004 108.542 126.728C108.803 127.452 109.281 128.078 109.911 128.521C110.54 128.963 111.29 129.201 112.059 129.202C112.828 129.202 113.579 128.966 114.209 128.525C114.839 128.083 115.318 127.458 115.581 126.734L133.058 117.492Z" fill="#A0616A"/>
<path d="M150.23 121.226L149.302 142.002L178.462 135.653C175.98 127.305 174.292 125.881 176.158 120.071L150.23 121.226Z" fill="#A0616A"/>
<path d="M168.16 83.1367H158.444L154.271 90.2889L152.283 90.1789C151.311 90.1252 150.337 90.2706 149.423 90.6063C148.508 90.9421 147.672 91.4611 146.965 92.1316C146.257 92.8021 145.694 93.6101 145.309 94.5062C144.924 95.4022 144.725 96.3675 144.725 97.3431L147.175 101.146C147.175 101.146 142.793 108.795 149.105 112.557C149.105 112.557 147.979 119.646 149.105 119.57C150.23 119.494 152.823 118.051 150.23 119.494C147.637 120.937 147.831 121.13 148.166 121.466L148.502 121.802L175.764 126.388C175.764 126.388 176.562 121.094 176.648 120.15C176.734 119.205 176.158 121.514 176.734 119.205C177.31 116.897 178.174 117.763 177.31 116.897C176.446 116.031 182.91 105.306 180.254 101.146L184.512 96.9863C184.512 92.9959 178.113 89.7609 174.13 89.7609H173.619L168.16 83.1367Z" fill="#E6E6E6"/>
<path d="M144.75 256.512H140.817L138.946 241.317L144.75 241.318L144.75 256.512Z" fill="#A0616A"/>
<path d="M132.88 262.324C132.882 262.765 133.057 263.188 133.368 263.5C133.68 263.813 134.101 263.989 134.542 263.992H141.945L142.174 263.516L143.222 261.352L143.627 263.516L143.717 263.992H146.509L146.469 263.513L145.725 254.569L144.751 254.509L140.542 254.259L139.508 254.196V256.866C138.724 257.702 132.567 260.862 132.88 262.324Z" fill="#2F2E41"/>
<path d="M203.197 246.193L199.89 248.325L190.109 236.56L194.991 233.415L203.197 246.193Z" fill="#A0616A"/>
<path d="M196.354 257.514C196.594 257.885 196.97 258.145 197.4 258.239C197.831 258.333 198.281 258.253 198.653 258.017L204.879 254.005L204.815 253.48L204.526 251.092L206.036 252.693L206.369 253.044L208.717 251.531L208.425 251.15L202.968 244.031L202.116 244.509L198.442 246.579L197.538 247.086L198.981 249.332C198.772 250.46 195.301 256.454 196.354 257.514Z" fill="#2F2E41"/>
<path d="M221.543 264.799L99.7667 264.918C99.6452 264.917 99.5288 264.868 99.4431 264.782C99.3574 264.696 99.3093 264.579 99.3093 264.457C99.3093 264.336 99.3574 264.219 99.4431 264.133C99.5288 264.046 99.6452 263.997 99.7667 263.997L221.543 263.878C221.664 263.879 221.78 263.927 221.866 264.014C221.952 264.1 222 264.217 222 264.338C222 264.46 221.952 264.577 221.866 264.663C221.78 264.75 221.664 264.798 221.543 264.799Z" fill="#CACACA"/>
<path d="M178.005 133.307C178.005 133.307 159.365 143.183 149.506 136.445C149.506 136.445 147.349 146.907 146.485 147.773C145.621 148.639 144.244 149.016 145.221 149.982C146.197 150.947 146.741 152.251 144.884 153.908C143.028 155.564 141.177 155.039 142.967 156.744C144.757 158.45 137.555 200.291 137.555 200.291C137.555 200.291 138.707 239.201 137.555 240.378C136.402 241.555 134.862 241.818 136.352 243.273C137.843 244.729 137.843 243.6 137.843 245.607V247.614L138.525 249.609H147.878C147.878 249.609 150.136 246.983 147.878 244.701C145.621 242.42 148.565 241.796 149.254 239.655C149.942 237.515 151.094 239.823 149.942 237.515C148.79 235.206 148.236 235.646 148.225 234.127C148.214 232.609 165.21 173.166 165.21 173.166L167.269 206.067L192.031 242.099L199.32 236.624C199.32 236.624 194.013 229.141 195.254 228.112C196.495 227.084 191.597 225.794 193.141 224.633C194.686 223.473 190.968 222.303 192.369 220.765C193.77 219.227 190.438 215.35 188.507 215.35C186.577 215.35 183.867 208.887 183.867 208.887L187.912 157.834L178.005 133.307Z" fill="#2F2E41"/>
<path d="M158.249 62.1361C158.117 62.3096 157.066 62.2162 155.802 62.0313C153.303 61.6658 152.963 62.1001 151.094 63.8022C148.388 66.2677 149.927 81.3056 148.597 84.5639L148.168 84.881C149.02 84.718 149.857 84.4834 150.669 84.1797C151.129 82.7287 151.589 81.2729 152.052 79.8231C152.49 80.9511 152.765 82.1358 152.869 83.3415C153.513 83.0876 154.152 82.4664 156.84 81.6333C158.193 80.7136 167.985 79.7889 169.244 79.3843C172.438 68.4967 167.29 64.0937 158.249 62.1361Z" fill="#2F2E41"/>
<path d="M161.555 78.9255C166.722 78.9255 170.911 74.7294 170.911 69.5531C170.911 64.3768 166.722 60.1807 161.555 60.1807C156.387 60.1807 152.198 64.3768 152.198 69.5531C152.198 74.7294 156.387 78.9255 161.555 78.9255Z" fill="#A0616A"/>
<path d="M167.445 61.3103C166.918 61.2324 166.411 61.0542 165.95 60.7852C165.722 60.6471 165.537 60.4475 165.417 60.2092C165.296 59.9709 165.245 59.7034 165.269 59.4374C165.385 58.7715 166.136 58.3739 166.81 58.4144C167.48 58.5112 168.117 58.7695 168.667 59.1671C168.606 58.5235 168.332 57.9189 167.887 57.4504C167.442 56.9819 166.854 56.6767 166.215 56.5837C167.101 56.5359 168.022 56.4937 168.841 56.835C169.66 57.1763 170.343 58.0213 170.195 58.8975C171.572 58.7198 172.93 59.681 173.499 60.9499C174.067 62.2188 173.955 63.7089 173.5 65.0232C173.456 65.2245 173.368 65.4138 173.244 65.5782C173.12 65.7427 172.962 65.8784 172.78 65.9763C172.317 66.1525 171.818 65.8571 171.417 65.5659C169.319 64.0445 167.409 62.2782 165.729 60.3043" fill="#2F2E41"/>
<path d="M171.525 79.5171C171.129 79.7041 171.335 80.4001 171.027 80.7117C170.893 80.8437 170.732 80.9442 170.554 81.0061C170.508 80.4252 170.373 79.8549 170.154 79.3151C170.114 79.217 170.047 79.1073 169.944 79.116C169.823 79.1304 169.791 79.2891 169.788 79.4074C169.764 79.9943 169.634 80.572 169.405 81.1128C169.402 81.1186 169.399 81.1273 169.396 81.133C169.307 81.1301 169.215 81.1273 169.128 81.1244C168.46 81.0984 166.979 79.3786 166.651 79.9615C167.809 77.9041 169.221 74.8107 169.437 72.459C169.511 71.9666 169.475 71.4637 169.33 70.9873C169.254 70.7503 169.112 70.5401 168.921 70.3815C168.729 70.2229 168.496 70.1227 168.25 70.0928C168.128 70.0872 168.007 70.1087 167.894 70.1556C167.782 70.2025 167.681 70.2737 167.599 70.3642C167.518 70.4546 167.457 70.562 167.421 70.6787C167.386 70.7954 167.377 70.9185 167.394 71.0393L167.227 71.0162C165.677 69.7523 167.014 67.5563 165.21 66.6878C164.6 66.3935 160.86 67.3775 160.201 67.2043C160.187 66.5082 160.045 65.8206 159.783 65.1758C159.743 65.0776 159.676 64.968 159.573 64.9767C159.452 64.9911 159.42 65.1498 159.417 65.2681C159.393 65.855 159.263 66.4327 159.034 66.9735C158.12 66.8436 157.19 66.8926 156.294 67.1177C155.505 67.3255 154.756 67.6833 153.964 67.8738C153.572 67.994 153.16 68.0329 152.753 67.9883C152.346 67.9436 151.952 67.8163 151.596 67.6141C150.59 66.9388 150.415 65.4441 150.916 64.3418C151.279 63.6345 151.769 63.0005 152.362 62.472C152.814 62.0333 153.284 61.612 153.753 61.1908C154.174 60.8127 154.595 60.4347 155.015 60.0567C155.545 59.5576 156.109 59.0966 156.703 58.6774C157.653 58.0542 158.719 57.6318 159.837 57.4363C160.955 57.2408 162.101 57.2762 163.205 57.5405C164.531 57.8579 166.302 57.4106 167.515 58.031C168.149 58.3571 169.552 59.6066 170.108 60.0509C171.531 61.185 170.568 60.2609 172.124 60.9166C175.836 62.48 174.195 78.2583 171.525 79.5171Z" fill="#2F2E41"/>
<path d="M67.9228 147.926C99.9708 147.926 125.951 121.902 125.951 89.8014C125.951 57.7003 99.9708 31.6772 67.9228 31.6772C35.8748 31.6772 9.89479 57.7003 9.89479 89.8014C9.89479 121.902 35.8748 147.926 67.9228 147.926Z" fill="white"/>
<path d="M67.9228 148.506C35.6068 148.506 9.31562 122.171 9.31562 89.8015C9.31562 57.4319 35.6068 31.0972 67.9228 31.0972C100.239 31.0972 126.53 57.4319 126.53 89.8015C126.53 122.171 100.239 148.506 67.9228 148.506ZM67.9228 32.2575C36.2456 32.2575 10.4741 58.0717 10.4741 89.8015C10.4741 121.531 36.2456 147.345 67.9228 147.345C99.6001 147.345 125.372 121.531 125.372 89.8015C125.372 58.0717 99.6001 32.2575 67.9228 32.2575Z" fill="#4535AF"/>
<path d="M60.0066 120.052C59.0045 120.052 58.0162 119.819 57.12 119.37C56.2238 118.921 55.4443 118.269 54.8433 117.466L39.0123 96.3224C38.5038 95.6431 38.1337 94.8702 37.9234 94.0477C37.7131 93.2252 37.6665 92.3693 37.7864 91.5288C37.9063 90.6883 38.1903 89.8796 38.6222 89.1491C39.0541 88.4185 39.6254 87.7803 40.3036 87.2709C40.9817 86.7615 41.7533 86.3909 42.5745 86.1802C43.3956 85.9695 44.2501 85.9229 45.0892 86.043C45.9283 86.1631 46.7356 86.4475 47.465 86.8801C48.1943 87.3128 48.8315 87.885 49.34 88.5643L59.6972 102.396L86.2981 62.4286C87.2483 61.003 88.7247 60.0136 90.4028 59.6779C92.0809 59.3423 93.8235 59.6879 95.2473 60.6387C96.6712 61.5895 97.6598 63.0677 97.996 64.7484C98.3321 66.4291 97.9882 68.1748 97.0398 69.6016L65.3779 117.173C64.8052 118.033 64.0348 118.744 63.1315 119.244C62.2282 119.745 61.2182 120.021 60.1862 120.05C60.1264 120.051 60.0665 120.052 60.0066 120.052Z" fill="#4535AF"/>
<path d="M127.709 35.309C127.87 34.1978 126.708 33.1085 125.113 32.8761C123.518 32.6437 122.095 33.3561 121.933 34.4674C121.772 35.5786 122.934 36.6679 124.529 36.9003C126.124 37.1327 127.547 36.4203 127.709 35.309Z" fill="#E6E6E6"/>
<path d="M146.696 33.4531C146.857 32.3419 145.695 31.2526 144.101 31.0202C142.506 30.7878 141.082 31.5002 140.921 32.6114C140.759 33.7227 141.921 34.8119 143.516 35.0444C145.111 35.2768 146.535 34.5644 146.696 33.4531Z" fill="#272D3D"/>
<path d="M122.509 19.9116C122.67 18.8003 121.508 17.7111 119.914 17.4787C118.319 17.2462 116.895 17.9587 116.734 19.0699C116.572 20.1812 117.734 21.2704 119.329 21.5029C120.924 21.7353 122.348 21.0228 122.509 19.9116Z" fill="#FF6584"/>
<path d="M114.259 13.6044C114.266 12.5842 113.698 11.7528 112.99 11.7475C112.281 11.7421 111.701 12.5648 111.693 13.5849C111.685 14.6051 112.253 15.4365 112.962 15.4418C113.67 15.4472 114.251 14.6245 114.259 13.6044Z" fill="#E6E6E6"/>
<path d="M111.461 1.85681C111.468 0.836636 110.9 0.00526711 110.192 -9.93818e-05C109.483 -0.00546588 108.903 0.817202 108.895 1.83738C108.887 2.85755 109.455 3.68892 110.164 3.69429C110.872 3.69965 111.453 2.87699 111.461 1.85681Z" fill="#272D3D"/>
<path d="M133.218 22.5316C133.226 21.5114 132.658 20.6801 131.95 20.6747C131.241 20.6693 130.66 21.492 130.653 22.5122C130.645 23.5324 131.213 24.3637 131.922 24.3691C132.63 24.3745 133.211 23.5518 133.218 22.5316Z" fill="#E6E6E6"/>
<path d="M124.043 27.1205C124.05 26.1003 123.482 25.269 122.774 25.2636C122.065 25.2582 121.485 26.0809 121.477 27.1011C121.469 28.1212 122.037 28.9526 122.746 28.958C123.454 28.9633 124.035 28.1407 124.043 27.1205Z" fill="#FF6584"/>
<path d="M136.816 35.602C136.823 34.5818 136.255 33.7504 135.547 33.745C134.838 33.7397 134.258 34.5623 134.25 35.5825C134.242 36.6027 134.81 37.434 135.519 37.4394C136.227 37.4448 136.808 36.6221 136.816 35.602Z" fill="#272D3D"/>
<path d="M18.8138 173.007C18.9752 171.896 17.8132 170.806 16.2184 170.574C14.6237 170.341 13.2 171.054 13.0386 172.165C12.8771 173.276 14.0391 174.366 15.6339 174.598C17.2287 174.83 18.6524 174.118 18.8138 173.007Z" fill="#E6E6E6"/>
<path d="M37.8015 171.151C37.9629 170.04 36.8009 168.95 35.2061 168.718C33.6113 168.485 32.1877 169.198 32.0262 170.309C31.8648 171.42 33.0268 172.51 34.6216 172.742C36.2164 172.975 37.64 172.262 37.8015 171.151Z" fill="#272D3D"/>
<path d="M13.6144 157.609C13.7758 156.498 12.6139 155.409 11.0191 155.176C9.42429 154.944 8.00061 155.656 7.83919 156.768C7.67777 157.879 8.83975 158.968 10.4345 159.201C12.0293 159.433 13.453 158.721 13.6144 157.609Z" fill="#FF6584"/>
<path d="M5.36379 151.302C5.37149 150.282 4.80337 149.451 4.09486 149.445C3.38634 149.44 2.80573 150.263 2.79803 151.283C2.79032 152.303 3.35845 153.134 4.06697 153.14C4.77548 153.145 5.35608 152.322 5.36379 151.302Z" fill="#E6E6E6"/>
<path d="M2.56584 139.555C2.57354 138.534 2.00542 137.703 1.29691 137.698C0.588396 137.692 0.00779157 138.515 8.99917e-05 139.535C-0.00761159 140.555 0.560506 141.387 1.26902 141.392C1.97753 141.397 2.55814 140.575 2.56584 139.555Z" fill="#272D3D"/>
<path d="M24.3236 160.229C24.3313 159.209 23.7632 158.378 23.0547 158.372C22.3462 158.367 21.7656 159.19 21.7579 160.21C21.7502 161.23 22.3183 162.061 23.0268 162.067C23.7353 162.072 24.3159 161.25 24.3236 160.229Z" fill="#E6E6E6"/>
<path d="M15.148 164.818C15.1557 163.798 14.5875 162.967 13.879 162.961C13.1705 162.956 12.5899 163.779 12.5822 164.799C12.5745 165.819 13.1426 166.65 13.8511 166.656C14.5597 166.661 15.1403 165.838 15.148 164.818Z" fill="#FF6584"/>
<path d="M27.9208 173.3C27.9285 172.28 27.3604 171.448 26.6519 171.443C25.9434 171.437 25.3628 172.26 25.3551 173.28C25.3474 174.3 25.9155 175.132 26.624 175.137C27.3325 175.143 27.9131 174.32 27.9208 173.3Z" fill="#272D3D"/>
</g>
<defs>
<clipPath id="clip0_275_10588">
<rect width="222" height="265" fill="white"/>
</clipPath>
</defs>
</svg>
