<svg width="99" height="98" viewBox="0 0 99 98" fill="none" xmlns="http://www.w3.org/2000/svg">
<circle cx="49.5391" cy="49" r="49" fill="#F7F7FC"/>
<path d="M70.3896 69.825H45.8896V36.6671L67.0739 48.2724L70.3896 69.825Z" fill="#2F2E41"/>
<path d="M50.4162 63.9728C59.201 63.9728 66.3225 56.8513 66.3225 48.0664C66.3225 39.2816 59.201 32.16 50.4162 32.16C41.6313 32.16 34.5098 39.2816 34.5098 48.0664C34.5098 56.8513 41.6313 63.9728 50.4162 63.9728Z" fill="#FFB6B6"/>
<path d="M41.2844 66.3251L40.5658 59.061L54.916 56.3777L63.3897 77.0093L48.6528 93.9566L38.1528 73.3251L41.2844 66.3251Z" fill="#FFB6B6"/>
<path d="M84.7307 83.0955C84.552 83.2815 84.3697 83.4657 84.1873 83.6481C83.6089 84.2265 83.0194 84.7884 82.417 85.3336C73.3907 93.5199 61.8094 98 49.5392 98C38.2268 98 27.5002 94.1923 18.822 87.1831C18.8165 87.1794 18.8128 87.1757 18.8073 87.1702C18.5439 86.9584 18.2842 86.7428 18.0244 86.5236C18.0705 86.391 18.1202 86.2602 18.1699 86.1313C20.9607 78.8605 26.4723 75.3034 29.8176 73.7468C31.4755 72.9749 32.601 72.6931 32.601 72.6931L36.5284 65.6194L39.2934 70.7773L41.3307 74.5794L49.6902 90.1765L56.9021 72.2197L59.1365 66.6528L59.7094 65.2271L62.4339 67.3473L65.0128 69.3534L70.2057 70.4992L74.4186 71.4294L80.1402 72.6931C82.4539 74.5776 83.8613 78.1623 84.6478 82.6165C84.6773 82.7749 84.7049 82.9352 84.7307 83.0955Z" fill="#4535AF"/>
<path d="M42.0492 29.9901C43.9868 26.7354 47.5453 24.5024 51.3187 24.1733C55.092 23.8441 58.9834 25.4274 61.4552 28.2974C62.9281 30.0077 63.8939 32.1022 65.3296 33.8438C68.4193 37.5917 73.6877 39.783 75.0373 44.4489C75.6263 46.485 75.3328 48.6588 75.0348 50.7572C74.7794 52.5559 74.524 54.3545 74.2685 56.1532C74.0698 57.5529 73.8791 59.0286 74.404 60.3413C75.0198 61.8815 76.4934 62.8902 77.4462 64.248C79.0674 66.5583 78.9489 69.9407 77.1699 72.1319C76.3984 73.0821 75.3756 73.7988 74.5668 74.7174C73.758 75.6361 73.158 76.8921 73.4968 78.0683C74.1458 80.3214 77.6792 80.8618 78.0668 83.1743C78.2649 84.3565 77.4483 85.5372 76.3783 86.0779C75.3084 86.6185 74.0489 86.6342 72.8588 86.4896C68.3358 85.9398 64.1481 83.1137 61.9459 79.1249C59.7438 75.1361 59.5834 70.0865 61.5281 65.966C63.1252 62.5818 66.0937 59.5913 66.0614 55.8493C66.0438 53.8107 65.1087 51.9066 64.1944 50.0844C62.3229 46.3549 60.4515 42.6255 58.5801 38.896C57.5776 36.8982 56.4142 34.7454 54.3504 33.8872C52.7553 33.2239 50.9456 33.4812 49.2396 33.7525C47.5336 34.0237 45.7264 34.2878 44.1266 33.6361C42.5268 32.9843 41.318 31.0479 42.0803 29.4978" fill="#2F2E41"/>
<path d="M44.8364 30.1601C41.7632 29.1485 38.3159 30.7724 36.2353 33.2501C34.1548 35.7278 33.1456 38.9064 32.1842 41.9956C31.6335 43.7651 31.0828 45.5346 30.5321 47.3041C30.014 48.9687 29.496 50.6333 28.9779 52.2978C28.3686 54.2558 27.7543 56.3358 28.2544 58.3245C28.6159 59.7621 29.5462 61.0676 29.5662 62.5499C29.5871 64.0983 28.6174 65.4577 27.7676 66.7522C26.9178 68.0468 26.1201 69.5848 26.525 71.0795C27.1408 73.353 30.3017 74.6027 30.1284 76.9517C30.0706 77.7356 29.6173 78.4607 29.6255 79.2468C29.636 80.2469 30.419 81.111 31.3363 81.5095C32.2537 81.908 33.2856 81.9296 34.2856 81.912C37.353 81.8581 40.4148 81.4938 43.4092 80.8266C44.5612 80.5698 45.7328 80.255 46.6917 79.5669C47.6507 78.8787 48.3661 77.7387 48.2413 76.565C48.0468 74.736 46.0803 73.6984 45.088 72.1498C44.1133 70.6287 44.1359 68.7015 43.7155 66.9445C43.1379 64.5297 41.7113 62.4216 40.6403 60.1816C36.614 51.7603 38.0235 41.0261 44.0873 33.9296C44.6235 33.3021 45.2092 32.6709 45.4329 31.8765C45.6566 31.0821 45.3682 30.0699 44.5911 29.792" fill="#2F2E41"/>
</svg>
