<svg width="272" height="177" viewBox="0 0 272 177" fill="none" xmlns="http://www.w3.org/2000/svg">
<g clip-path="url(#clip0_557_4708)">
<path d="M10.7691 46.077C10.4053 46.477 9.08514 46.0695 6.45953 45.2382C4.46371 44.6063 4.1563 44.3764 3.96649 44.2115C3.29906 43.6319 3.12415 43.0224 2.46304 40.3299C1.27652 35.4973 1.23981 35.0174 0.630501 33.9919C0.420715 33.6388 -0.109276 32.7964 0.0199509 32.692C0.15274 32.5847 0.726334 33.4623 1.78638 33.7938C2.81956 34.117 3.28461 33.5993 4.16661 33.7311C5.30679 33.9016 5.98475 34.9841 7.04814 36.7362C7.98978 38.2879 8.10826 38.9121 9.42851 41.9951C9.80254 42.8684 10.1037 43.5444 10.3349 44.0786C12.9271 46.4967 15.4979 48.9467 18.0454 51.4179C17.9963 51.3429 17.9501 51.2721 17.91 51.2106C16.7816 49.4789 16.6283 48.5505 16.6446 47.8549C16.6711 46.7279 17.2097 45.8695 18.2856 44.1986C19.34 42.5613 20.3391 41.4809 21.5427 40.1917C23.1206 38.5018 23.9094 37.6568 24.2236 37.7124C26.4676 38.1093 27.0676 53.3809 24.2443 56.1121C24.6406 56.3951 24.9688 56.6915 25.2061 56.983C27.6229 54.301 31.7631 51.3045 36.3495 50.9356C39.177 50.7081 40.7375 51.595 41.2228 51.8996C43.4655 53.3075 44.799 56.1255 44.1293 56.9206C43.5048 57.6621 41.7011 55.9765 38.1661 56.0693C35.6995 56.1341 33.7728 57.0285 32.6289 57.5595C30.2293 58.6734 29.3517 59.7685 27.5825 60.5187C28.4118 61.2018 29.069 62.0543 29.4816 62.8494C29.6245 62.9967 29.7669 63.1447 29.9097 63.2921C31.7352 62.2639 33.7908 61.5097 35.9456 61.3363C38.7732 61.1089 40.3337 61.9957 40.8189 62.3004C42.3305 63.2493 43.4258 64.837 43.7764 66.0159C44.0055 66.0619 44.2175 66.1144 44.4116 66.1711C45.0968 64.6234 47.136 62.9912 49.032 62.1686C52.2956 60.7527 56.5351 61.128 56.9888 62.4745C57.0032 62.5174 57.0069 62.5597 57.0132 62.6021C56.6555 59.717 56.1697 56.8521 55.5628 54.0079C55.5423 54.089 55.5164 54.1712 55.482 54.2577C54.6763 56.2802 52.4993 58.2214 49.5317 59.2285C47.2026 60.0189 46.2271 59.6093 45.9793 59.4948C45.7426 59.3855 44.7201 58.9468 44.4695 58.0746C44.005 56.4574 46.8495 51.6782 48.6436 53.2813C54.4082 58.4318 55.1993 54.2612 55.464 53.5592C54.9739 51.3106 54.4098 49.075 53.7771 46.8521C53.7662 46.8656 53.7567 46.879 53.7454 46.8927C52.486 48.4194 50.0622 49.4949 47.214 49.5424C44.9785 49.5797 44.2481 48.9543 44.0654 48.7864C43.891 48.626 43.128 47.9624 43.1536 47.138C43.2011 45.6094 45.9218 44.3645 48.0985 44.1487C50.1044 43.9498 52.2644 44.5636 53.3359 45.3409C52.8377 43.6762 52.3018 42.0188 51.7302 40.3686C50.2663 40.9662 48.1926 40.8858 46.1554 39.9757C44.4755 39.2251 44.1488 38.5044 44.0712 38.3157C43.997 38.1353 43.6593 37.3748 43.9658 36.769C44.534 35.6457 46.9966 35.6647 48.695 36.2617C49.3945 36.5076 50.0593 36.8858 50.6291 37.3135C49.6161 34.6086 48.5119 31.9231 47.3244 29.2573L48.5145 28.96C50.0316 32.3653 51.3542 35.815 52.4909 39.3029C52.6323 38.28 52.9865 37.1902 53.4528 36.3049C54.8241 33.7017 57.7532 31.7486 58.7437 32.3823C58.9419 32.509 59.0253 32.7154 59.1007 32.9612C59.7079 34.9389 59.2506 37.672 57.6515 40.183C56.3965 42.1539 55.4298 42.4306 55.178 42.4931C54.9654 42.546 54.1447 42.7725 53.47 42.4807C53.9237 44.0346 54.3433 45.5952 54.7258 47.1628C55.1861 46.0204 56.0932 44.8033 57.0526 43.9617C59.2649 42.0209 62.6992 41.2443 63.3974 42.1902C63.537 42.3794 63.541 42.602 63.5235 42.8585C63.3827 44.9224 61.9775 47.3111 59.5856 49.0844C57.7082 50.4761 56.7066 50.3888 56.449 50.3573C56.2974 50.3387 55.8394 50.2931 55.3977 50.0935C55.8077 51.9981 56.166 53.912 56.4758 55.834C57.0953 53.6839 59.1996 51.0017 61.1856 51.855C64.7098 53.3693 68.8524 51.0433 69.3084 52.0604C69.427 52.3251 69.3288 52.5979 69.2153 52.894C68.3022 55.2768 65.7806 57.5856 62.3181 58.8116C59.6006 59.7738 58.451 59.3087 58.1588 59.1784C57.9651 59.092 57.3261 58.8251 56.8501 58.33C57.1923 60.7996 57.4546 63.2818 57.6393 65.7748C58.3741 64.1713 60.4437 62.482 62.3812 61.6109C65.7798 60.0831 70.2248 60.4178 70.7185 61.8218C70.8172 62.1026 70.7394 62.3735 70.6229 62.6774C69.6857 65.1231 67.0976 67.4928 63.5437 68.7512C60.7544 69.7388 59.5744 69.2615 59.2745 69.1277C59.0554 69.03 58.2816 68.7068 57.7881 68.0932C57.8513 69.2457 57.9001 70.4001 57.931 71.5567C57.9398 71.8862 57.9449 72.2156 57.9513 72.545C57.9914 72.6097 58.0263 72.6759 58.0495 72.7451C58.1448 73.0277 58.08 73.2996 57.9682 73.5966C57.9707 73.8058 57.972 74.015 57.9733 74.2242C58.5951 73.6608 59.3369 72.8137 60.2291 71.6067C61.0341 70.5175 61.7985 71.3167 62.2896 72.244C63.0594 72.0726 63.7938 72.1787 64.3713 72.7179C68.244 76.3338 72.5876 74.4155 72.6491 75.4936C72.6668 75.8047 72.5001 76.0521 72.2899 76.3204C70.599 78.4794 67.2795 80.0544 63.3358 80.2204C60.2406 80.3507 59.2069 79.51 58.948 79.2839C58.857 79.2045 58.6532 79.033 58.4324 78.7918C58.2552 78.9333 58.0827 79.0616 57.9096 79.1787C57.8416 81.2486 57.7198 83.316 57.5392 85.3797C57.686 85.3928 57.8264 85.417 57.931 85.4276C59.4302 85.5803 59.9354 83.5586 62.2002 82.82C62.9523 82.5747 64.4013 82.307 65.1649 82.82C65.2749 82.8939 65.65 83.1717 66.2322 83.4126C66.5763 83.5551 66.8392 83.6211 66.9437 83.6497C67.8729 83.9037 68.7336 84.6008 69.3154 85.072C70.4093 85.9579 70.9561 86.4008 71.2129 87.2055C71.2937 87.4588 71.521 88.1711 71.2129 88.8649C71.0673 89.1928 70.7295 89.6804 69.4341 90.1687C68.6641 90.459 66.4185 91.3055 63.7418 90.4058C63.1323 90.2009 63.5976 90.2743 61.2515 89.102C59.4057 88.1797 58.3262 87.7388 58.1682 86.85C58.1126 86.5375 58.1686 86.1565 57.931 86.0203C57.7989 85.9446 57.6393 85.9814 57.4799 86.0387C57.3246 87.6978 57.1306 89.3542 56.8956 91.0073H59.0077C61.8122 91.0073 64.3282 92.5674 65.5736 95.0789L73.4739 111.009C73.9726 112.015 74.2363 113.14 74.2363 114.262V155.225C74.2363 159.264 70.9488 162.55 66.908 162.55H48.4675C44.4266 162.55 41.1391 159.264 41.1391 155.225V117.506C41.1391 116.586 41.3096 115.686 41.6457 114.83L49.1751 95.6558C50.0884 93.3305 52.0662 91.6855 54.4306 91.1762C53.6722 90.2776 52.9127 89.3799 52.1472 88.4848C51.1834 88.9497 50.1231 89.3312 48.9831 89.5991C45.9674 90.3077 44.7942 89.6759 44.4973 89.5024C44.2139 89.3366 42.9852 88.6627 42.777 87.5389C42.7547 87.4185 42.746 87.2966 42.7476 87.1739C39.6585 89.6838 38.0471 90.9209 36.8697 90.5084C35.8576 90.1538 35.2797 88.9916 34.9488 87.9488C34.6033 87.9967 34.2368 88.0458 33.8462 88.098C29.6154 88.6626 27.4834 88.9245 26.6678 87.9228C25.5391 86.5367 26.6104 83.8638 26.9057 83.1272C27.5475 81.526 28.5348 80.5519 29.1481 79.9592C29.9444 79.1896 32.2142 76.9961 35.7877 76.7035C36.5645 76.6399 37.2624 76.6887 37.9733 76.8374C38.221 76.6109 38.4824 76.389 38.7703 76.1783C39.3188 75.7766 39.8605 75.4792 40.4435 75.2468C39.5492 74.2674 38.6524 73.2911 37.7513 72.3188C37.6086 72.3837 37.4732 72.4463 37.3488 72.5041C34.397 73.8743 33.7484 75.2162 30.9097 75.9226C29.6218 76.243 28.1637 76.6059 27.8028 76.0604C27.1616 75.0914 29.8834 71.1041 34.0895 68.4064C33.8059 68.1063 33.5216 67.8071 33.2373 67.5078C32.8527 67.669 32.5138 67.8262 32.2251 67.9602C29.2732 69.3305 28.6247 70.6723 25.7859 71.3787C24.4981 71.6992 23.0401 72.062 22.679 71.5165C22.1069 70.6519 24.2122 67.3835 27.66 64.7727C26.7129 64.4721 25.4571 64.1389 23.8309 64.1816C21.3643 64.2464 19.4376 65.1408 18.2937 65.6718C15.3419 67.0421 14.6933 68.384 11.8546 69.0903C10.5667 69.4108 9.10867 69.7736 8.74772 69.2281C7.79445 67.7875 14.2692 59.671 22.0143 59.048C22.6155 58.9996 23.1559 59.0037 23.6444 59.0398C23.7119 58.928 23.7852 58.8132 23.8624 58.6965C21.2419 58.7807 16.1241 58.0318 11.7681 61.0885C10.5121 61.9699 8.07208 64.0432 3.98857 65.7467C2.68343 66.2911 2.02711 66.5588 1.84639 66.3352C1.19937 65.535 6.57932 58.9489 14.1483 55.7043C17.1492 54.4179 19.0034 54.2962 20.3222 54.4911C20.1189 54.2595 19.9209 54.0204 19.7302 53.7804C16.7829 50.8912 13.7985 48.0323 10.7872 45.2119C10.933 45.6624 10.9281 45.9021 10.7691 46.077ZM48.5913 82.0357C51.9203 80.9585 55.9513 81.5372 57.0024 82.7627C57.1506 81.6766 57.2793 80.5888 57.3855 79.499C55.8689 80.3455 54.2864 80.5723 51.2845 80.9729C50.0059 81.1435 48.9221 81.2855 48.0053 81.3744C47.8821 81.708 47.7508 82.0082 47.5984 82.2954C47.5808 82.3287 47.5618 82.3604 47.5438 82.3933L47.5704 82.4236C47.9122 82.2754 48.2547 82.1446 48.5913 82.0357ZM57.4359 67.4431C57.3409 67.1282 57.339 66.7929 57.4115 66.4473C57.3079 65.1952 57.1786 63.9469 57.0256 62.7023C57.0295 62.8928 56.9691 63.0835 56.8867 63.2901C55.9613 65.6133 53.4607 67.843 50.0521 68.9998C49.4162 69.2156 48.8708 69.3517 48.4009 69.4348C48.6077 69.7948 48.766 70.1456 48.871 70.4701C50.033 69.5371 51.5288 68.8586 53.226 69.5784C53.6879 69.7743 53.962 70.4909 54.2001 71.3478C55.768 71.3749 57.0782 71.7018 57.7022 72.255C57.6988 72.0243 57.7 71.794 57.6938 71.563C57.6587 70.2459 57.5937 68.933 57.5022 67.6243C57.4772 67.5657 57.4547 67.5054 57.4359 67.4431ZM57.6978 74.2176C57.6302 74.3559 57.5562 74.4935 57.4793 74.6306C57.5491 74.5793 57.6205 74.5241 57.6938 74.4643C57.6957 74.3821 57.6962 74.2998 57.6978 74.2176ZM55.0208 91.075C55.2033 91.051 55.3876 91.0336 55.5735 91.0232C56.0027 88.8936 56.399 86.7654 56.7307 84.6331C55.8584 86.0168 54.4347 87.2836 52.6212 88.2442C53.426 89.1855 54.224 90.1298 55.0208 91.075ZM40.9705 75.0582C42.1057 74.6938 43.4379 74.5193 45.2816 74.3053C45.7488 73.6563 46.2304 73.1781 46.5864 72.8341C46.7793 72.6478 47.0753 72.2781 47.4589 71.8457C46.4651 71.5269 44.9819 70.9588 42.886 71.0139C40.9812 71.0639 39.4004 71.6083 38.2515 72.0984C39.1616 73.0812 40.0671 74.0682 40.9705 75.0582ZM34.5366 68.1275C35.6521 67.4537 36.862 66.8768 38.1356 66.4714C38.0118 66.4703 37.8907 66.4666 37.7623 66.47C36.1829 66.5115 34.8264 66.8932 33.7535 67.3018C34.0146 67.577 34.276 67.8517 34.5366 68.1275Z" fill="#E6E6E6"/>
<path d="M160.06 58.7128L138.882 52.5176L133.509 58.7128C133.509 58.7128 114.089 61.036 108.407 73.9427C102.725 86.8494 81.289 152.415 81.289 152.415L109.569 156.933L148.825 125.182C148.825 125.182 161.222 119.497 160.06 105.819C159.396 98.0049 161.303 88.3362 163.06 81.4823C164.502 75.8576 163.025 69.8845 159.156 65.5533L160.06 58.7128Z" fill="#4535AF"/>
<path d="M270.846 172.785C272.214 170.63 272.376 167.967 271.278 165.662L254.971 131.416C253.754 128.86 251.138 127.209 248.306 127.209H42.334C39.5808 127.209 37.076 128.723 35.7973 131.16L18.3183 164.462C17.11 166.764 17.1896 169.467 18.5309 171.694C19.8721 173.921 22.2254 175.257 24.826 175.267L264.584 176.211H264.614C267.156 176.211 269.484 174.931 270.846 172.785Z" fill="white"/>
<path d="M270.846 172.785C272.214 170.63 272.376 167.967 271.278 165.662L254.971 131.416C253.754 128.86 251.138 127.209 248.306 127.209H42.334C39.5808 127.209 37.076 128.723 35.7973 131.16L18.3183 164.462C17.11 166.764 17.1896 169.467 18.5309 171.694C19.8721 173.921 22.2254 175.257 24.826 175.267L264.584 176.211H264.614C267.156 176.211 269.484 174.931 270.846 172.785ZM248.306 127.983C250.84 127.983 253.182 129.462 254.271 131.749L270.579 165.995C271.561 168.058 271.416 170.441 270.192 172.37C268.972 174.291 266.889 175.436 264.614 175.436H264.587L24.829 174.493C22.5014 174.484 20.3951 173.288 19.1947 171.295C17.9942 169.302 17.923 166.882 19.0043 164.822L36.4833 131.519C37.628 129.338 39.8698 127.983 42.334 127.983H248.306Z" fill="#3F3D56"/>
<path d="M224.494 71.2874C227.351 67.4798 231.633 65.8669 234.057 67.6847C236.481 69.5025 236.13 74.062 233.271 77.8706C232.15 79.4076 230.677 80.6539 228.975 81.5053L216.665 97.4855L209.286 91.552L222.204 76.4283C222.546 74.5565 223.331 72.7937 224.494 71.2874Z" fill="#FFB6B6"/>
<path d="M157.228 60.2949C157.228 60.2949 142.038 66.8993 142.099 73.9211C142.16 80.9428 170.12 127.539 170.12 127.539C170.12 127.539 182.13 135.159 186.213 130.777C190.295 126.395 224.244 91.3104 224.244 91.3104L214.995 80.2693L181.41 109.502L157.228 60.2949Z" fill="#4535AF"/>
<path d="M119.674 148.313L115.284 162.253L166.678 165.35L162.288 149.604L119.674 148.313Z" fill="#E6E6E6"/>
<path d="M176.206 146.827L171.816 160.766L223.21 163.864L218.82 148.118L176.206 146.827Z" fill="#E6E6E6"/>
<path d="M49.4553 137.311L45.0648 151.25L96.4595 154.347L92.069 138.601L49.4553 137.311Z" fill="#E6E6E6"/>
<path d="M150.862 137.735L164.182 131.188C164.273 131.143 164.374 131.121 164.476 131.123L195.218 131.786L204.573 96.6707C204.596 96.5835 204.664 96.5155 204.752 96.4927L216.066 93.5426C216.254 93.4937 216.424 93.667 216.371 93.8534L205.155 133.342C205.137 133.407 205.094 133.461 205.036 133.493L193.503 139.869C193.414 139.919 193.319 139.906 193.247 139.859L193.185 139.929C193.061 140.072 192.879 140.151 192.69 140.146L151.124 138.938C150.462 138.919 150.269 138.027 150.862 137.735Z" fill="#3F3D56"/>
<path d="M163.983 127.948C168.743 128.06 172.545 130.605 172.473 133.633C172.402 136.661 168.485 139.025 163.722 138.913C161.819 138.894 159.949 138.42 158.267 137.53L138.102 136.803L138.645 127.353L158.466 129.073C160.189 128.263 162.08 127.877 163.983 127.948Z" fill="#FFB6B6"/>
<path d="M133.846 66.8437C133.846 66.8437 119.641 58.3253 113.96 62.4554C108.278 66.5855 86.5835 116.405 86.5835 116.405C86.5835 116.405 87.3583 130.603 93.2984 131.377C99.2384 132.152 147.534 139.379 147.534 139.379L151.15 125.44L116.542 115.373L133.846 66.8437Z" fill="#4535AF"/>
<path d="M220.291 159.759C202.161 159.759 187.464 155.46 187.464 150.157C187.464 144.853 202.161 140.554 220.291 140.554C238.42 140.554 253.117 144.853 253.117 150.157C253.117 155.46 238.42 159.759 220.291 159.759Z" fill="#3F3D56"/>
<path d="M187.592 149.354C187.592 153.332 201.761 155.358 219.89 155.358C238.02 155.358 253.05 153.332 253.05 149.354C253.05 145.377 238.02 140.954 219.89 140.954C201.761 140.954 187.592 145.377 187.592 149.354Z" fill="#2F2E41"/>
<path d="M245.311 141.954L250.515 144.755C250.515 144.755 250.115 153.558 240.907 153.157C231.7 152.757 227.712 151.157 227.905 150.157C228.097 149.156 227.697 143.955 231.3 144.755C234.903 145.555 240.107 146.355 240.107 146.355L245.311 141.954Z" fill="#4535AF"/>
<path d="M228 148.91C228.668 149.898 232.725 151.201 240.907 151.557C247.717 151.853 249.707 147.118 250.284 144.63L250.515 144.755C250.515 144.755 250.115 153.557 240.907 153.157C231.7 152.757 227.713 151.157 227.905 150.156C227.949 149.924 227.962 149.466 228 148.91Z" fill="#3F3D56"/>
<path d="M228.097 143.154L233.301 145.955C233.301 145.955 232.901 154.758 223.694 154.358C214.486 153.958 210.499 152.357 210.691 151.357C210.883 150.356 210.483 145.155 214.086 145.955C217.689 146.755 222.893 147.556 222.893 147.556L228.097 143.154Z" fill="#4535AF"/>
<path d="M210.787 150.11C211.454 151.098 215.511 152.401 223.694 152.757C230.503 153.053 232.494 148.318 233.07 145.83L233.301 145.955C233.301 145.955 232.901 154.757 223.694 154.357C214.486 153.957 210.499 152.357 210.691 151.356C210.735 151.125 210.748 150.666 210.787 150.11Z" fill="#3F3D56"/>
<path d="M224.094 134.752L229.298 137.553C229.298 137.553 228.898 146.355 219.69 145.955C210.483 145.555 206.495 143.955 206.687 142.954C206.88 141.954 206.479 136.753 210.082 137.553C213.685 138.353 218.889 139.153 218.889 139.153L224.094 134.752Z" fill="#4535AF"/>
<path d="M206.783 141.708C207.451 142.696 211.508 143.999 219.69 144.354C226.499 144.65 228.49 139.915 229.066 137.428L229.298 137.552C229.298 137.552 228.898 146.355 219.69 145.955C210.483 145.555 206.495 143.954 206.687 142.954C206.732 142.722 206.745 142.264 206.783 141.708Z" fill="#3F3D56"/>
<path d="M206.479 140.354L211.684 143.154C211.684 143.154 211.283 151.957 202.076 151.557C192.868 151.157 188.881 149.556 189.073 148.556C189.265 147.556 188.865 142.354 192.468 143.154C196.071 143.955 201.275 144.755 201.275 144.755L206.479 140.354Z" fill="#4535AF"/>
<path d="M189.169 147.309C189.836 148.297 193.893 149.6 202.076 149.956C208.885 150.252 210.876 145.517 211.452 143.029L211.684 143.154C211.684 143.154 211.283 151.957 202.076 151.557C192.868 151.156 188.881 149.556 189.073 148.556C189.118 148.324 189.131 147.865 189.169 147.309Z" fill="#3F3D56"/>
<path d="M241.901 58.1133L249.398 62.148C249.398 62.148 248.821 74.8284 235.558 74.252C222.294 73.6756 216.55 71.3701 216.827 69.9291C217.104 68.4882 216.527 60.9952 221.718 62.148C226.908 63.3007 234.404 64.4535 234.404 64.4535L241.901 58.1133Z" fill="#4535AF"/>
<path d="M216.965 68.1343C217.927 69.5572 223.771 71.4347 235.558 71.9469C245.367 72.3731 248.234 65.5524 249.064 61.9688L249.398 62.1484C249.398 62.1484 248.821 74.8288 235.558 74.2524C222.294 73.676 216.55 71.3705 216.827 69.9295C216.891 69.5957 216.91 68.9351 216.965 68.1343Z" fill="#3F3D56"/>
<path d="M156.524 52.4318C146.086 52.4318 137.624 43.9743 137.624 33.5416C137.624 23.1088 146.086 14.6514 156.524 14.6514C166.962 14.6514 175.424 23.1088 175.424 33.5416C175.424 43.9743 166.962 52.4318 156.524 52.4318Z" fill="#FFB6B6"/>
<path d="M152.07 39.0005L157.216 32.5951L160.263 23.4257C160.263 23.4257 179.491 30.5444 175.302 20.281C171.113 10.0176 157.88 6.0385 147.87 12.2108L143.469 15.6115C143.469 15.6115 153.2 8.42906 148.227 4.91906C143.254 1.40905 144.443 -0.408542 141.268 1.66755C138.092 3.74365 139.316 5.8411 136.105 4.00214C132.895 2.16318 125.879 -0.605939 126.565 1.91793C127.25 4.4418 119.241 9.86837 121.58 13.073C123.919 16.2775 120.834 21.7863 125.829 20.8989C130.823 20.0114 127.57 26.9673 132.249 24.5768C132.249 24.5768 128.157 28.7044 130.661 32.4169C133.164 36.1294 137.474 37.9606 136.431 42.7285C135.388 47.4964 146.862 49.8308 146.862 49.8308L147.595 35.6452C147.595 35.6452 150.738 33.6261 152.07 39.0005Z" fill="#2F2E41"/>
</g>
<defs>
<clipPath id="clip0_557_4708">
<rect width="272" height="175.42" fill="white" transform="matrix(-1 0 0 1 272 0.790039)"/>
</clipPath>
</defs>
</svg>
