<svg width="373" height="418" viewBox="0 0 373 418" fill="none" xmlns="http://www.w3.org/2000/svg">
<g opacity="0.7">
<path d="M208.438 48.5414C208.438 48.5414 214.126 63.0436 217.614 67.9915C221.102 72.9393 201.837 79.7383 195.594 77.3497C189.361 74.9611 193.207 52.2096 193.207 52.2096L208.438 48.5414Z" fill="#0F2E40"/>
<path d="M150.294 200.892L141.612 217.706C136.376 217.1 131.029 216.375 125.571 215.548C125.571 215.548 129.306 199.578 130.73 184.982L150.294 200.892Z" fill="#3F89BC"/>
<path d="M256.298 171.538L241.689 182.244C241.689 182.244 218.314 165.361 215.065 159.834C214.613 159.066 213.734 157.334 212.574 154.945C212.506 154.8 212.429 154.655 212.361 154.51C211.244 152.207 209.871 149.332 208.37 146.116C205.027 139.044 200.993 130.3 197.335 122.358C191.809 110.321 187.152 100.076 187.152 100.076L197.275 76.9744C197.275 76.9744 210.204 81.5639 214.092 89.0454C215.38 91.5363 217.435 97.9685 219.687 105.723C220.847 109.732 222.058 114.075 223.243 118.383C226.646 130.837 229.835 143.139 230.969 146.517L256.298 171.538Z" fill="url(#paint0_linear_224_2524)"/>
<path d="M207.5 148.94C205.897 154.741 205.214 160.977 206.664 167.46C208.788 176.98 211.337 187.499 213.478 196.174C213.87 197.753 214.263 199.271 214.604 200.721C216.659 208.834 218.117 214.447 218.117 214.447C197.206 221.016 171.153 221.161 141.621 217.706C136.385 217.1 131.038 216.375 125.58 215.548C125.58 215.548 129.315 199.578 130.739 184.982C131.302 179.394 131.524 174.02 131.055 169.806C123.755 102.805 146.252 79.7639 146.252 79.7639C146.252 79.7639 159.257 72.3421 174.181 74.5004C189.105 76.6416 192.269 74.5175 197.428 76.8719C198.938 77.5629 199.475 79.7809 200.856 81.9221C203.287 85.6671 206.86 91.1524 208.088 92.8841C210.041 95.6225 219.541 109.161 219.541 118.502C219.541 119.5 219.354 120.601 218.996 121.803C218.458 123.612 217.597 125.634 216.539 127.869C214.092 133.03 210.655 139.24 208.353 146.125C208.046 147.046 207.756 147.984 207.5 148.94Z" fill="url(#paint1_linear_224_2524)"/>
<path d="M223.243 118.383C221.699 126.717 215.013 142.516 212.566 154.937C212.497 154.792 212.421 154.647 212.352 154.502C211.235 152.198 209.862 149.324 208.361 146.107C210.664 139.223 214.101 133.013 216.548 127.852C217.606 125.625 218.476 123.595 219.004 121.786C219.363 120.583 219.55 119.483 219.55 118.485C219.55 109.135 210.05 95.5969 208.097 92.8671C206.869 91.1268 203.296 85.65 200.865 81.905L200.882 81.7003C200.882 81.7003 212.941 93.9846 219.687 105.714C220.846 109.732 222.057 114.074 223.243 118.383Z" fill="url(#paint2_linear_224_2524)"/>
<path d="M271.759 184.47C271.759 184.47 255.189 193.701 242.388 186.168L260.732 180.222L271.759 184.47Z" fill="url(#paint3_linear_224_2524)"/>
<path d="M160.886 417.437C141.741 420.968 95.6296 406.893 94.4613 403.173C93.7279 400.827 97.2841 392.859 99.9875 387.314C101.582 384.09 102.861 381.684 102.861 381.684L122.399 388.509C122.484 389.422 122.732 390.317 123.081 391.196C127.26 401.493 148.12 409.802 154.251 411.96C160.886 414.314 160.886 417.437 160.886 417.437Z" fill="#4535AF"/>
<path d="M123.081 391.204C119.508 390.94 104.038 389.712 99.9873 387.314C101.582 384.09 102.861 381.684 102.861 381.684L122.399 388.509C122.484 389.43 122.732 390.326 123.081 391.204Z" fill="#084360"/>
<path d="M270.437 407.711C266.326 412.207 210.851 409.665 208.898 407.899C207.756 406.875 208.608 399.914 209.521 394.301C210.169 390.309 210.851 386.999 210.851 386.999L231.566 387.596C231.796 388.074 232.069 388.526 232.402 388.969C240.486 400.511 274.385 403.386 270.437 407.711Z" fill="#4535AF"/>
<path d="M232.402 388.961C230.142 390.249 220.181 395.453 209.521 394.301C210.169 390.309 210.851 386.999 210.851 386.999L231.566 387.596C231.796 388.065 232.069 388.517 232.402 388.961Z" fill="#084360"/>
<path d="M233.093 387.732C224.991 390.189 217.137 390.249 209.624 387.34L194.35 299.277L178.01 243.93C178.01 243.93 176.765 281.294 174.812 298.125C172.842 314.948 124.685 390.488 124.685 390.488C115.415 388.986 107.356 386.333 101.778 381.386L135.302 296.957C133.375 281.09 130.518 247.436 128.966 228.625C128.283 220.521 127.866 215.172 127.866 215.172L215.32 214.78H215.491C215.491 214.78 231.123 281.303 231.924 296.172C232.709 311.041 233.093 387.732 233.093 387.732Z" fill="#8C8FA5"/>
<path d="M216.071 217.894C191.177 231.526 133.434 228.856 128.965 228.625C128.283 220.521 127.865 215.172 127.865 215.172L215.32 214.78L216.071 217.894Z" fill="url(#paint4_linear_224_2524)"/>
<path d="M195.586 77.5203C195.586 77.5203 197.386 61.2266 200.158 60.8256C202.929 60.4247 216.455 57.5584 218.041 44.0798C219.627 30.6012 220.557 8.67718 196.78 9.86295C173.004 11.0487 172.603 26.515 170.625 39.9935C168.646 53.4721 174.19 74.4834 174.19 74.4834C174.19 74.4834 174.701 93.3875 189.25 91.1354C200.669 89.361 195.586 77.5203 195.586 77.5203Z" fill="#ECE6B6"/>
<path d="M198.076 27.6069C198.076 27.6069 192.081 40.8126 184.892 44.6514C178.539 48.0381 186.333 69.109 182.018 73.4256C177.703 77.7421 160.357 82.6303 147.104 72.5469C133.86 62.4636 146.09 53.5404 157.321 36.2571C168.552 18.9738 168.586 -0.194753 184.653 5.32464C184.653 5.32464 196.882 -5.70562 215.934 3.98531C225.016 8.60044 221.571 30.9851 221.571 30.9851C221.571 30.9851 207.184 34.3377 198.076 27.6069Z" fill="#0F2E40"/>
<path d="M372.509 142.277L366.198 123.68L68.1606 224.889L74.4799 243.495L306.34 164.747L313.478 185.016L331.924 178.541L324.888 158.477L306.715 164.619L336.708 154.434L343.761 174.651L362.198 168.177L355.18 148.163L372.509 142.277Z" fill="#292D32" fill-opacity="0.8"/>
<path d="M90.376 237.131L84.5599 219.259C77.5072 197.599 54.2428 185.758 32.5816 192.805L28.4796 194.144C6.82697 201.199 -5.00993 224.471 2.03422 246.139L7.85033 264.011C14.903 285.671 38.1675 297.511 59.8286 290.465L63.9306 289.126C85.5833 282.071 97.4287 258.79 90.376 237.131ZM57.5005 268.268L55.1638 269.027C42.8408 273.037 29.5968 266.297 25.5886 253.979L22.2797 243.81C18.2716 231.483 25.0087 218.235 37.3232 214.226L39.6599 213.466C51.9828 209.457 65.2269 216.196 69.235 228.515L72.5439 238.683C76.5521 251.01 69.8149 264.258 57.5005 268.268Z" fill="#292D32" fill-opacity="0.8"/>
<path d="M152.699 175.172C144.196 163.817 134.969 151.183 134.764 149.562C134.389 146.526 160.886 114.348 163.529 110.185C163.93 109.545 164.459 108.751 165.022 107.813C160.101 118.775 150.805 141.279 149.978 156.361C149.56 163.971 151.266 170.855 152.699 175.172Z" fill="url(#paint5_linear_224_2524)"/>
<path d="M214.595 200.721L178.189 210.634L176.441 208.851L213.461 196.175C213.862 197.753 214.254 199.271 214.595 200.721Z" fill="url(#paint6_linear_224_2524)"/>
<path d="M255.862 181.962C255.862 181.962 258.438 168.816 259.717 169.857C260.996 170.898 262.199 175.539 264.433 172.101C266.667 168.663 272.671 155.218 279.63 157.462C286.589 159.706 283.229 168.023 283.229 168.023L267.546 178.047L255.862 181.962Z" fill="#D7CC76"/>
<path d="M260.834 179.574C260.834 179.574 257.389 167.665 261.175 169.994C264.961 172.323 267 176.69 268.748 171.742C270.496 166.795 272.534 158.051 281.855 158.341C291.177 158.631 283.604 174.071 281.276 178.149C281.276 178.149 277.975 184.47 268.944 185.221C259.896 185.972 260.834 179.574 260.834 179.574Z" fill="#ECE6B6"/>
<path d="M165.662 195.1C165.662 195.1 174.411 196.541 178.061 196.618C181.72 196.695 185.532 198.64 184.048 200.508C182.573 202.376 178.522 202.607 178.522 204.475C178.522 206.343 179.844 207.666 179.844 207.666L163.12 213.577L157.287 201.592L165.662 195.1Z" fill="#D7CC76"/>
<path d="M165.661 195.1C165.661 195.1 170.369 197.215 172.714 197.215C175.068 197.215 182.121 197.454 182.121 199.57C182.121 201.685 171.768 200.977 172.475 203.102C173.183 205.217 180.236 208.28 180.944 214.865C181.31 218.269 166.6 229.214 160.954 218.866C155.615 209.082 152.017 203.81 152.017 203.81" fill="#ECE6B6"/>
<path d="M162.386 83.6797C162.386 83.6797 151.598 68.7082 135.702 88.7726C119.797 108.837 91.6206 137.44 99.9354 155.236C108.267 173.031 151.939 205.217 151.939 205.217C159.342 201.165 163.188 198.145 166.821 193.786C166.821 193.786 160.024 184.948 152.69 175.163C144.187 163.809 134.96 151.175 134.755 149.554C134.38 146.517 160.877 114.339 163.52 110.176C163.921 109.536 164.45 108.743 165.013 107.805C165.03 107.779 165.038 107.745 165.055 107.719C166.079 106.03 167.213 103.898 167.963 101.466C167.963 101.449 167.963 101.441 167.981 101.441C168.006 101.372 168.023 101.338 168.023 101.338C168.023 101.338 168.006 101.338 167.998 101.355C169.558 96.1772 169.328 89.7365 162.386 83.6797Z" fill="url(#paint7_linear_224_2524)"/>
<path d="M200.157 60.8257C200.157 60.8257 191.203 60.092 188.584 58.8977L196.899 68.7592C196.908 68.7592 198.545 61.201 200.157 60.8257Z" fill="#D7CC76"/>
</g>
<defs>
<linearGradient id="paint0_linear_224_2524" x1="185.776" y1="179.344" x2="264.8" y2="173.033" gradientUnits="userSpaceOnUse">
<stop stop-color="#4535AF"/>
<stop offset="1" stop-color="#4B30FF" stop-opacity="0.71"/>
</linearGradient>
<linearGradient id="paint1_linear_224_2524" x1="112.217" y1="74.1068" x2="112.217" y2="261.426" gradientUnits="userSpaceOnUse">
<stop stop-color="#4535AF"/>
<stop offset="1" stop-color="#26197B"/>
</linearGradient>
<linearGradient id="paint2_linear_224_2524" x1="197.683" y1="81.7003" x2="197.683" y2="175.767" gradientUnits="userSpaceOnUse">
<stop stop-color="#4535AF"/>
<stop offset="1" stop-color="#26197B"/>
</linearGradient>
<linearGradient id="paint3_linear_224_2524" x1="238.211" y1="180.222" x2="238.211" y2="191.659" gradientUnits="userSpaceOnUse">
<stop stop-color="#4535AF"/>
<stop offset="1" stop-color="#26197B"/>
</linearGradient>
<linearGradient id="paint4_linear_224_2524" x1="115.321" y1="214.78" x2="115.321" y2="233.026" gradientUnits="userSpaceOnUse">
<stop stop-color="#4535AF"/>
<stop offset="1" stop-color="#26197B"/>
</linearGradient>
<linearGradient id="paint5_linear_224_2524" x1="130.457" y1="107.813" x2="130.457" y2="194.33" gradientUnits="userSpaceOnUse">
<stop stop-color="#4535AF"/>
<stop offset="1" stop-color="#26197B"/>
</linearGradient>
<linearGradient id="paint6_linear_224_2524" x1="171.015" y1="196.175" x2="171.015" y2="214.747" gradientUnits="userSpaceOnUse">
<stop stop-color="#4535AF"/>
<stop offset="1" stop-color="#26197B"/>
</linearGradient>
<linearGradient id="paint7_linear_224_2524" x1="97.0325" y1="201.722" x2="177.584" y2="196.292" gradientUnits="userSpaceOnUse">
<stop stop-color="#4535AF"/>
<stop offset="1" stop-color="#4B30FF" stop-opacity="0.71"/>
</linearGradient>
</defs>
</svg>
