<svg width="262" height="504" viewBox="0 0 262 504" fill="none" xmlns="http://www.w3.org/2000/svg">
<g opacity="0.7">
<path d="M91.6615 273.485C91.6615 273.485 68.1026 345.588 67.4532 355.322C66.8038 365.066 56.2324 471.425 56.2324 471.425C66.0494 475.323 75.7423 475.533 85.8171 474.11C85.8171 474.11 102.691 419.574 105.938 396.198C108.44 378.182 110.598 359.64 110.598 359.64L150.076 273.485H91.6615Z" fill="#4535AF"/>
<path d="M244.599 439.854C239.327 447.056 231.019 453.743 222.138 457.068C222.138 457.068 141.644 379.328 140.327 366.986C139.467 358.828 140.479 318.774 141.272 292.542C141.673 279.083 142.017 269.253 142.017 269.253L197.223 262.614L198.971 262.404C198.952 262.557 198.952 262.728 198.932 262.891C197.968 275.109 196.774 287.327 195.323 299.554C192.926 320.188 189.765 340.907 185.601 361.933C185.601 361.933 199.658 376.625 213.667 394.899C230.141 416.335 244.599 439.854 244.599 439.854Z" fill="#4535AF"/>
<path d="M198.951 262.891C197.987 275.109 196.793 287.327 195.342 299.554C188.122 299.239 177.083 298.57 168.584 297.185C154.804 294.959 145.493 286.008 145.493 286.008L141.291 292.542L138.856 297.787L87.0205 288.062L92.9604 267.381L152.197 255.459L197.252 262.614L198.951 262.891Z" fill="#585960"/>
<path d="M261.588 459.828C259.926 464.481 206.83 506.808 202.991 503.169C197.156 497.619 221.231 474.568 223.475 460.812C223.8 458.959 223.714 457.287 223.112 455.854L243.252 440.073C243.252 440.073 246.967 442.872 251.064 446.445C256.45 451.155 262.533 457.182 261.588 459.828Z" fill="#8C8FA5"/>
<path d="M251.064 446.455C245.487 455.358 226.636 460.067 223.475 460.812C223.799 458.959 223.713 457.287 223.112 455.854L243.252 440.073C243.252 440.073 246.967 442.872 251.064 446.455Z" fill="#084360"/>
<path d="M85.2348 500.093C81.0043 502.634 8.35102 504.134 8.27462 498.832C8.16957 491.906 48.3638 484.226 56.5765 472.858C57.1303 472.094 57.541 471.32 57.7893 470.508L83.9934 473.173C83.9934 473.173 84.9579 477.51 85.7696 482.717C86.8773 489.843 87.67 498.622 85.2348 500.093Z" fill="#8C8FA5"/>
<path d="M85.7698 482.707C72.0757 483.586 58.3242 474.1 56.5767 472.858C57.1305 472.094 57.5412 471.32 57.7895 470.508L83.9936 473.173C83.984 473.164 84.9581 477.51 85.7698 482.707Z" fill="#084360"/>
<path d="M244.159 108.234C244.159 108.234 227.17 94.2962 207.813 92.5098C188.456 90.7235 164.535 85.7561 150.544 92.08C136.554 98.4038 118.057 121.426 118.057 121.426L159.158 260.503L192.906 266.349L244.159 108.234Z" fill="#8C8FA5"/>
<path d="M176.844 286.429H27.8701C22.6942 286.429 18.502 282.235 18.502 277.058V131.141C18.502 125.963 22.6942 121.77 27.8701 121.77H176.844C182.02 121.77 186.212 125.963 186.212 131.141V277.048C186.212 282.226 182.02 286.429 176.844 286.429Z" fill="#292D32" fill-opacity="0.8"/>
<path d="M103.245 37.114H100.686C68.1599 37.114 41.7935 63.4793 41.7935 96.0252V121.77H162.147V96.0252C162.157 63.4793 135.771 37.114 103.245 37.114ZM138.626 121.703H66.5747V95.71C66.5747 75.8022 82.7039 59.6774 102.596 59.6774C112.546 59.6774 121.542 63.6991 128.074 70.2331C134.606 76.748 138.626 85.7466 138.626 95.7004V121.703Z" fill="#292D32" fill-opacity="0.8"/>
<path d="M126.747 185.906C126.747 173.258 116.003 162.999 102.749 162.999C89.4938 162.999 78.7505 173.258 78.7505 185.906C78.7505 195.124 84.4707 203.044 92.6929 206.683C92.6069 207.199 92.5497 207.724 92.5497 208.269V246.89C92.5497 252.077 96.7515 256.281 101.937 256.281H103.579C108.765 256.281 112.967 252.077 112.967 246.89V208.269C112.967 207.724 112.909 207.199 112.823 206.683C121.027 203.044 126.747 195.124 126.747 185.906Z" fill="#F7F7FC"/>
<path d="M212.235 72.0863C207.259 76.4901 207.813 92.5099 207.813 92.5099C205.063 99.1299 190.71 96.9328 187.95 93.618C186.375 91.717 186.967 88.5742 187.549 85.4982C187.979 83.1865 188.409 80.9225 187.95 79.2604C187.711 78.4293 187.244 77.9994 186.585 77.7701C184.216 76.8913 179.365 78.4579 174.161 71.5323C167.524 62.7056 173.607 35.643 173.607 35.643C182.984 15.7734 211.204 10.2998 222.166 37.3051C231.831 61.1103 217.21 67.6635 212.235 72.0863Z" fill="#ECE6B6"/>
<path d="M173.826 35.6143C173.826 35.6143 193.384 32.6911 202.886 39.9798C207.317 43.371 204.939 56.4008 206.171 56.4008C207.403 56.4008 213.553 45.3197 216.427 50.2489C219.302 55.1781 212.235 72.0958 212.235 72.0958C212.235 72.0958 227.944 61.6548 227.237 56.9549C226.674 53.2102 236.223 50.8698 231.706 41.4318C227.19 31.9938 238.028 33.8757 229.825 25.6699C221.622 17.4642 230.627 17.8272 223.236 12.4968C215.854 7.15692 217.21 0.097491 208.186 3.79437C199.161 7.49124 196.172 -5.00361 189.602 2.38059C183.032 9.76479 177.073 0.183479 175.02 10.8538C172.967 21.5241 163.923 14.5793 168.431 22.3838C172.948 30.1788 165.795 31.5735 168.67 34.85C171.544 38.1266 173.826 35.6143 173.826 35.6143Z" fill="#0F2E40"/>
<path d="M18.3491 195.965C18.3491 195.965 33.3038 201.945 31.0978 205.757C28.8919 209.568 26.0747 208.565 27.2875 210.781C28.4908 212.988 38.1264 225.244 34.7172 234.271C31.3079 243.308 18.6547 243.107 18.6547 243.107L18.3491 195.965Z" fill="#D7CC76"/>
<path d="M18.5022 186.718C18.5022 186.718 2.54484 192.211 0.147888 207.648C-2.24906 223.085 25.2251 248.018 29.3792 234.539C34.8607 216.78 19.0848 211.316 18.6741 207.648C18.1489 202.948 28.4625 207.667 29.1118 203.731C29.6371 200.598 18.4927 194.685 18.4927 194.685" fill="#ECE6B6"/>
<path d="M144.06 286.362C144.06 286.362 143.363 273.561 152.664 273.676C161.966 273.791 173.721 275.424 171.859 270.887C169.997 266.349 171.506 262.155 172.556 262.509C173.607 262.862 186.518 272.167 186.518 272.167L186.403 286.477L144.06 286.362Z" fill="#D7CC76"/>
<path d="M203.812 206.569C203.812 206.569 197.71 184.378 199.658 170.249C201.606 156.121 210.058 134.57 215.74 119.916C220.667 107.202 235.603 134.064 235.603 134.064L218.07 205.202L203.812 206.569Z" fill="#585960"/>
<path d="M212.092 166.533L205.216 200.923L187.091 270.323C187.091 270.323 174.591 259.691 172.089 262.824C169.587 265.957 179.585 272.826 177.713 275.328C175.842 277.831 151.968 271.106 150.058 279.006C147.89 287.995 151.471 289.218 168.966 292.342C186.47 295.465 192.248 290.278 198.111 283.658C205.245 275.596 233.34 207.801 233.34 207.801C233.34 207.801 242.087 181.541 240.216 170.288C238.344 159.025 220.839 150.275 212.092 166.533Z" fill="#ECE6B6"/>
<path d="M233.359 104.279C226.512 103.801 218.968 110.889 213.973 125.896C208.969 140.904 203.354 171.978 203.354 171.978C215.492 179.716 230.847 184.072 245.325 182.811C245.325 182.811 253.919 138.945 253.451 128.638C252.974 118.579 248.839 105.358 233.359 104.279Z" fill="#8C8FA5"/>
<path d="M187.549 85.4982C187.979 83.1865 188.409 80.9225 187.951 79.2603C187.712 78.4292 187.244 77.9994 186.585 77.7701C188.848 77.751 197.023 77.5982 198.971 76.5474L187.549 85.4982Z" fill="#D7CC76"/>
</g>
</svg>
