<svg width="99" height="98" viewBox="0 0 99 98" fill="none" xmlns="http://www.w3.org/2000/svg">
<g clip-path="url(#clip0_1930_363)">
<circle cx="49.5391" cy="49" r="49" fill="#F7F7FC"/>
<path d="M41.2844 66.3254L40.5658 59.0613L54.916 56.3781L63.3897 77.0096L48.6528 93.957L38.1528 73.3254L41.2844 66.3254Z" fill="#FFB6B6"/>
<path d="M80.3319 87.1224C71.639 94.1703 60.8848 98 49.5393 98C39.1793 98 29.3111 94.8058 21.0566 88.8853C21.0714 88.7305 21.0861 88.5776 21.099 88.4247C21.3182 86.03 21.5135 83.7016 21.6424 81.771C22.1416 74.2755 39.6287 69.2797 39.6287 69.2797C39.6287 69.2797 39.708 69.3589 39.8664 69.4971C40.8316 70.3445 44.7498 73.4171 51.6209 74.2755C57.7477 75.0418 59.7648 71.4074 60.3745 69.6666C60.5587 69.136 60.614 68.7805 60.614 68.7805L78.6003 77.2745C79.7737 78.9508 80.2324 82.5613 80.3227 86.6195C80.3264 86.7871 80.3301 86.9529 80.3319 87.1224Z" fill="#4535AF"/>
<path d="M49.9995 66.3158C58.291 66.3158 65.0126 58.522 65.0126 48.9079C65.0126 39.2938 58.291 31.5 49.9995 31.5C41.7079 31.5 34.9863 39.2938 34.9863 48.9079C34.9863 58.522 41.7079 66.3158 49.9995 66.3158Z" fill="#FFB8B8"/>
<path d="M35.7176 54.3421C35.7176 54.3421 36.9953 51.7511 36.6983 43.0954C36.4012 34.4398 47.8152 39.3353 57.3529 38.5096C66.8905 37.6839 64.8715 52.9605 64.8715 52.9605C64.8715 52.9605 65.5596 52.0523 67.0328 44.6794C68.506 37.3065 65.1611 29.9591 65.1611 29.9591C64.176 22.2116 58.8668 24.6947 58.8668 24.6947C61.4236 25.8441 60.9326 28.3017 60.9326 28.3017C58.7684 23.9199 53.4592 26.403 53.4592 26.403C46.3784 21.272 39.202 28.0289 39.202 28.0289C30.648 30.2708 35.6646 38.1262 35.6646 38.1262C27.0621 43.1463 35.7176 54.3421 35.7176 54.3421Z" fill="#2F2E41"/>
</g>
<defs>
<clipPath id="clip0_1930_363">
<rect width="98" height="98" fill="white" transform="translate(0.539062)"/>
</clipPath>
</defs>
</svg>
