<svg width="272" height="329" viewBox="0 0 272 329" fill="none" xmlns="http://www.w3.org/2000/svg">
<g clip-path="url(#clip0_275_9407)">
<path d="M52.0674 129.029C51.7529 128.538 49.7708 125.446 48.3024 125.759C45.5188 126.353 47.0288 138.659 42.9821 139.887C42.094 140.156 40.844 139.92 38.0521 140.666C36.9414 140.962 36.3656 141.206 36.1868 141.696C35.9331 142.392 36.7003 142.978 37.8398 144.674C39.5485 147.219 39.0231 147.689 40.5258 149.513C41.6414 150.867 42.5168 151.319 42.3452 151.913C42.1024 152.753 40.1925 152.392 39.7338 153.356C39.2658 154.339 40.6247 156.039 41.8 157.078C44.0056 159.028 46.2037 159.216 48.2166 159.855C50.4041 160.55 53.3958 162.102 56.4927 165.983L81.2422 199.41C79.2463 198.655 75.3573 197.104 70.0525 194.453C65.5779 192.216 61.1421 189.669 56.8672 186.882C55.0238 185.68 53.4129 184.562 51.9658 183.52L52.1126 183.596L51.4057 181.044C51.1345 180.029 50.9567 179.201 51.333 178.534C51.5406 178.178 51.9324 177.81 52.3887 177.384C52.9121 176.896 53.5065 176.344 54.0854 175.578C54.622 174.888 54.7441 174.273 54.4761 173.758C54.3852 173.582 54.2657 173.458 54.1398 173.366C54.2837 173.139 54.4476 172.871 54.5934 172.548C54.9023 171.862 54.9779 171.276 55.0325 170.839C55.2568 169.083 54.9718 168.048 54.1822 167.763C53.8484 167.643 53.547 167.698 53.2948 167.816C53.2761 167.456 53.228 167.032 53.0964 166.575C52.6729 165.108 52.0833 164.365 51.2988 164.304C50.2026 164.217 49.6496 165.426 49.0106 166.823C48.7242 167.443 47.9726 169.096 47.5801 169.098C47.5315 169.097 47.3931 169.067 47.2704 169.041C46.9341 168.968 46.4271 168.858 45.6356 168.836C45.192 168.823 44.522 168.804 44.1122 169.352C43.747 169.878 43.9272 170.436 44.093 170.883C44.148 171.03 44.2137 171.205 44.2795 171.418C44.4299 171.902 44.455 172.163 44.4797 172.416C44.5117 172.745 44.5449 173.086 44.7813 173.649C44.8012 173.694 44.8195 173.737 44.8381 173.779C44.616 173.829 44.3832 173.936 44.1876 174.153C43.4515 174.953 44.1382 176.276 44.4651 176.803C45.0531 177.745 45.7982 178.198 46.3974 178.562C46.5485 178.654 46.697 178.744 46.8405 178.842C47.5839 179.347 48.2005 180.113 48.6945 181.097C48.1101 180.653 47.5513 180.225 47.0268 179.823C45.1482 178.381 43.3819 176.975 41.66 175.605C39.8894 174.196 38.1555 172.817 36.3916 171.471L36.5028 170.988L36.0767 171.235C33.2952 169.124 30.4304 167.097 27.214 165.173C27.0822 165.095 26.9262 165.002 26.7655 164.908L26.6124 164.355C26.3411 163.341 26.1634 162.512 26.5397 161.846C26.7473 161.49 27.1391 161.121 27.5955 160.695C28.1188 160.208 28.7131 159.656 29.292 158.889C29.8287 158.2 29.9508 157.585 29.6827 157.07C29.5919 156.894 29.4724 156.77 29.3465 156.678C29.4904 156.451 29.6543 156.182 29.8001 155.86C30.1089 155.174 30.1846 154.587 30.2392 154.15C30.4635 152.394 30.1784 151.36 29.3888 151.074C29.0551 150.954 28.7538 151.009 28.5015 151.128C28.4828 150.767 28.4347 150.343 28.3031 149.887C27.8795 148.42 27.2901 147.677 26.5055 147.615C25.4093 147.529 24.8563 148.737 24.2173 150.134C23.9308 150.755 23.1792 152.408 22.7868 152.409C22.7382 152.409 22.5997 152.379 22.4771 152.352C22.1408 152.279 21.6338 152.169 20.8423 152.147C20.3986 152.135 19.7287 152.115 19.3188 152.664C18.9537 153.189 19.1338 153.748 19.2997 154.195C19.3547 154.342 19.4203 154.517 19.4862 154.729C19.6366 155.213 19.6617 155.474 19.6864 155.727C19.7183 156.056 19.7516 156.398 19.9879 156.96C20.0079 157.006 20.0262 157.049 20.0448 157.09C19.8227 157.141 19.5899 157.248 19.3943 157.465C18.6582 158.264 19.3448 159.588 19.6718 160.114C20.2598 161.057 21.0048 161.51 21.604 161.874C21.7552 161.966 21.9037 162.056 22.0471 162.154C22.4674 162.439 22.8454 162.812 23.1874 163.252C22.0963 162.885 20.8366 162.583 19.416 162.453C17.7183 162.298 15.9984 162.412 14.2839 162.785C14.2718 162.656 14.26 162.529 14.2469 162.389C14.1011 160.815 13.9945 160.163 13.451 159.551C13.1872 159.252 12.783 158.923 11.6276 158.548C10.0261 158.028 8.65439 157.949 8.27106 157.937C6.35653 157.883 4.70291 157.836 3.20159 158.988C2.91512 159.206 2.04516 159.868 1.56763 161.035C1.32319 161.625 1.27911 162.104 1.24374 162.489C1.20641 162.892 1.1829 163.158 0.9563 163.531C0.813274 163.769 0.641207 163.962 0.504461 164.118C0.240381 164.431 -0.255992 165.003 0.160017 165.624C0.259989 165.774 0.38634 165.879 0.529946 165.951C0.453741 166.478 0.500208 167.022 0.761698 167.516C0.995985 167.96 1.39981 168.257 2.48777 168.787C4.15249 169.599 5.49413 169.994 5.76057 170.069C7.48734 170.558 8.35322 170.803 9.28139 170.767C11.2565 170.689 12.6914 170.077 13.5459 168.95C13.5889 168.895 13.6288 168.839 13.667 168.782C14.2659 167.896 14.3307 166.969 14.4342 165.493C14.4538 165.208 14.448 164.88 14.423 164.461C16.0425 164.085 17.6655 163.958 19.263 164.103C22.721 164.42 25.1783 165.889 26.3584 166.595C29.2976 168.353 31.9475 170.208 34.5171 172.138L34.2073 172.318C33.2926 172.837 32.5345 173.218 31.7929 173.024C31.3948 172.914 30.9386 172.63 30.4098 172.297C29.8044 171.916 29.1186 171.482 28.2287 171.118C27.4241 170.775 26.797 170.813 26.3654 171.202C26.2184 171.334 26.1281 171.481 26.0713 171.626C25.8143 171.545 25.5125 171.455 25.1626 171.396C24.4197 171.272 23.8317 171.348 23.3944 171.406C21.6351 171.635 20.7045 172.172 20.6281 173.007C20.5963 173.359 20.7259 173.636 20.9046 173.85C20.5601 173.959 20.1614 174.113 19.752 174.356C18.4376 175.137 17.8664 175.894 18.006 176.667C18.2001 177.747 19.5121 177.974 21.0284 178.236C21.7026 178.356 23.4958 178.662 23.5967 179.04C23.6086 179.087 23.6149 179.228 23.6199 179.353C23.6344 179.696 23.6566 180.214 23.8359 180.983C23.9363 181.415 24.0875 182.066 24.7229 182.323C25.3251 182.542 25.821 182.226 26.2119 181.953C26.3408 181.862 26.4938 181.755 26.6829 181.637C27.114 181.369 27.3606 181.279 27.5996 181.191C27.9105 181.077 28.2334 180.958 28.7186 180.587C28.7578 180.556 28.7944 180.528 28.8302 180.499C28.9357 180.701 29.0984 180.898 29.3583 181.032C30.3199 181.54 31.4287 180.541 31.8564 180.092C32.621 179.286 32.8708 178.452 33.072 177.781C33.1229 177.612 33.1726 177.445 33.2308 177.282C33.5965 176.256 34.3597 175.306 35.5003 174.459L35.7469 174.276L35.9826 173.251C37.5309 174.442 39.0639 175.659 40.625 176.901C42.3528 178.277 44.1271 179.688 46.0134 181.136C48.5145 183.056 51.626 185.445 55.9595 188.271C60.2864 191.091 64.777 193.67 69.309 195.935C73.3452 197.952 76.5778 199.343 78.7957 200.235C72.3325 200.666 63.392 201.178 59.3515 201.251C57.7804 201.279 56.1615 201.255 55.0076 200.17C53.8966 199.126 53.3505 197.225 51.7341 195.24C51.5453 195.008 51.0117 194.369 50.5393 194.482C50.1487 194.575 50.1558 195.097 49.7924 195.19C49.305 195.314 48.8968 194.476 47.8881 193.687C47.1769 193.131 46.5287 192.882 45.9713 192.669C45.8032 192.604 43.2847 191.656 42.8222 192.346C42.4748 192.864 43.5886 193.857 43.2579 194.296C42.9284 194.732 41.7079 193.897 39.8661 193.966C39.534 193.979 37.441 194.057 37.1714 194.867C36.6603 196.401 43.1495 199.213 42.5856 201.548C42.4619 202.061 41.9853 202.605 41.5462 204.188C41.3716 204.817 41.3254 205.169 41.5151 205.398C41.7843 205.724 42.2936 205.517 43.4568 205.448C45.2014 205.345 45.2814 205.739 46.6121 205.529C47.5999 205.373 48.0746 205.075 48.3173 205.33C48.6607 205.692 47.932 206.523 48.2737 207.025C48.6224 207.538 49.8505 207.363 50.7008 207.088C52.2964 206.57 53.0231 205.548 53.9183 204.747C54.8912 203.876 56.5179 202.859 59.3204 202.462L79.1575 200.379C80.3173 200.84 81.1718 201.156 81.6696 201.339C81.9345 201.436 82.1048 201.497 82.1752 201.529L82.438 201.025L82.7324 201.422C82.6411 201.293 82.541 201.15 82.4445 201.012L82.5564 200.797L83.3161 200.461C83.214 200.229 83.1019 200.128 82.7988 199.997L84.3238 199.837C83.8626 199.874 83.3076 199.916 82.7143 199.96C82.5894 199.91 82.436 199.853 82.2443 199.783C82.0209 199.701 81.7181 199.589 81.3554 199.452C75.3391 190.797 62.9643 172.458 58.358 164.952C56.9167 162.603 55.5123 160.136 56.1311 157.427C56.7267 154.819 59.1259 152.302 60.6995 148.093C60.8833 147.601 61.3774 146.226 60.7855 145.613C60.2963 145.106 59.5104 145.582 59.0466 145.115C58.4243 144.489 59.3331 143.126 59.6319 140.9C59.8426 139.331 59.6429 138.13 59.4712 137.098C59.4194 136.786 58.6166 132.137 57.1582 132.053C56.0626 131.989 55.5462 134.556 54.5869 134.446C53.6312 134.337 53.8114 131.75 52.0674 129.029Z" fill="#F2F2F2"/>
<path d="M254.809 237.114L77.647 212.681C71.7177 211.864 66.8238 207.625 65.1788 201.882L24.4895 59.7839C23.1108 54.9678 24.1401 49.9808 27.3136 46.1005C30.4871 42.2201 35.1758 40.2148 40.1825 40.5961L218.673 54.2407C225.13 54.7342 230.551 59.2715 232.162 65.5302L271.522 218.416C272.778 223.295 271.522 228.452 268.162 232.211C265.269 235.448 261.165 237.256 256.888 237.256C256.198 237.256 255.503 237.209 254.809 237.114Z" fill="#E6E6E6"/>
<path d="M210.009 205.324L153.817 197.575C151.937 197.316 150.384 195.971 149.863 194.15L136.957 149.08C136.52 147.552 136.846 145.97 137.853 144.739C138.859 143.509 140.346 142.873 141.934 142.994L198.547 147.321C200.595 147.478 202.315 148.917 202.826 150.902L215.31 199.394C215.708 200.941 215.31 202.577 214.244 203.769C213.326 204.796 212.025 205.37 210.668 205.37C210.45 205.37 210.229 205.355 210.009 205.324Z" fill="white"/>
<path d="M204.982 80.2818L100.671 70.7013C98.0411 70.4598 95.9944 69.2538 96.1089 68.0132C96.2233 66.7727 98.4562 65.9602 101.086 66.2017L205.397 75.7822C208.027 76.0238 210.072 77.2292 209.958 78.4697C209.843 79.7103 207.611 80.5233 204.982 80.2818Z" fill="white"/>
<path d="M210.67 107.638L106.359 98.0574C103.729 97.8158 101.682 96.6099 101.797 95.3693C101.911 94.1287 104.144 93.3163 106.774 93.5578L211.085 103.138C213.714 103.38 215.76 104.585 215.646 105.826C215.531 107.066 213.299 107.879 210.67 107.638Z" fill="white"/>
<path d="M212.678 131.481L108.368 121.901C105.738 121.659 103.691 120.453 103.806 119.213C103.92 117.972 106.153 117.159 108.783 117.401L213.094 126.982C215.723 127.223 217.769 128.428 217.655 129.669C217.54 130.91 215.308 131.723 212.678 131.481Z" fill="white"/>
<path d="M149.826 119.964C152.444 117.118 156.038 116.159 157.853 117.821C159.668 119.484 159.017 123.139 156.397 125.986C155.366 127.137 154.074 128.026 152.629 128.577L141.383 140.497L135.889 135.112L147.559 123.933C147.986 122.448 148.763 121.087 149.826 119.964Z" fill="#FFB6B6"/>
<path d="M85.71 122.617C85.71 122.617 92.2817 116.619 100.146 121.855C108.01 127.092 126.323 140.486 126.323 140.486L139.155 124.606L149.266 133.751C149.266 133.751 131.43 165.098 119.907 158.199C108.383 151.3 82.6575 131.605 83.8256 127.53C84.9936 123.456 85.71 122.617 85.71 122.617Z" fill="#4535AF"/>
<path d="M134.371 268.916L123.9 288.383L115.277 277.97L125.197 264.595L134.371 268.916Z" fill="#FFB6B6"/>
<path d="M127.6 285.692L123.17 309.577C123.17 309.577 120.196 317.86 115.416 309.446C110.637 301.033 101.982 283.625 106.958 280.435C111.933 277.244 117.943 274.667 117.943 274.667L127.6 285.692Z" fill="#2F2E41"/>
<path d="M140.55 290.117L151.596 309.957L137.788 311.61L131.712 295.628L140.55 290.117Z" fill="#FFB6B6"/>
<path d="M82.0027 110.455C82.0027 110.455 80.898 121.477 79.241 122.579C77.584 123.681 98.5813 122.579 98.5813 122.579L92.4969 110.455H82.0027Z" fill="#FFB6B6"/>
<path d="M104.644 125.895L96.9156 119.824H78.0189L65.4328 130.295L73.4415 167.495L69.5752 185.681L118.733 187.335L109.895 170.801C109.895 170.801 120.39 159.779 117.076 152.615C113.762 145.45 104.644 125.895 104.644 125.895Z" fill="#4535AF"/>
<path d="M113.762 182.926L120.942 186.784C120.942 186.784 159.605 223.157 156.291 234.179C152.977 245.201 130.884 276.614 130.884 276.614L120.39 271.103L135.855 237.486L106.305 208.001L122.167 235.901L144.692 294.801L131.436 300.312L97.1917 231.423C97.1917 231.423 69.0229 212.135 67.3659 200.01C65.7089 187.886 69.5752 185.681 69.5752 185.681L113.762 182.926Z" fill="#2F2E41"/>
<path d="M151.32 305.272L169.547 322.356C169.547 322.356 175.07 329.521 165.128 328.97C155.186 328.419 135.302 326.214 135.302 320.152C135.302 314.09 136.407 307.476 136.407 307.476L151.32 305.272Z" fill="#2F2E41"/>
<path d="M87.5259 113.21C94.5419 113.21 100.23 107.535 100.23 100.535C100.23 93.5343 94.5419 87.8593 87.5259 87.8593C80.5099 87.8593 74.8224 93.5343 74.8224 100.535C74.8224 107.535 80.5099 113.21 87.5259 113.21Z" fill="#FFB6B6"/>
<path d="M142.635 151.112L132.166 182.926C131.887 183.774 131.162 184.399 130.28 184.552L110.259 188.026C108.463 188.338 106.979 186.633 107.54 184.903L117.996 152.657C118.278 151.787 119.029 151.15 119.935 151.012L139.971 147.97C141.755 147.699 143.198 149.401 142.635 151.112Z" fill="white"/>
<path d="M109.834 188.614C108.982 188.614 108.172 188.251 107.599 187.591C106.909 186.8 106.691 185.731 107.015 184.734L117.47 152.487C117.819 151.411 118.732 150.637 119.852 150.468L139.888 147.426C140.916 147.269 141.932 147.649 142.605 148.442C143.277 149.235 143.485 150.297 143.16 151.284L132.69 183.097C132.347 184.141 131.46 184.906 130.375 185.095L110.353 188.569C110.179 188.599 110.006 188.614 109.834 188.614ZM140.34 148.493C140.245 148.493 140.15 148.5 140.054 148.515L120.018 151.557C119.314 151.664 118.741 152.15 118.522 152.826L108.093 184.989C107.902 185.579 107.964 186.242 108.332 186.742C108.761 187.327 109.46 187.603 110.164 187.483L118.198 186.089C126.256 184.691 132.885 178.973 135.437 171.22L142.091 151C142.258 150.491 142.237 149.923 141.973 149.457C141.624 148.843 141.003 148.493 140.34 148.493Z" fill="#3F3D56"/>
<path d="M112.072 175.896C115.941 176.039 119.004 178.147 118.912 180.604C118.82 183.061 115.61 184.936 111.739 184.793C110.192 184.756 108.676 184.351 107.319 183.611L90.9319 182.798L91.4778 175.134L107.574 176.748C108.984 176.11 110.526 175.818 112.072 175.896Z" fill="#FFB6B6"/>
<path d="M68.4706 128.917C68.4706 128.917 77.3078 130.019 78.4125 139.388C79.5172 148.757 81.1741 171.352 81.1741 171.352L101.61 170.801L101.191 184.412C101.191 184.412 65.7089 191.192 63.4996 177.966C61.2903 164.739 59.6333 132.428 63.4996 130.672C67.3659 128.917 68.4706 128.917 68.4706 128.917Z" fill="#4535AF"/>
<path d="M183.228 40.4594L178.682 38.3108C180.547 40.907 182.153 44.9616 183.013 48.1881C184.47 45.1826 186.817 41.5053 189.141 39.3086L184.337 40.5418C187.297 26.0653 198.432 15.6726 211.182 15.6726L211.363 15.1497C198.044 15.1497 186.251 25.3984 183.228 40.4594Z" fill="#3F3D56"/>
<path d="M204.15 62.5169H175.429C174.21 62.5169 173.219 61.528 173.219 60.3125C173.219 59.097 174.21 58.108 175.429 58.108H204.15C205.368 58.108 206.359 59.097 206.359 60.3125C206.359 61.528 205.368 62.5169 204.15 62.5169Z" fill="#4535AF"/>
<path d="M138.859 156.03L120.025 157.614C119.55 157.654 119.131 157.301 119.091 156.827C119.051 156.353 119.405 155.935 119.88 155.895L138.714 154.312C139.189 154.272 139.608 154.625 139.648 155.099C139.688 155.572 139.334 155.99 138.859 156.03Z" fill="#3F3D56"/>
<path d="M137.203 161.541L118.368 163.125C117.893 163.165 117.474 162.812 117.434 162.338C117.394 161.864 117.748 161.447 118.223 161.407L137.057 159.823C137.532 159.783 137.951 160.136 137.991 160.61C138.031 161.084 137.677 161.501 137.203 161.541Z" fill="#3F3D56"/>
<path d="M135.546 167.053L116.711 168.636C116.236 168.676 115.817 168.323 115.777 167.849C115.737 167.375 116.091 166.958 116.566 166.918L135.4 165.334C135.875 165.294 136.294 165.647 136.334 166.121C136.374 166.595 136.02 167.013 135.546 167.053Z" fill="#3F3D56"/>
<path d="M84.1261 105.092L93.0133 94.9107L91.5318 90.616L96.3027 95.1396L98.7653 94.4722C98.7653 94.4722 98.744 85.7529 91.7663 85.359C84.7885 84.9652 79.7832 85.6986 79.7832 85.6986C79.7832 85.6986 69.8062 88.8182 69.4161 91.209C69.026 93.5999 63.4367 96.7767 63.4367 96.7767C63.4367 96.7767 58.5871 100.376 60.8542 106.409C63.1212 112.443 68.2943 119.973 64.7134 123.644C61.1325 127.315 56.0722 130.141 58.5378 131.55C61.0034 132.959 65.4507 126.353 69.501 128.994C73.5513 131.636 80.3953 142.245 86.8152 136.766C93.235 131.286 94.4221 124.94 94.4221 124.94L84.1766 114.838C84.1766 114.838 77.9694 104.273 84.1261 105.092Z" fill="#2F2E41"/>
<path d="M225.364 2.54719H197.446C196.742 2.54719 196.169 1.97575 196.169 1.27346C196.169 0.57117 196.742 0 197.446 0H225.364C226.068 0 226.641 0.571175 226.641 1.27347C226.641 1.97576 226.068 2.54719 225.364 2.54719Z" fill="#3F3D56"/>
<path d="M240.346 16.1356H182.465C181.761 16.1356 181.188 15.5642 181.188 14.8619C181.188 14.1596 181.761 13.5884 182.465 13.5884H240.346C241.049 13.5884 241.622 14.1596 241.622 14.8619C241.622 15.5642 241.049 16.1356 240.346 16.1356Z" fill="#3F3D56"/>
</g>
<defs>
<clipPath id="clip0_275_9407">
<rect width="272" height="329" fill="white"/>
</clipPath>
</defs>
</svg>
