<svg width="224" height="179" viewBox="0 0 224 179" fill="none" xmlns="http://www.w3.org/2000/svg">
<g clip-path="url(#clip0_217_2958)">
<path d="M149.67 39.2084C149.637 39.214 149.588 39.2223 149.528 39.2322C148.362 39.4257 141.315 40.516 134.21 37.802C131.2 36.6523 132.227 36.3657 125.523 32.3685C117.664 27.6823 115.647 27.715 115.061 25.5299C113.893 21.1666 120.133 14.3074 124.263 14.759C125.351 14.8779 126.515 15.528 128.327 15.0872C128.725 14.9903 130.467 14.5664 131.316 13.1204C132.074 11.8305 131.432 10.9 131.737 9.8421C132.537 7.06522 139.203 5.67942 145.048 6.65856C148.41 7.22174 151.025 8.75923 156.117 11.8112C164.981 17.1233 169.413 19.7794 170.409 23.8487C171.353 27.7057 169.087 29.3677 170.735 33.4965C172.269 37.3409 174.706 37.0841 175.545 40.1941C176.894 45.1987 171.885 50.6912 169.799 52.9792C167.511 55.4877 165.323 56.8645 162.419 58.6923C158.773 60.9864 156.95 62.1335 154.759 62.0168C150.785 61.8052 138.978 62.5255 138.824 59.2284C138.766 57.9927 124.446 59.0045 131.497 45.7014C132.362 44.0697 149.305 45.8126 149.529 44.8752" fill="#2F2E41"/>
<path d="M156.527 47.7211L168.706 65.9368L133.747 73.0258L135.973 50.2204L156.527 47.7211Z" fill="#FFB6B6"/>
<path opacity="0.1" d="M156.527 47.7211L168.706 65.9368L133.747 73.0258L135.973 50.2204L156.527 47.7211Z" fill="black"/>
<path d="M131.128 61.2107L168.834 59.6354L185.592 68.8249L184.806 127.9L202.35 161.245L113.846 144.441L120.654 119.236L117.512 66.1993L131.128 61.2107Z" fill="#4535AF"/>
<path d="M1.01545 175.975C-0.188325 174.073 -0.330488 171.722 0.635241 169.687L14.9861 139.452C16.0572 137.195 18.3596 135.737 20.8519 135.737H202.115C204.538 135.737 206.742 137.074 207.867 139.225L223.249 168.627C224.313 170.66 224.243 173.047 223.062 175.013C221.882 176.979 219.811 178.158 217.522 178.167L6.5265 179H6.50009C4.26333 179 2.21435 177.871 1.01545 175.975Z" fill="white"/>
<path d="M1.01545 175.975C-0.188325 174.073 -0.330488 171.722 0.635241 169.687L14.9861 139.452C16.0572 137.195 18.3596 135.737 20.8519 135.737H202.115C204.538 135.737 206.742 137.074 207.867 139.225L223.249 168.627C224.313 170.66 224.243 173.047 223.062 175.013C221.882 176.979 219.811 178.158 217.522 178.167L6.5265 179H6.50009C4.26333 179 2.21435 177.871 1.01545 175.975ZM20.8519 136.421C18.6212 136.421 16.5605 137.726 15.6018 139.746L1.25095 169.981C0.386541 171.802 0.513721 173.906 1.59121 175.609C2.66436 177.306 4.49805 178.316 6.5002 178.316H6.52384L217.52 177.483C219.568 177.475 221.422 176.42 222.478 174.66C223.535 172.9 223.597 170.764 222.646 168.945L207.264 139.543C206.256 137.617 204.283 136.421 202.115 136.421H20.8519Z" fill="#4535AF"/>
<path d="M185.239 167.441L110.436 162.285C109.332 162.208 108.451 161.462 108.193 160.383C107.934 159.303 108.38 158.237 109.329 157.666L125.87 147.714C126.29 147.461 126.772 147.339 127.26 147.362L191.964 150.311C192.819 150.35 193.583 150.818 194.008 151.564C194.432 152.31 194.445 153.208 194.044 153.966L187.602 166.126C187.169 166.942 186.322 167.447 185.409 167.447C185.352 167.447 185.296 167.445 185.239 167.441Z" fill="#3F3D56"/>
<path d="M109.788 159.276L184.283 164.396L190.174 151.662L126.298 149.15L109.788 159.276Z" fill="white"/>
<path d="M146.446 53.8571C158.809 53.8571 168.832 43.8074 168.832 31.4105C168.832 19.0136 158.809 8.96393 146.446 8.96393C134.083 8.96393 124.061 19.0136 124.061 31.4105C124.061 43.8074 134.083 53.8571 146.446 53.8571Z" fill="#FFB6B6"/>
<path d="M153.656 32.8631C153.624 32.8687 153.574 32.877 153.515 32.8869C152.349 33.0804 145.302 34.1707 138.197 31.4567C135.187 30.307 136.213 30.0205 129.51 26.0233C121.65 21.337 119.633 21.3698 119.048 19.1846C117.879 14.8213 124.12 7.96209 128.25 8.4137C129.338 8.53261 130.502 9.18269 132.314 8.74189C132.712 8.64505 134.454 8.22111 135.303 6.77514C136.061 5.48523 135.419 4.55473 135.724 3.49682C136.523 0.719947 143.19 -0.665861 149.035 0.313287C152.397 0.87646 155.012 2.41395 160.104 5.46595C168.968 10.778 173.399 13.4341 174.395 17.5034C175.339 21.3605 173.074 23.0224 174.721 27.1512C176.256 30.9956 178.693 30.7389 179.532 33.8488C180.881 38.8534 175.872 44.3459 173.786 46.6339C171.498 49.1425 169.31 50.5192 166.406 52.347C162.76 54.6411 160.937 55.7882 158.745 55.6715C154.772 55.4599 150.82 51.8492 150.666 48.5521C150.608 47.3164 151.122 46.9459 152.394 42.698C152.925 40.9283 153.292 39.4673 153.516 38.5299" fill="#2F2E41"/>
<path d="M168.999 153.126C170.44 153.183 171.536 154.477 171.615 155.879C171.697 157.334 170.688 158.674 169.476 159.367C168.056 160.179 166.284 160.309 164.685 160.169C163.247 160.044 161.682 159.595 160.757 158.404C159.978 157.402 159.692 155.889 160.354 154.751C161.011 153.624 162.407 153.312 163.575 153.765C164.811 154.244 165.589 155.371 165.596 156.703C165.605 158.18 164.755 159.544 163.561 160.361C162.274 161.241 160.654 161.525 159.121 161.521C157.452 161.517 155.79 161.166 154.254 160.513C152.815 159.902 151.377 159.021 150.348 157.823C149.383 156.7 148.806 155.142 149.341 153.685C149.781 152.491 150.89 151.759 152.161 151.86C153.324 151.952 154.501 152.629 155.017 153.707C155.6 154.923 155.338 156.382 154.596 157.469C153.74 158.725 152.387 159.43 150.885 159.532C149.286 159.641 147.702 159.071 146.386 158.19C145.168 157.374 144.098 156.33 142.79 155.652C142.16 155.325 141.475 155.117 140.763 155.118C139.855 155.119 138.983 155.418 138.101 155.592C137.353 155.739 136.582 155.824 135.844 155.584C135.212 155.379 134.621 155.004 134.223 154.465C133.847 153.955 133.715 153.316 133.928 152.71C134.095 152.236 134.854 152.44 134.686 152.92C134.296 154.027 135.633 154.84 136.569 154.942C137.279 155.019 138.012 154.813 138.697 154.652C139.411 154.485 140.141 154.314 140.88 154.332C143.495 154.396 145.224 156.638 147.333 157.855C149.55 159.133 152.797 159.223 154.155 156.681C154.648 155.758 154.75 154.532 154.072 153.669C153.508 152.951 152.506 152.521 151.597 152.66C150.456 152.835 149.887 153.925 149.929 155.008C149.979 156.335 150.901 157.412 151.884 158.206C154.072 159.974 156.974 160.874 159.773 160.716C161.086 160.642 162.482 160.299 163.502 159.423C164.383 158.665 164.985 157.433 164.773 156.254C164.59 155.232 163.736 154.458 162.703 154.355C161.648 154.25 160.823 155.001 160.776 156.059C160.723 157.248 161.427 158.241 162.449 158.783C163.605 159.396 165.007 159.472 166.289 159.405C167.65 159.334 169.069 158.975 170.021 157.935C170.833 157.049 171.141 155.734 170.393 154.708C170.062 154.255 169.565 153.936 168.999 153.914C168.496 153.894 168.493 153.106 168.999 153.126Z" fill="#4535AF"/>
<path d="M133.198 152.282L133.599 149.799L155.822 107.207C156.19 106.502 157.062 106.228 157.766 106.597C158.47 106.967 158.742 107.841 158.374 108.546L136.16 151.119L134.344 152.884C134.13 153.091 133.82 153.136 133.555 152.997C133.291 152.859 133.151 152.578 133.198 152.282Z" fill="#3F3D56"/>
<path d="M148.347 125.185C150.854 125.658 153.212 126.727 155.223 128.301L155.336 128.325L155.359 128.212L179.58 132.016L177.825 99.7124L196.182 89.631L191.843 144.236C190.903 147.723 187.294 149.76 183.834 148.755L153.001 139.863L153.078 139.482L152.97 139.453C150.506 140.12 147.919 140.184 145.425 139.642C139.167 138.372 134.749 134.106 135.555 130.113C136.362 126.12 142.087 123.914 148.347 125.185Z" fill="#FFB6B6"/>
<path d="M164.906 74.6012L185.592 68.825C185.592 68.825 196.458 76.833 197.768 85.4974C197.923 86.5278 198.355 134.529 197.899 135.777C194.515 145.024 175.904 130.263 175.904 130.263L164.906 74.6012Z" fill="#4535AF"/>
<path d="M75.1813 160.875L73.0368 159.032C72.7176 158.757 72.3293 158.575 71.9141 158.506L24.132 150.52C23.0414 150.338 22.2358 149.548 22.0295 148.459C21.8232 147.37 22.284 146.339 23.2322 145.768L40.2787 135.513C40.8484 135.17 41.5188 135.062 42.1674 135.209L102.751 148.934C103.929 149.2 104.715 150.155 104.754 151.365C104.792 152.575 104.069 153.578 102.91 153.92L77.5791 161.39C77.3387 161.461 77.0936 161.496 76.8506 161.496C76.2459 161.496 75.6542 161.281 75.1813 160.875Z" fill="#3F3D56"/>
<path d="M52.1706 101.316C54.539 102.267 56.6459 103.773 58.3149 105.708L58.4212 105.754L58.4655 105.648L81.4939 114.082L106.082 74.1621L119.675 82.6095L91.1657 128.451C89.5705 131.69 85.6363 132.987 82.4352 131.33L53.9031 116.62L54.0521 116.262L53.9519 116.212C51.4058 116.388 48.8548 115.949 46.5124 114.933C40.6187 112.473 37.1074 107.429 38.6696 103.668C40.2317 99.9075 46.2751 98.8542 52.1706 101.316Z" fill="#FFB6B6"/>
<path d="M132.458 81.3689L121.583 65.0615C121.583 65.0615 108.641 67.63 103.31 74.574C102.644 75.4421 79.7537 108.73 79.6063 110.183C78.574 120.352 104.882 125.117 104.882 125.117L132.458 81.3689Z" fill="#4535AF"/>
<path d="M73.998 161.365L19.2249 153.774C17.3918 153.52 15.8787 152.203 15.3701 150.418L2.79023 106.269C2.36397 104.772 2.68219 103.223 3.66334 102.017C4.64449 100.812 6.0941 100.188 7.64202 100.307L62.8258 104.546C64.8223 104.7 66.4982 106.109 66.9964 108.054L79.1654 155.555C79.5537 157.071 79.1654 158.673 78.1265 159.841C77.2319 160.847 75.9633 161.409 74.6409 161.409C74.4277 161.409 74.2127 161.394 73.998 161.365Z" fill="#3F3D56"/>
<path d="M61.7889 70.934C62.109 71.2871 63.2708 70.9273 65.5814 70.1934C67.3378 69.6355 67.6084 69.4325 67.7754 69.287C68.3628 68.7753 68.5167 68.2372 69.0985 65.86C70.1427 61.5934 70.175 61.1697 70.7112 60.2643C70.8958 59.9525 71.3622 59.2088 71.2485 59.1166C71.1316 59.0219 70.6269 59.7967 69.694 60.0894C68.7848 60.3747 68.3755 59.9177 67.5993 60.034C66.5959 60.1845 65.9993 61.1402 65.0634 62.6872C64.2348 64.0571 64.1305 64.6082 62.9686 67.3301C62.6395 68.1012 62.3744 68.698 62.1709 69.1697C59.8898 71.3045 57.6273 73.4676 55.3854 75.6494C55.4286 75.5831 55.4693 75.5206 55.5046 75.4663C56.4976 73.9374 56.6326 73.1178 56.6182 72.5036C56.5949 71.5086 56.1209 70.7508 55.174 69.2756C54.2461 67.83 53.3669 66.8762 52.3077 65.7379C50.9191 64.246 50.2249 63.4999 49.9484 63.549C47.9736 63.8995 47.4455 77.3825 49.9302 79.7938C49.5814 80.0436 49.2926 80.3053 49.0838 80.5627C46.9569 78.1948 43.3134 75.5493 39.2771 75.2236C36.7889 75.0227 35.4155 75.8057 34.9885 76.0747C33.0148 77.3177 31.8412 79.8056 32.4306 80.5076C32.9802 81.1622 34.5675 79.674 37.6785 79.756C39.8492 79.8132 41.5448 80.6029 42.5514 81.0717C44.6631 82.0551 45.4355 83.0219 46.9924 83.6843C46.2626 84.2874 45.6843 85.04 45.3212 85.7421C45.1954 85.872 45.0701 86.0027 44.9444 86.1329C43.3379 85.2251 41.5288 84.5592 39.6326 84.4062C37.1442 84.2053 35.7709 84.9883 35.3439 85.2573C34.0137 86.095 33.0497 87.4968 32.7412 88.5377C32.5396 88.5783 32.353 88.6247 32.1822 88.6747C31.5791 87.3083 29.7846 85.8672 28.1161 85.141C25.2439 83.8909 21.513 84.2222 21.1138 85.411C21.1011 85.4489 21.0979 85.4862 21.0923 85.5237C21.4071 82.9765 21.8346 80.4471 22.3687 77.9361C22.3868 78.0077 22.4095 78.0802 22.4398 78.1565C23.1488 79.9422 25.0647 81.6561 27.6763 82.5452C29.726 83.2431 30.5845 82.8814 30.8026 82.7803C31.0109 82.6838 31.9107 82.2965 32.1312 81.5264C32.54 80.0987 30.0368 75.8792 28.4578 77.2945C23.3848 81.8418 22.6886 78.1596 22.4556 77.5398C22.8869 75.5547 23.3834 73.5808 23.9402 71.6183C23.9498 71.6303 23.9581 71.6421 23.9681 71.6542C25.0764 73.002 27.2094 73.9516 29.716 73.9935C31.6833 74.0265 32.3261 73.4743 32.4868 73.3261C32.6403 73.1845 33.3118 72.5986 33.2892 71.8707C33.2474 70.5212 30.8532 69.4221 28.9376 69.2315C27.1723 69.0559 25.2714 69.5978 24.3285 70.2841C24.7669 68.8144 25.2385 67.3511 25.7415 65.8941C27.0298 66.4218 28.8548 66.3508 30.6475 65.5472C32.126 64.8846 32.4134 64.2483 32.4818 64.0816C32.5471 63.9224 32.8443 63.251 32.5745 62.7161C32.0745 61.7244 29.9073 61.7412 28.4127 62.2682C27.797 62.4853 27.212 62.8193 26.7105 63.1968C27.602 60.8088 28.5737 58.4377 29.6188 56.0842L28.5714 55.8217C27.2364 58.8282 26.0724 61.8739 25.0721 64.9533C24.9477 64.0501 24.636 63.088 24.2256 62.3064C23.0188 60.008 20.4411 58.2837 19.5694 58.8431C19.395 58.9551 19.3216 59.1373 19.2553 59.3543C18.7209 61.1003 19.1233 63.5133 20.5306 65.7303C21.6351 67.4703 22.4857 67.7146 22.7073 67.7698C22.8944 67.8165 23.6167 68.0165 24.2104 67.7589C23.8111 69.1308 23.442 70.5086 23.1053 71.8926C22.7002 70.884 21.9019 69.8095 21.0576 69.0664C19.1107 67.353 16.0884 66.6673 15.474 67.5024C15.3511 67.6694 15.3476 67.866 15.363 68.0924C15.4869 69.9146 16.7235 72.0236 18.8285 73.5891C20.4807 74.8178 21.3622 74.7408 21.5888 74.7129C21.7222 74.6965 22.1253 74.6563 22.514 74.4801C22.1532 76.1616 21.8378 77.8514 21.5653 79.5482C21.0201 77.65 19.1682 75.2819 17.4204 76.0353C14.319 77.3722 10.6733 75.3186 10.2721 76.2166C10.1677 76.4503 10.2541 76.6912 10.354 76.9526C11.1575 79.0564 13.3767 81.0947 16.4237 82.1771C18.8152 83.0267 19.827 82.616 20.0841 82.501C20.2546 82.4247 20.8169 82.1891 21.2358 81.7519C20.9347 83.9323 20.7038 86.1238 20.5413 88.3248C19.8947 86.9091 18.0733 85.4176 16.3683 84.6486C13.3774 83.2997 9.46556 83.5952 9.03111 84.8348C8.94424 85.0827 9.01277 85.3219 9.11524 85.5902C9.94003 87.7495 12.2177 89.8416 15.3452 90.9526C17.7999 91.8246 18.8383 91.4031 19.1023 91.285C19.2951 91.1987 19.9761 90.9134 20.4104 90.3717C20.3547 91.3892 20.3118 92.4084 20.2846 93.4296C20.2769 93.7204 20.2723 94.0113 20.2667 94.3021C20.2315 94.3592 20.2007 94.4177 20.1803 94.4788C20.0965 94.7283 20.1535 94.9683 20.2519 95.2305C20.2497 95.4152 20.2486 95.5999 20.2473 95.7846C19.7001 95.2872 19.0474 94.5394 18.2622 93.4737C17.5538 92.5121 16.881 93.2176 16.4489 94.0364C15.7714 93.8851 15.1251 93.9787 14.6169 94.4548C11.2088 97.6472 7.38622 95.9535 7.33213 96.9053C7.31654 97.18 7.46325 97.3984 7.64819 97.6353C9.13628 99.5415 12.0576 100.932 15.5282 101.079C18.2521 101.194 19.1618 100.451 19.3896 100.252C19.4697 100.182 19.649 100.03 19.8433 99.8173C19.9993 99.9422 20.1511 100.056 20.3034 100.159C20.3633 101.986 20.4705 103.812 20.6294 105.634C20.5002 105.645 20.3767 105.667 20.2846 105.676C18.9652 105.811 18.5207 104.026 16.5276 103.374C15.8657 103.157 14.5905 102.921 13.9185 103.374C13.8217 103.439 13.4916 103.684 12.9792 103.897C12.6764 104.023 12.4451 104.081 12.3531 104.106C11.5353 104.331 10.7779 104.946 10.2659 105.362C9.30326 106.144 8.82202 106.535 8.59603 107.246C8.52495 107.469 8.32492 108.098 8.59603 108.711C8.72414 109 9.02147 109.431 10.1615 109.862C10.839 110.118 12.8153 110.865 15.1708 110.071C15.7073 109.89 15.2978 109.955 17.3625 108.92C18.9868 108.106 19.9368 107.716 20.0759 106.932C20.1248 106.656 20.0755 106.319 20.2846 106.199C20.4008 106.132 20.5413 106.165 20.6816 106.215C20.8183 107.68 20.989 109.143 21.1958 110.602H19.3371C16.869 110.602 14.6548 111.98 13.5589 114.197L6.60628 128.262C6.16736 129.149 5.9353 130.142 5.9353 131.133V167.299C5.9353 170.865 8.82841 173.766 12.3845 173.766H28.6129C32.169 173.766 35.0621 170.865 35.0621 167.299V133.997C35.0621 133.186 34.9121 132.391 34.6162 131.635L27.9901 114.706C27.1864 112.653 25.4458 111.201 23.3651 110.751C24.0325 109.958 24.7009 109.165 25.3746 108.375C26.2228 108.785 27.1558 109.122 28.1591 109.359C30.813 109.984 31.8455 109.427 32.1067 109.273C32.3562 109.127 33.4374 108.532 33.6207 107.54C33.6403 107.434 33.6479 107.326 33.6465 107.218C36.3651 109.434 37.7832 110.526 38.8193 110.162C39.7101 109.849 40.2186 108.823 40.5098 107.902C40.8139 107.944 41.1364 107.988 41.4801 108.034C45.2034 108.532 47.0797 108.763 47.7974 107.879C48.7907 106.655 47.8479 104.295 47.588 103.645C47.0232 102.231 46.1544 101.371 45.6147 100.848C44.9138 100.168 42.9163 98.2319 39.7716 97.9736C39.0879 97.9174 38.4738 97.9605 37.8481 98.0918C37.6301 97.8918 37.4001 97.6959 37.1467 97.5099C36.664 97.1553 36.1873 96.8926 35.6742 96.6875C36.4613 95.8228 37.2505 94.9608 38.0435 94.1024C38.169 94.1597 38.2882 94.215 38.3977 94.266C40.9954 95.4758 41.5662 96.6604 44.0644 97.2841C45.1978 97.567 46.4809 97.8874 46.7985 97.4058C47.3629 96.5502 44.9675 93.03 41.266 90.6482C41.5156 90.3832 41.7658 90.1191 42.016 89.8549C42.3545 89.9971 42.6527 90.1359 42.9068 90.2543C45.5045 91.4641 46.0753 92.6487 48.5735 93.2724C49.7068 93.5553 50.9899 93.8757 51.3077 93.3941C51.8111 92.6307 49.9584 89.7451 46.9242 87.4401C47.7577 87.1747 48.8628 86.8805 50.294 86.9182C52.4647 86.9755 54.1603 87.7651 55.1669 88.2339C57.7647 89.4437 58.3354 90.6284 60.8336 91.252C61.967 91.535 63.2501 91.8553 63.5677 91.3737C64.4067 90.1018 58.7087 82.9359 51.8927 82.3858C51.3636 82.3431 50.888 82.3467 50.4581 82.3786C50.3987 82.2799 50.3342 82.1786 50.2662 82.0755C52.5724 82.1498 57.0762 81.4887 60.9097 84.1874C62.015 84.9656 64.1623 86.7961 67.756 88.3C68.9045 88.7807 69.4821 89.017 69.6412 88.8196C70.2106 88.1131 65.476 82.2983 58.815 79.4338C56.1741 78.298 54.5424 78.1906 53.3818 78.3626C53.5606 78.1581 53.735 77.9471 53.9028 77.7351C56.4965 75.1844 59.1229 72.6603 61.7729 70.1702C61.6446 70.5679 61.6489 70.7796 61.7889 70.934ZM28.5039 102.681C25.5743 101.73 22.0269 102.241 21.1018 103.323C20.9714 102.364 20.8581 101.404 20.7647 100.442C22.0994 101.189 23.492 101.389 26.1338 101.743C27.259 101.894 28.2128 102.019 29.0196 102.097C29.128 102.392 29.2436 102.657 29.3777 102.911C29.3932 102.94 29.4099 102.968 29.4258 102.997L29.4024 103.024C29.1015 102.893 28.8001 102.777 28.5039 102.681ZM20.7203 89.7977C20.8039 89.5197 20.8056 89.2237 20.7418 88.9186C20.833 87.8131 20.9468 86.711 21.0814 85.6122C21.0779 85.7804 21.1311 85.9487 21.2036 86.1311C22.018 88.1822 24.2187 90.1508 27.2184 91.1721C27.7779 91.3626 28.2579 91.4828 28.6714 91.5561C28.4895 91.874 28.3501 92.1837 28.2578 92.4702C27.2351 91.6464 25.9187 91.0474 24.4251 91.6829C24.0187 91.8559 23.7774 92.4886 23.5679 93.2451C22.1881 93.269 21.0351 93.5577 20.486 94.0461C20.4889 93.8424 20.4879 93.6391 20.4933 93.4351C20.5243 92.2722 20.5814 91.1132 20.662 89.9577C20.684 89.9059 20.7038 89.8528 20.7203 89.7977ZM20.4899 95.7788C20.5493 95.9009 20.6145 96.0224 20.6821 96.1435C20.6207 96.0982 20.5579 96.0494 20.4934 95.9966C20.4917 95.9241 20.4912 95.8514 20.4899 95.7788ZM22.8457 110.662C22.6851 110.641 22.5229 110.625 22.3593 110.616C21.9816 108.736 21.6328 106.857 21.3409 104.975C22.1086 106.196 23.3615 107.315 24.9574 108.163C24.2492 108.994 23.5469 109.827 22.8457 110.662ZM35.2105 96.5209C34.2114 96.1992 33.0391 96.0452 31.4166 95.8563C31.0054 95.2832 30.5816 94.8611 30.2682 94.5574C30.0985 94.3928 29.838 94.0665 29.5005 93.6847C30.3751 93.4032 31.6803 92.9017 33.5247 92.9503C35.201 92.9945 36.5922 93.4751 37.6033 93.9078C36.8024 94.7755 36.0055 95.6469 35.2105 96.5209ZM40.8726 90.402C39.8908 89.8071 38.8261 89.2978 37.7053 88.9398C37.8142 88.9389 37.9209 88.9356 38.0338 88.9386C39.4238 88.9752 40.6176 89.3123 41.5617 89.673C41.3319 89.9159 41.1019 90.1585 40.8726 90.402Z" fill="#CCCCCC"/>
</g>
<defs>
<clipPath id="clip0_217_2958">
<rect width="224" height="179" fill="white"/>
</clipPath>
</defs>
</svg>
